<?xml version="1.0" encoding="UTF-8" standalone="no"?>
<!DOCTYPE svg PUBLIC "-//W3C//DTD SVG 1.1//EN"
 "http://www.w3.org/Graphics/SVG/1.1/DTD/svg11.dtd">
<!-- Generated by graphviz version 8.0.5 (20230430.1635)
 -->
<!-- Title: central.h Pages: 1 -->
<svg width="325pt" height="84pt"
 viewBox="0.00 0.00 324.75 84.00" xmlns="http://www.w3.org/2000/svg" xmlns:xlink="http://www.w3.org/1999/xlink">
<g id="graph0" class="graph" transform="scale(1 1) rotate(0) translate(4 80)">
<title>central.h</title>
<!-- Node1 -->
<g id="Node000001" class="node">
<title>Node1</title>
<g id="a_Node000001"><a xlink:title=" ">
<polygon fill="#999999" stroke="#666666" points="184.75,-76 131.25,-76 131.25,-56 184.75,-56 184.75,-76"/>
<text text-anchor="middle" x="158" y="-62.5" font-family="Helvetica,sans-Serif" font-size="10.00">central.h</text>
</a>
</g>
</g>
<!-- Node2 -->
<g id="Node000002" class="node">
<title>Node2</title>
<g id="a_Node000002"><a xlink:title=" ">
<polygon fill="#e0e0e0" stroke="#999999" points="52,-20 0,-20 0,0 52,0 52,-20"/>
<text text-anchor="middle" x="26" y="-6.5" font-family="Helvetica,sans-Serif" font-size="10.00">QObject</text>
</a>
</g>
</g>
<!-- Node1&#45;&gt;Node2 -->
<g id="edge1_Node000001_Node000002" class="edge">
<title>Node1&#45;&gt;Node2</title>
<g id="a_edge1_Node000001_Node000002"><a xlink:title=" ">
<path fill="none" stroke="#63b8ff" d="M135.01,-55.59C114.03,-47.01 82.79,-34.23 59.12,-24.55"/>
<polygon fill="#63b8ff" stroke="#63b8ff" points="60.75,-21.03 50.17,-20.48 58.1,-27.51 60.75,-21.03"/>
</a>
</g>
</g>
<!-- Node3 -->
<g id="Node000003" class="node">
<title>Node3</title>
<g id="a_Node000003"><a xlink:title=" ">
<polygon fill="#e0e0e0" stroke="#999999" points="119.5,-20 70.5,-20 70.5,0 119.5,0 119.5,-20"/>
<text text-anchor="middle" x="95" y="-6.5" font-family="Helvetica,sans-Serif" font-size="10.00">QString</text>
</a>
</g>
</g>
<!-- Node1&#45;&gt;Node3 -->
<g id="edge2_Node000001_Node000003" class="edge">
<title>Node1&#45;&gt;Node3</title>
<g id="a_edge2_Node000001_Node000003"><a xlink:title=" ">
<path fill="none" stroke="#63b8ff" d="M147.03,-55.59C137.9,-47.77 124.71,-36.46 113.89,-27.19"/>
<polygon fill="#63b8ff" stroke="#63b8ff" points="116.72,-24.15 106.85,-20.3 112.16,-29.46 116.72,-24.15"/>
</a>
</g>
</g>
<!-- Node4 -->
<g id="Node000004" class="node">
<title>Node4</title>
<g id="a_Node000004"><a xlink:title=" ">
<polygon fill="#e0e0e0" stroke="#999999" points="178.75,-20 137.25,-20 137.25,0 178.75,0 178.75,-20"/>
<text text-anchor="middle" x="158" y="-6.5" font-family="Helvetica,sans-Serif" font-size="10.00">vector</text>
</a>
</g>
</g>
<!-- Node1&#45;&gt;Node4 -->
<g id="edge3_Node000001_Node000004" class="edge">
<title>Node1&#45;&gt;Node4</title>
<g id="a_edge3_Node000001_Node000004"><a xlink:title=" ">
<path fill="none" stroke="#63b8ff" d="M158,-55.59C158,-48.86 158,-39.53 158,-31.15"/>
<polygon fill="#63b8ff" stroke="#63b8ff" points="161.5,-31.3 158,-21.3 154.5,-31.3 161.5,-31.3"/>
</a>
</g>
</g>
<!-- Node5 -->
<g id="Node000005" class="node">
<title>Node5</title>
<g id="a_Node000005"><a xlink:title=" ">
<polygon fill="#e0e0e0" stroke="#999999" points="244.75,-20 197.25,-20 197.25,0 244.75,0 244.75,-20"/>
<text text-anchor="middle" x="221" y="-6.5" font-family="Helvetica,sans-Serif" font-size="10.00">QTimer</text>
</a>
</g>
</g>
<!-- Node1&#45;&gt;Node5 -->
<g id="edge4_Node000001_Node000005" class="edge">
<title>Node1&#45;&gt;Node5</title>
<g id="a_edge4_Node000001_Node000005"><a xlink:title=" ">
<path fill="none" stroke="#63b8ff" d="M168.97,-55.59C178.1,-47.77 191.29,-36.46 202.11,-27.19"/>
<polygon fill="#63b8ff" stroke="#63b8ff" points="203.84,-29.46 209.15,-20.3 199.28,-24.15 203.84,-29.46"/>
</a>
</g>
</g>
<!-- Node6 -->
<g id="Node000006" class="node">
<title>Node6</title>
<g id="a_Node000006"><a xlink:href="sensor_8h.html" target="_top" xlink:title=" ">
<polygon fill="white" stroke="#666666" points="316.75,-20 263.25,-20 263.25,0 316.75,0 316.75,-20"/>
<text text-anchor="middle" x="290" y="-6.5" font-family="Helvetica,sans-Serif" font-size="10.00">sensor.h</text>
</a>
</g>
</g>
<!-- Node1&#45;&gt;Node6 -->
<g id="edge5_Node000001_Node000006" class="edge">
<title>Node1&#45;&gt;Node6</title>
<g id="a_edge5_Node000001_Node000006"><a xlink:title=" ">
<path fill="none" stroke="#63b8ff" d="M180.99,-55.59C201.97,-47.01 233.21,-34.23 256.88,-24.55"/>
<polygon fill="#63b8ff" stroke="#63b8ff" points="257.9,-27.51 265.83,-20.48 255.25,-21.03 257.9,-27.51"/>
</a>
</g>
</g>
</g>
</svg>
