<?xml version="1.0" encoding="UTF-8" standalone="no"?>
<!DOCTYPE svg PUBLIC "-//W3C//DTD SVG 1.1//EN"
 "http://www.w3.org/Graphics/SVG/1.1/DTD/svg11.dtd">
<!-- Generated by graphviz version 8.0.5 (20230430.1635)
 -->
<!-- Title: central.h Pages: 1 -->
<svg width="228pt" height="140pt"
 viewBox="0.00 0.00 227.88 140.00" xmlns="http://www.w3.org/2000/svg" xmlns:xlink="http://www.w3.org/1999/xlink">
<g id="graph0" class="graph" transform="scale(1 1) rotate(0) translate(4 136)">
<title>central.h</title>
<!-- Node1 -->
<g id="Node000001" class="node">
<title>Node1</title>
<g id="a_Node000001"><a xlink:title=" ">
<polygon fill="#999999" stroke="#666666" points="149.75,-132 96.25,-132 96.25,-112 149.75,-112 149.75,-132"/>
<text text-anchor="middle" x="123" y="-118.5" font-family="Helvetica,sans-Serif" font-size="10.00">central.h</text>
</a>
</g>
</g>
<!-- Node2 -->
<g id="Node000002" class="node">
<title>Node2</title>
<g id="a_Node000002"><a xlink:href="central_8cpp.html" target="_top" xlink:title=" ">
<polygon fill="white" stroke="#666666" points="64,-76 0,-76 0,-56 64,-56 64,-76"/>
<text text-anchor="middle" x="32" y="-62.5" font-family="Helvetica,sans-Serif" font-size="10.00">central.cpp</text>
</a>
</g>
</g>
<!-- Node1&#45;&gt;Node2 -->
<g id="edge1_Node000001_Node000002" class="edge">
<title>Node1&#45;&gt;Node2</title>
<g id="a_edge1_Node000001_Node000002"><a xlink:title=" ">
<path fill="none" stroke="#63b8ff" d="M97.86,-106.08C81.91,-96.62 61.76,-84.66 47.97,-76.48"/>
<polygon fill="#63b8ff" stroke="#63b8ff" points="95.76,-109.5 106.15,-111.59 99.34,-103.48 95.76,-109.5"/>
</a>
</g>
</g>
<!-- Node3 -->
<g id="Node000003" class="node">
<title>Node3</title>
<g id="a_Node000003"><a xlink:href="housewindow_8h.html" target="_top" xlink:title=" ">
<polygon fill="white" stroke="#666666" points="164,-76 82,-76 82,-56 164,-56 164,-76"/>
<text text-anchor="middle" x="123" y="-62.5" font-family="Helvetica,sans-Serif" font-size="10.00">housewindow.h</text>
</a>
</g>
</g>
<!-- Node1&#45;&gt;Node3 -->
<g id="edge2_Node000001_Node000003" class="edge">
<title>Node1&#45;&gt;Node3</title>
<g id="a_edge2_Node000001_Node000003"><a xlink:title=" ">
<path fill="none" stroke="#63b8ff" d="M123,-100.71C123,-92.32 123,-83.01 123,-76.3"/>
<polygon fill="#63b8ff" stroke="#63b8ff" points="119.5,-100.59 123,-110.59 126.5,-100.59 119.5,-100.59"/>
</a>
</g>
</g>
<!-- Node5 -->
<g id="Node000005" class="node">
<title>Node5</title>
<g id="a_Node000005"><a xlink:href="main_8cpp.html" target="_top" xlink:title=" ">
<polygon fill="white" stroke="#666666" points="219.88,-20 164.12,-20 164.12,0 219.88,0 219.88,-20"/>
<text text-anchor="middle" x="192" y="-6.5" font-family="Helvetica,sans-Serif" font-size="10.00">main.cpp</text>
</a>
</g>
</g>
<!-- Node1&#45;&gt;Node5 -->
<g id="edge5_Node000001_Node000005" class="edge">
<title>Node1&#45;&gt;Node5</title>
<g id="a_edge5_Node000001_Node000005"><a xlink:title=" ">
<path fill="none" stroke="#63b8ff" d="M145.72,-105.09C155.35,-97.31 165.96,-87.2 173,-76 184.14,-58.28 188.97,-33.78 190.89,-20.49"/>
<polygon fill="#63b8ff" stroke="#63b8ff" points="144.09,-102.69 138.28,-111.54 148.35,-108.25 144.09,-102.69"/>
</a>
</g>
</g>
<!-- Node4 -->
<g id="Node000004" class="node">
<title>Node4</title>
<g id="a_Node000004"><a xlink:href="housewindow_8cpp.html" target="_top" xlink:title=" ">
<polygon fill="white" stroke="#666666" points="146.25,-20 53.75,-20 53.75,0 146.25,0 146.25,-20"/>
<text text-anchor="middle" x="100" y="-6.5" font-family="Helvetica,sans-Serif" font-size="10.00">housewindow.cpp</text>
</a>
</g>
</g>
<!-- Node3&#45;&gt;Node4 -->
<g id="edge3_Node000003_Node000004" class="edge">
<title>Node3&#45;&gt;Node4</title>
<g id="a_edge3_Node000003_Node000004"><a xlink:title=" ">
<path fill="none" stroke="#63b8ff" d="M114.73,-45.58C111.06,-36.97 106.92,-27.24 103.96,-20.3"/>
<polygon fill="#63b8ff" stroke="#63b8ff" points="111.85,-46.77 118.99,-54.59 118.3,-44.02 111.85,-46.77"/>
</a>
</g>
</g>
<!-- Node3&#45;&gt;Node5 -->
<g id="edge4_Node000003_Node000005" class="edge">
<title>Node3&#45;&gt;Node5</title>
<g id="a_edge4_Node000003_Node000005"><a xlink:title=" ">
<path fill="none" stroke="#63b8ff" d="M143.5,-48.95C155.44,-39.61 170.07,-28.16 180.12,-20.3"/>
<polygon fill="#63b8ff" stroke="#63b8ff" points="141.74,-46.67 136.02,-55.59 146.05,-52.19 141.74,-46.67"/>
</a>
</g>
</g>
</g>
</svg>
