<?xml version="1.0" encoding="UTF-8" standalone="no"?>
<!DOCTYPE svg PUBLIC "-//W3C//DTD SVG 1.1//EN"
 "http://www.w3.org/Graphics/SVG/1.1/DTD/svg11.dtd">
<!-- Generated by graphviz version 8.0.5 (20230430.1635)
 -->
<!-- Title: HouseWindow::HouseWindow Pages: 1 -->
<!--zoomable 123 -->

<svg id="main" version="1.1" xmlns="http://www.w3.org/2000/svg" xmlns:xlink="http://www.w3.org/1999/xlink" xml:space="preserve" onload="init(evt)">
<style type="text/css"><![CDATA[
.node, .edge {opacity: 0.7;}
.node.selected, .edge.selected {opacity: 1;}
.edge:hover path { stroke: red; }
.edge:hover polygon { stroke: red; fill: red; }
]]></style>

<defs>
  <circle id="rim" cx="0" cy="0" r="7"/>
  <circle id="rim2" cx="0" cy="0" r="3.5"/>
  <g id="zoomPlus">
    <use xlink:href="#rim" fill="#404040"><set attributeName="fill" to="#808080" begin="zoomplus.mouseover" end="zoomplus.mouseout"/></use>
    <path d="M-4,0h8M0,-4v8" fill="none" stroke="white" stroke-width="1.5" pointer-events="none"/>
  </g>
  <g id="zoomMin">
    <use xlink:href="#rim" fill="#404040"><set attributeName="fill" to="#808080" begin="zoomminus.mouseover" end="zoomminus.mouseout"/></use>
    <path d="M-4,0h8" fill="none" stroke="white" stroke-width="1.5" pointer-events="none"/>
  </g>
  <g id="arrowUp" transform="translate(30 24)">
    <use xlink:href="#rim"/>
    <path pointer-events="none" fill="none" stroke="white" stroke-width="1.5" d="M0,-3.0v7 M-2.5,-0.5L0,-3.0L2.5,-0.5"/>
  </g>
  <g id="arrowRight" transform="rotate(90) translate(36 -43)">
    <use xlink:href="#rim"/>
    <path pointer-events="none" fill="none" stroke="white" stroke-width="1.5" d="M0,-3.0v7 M-2.5,-0.5L0,-3.0L2.5,-0.5"/>
  </g>
  <g id="arrowDown" transform="rotate(180) translate(-30 -48)">
    <use xlink:href="#rim"/>
    <path pointer-events="none" fill="none" stroke="white" stroke-width="1.5" d="M0,-3.0v7 M-2.5,-0.5L0,-3.0L2.5,-0.5"/>
  </g>
  <g id="arrowLeft" transform="rotate(270) translate(-36 17)">
    <use xlink:href="#rim"/>
    <path pointer-events="none" fill="none" stroke="white" stroke-width="1.5" d="M0,-3.0v7 M-2.5,-0.5L0,-3.0L2.5,-0.5"/>
  </g>
  <g id="resetDef">
    <use xlink:href="#rim2" fill="#404040"><set attributeName="fill" to="#808080" begin="reset.mouseover" end="reset.mouseout"/></use>
  </g>
</defs>
<script type="application/ecmascript">
var viewWidth = 775;
var viewHeight = 123;
var sectionId = 'dynsection-2';
</script>
<script type="application/ecmascript" xlink:href="svg.min.js"/>
<svg id="graph" class="graph">
<g id="viewport">
<title>HouseWindow::HouseWindow</title>
<!-- Node1 -->
<g id="Node000001" class="node">
<title>Node1</title>
<g id="a_Node000001"><a xlink:title=" ">
<polygon fill="#999999" stroke="#666666" points="146.5,-58 0,-58 0,-38 146.5,-38 146.5,-58"/>
<text text-anchor="middle" x="73.25" y="-44.5" font-family="Helvetica,sans-Serif" font-size="10.00">HouseWindow::HouseWindow</text>
</a>
</g>
</g>
<!-- Node2 -->
<g id="Node000002" class="node">
<title>Node2</title>
<g id="a_Node000002"><a xlink:href="class_house_window.html#a18dbdb869155c26a90b5b89a535d31bd" target="_top" xlink:title=" ">
<polygon fill="white" stroke="#666666" points="330.5,-89 182.5,-89 182.5,-57 330.5,-57 330.5,-89"/>
<text text-anchor="start" x="190.5" y="-75.5" font-family="Helvetica,sans-Serif" font-size="10.00">HouseWindow::activateSensor</text>
<text text-anchor="middle" x="256.5" y="-63.5" font-family="Helvetica,sans-Serif" font-size="10.00">Clicked</text>
</a>
</g>
</g>
<!-- Node1&#45;&gt;Node2 -->
<g id="edge1_Node000001_Node000002" class="edge">
<title>Node1&#45;&gt;Node2</title>
<g id="a_edge1_Node000001_Node000002"><a xlink:title=" ">
<path fill="none" stroke="#63b8ff" d="M146.93,-58.02C155.01,-59.14 163.29,-60.28 171.49,-61.41"/>
<polygon fill="#63b8ff" stroke="#63b8ff" points="170.83,-64.99 181.22,-62.89 171.79,-58.06 170.83,-64.99"/>
</a>
</g>
</g>
<!-- Node8 -->
<g id="Node000008" class="node">
<title>Node8</title>
<g id="a_Node000008"><a xlink:href="class_house_window.html#aa0728cc945da23a28c8e89b1a4041275" target="_top" xlink:title=" ">
<polygon fill="white" stroke="#666666" points="323,-39 190,-39 190,-7 323,-7 323,-39"/>
<text text-anchor="start" x="198" y="-25.5" font-family="Helvetica,sans-Serif" font-size="10.00">HouseWindow::desactivate</text>
<text text-anchor="middle" x="256.5" y="-13.5" font-family="Helvetica,sans-Serif" font-size="10.00">SensorClicked</text>
</a>
</g>
</g>
<!-- Node1&#45;&gt;Node8 -->
<g id="edge7_Node000001_Node000008" class="edge">
<title>Node1&#45;&gt;Node8</title>
<g id="a_edge7_Node000001_Node000008"><a xlink:title=" ">
<path fill="none" stroke="#63b8ff" d="M146.93,-37.98C157.38,-36.53 168.16,-35.05 178.69,-33.59"/>
<polygon fill="#63b8ff" stroke="#63b8ff" points="179.12,-36.93 188.55,-32.1 178.17,-30 179.12,-36.93"/>
</a>
</g>
</g>
<!-- Node3 -->
<g id="Node000003" class="node">
<title>Node3</title>
<g id="a_Node000003"><a xlink:href="class_central.html#a76f3835048926b3c7a15b0e21ca5ac68" target="_top" xlink:title=" ">
<polygon fill="white" stroke="#666666" points="457.88,-58 368.38,-58 368.38,-38 457.88,-38 457.88,-58"/>
<text text-anchor="middle" x="413.12" y="-44.5" font-family="Helvetica,sans-Serif" font-size="10.00">Central::getLabel</text>
</a>
</g>
</g>
<!-- Node2&#45;&gt;Node3 -->
<g id="edge2_Node000002_Node000003" class="edge">
<title>Node2&#45;&gt;Node3</title>
<g id="a_edge2_Node000002_Node000003"><a xlink:title=" ">
<path fill="none" stroke="#63b8ff" d="M330.74,-61.16C339.74,-59.7 348.81,-58.24 357.47,-56.84"/>
<polygon fill="#63b8ff" stroke="#63b8ff" points="357.87,-60.16 367.18,-55.1 356.75,-53.25 357.87,-60.16"/>
</a>
</g>
</g>
<!-- Node4 -->
<g id="Node000004" class="node">
<title>Node4</title>
<g id="a_Node000004"><a xlink:href="class_central.html#a0e21a755f86da9476aa543cd3958fad4" target="_top" xlink:title=" ">
<polygon fill="white" stroke="#666666" points="459.75,-96 366.5,-96 366.5,-76 459.75,-76 459.75,-96"/>
<text text-anchor="middle" x="413.12" y="-82.5" font-family="Helvetica,sans-Serif" font-size="10.00">Central::perimeter</text>
</a>
</g>
</g>
<!-- Node2&#45;&gt;Node4 -->
<g id="edge3_Node000002_Node000004" class="edge">
<title>Node2&#45;&gt;Node4</title>
<g id="a_edge3_Node000002_Node000004"><a xlink:title=" ">
<path fill="none" stroke="#63b8ff" d="M330.74,-79.16C339,-79.85 347.33,-80.55 355.34,-81.23"/>
<polygon fill="#63b8ff" stroke="#63b8ff" points="354.77,-84.77 365.03,-82.12 355.36,-77.8 354.77,-84.77"/>
</a>
</g>
</g>
<!-- Node5 -->
<g id="Node000005" class="node">
<title>Node5</title>
<g id="a_Node000005"><a xlink:href="class_central.html#a5c7be0ff86909135d83e97bf19e77e5b" target="_top" xlink:title=" ">
<polygon fill="white" stroke="#666666" points="601,-96 495.75,-96 495.75,-76 601,-76 601,-96"/>
<text text-anchor="middle" x="548.38" y="-82.5" font-family="Helvetica,sans-Serif" font-size="10.00">Central::checkZones</text>
</a>
</g>
</g>
<!-- Node4&#45;&gt;Node5 -->
<g id="edge4_Node000004_Node000005" class="edge">
<title>Node4&#45;&gt;Node5</title>
<g id="a_edge4_Node000004_Node000005"><a xlink:title=" ">
<path fill="none" stroke="#63b8ff" d="M459.98,-86C467.94,-86 476.33,-86 484.65,-86"/>
<polygon fill="#63b8ff" stroke="#63b8ff" points="484.49,-89.5 494.49,-86 484.49,-82.5 484.49,-89.5"/>
</a>
</g>
</g>
<!-- Node6 -->
<g id="Node000006" class="node">
<title>Node6</title>
<g id="a_Node000006"><a xlink:href="class_central.html#a6d6decbdb1c66b9b2b34626f93d52b58" target="_top" xlink:title=" ">
<polygon fill="white" stroke="#666666" points="767,-115 637,-115 637,-95 767,-95 767,-115"/>
<text text-anchor="middle" x="702" y="-101.5" font-family="Helvetica,sans-Serif" font-size="10.00">Central::checkCloseZones</text>
</a>
</g>
</g>
<!-- Node5&#45;&gt;Node6 -->
<g id="edge5_Node000005_Node000006" class="edge">
<title>Node5&#45;&gt;Node6</title>
<g id="a_edge5_Node000005_Node000006"><a xlink:title=" ">
<path fill="none" stroke="#63b8ff" d="M601.13,-92.49C609.07,-93.48 617.39,-94.52 625.71,-95.57"/>
<polygon fill="#63b8ff" stroke="#63b8ff" points="625.25,-99.16 635.6,-96.93 626.12,-92.21 625.25,-99.16"/>
</a>
</g>
</g>
<!-- Node7 -->
<g id="Node000007" class="node">
<title>Node7</title>
<g id="a_Node000007"><a xlink:href="class_central.html#a5db18ec0ac455c386758ff4071bdd510" target="_top" xlink:title=" ">
<polygon fill="white" stroke="#666666" points="757.62,-77 646.38,-77 646.38,-57 757.62,-57 757.62,-77"/>
<text text-anchor="middle" x="702" y="-63.5" font-family="Helvetica,sans-Serif" font-size="10.00">Central::labelChanged</text>
</a>
</g>
</g>
<!-- Node5&#45;&gt;Node7 -->
<g id="edge6_Node000005_Node000007" class="edge">
<title>Node5&#45;&gt;Node7</title>
<g id="a_edge6_Node000005_Node000007"><a xlink:title=" ">
<path fill="none" stroke="#63b8ff" d="M601.13,-79.51C612.12,-78.14 623.86,-76.67 635.29,-75.23"/>
<polygon fill="#63b8ff" stroke="#63b8ff" points="635.62,-78.59 645.11,-73.88 634.75,-71.65 635.62,-78.59"/>
</a>
</g>
</g>
<!-- Node8&#45;&gt;Node3 -->
<g id="edge9_Node000008_Node000003" class="edge">
<title>Node8&#45;&gt;Node3</title>
<g id="a_edge9_Node000008_Node000003"><a xlink:title=" ">
<path fill="none" stroke="#63b8ff" d="M323.07,-33.6C334.43,-35.44 346.14,-37.33 357.18,-39.12"/>
<polygon fill="#63b8ff" stroke="#63b8ff" points="356.53,-42.72 366.96,-40.86 357.64,-35.81 356.53,-42.72"/>
</a>
</g>
</g>
<!-- Node9 -->
<g id="Node000009" class="node">
<title>Node9</title>
<g id="a_Node000009"><a xlink:href="class_central.html#af9d9bf3e36662a887c742856af0831f5" target="_top" xlink:title=" ">
<polygon fill="white" stroke="#666666" points="454.12,-20 372.12,-20 372.12,0 454.12,0 454.12,-20"/>
<text text-anchor="middle" x="413.12" y="-6.5" font-family="Helvetica,sans-Serif" font-size="10.00">Central::disarm</text>
</a>
</g>
</g>
<!-- Node8&#45;&gt;Node9 -->
<g id="edge8_Node000008_Node000009" class="edge">
<title>Node8&#45;&gt;Node9</title>
<g id="a_edge8_Node000008_Node000009"><a xlink:title=" ">
<path fill="none" stroke="#63b8ff" d="M323.07,-17.49C335.8,-16.42 348.97,-15.31 361.14,-14.29"/>
<polygon fill="#63b8ff" stroke="#63b8ff" points="361.34,-17.7 371.01,-13.37 360.75,-10.72 361.34,-17.7"/>
</a>
</g>
</g>
</g>
</svg>

<g id="navigator" transform="translate(0 0)" fill="#404254">
  <rect fill="#f2f5e9" fill-opacity="0.5" stroke="#606060" stroke-width=".5" x="0" y="0" width="60" height="60"/>
  <use id="zoomplus" xlink:href="#zoomPlus" x="17" y="9" onmousedown="handleZoom(evt,'in')"/>
  <use id="zoomminus" xlink:href="#zoomMin" x="42" y="9" onmousedown="handleZoom(evt,'out')"/>
  <use id="reset" xlink:href="#resetDef" x="30" y="36" onmousedown="handleReset()"/>
   <use id="arrowup" xlink:href="#arrowUp" x="0" y="0" onmousedown="handlePan(0,-1)"/>
  <use id="arrowright" xlink:href="#arrowRight" x="0" y="0" onmousedown="handlePan(1,0)"/>
  <use id="arrowdown" xlink:href="#arrowDown" x="0" y="0" onmousedown="handlePan(0,1)"/>
  <use id="arrowleft" xlink:href="#arrowLeft" x="0" y="0" onmousedown="handlePan(-1,0)"/>
</g>
<svg viewBox="0 0 15 15" width="100%" height="30px" preserveAspectRatio="xMaxYMin meet">
 <g id="arrow_out" transform="scale(0.3 0.3)">
  <a xlink:href="class_house_window_a8e5eeed0472a24b8554624766fc31e57_cgraph_org.svg" target="_base">
   <rect id="button" ry="5" rx="5" y="6" x="6" height="38" width="38"
        fill="#f2f5e9" fill-opacity="0.5" stroke="#606060" stroke-width="1.0"/>
   <path id="arrow"
     d="M 11.500037,31.436501 C 11.940474,20.09759 22.043105,11.32322 32.158766,21.979434 L 37.068811,17.246167 C 37.068811,17.246167 37.088388,32 37.088388,32 L 22.160133,31.978069 C 22.160133,31.978069 26.997745,27.140456 26.997745,27.140456 C 18.528582,18.264221 13.291696,25.230495 11.500037,31.436501 z"
     style="fill:#404040;"/>
  </a>
 </g>
</svg>

<style type='text/css'>
<![CDATA[
[data-mouse-over-selected='false'] { opacity: 0.7; }
[data-mouse-over-selected='true']  { opacity: 1.0; }
]]>
</style>
<script type="application/ecmascript"><![CDATA[
document.addEventListener('DOMContentLoaded', (event) => {
  highlightEdges();
  highlightAdjacentNodes();
});
]]></script>
</svg>
