<?xml version="1.0" encoding="UTF-8" standalone="no"?>
<!DOCTYPE svg PUBLIC "-//W3C//DTD SVG 1.1//EN"
 "http://www.w3.org/Graphics/SVG/1.1/DTD/svg11.dtd">
<!-- Generated by graphviz version 8.0.5 (20230430.1635)
 -->
<!-- Title: WindowView::mousePressEvent Pages: 1 -->
<svg width="756pt" height="154pt"
 viewBox="0.00 0.00 755.50 154.00" xmlns="http://www.w3.org/2000/svg" xmlns:xlink="http://www.w3.org/1999/xlink">
<g id="graph0" class="graph" transform="scale(1 1) rotate(0) translate(4 150)">
<title>WindowView::mousePressEvent</title>
<!-- Node1 -->
<g id="Node000001" class="node">
<title>Node1</title>
<g id="a_Node000001"><a xlink:title=" ">
<polygon fill="#999999" stroke="#666666" points="156.25,-86 0,-86 0,-66 156.25,-66 156.25,-86"/>
<text text-anchor="middle" x="78.12" y="-72.5" font-family="Helvetica,sans-Serif" font-size="10.00">WindowView::mousePressEvent</text>
</a>
</g>
</g>
<!-- Node2 -->
<g id="Node000002" class="node">
<title>Node2</title>
<g id="a_Node000002"><a xlink:href="class_window.html#a01150b51096d19c88e81ab1edd6ca272" target="_top" xlink:title=" ">
<polygon fill="white" stroke="#666666" points="303.5,-86 192.25,-86 192.25,-66 303.5,-66 303.5,-86"/>
<text text-anchor="middle" x="247.88" y="-72.5" font-family="Helvetica,sans-Serif" font-size="10.00">Window::changeState</text>
</a>
</g>
</g>
<!-- Node1&#45;&gt;Node2 -->
<g id="edge1_Node000001_Node000002" class="edge">
<title>Node1&#45;&gt;Node2</title>
<g id="a_edge1_Node000001_Node000002"><a xlink:title=" ">
<path fill="none" stroke="#63b8ff" d="M156.62,-76C164.88,-76 173.23,-76 181.33,-76"/>
<polygon fill="#63b8ff" stroke="#63b8ff" points="181.2,-79.5 191.2,-76 181.2,-72.5 181.2,-79.5"/>
</a>
</g>
</g>
<!-- Node3 -->
<g id="Node000003" class="node">
<title>Node3</title>
<g id="a_Node000003"><a xlink:href="class_window_view.html#a3665d1621ba2e3d974ccee3769ac9395" target="_top" xlink:title=" ">
<polygon fill="white" stroke="#666666" points="477.38,-146 361.62,-146 361.62,-126 477.38,-126 477.38,-146"/>
<text text-anchor="middle" x="419.5" y="-132.5" font-family="Helvetica,sans-Serif" font-size="10.00">WindowView::setClose</text>
</a>
</g>
</g>
<!-- Node2&#45;&gt;Node3 -->
<g id="edge2_Node000002_Node000003" class="edge">
<title>Node2&#45;&gt;Node3</title>
<g id="a_edge2_Node000002_Node000003"><a xlink:title=" ">
<path fill="none" stroke="#63b8ff" d="M268.94,-86.41C287.02,-95.46 314.51,-108.43 339.5,-117 345.63,-119.1 352.1,-121.06 358.6,-122.86"/>
<polygon fill="#63b8ff" stroke="#63b8ff" points="357.22,-126.38 367.78,-125.56 359.01,-119.62 357.22,-126.38"/>
</a>
</g>
</g>
<!-- Node4 -->
<g id="Node000004" class="node">
<title>Node4</title>
<g id="a_Node000004"><a xlink:href="class_window_view.html#a585e95ab6bcb4f0fdb412b858a09e687" target="_top" xlink:title=" ">
<polygon fill="white" stroke="#666666" points="476.62,-108 362.38,-108 362.38,-88 476.62,-88 476.62,-108"/>
<text text-anchor="middle" x="419.5" y="-94.5" font-family="Helvetica,sans-Serif" font-size="10.00">WindowView::setOpen</text>
</a>
</g>
</g>
<!-- Node2&#45;&gt;Node4 -->
<g id="edge3_Node000002_Node000004" class="edge">
<title>Node2&#45;&gt;Node4</title>
<g id="a_edge3_Node000002_Node000004"><a xlink:title=" ">
<path fill="none" stroke="#63b8ff" d="M303.95,-83.14C319.04,-85.1 335.57,-87.24 351.26,-89.28"/>
<polygon fill="#63b8ff" stroke="#63b8ff" points="350.59,-92.85 360.96,-90.67 351.49,-85.91 350.59,-92.85"/>
</a>
</g>
</g>
<!-- Node5 -->
<g id="Node000005" class="node">
<title>Node5</title>
<g id="a_Node000005"><a xlink:href="class_magnetic_sensor.html#a5ceec404413f6e3520ddbbca2b41fdc1" target="_top" xlink:title=" ">
<polygon fill="white" stroke="#666666" points="487.88,-70 351.12,-70 351.12,-38 487.88,-38 487.88,-70"/>
<text text-anchor="start" x="359.12" y="-56.5" font-family="Helvetica,sans-Serif" font-size="10.00">MagneticSensor::setSensor</text>
<text text-anchor="middle" x="419.5" y="-44.5" font-family="Helvetica,sans-Serif" font-size="10.00">Close</text>
</a>
</g>
</g>
<!-- Node2&#45;&gt;Node5 -->
<g id="edge4_Node000002_Node000005" class="edge">
<title>Node2&#45;&gt;Node5</title>
<g id="a_edge4_Node000002_Node000005"><a xlink:title=" ">
<path fill="none" stroke="#63b8ff" d="M303.95,-68.86C315.47,-67.36 327.83,-65.76 340.02,-64.18"/>
<polygon fill="#63b8ff" stroke="#63b8ff" points="340.19,-67.56 349.65,-62.8 339.29,-60.61 340.19,-67.56"/>
</a>
</g>
</g>
<!-- Node8 -->
<g id="Node000008" class="node">
<title>Node8</title>
<g id="a_Node000008"><a xlink:href="class_magnetic_sensor.html#ac502781def2eff7748530b0f21099307" target="_top" xlink:title=" ">
<polygon fill="white" stroke="#666666" points="499.5,-20 339.5,-20 339.5,0 499.5,0 499.5,-20"/>
<text text-anchor="middle" x="419.5" y="-6.5" font-family="Helvetica,sans-Serif" font-size="10.00">MagneticSensor::setSensorOpen</text>
</a>
</g>
</g>
<!-- Node2&#45;&gt;Node8 -->
<g id="edge7_Node000002_Node000008" class="edge">
<title>Node2&#45;&gt;Node8</title>
<g id="a_edge7_Node000002_Node000008"><a xlink:title=" ">
<path fill="none" stroke="#63b8ff" d="M266.01,-65.51C283.81,-55 312.77,-38.98 339.5,-29 344.95,-26.97 350.7,-25.09 356.5,-23.38"/>
<polygon fill="#63b8ff" stroke="#63b8ff" points="357.26,-26.53 365.96,-20.48 355.39,-19.78 357.26,-26.53"/>
</a>
</g>
</g>
<!-- Node6 -->
<g id="Node000006" class="node">
<title>Node6</title>
<g id="a_Node000006"><a xlink:href="class_sensor.html#acacc74ce0d13c69a3c72248fb65da51e" target="_top" xlink:title=" ">
<polygon fill="white" stroke="#666666" points="626.5,-42 535.5,-42 535.5,-22 626.5,-22 626.5,-42"/>
<text text-anchor="middle" x="581" y="-28.5" font-family="Helvetica,sans-Serif" font-size="10.00">Sensor::setClose</text>
</a>
</g>
</g>
<!-- Node5&#45;&gt;Node6 -->
<g id="edge5_Node000005_Node000006" class="edge">
<title>Node5&#45;&gt;Node6</title>
<g id="a_edge5_Node000005_Node000006"><a xlink:title=" ">
<path fill="none" stroke="#63b8ff" d="M488.14,-44.67C500.36,-42.98 512.97,-41.25 524.79,-39.62"/>
<polygon fill="#63b8ff" stroke="#63b8ff" points="524.95,-42.99 534.38,-38.15 523.99,-36.05 524.95,-42.99"/>
</a>
</g>
</g>
<!-- Node7 -->
<g id="Node000007" class="node">
<title>Node7</title>
<g id="a_Node000007"><a xlink:href="class_sensor.html#ab7230363277330982c3a96821859493a" target="_top" xlink:title=" ">
<polygon fill="white" stroke="#666666" points="747.5,-42 662.5,-42 662.5,-22 747.5,-22 747.5,-42"/>
<text text-anchor="middle" x="705" y="-28.5" font-family="Helvetica,sans-Serif" font-size="10.00">Sensor::isClose</text>
</a>
</g>
</g>
<!-- Node6&#45;&gt;Node7 -->
<g id="edge6_Node000006_Node000007" class="edge">
<title>Node6&#45;&gt;Node7</title>
<g id="a_edge6_Node000006_Node000007"><a xlink:title=" ">
<path fill="none" stroke="#63b8ff" d="M626.74,-32C634.68,-32 643.03,-32 651.18,-32"/>
<polygon fill="#63b8ff" stroke="#63b8ff" points="651.11,-35.5 661.11,-32 651.11,-28.5 651.11,-35.5"/>
</a>
</g>
</g>
<!-- Node8&#45;&gt;Node6 -->
<g id="edge8_Node000008_Node000006" class="edge">
<title>Node8&#45;&gt;Node6</title>
<g id="a_edge8_Node000008_Node000006"><a xlink:title=" ">
<path fill="none" stroke="#63b8ff" d="M496.51,-20.48C505.98,-21.79 515.52,-23.11 524.6,-24.36"/>
<polygon fill="#63b8ff" stroke="#63b8ff" points="524.01,-27.95 534.4,-25.85 524.97,-21.01 524.01,-27.95"/>
</a>
</g>
</g>
</g>
</svg>
