<?xml version="1.0" encoding="UTF-8" standalone="no"?>
<!DOCTYPE svg PUBLIC "-//W3C//DTD SVG 1.1//EN"
 "http://www.w3.org/Graphics/SVG/1.1/DTD/svg11.dtd">
<!-- Generated by graphviz version 8.0.5 (20230430.1635)
 -->
<!-- Title: Window::changeState Pages: 1 -->
<svg width="563pt" height="154pt"
 viewBox="0.00 0.00 563.25 154.00" xmlns="http://www.w3.org/2000/svg" xmlns:xlink="http://www.w3.org/1999/xlink">
<g id="graph0" class="graph" transform="scale(1 1) rotate(0) translate(4 150)">
<title>Window::changeState</title>
<!-- Node1 -->
<g id="Node000001" class="node">
<title>Node1</title>
<g id="a_Node000001"><a xlink:title=" ">
<polygon fill="#999999" stroke="#666666" points="111.25,-86 0,-86 0,-66 111.25,-66 111.25,-86"/>
<text text-anchor="middle" x="55.62" y="-72.5" font-family="Helvetica,sans-Serif" font-size="10.00">Window::changeState</text>
</a>
</g>
</g>
<!-- Node2 -->
<g id="Node000002" class="node">
<title>Node2</title>
<g id="a_Node000002"><a xlink:href="class_window_view.html#a3665d1621ba2e3d974ccee3769ac9395" target="_top" xlink:title=" ">
<polygon fill="white" stroke="#666666" points="285.12,-146 169.38,-146 169.38,-126 285.12,-126 285.12,-146"/>
<text text-anchor="middle" x="227.25" y="-132.5" font-family="Helvetica,sans-Serif" font-size="10.00">WindowView::setClose</text>
</a>
</g>
</g>
<!-- Node1&#45;&gt;Node2 -->
<g id="edge1_Node000001_Node000002" class="edge">
<title>Node1&#45;&gt;Node2</title>
<g id="a_edge1_Node000001_Node000002"><a xlink:title=" ">
<path fill="none" stroke="#63b8ff" d="M76.69,-86.41C94.77,-95.46 122.26,-108.43 147.25,-117 153.38,-119.1 159.85,-121.06 166.35,-122.86"/>
<polygon fill="#63b8ff" stroke="#63b8ff" points="164.97,-126.38 175.53,-125.56 166.76,-119.62 164.97,-126.38"/>
</a>
</g>
</g>
<!-- Node3 -->
<g id="Node000003" class="node">
<title>Node3</title>
<g id="a_Node000003"><a xlink:href="class_window_view.html#a585e95ab6bcb4f0fdb412b858a09e687" target="_top" xlink:title=" ">
<polygon fill="white" stroke="#666666" points="284.38,-108 170.12,-108 170.12,-88 284.38,-88 284.38,-108"/>
<text text-anchor="middle" x="227.25" y="-94.5" font-family="Helvetica,sans-Serif" font-size="10.00">WindowView::setOpen</text>
</a>
</g>
</g>
<!-- Node1&#45;&gt;Node3 -->
<g id="edge2_Node000001_Node000003" class="edge">
<title>Node1&#45;&gt;Node3</title>
<g id="a_edge2_Node000001_Node000003"><a xlink:title=" ">
<path fill="none" stroke="#63b8ff" d="M111.7,-83.14C126.79,-85.1 143.32,-87.24 159.01,-89.28"/>
<polygon fill="#63b8ff" stroke="#63b8ff" points="158.34,-92.85 168.71,-90.67 159.24,-85.91 158.34,-92.85"/>
</a>
</g>
</g>
<!-- Node4 -->
<g id="Node000004" class="node">
<title>Node4</title>
<g id="a_Node000004"><a xlink:href="class_magnetic_sensor.html#a5ceec404413f6e3520ddbbca2b41fdc1" target="_top" xlink:title=" ">
<polygon fill="white" stroke="#666666" points="295.62,-70 158.88,-70 158.88,-38 295.62,-38 295.62,-70"/>
<text text-anchor="start" x="166.88" y="-56.5" font-family="Helvetica,sans-Serif" font-size="10.00">MagneticSensor::setSensor</text>
<text text-anchor="middle" x="227.25" y="-44.5" font-family="Helvetica,sans-Serif" font-size="10.00">Close</text>
</a>
</g>
</g>
<!-- Node1&#45;&gt;Node4 -->
<g id="edge3_Node000001_Node000004" class="edge">
<title>Node1&#45;&gt;Node4</title>
<g id="a_edge3_Node000001_Node000004"><a xlink:title=" ">
<path fill="none" stroke="#63b8ff" d="M111.7,-68.86C123.22,-67.36 135.58,-65.76 147.77,-64.18"/>
<polygon fill="#63b8ff" stroke="#63b8ff" points="147.94,-67.56 157.4,-62.8 147.04,-60.61 147.94,-67.56"/>
</a>
</g>
</g>
<!-- Node7 -->
<g id="Node000007" class="node">
<title>Node7</title>
<g id="a_Node000007"><a xlink:href="class_magnetic_sensor.html#ac502781def2eff7748530b0f21099307" target="_top" xlink:title=" ">
<polygon fill="white" stroke="#666666" points="307.25,-20 147.25,-20 147.25,0 307.25,0 307.25,-20"/>
<text text-anchor="middle" x="227.25" y="-6.5" font-family="Helvetica,sans-Serif" font-size="10.00">MagneticSensor::setSensorOpen</text>
</a>
</g>
</g>
<!-- Node1&#45;&gt;Node7 -->
<g id="edge6_Node000001_Node000007" class="edge">
<title>Node1&#45;&gt;Node7</title>
<g id="a_edge6_Node000001_Node000007"><a xlink:title=" ">
<path fill="none" stroke="#63b8ff" d="M73.76,-65.51C91.56,-55 120.52,-38.98 147.25,-29 152.7,-26.97 158.45,-25.09 164.25,-23.38"/>
<polygon fill="#63b8ff" stroke="#63b8ff" points="165.01,-26.53 173.71,-20.48 163.14,-19.78 165.01,-26.53"/>
</a>
</g>
</g>
<!-- Node5 -->
<g id="Node000005" class="node">
<title>Node5</title>
<g id="a_Node000005"><a xlink:href="class_sensor.html#acacc74ce0d13c69a3c72248fb65da51e" target="_top" xlink:title=" ">
<polygon fill="white" stroke="#666666" points="434.25,-42 343.25,-42 343.25,-22 434.25,-22 434.25,-42"/>
<text text-anchor="middle" x="388.75" y="-28.5" font-family="Helvetica,sans-Serif" font-size="10.00">Sensor::setClose</text>
</a>
</g>
</g>
<!-- Node4&#45;&gt;Node5 -->
<g id="edge4_Node000004_Node000005" class="edge">
<title>Node4&#45;&gt;Node5</title>
<g id="a_edge4_Node000004_Node000005"><a xlink:title=" ">
<path fill="none" stroke="#63b8ff" d="M295.89,-44.67C308.11,-42.98 320.72,-41.25 332.54,-39.62"/>
<polygon fill="#63b8ff" stroke="#63b8ff" points="332.7,-42.99 342.13,-38.15 331.74,-36.05 332.7,-42.99"/>
</a>
</g>
</g>
<!-- Node6 -->
<g id="Node000006" class="node">
<title>Node6</title>
<g id="a_Node000006"><a xlink:href="class_sensor.html#ab7230363277330982c3a96821859493a" target="_top" xlink:title=" ">
<polygon fill="white" stroke="#666666" points="555.25,-42 470.25,-42 470.25,-22 555.25,-22 555.25,-42"/>
<text text-anchor="middle" x="512.75" y="-28.5" font-family="Helvetica,sans-Serif" font-size="10.00">Sensor::isClose</text>
</a>
</g>
</g>
<!-- Node5&#45;&gt;Node6 -->
<g id="edge5_Node000005_Node000006" class="edge">
<title>Node5&#45;&gt;Node6</title>
<g id="a_edge5_Node000005_Node000006"><a xlink:title=" ">
<path fill="none" stroke="#63b8ff" d="M434.49,-32C442.43,-32 450.78,-32 458.93,-32"/>
<polygon fill="#63b8ff" stroke="#63b8ff" points="458.86,-35.5 468.86,-32 458.86,-28.5 458.86,-35.5"/>
</a>
</g>
</g>
<!-- Node7&#45;&gt;Node5 -->
<g id="edge7_Node000007_Node000005" class="edge">
<title>Node7&#45;&gt;Node5</title>
<g id="a_edge7_Node000007_Node000005"><a xlink:title=" ">
<path fill="none" stroke="#63b8ff" d="M304.26,-20.48C313.73,-21.79 323.27,-23.11 332.35,-24.36"/>
<polygon fill="#63b8ff" stroke="#63b8ff" points="331.76,-27.95 342.15,-25.85 332.72,-21.01 331.76,-27.95"/>
</a>
</g>
</g>
</g>
</svg>
