<?xml version="1.0" encoding="UTF-8" standalone="no"?>
<!DOCTYPE svg PUBLIC "-//W3C//DTD SVG 1.1//EN"
 "http://www.w3.org/Graphics/SVG/1.1/DTD/svg11.dtd">
<!-- Generated by graphviz version 8.0.5 (20230430.1635)
 -->
<!-- Title: WindowView::WindowView Pages: 1 -->
<svg width="478pt" height="122pt"
 viewBox="0.00 0.00 477.50 122.00" xmlns="http://www.w3.org/2000/svg" xmlns:xlink="http://www.w3.org/1999/xlink">
<g id="graph0" class="graph" transform="scale(1 1) rotate(0) translate(4 118)">
<title>WindowView::WindowView</title>
<!-- Node1 -->
<g id="Node000001" class="node">
<title>Node1</title>
<g id="a_Node000001"><a xlink:title=" ">
<polygon fill="#999999" stroke="#666666" points="133,-64 0,-64 0,-44 133,-44 133,-64"/>
<text text-anchor="middle" x="66.5" y="-50.5" font-family="Helvetica,sans-Serif" font-size="10.00">WindowView::WindowView</text>
</a>
</g>
</g>
<!-- Node2 -->
<g id="Node000002" class="node">
<title>Node2</title>
<g id="a_Node000002"><a xlink:href="class_magnetic_sensor_view.html#a02ee42e106e5647ff1abb8d7dc965e27" target="_top" xlink:title=" ">
<polygon fill="white" stroke="#666666" points="469.5,-114 362,-114 362,-82 469.5,-82 469.5,-114"/>
<text text-anchor="start" x="370" y="-100.5" font-family="Helvetica,sans-Serif" font-size="10.00">MagneticSensorView</text>
<text text-anchor="middle" x="415.75" y="-88.5" font-family="Helvetica,sans-Serif" font-size="10.00">::getMagnetView</text>
</a>
</g>
</g>
<!-- Node1&#45;&gt;Node2 -->
<g id="edge1_Node000001_Node000002" class="edge">
<title>Node1&#45;&gt;Node2</title>
<g id="a_edge1_Node000001_Node000002"><a xlink:title=" ">
<path fill="none" stroke="#63b8ff" d="M103.85,-64.49C123.06,-69.64 147.14,-75.49 169,-79 230.28,-88.85 301,-93.63 350.8,-95.94"/>
<polygon fill="#63b8ff" stroke="#63b8ff" points="350.58,-99.47 360.72,-96.42 350.89,-92.48 350.58,-99.47"/>
</a>
</g>
</g>
<!-- Node3 -->
<g id="Node000003" class="node">
<title>Node3</title>
<g id="a_Node000003"><a xlink:href="class_window_view.html#a53f0f8a3b2d70717d7cde5e57caf3d82" target="_top" xlink:title=" ">
<polygon fill="white" stroke="#666666" points="318.88,-70 176.12,-70 176.12,-38 318.88,-38 318.88,-70"/>
<text text-anchor="start" x="184.12" y="-56.5" font-family="Helvetica,sans-Serif" font-size="10.00">WindowView::installMagnetic</text>
<text text-anchor="middle" x="247.5" y="-44.5" font-family="Helvetica,sans-Serif" font-size="10.00">Sensor</text>
</a>
</g>
</g>
<!-- Node1&#45;&gt;Node3 -->
<g id="edge2_Node000001_Node000003" class="edge">
<title>Node1&#45;&gt;Node3</title>
<g id="a_edge2_Node000001_Node000003"><a xlink:title=" ">
<path fill="none" stroke="#63b8ff" d="M133.39,-54C143.6,-54 154.25,-54 164.76,-54"/>
<polygon fill="#63b8ff" stroke="#63b8ff" points="164.63,-57.5 174.63,-54 164.63,-50.5 164.63,-57.5"/>
</a>
</g>
</g>
<!-- Node5 -->
<g id="Node000005" class="node">
<title>Node5</title>
<g id="a_Node000005"><a xlink:href="class_window_view.html#a334e3ef73a5f44bfbe97cdf093d52995" target="_top" xlink:title=" ">
<polygon fill="white" stroke="#666666" points="326,-20 169,-20 169,0 326,0 326,-20"/>
<text text-anchor="middle" x="247.5" y="-6.5" font-family="Helvetica,sans-Serif" font-size="10.00">WindowView::makeWindowView</text>
</a>
</g>
</g>
<!-- Node1&#45;&gt;Node5 -->
<g id="edge5_Node000001_Node000005" class="edge">
<title>Node1&#45;&gt;Node5</title>
<g id="a_edge5_Node000001_Node000005"><a xlink:title=" ">
<path fill="none" stroke="#63b8ff" d="M109.97,-43.53C128.15,-39.05 149.61,-33.76 169,-29 176.86,-27.07 185.16,-25.03 193.3,-23.03"/>
<polygon fill="#63b8ff" stroke="#63b8ff" points="193.98,-26.23 202.86,-20.44 192.31,-19.43 193.98,-26.23"/>
</a>
</g>
</g>
<!-- Node3&#45;&gt;Node2 -->
<g id="edge3_Node000003_Node000002" class="edge">
<title>Node3&#45;&gt;Node2</title>
<g id="a_edge3_Node000003_Node000002"><a xlink:title=" ">
<path fill="none" stroke="#63b8ff" d="M310.41,-70.38C323.66,-73.89 337.69,-77.61 351.02,-81.13"/>
<polygon fill="#63b8ff" stroke="#63b8ff" points="349.96,-84.74 360.53,-83.91 351.75,-77.97 349.96,-84.74"/>
</a>
</g>
</g>
<!-- Node4 -->
<g id="Node000004" class="node">
<title>Node4</title>
<g id="a_Node000004"><a xlink:href="class_magnetic_sensor_view.html#a0c3d7ba43abf57a057d86ca8ea84c99b" target="_top" xlink:title=" ">
<polygon fill="white" stroke="#666666" points="469.5,-64 362,-64 362,-32 469.5,-32 469.5,-64"/>
<text text-anchor="start" x="370" y="-50.5" font-family="Helvetica,sans-Serif" font-size="10.00">MagneticSensorView</text>
<text text-anchor="middle" x="415.75" y="-38.5" font-family="Helvetica,sans-Serif" font-size="10.00">::getSwitchView</text>
</a>
</g>
</g>
<!-- Node3&#45;&gt;Node4 -->
<g id="edge4_Node000003_Node000004" class="edge">
<title>Node3&#45;&gt;Node4</title>
<g id="a_edge4_Node000003_Node000004"><a xlink:title=" ">
<path fill="none" stroke="#63b8ff" d="M319,-51.46C329.58,-51.07 340.43,-50.68 350.86,-50.31"/>
<polygon fill="#63b8ff" stroke="#63b8ff" points="350.67,-53.78 360.54,-49.92 350.42,-46.78 350.67,-53.78"/>
</a>
</g>
</g>
</g>
</svg>
