<?xml version="1.0" encoding="UTF-8" standalone="no"?>
<!DOCTYPE svg PUBLIC "-//W3C//DTD SVG 1.1//EN"
 "http://www.w3.org/Graphics/SVG/1.1/DTD/svg11.dtd">
<!-- Generated by graphviz version 8.0.5 (20230430.1635)
 -->
<!-- Title: HouseWindow::HouseWindow Pages: 1 -->
<svg width="775pt" height="123pt"
 viewBox="0.00 0.00 775.00 123.00" xmlns="http://www.w3.org/2000/svg" xmlns:xlink="http://www.w3.org/1999/xlink">
<g id="graph0" class="graph" transform="scale(1 1) rotate(0) translate(4 119)">
<title>HouseWindow::HouseWindow</title>
<!-- Node1 -->
<g id="Node000001" class="node">
<title>Node1</title>
<g id="a_Node000001"><a xlink:title=" ">
<polygon fill="#999999" stroke="#666666" points="146.5,-58 0,-58 0,-38 146.5,-38 146.5,-58"/>
<text text-anchor="middle" x="73.25" y="-44.5" font-family="Helvetica,sans-Serif" font-size="10.00">HouseWindow::HouseWindow</text>
</a>
</g>
</g>
<!-- Node2 -->
<g id="Node000002" class="node">
<title>Node2</title>
<g id="a_Node000002"><a xlink:href="class_house_window.html#a18dbdb869155c26a90b5b89a535d31bd" target="_top" xlink:title=" ">
<polygon fill="white" stroke="#666666" points="330.5,-89 182.5,-89 182.5,-57 330.5,-57 330.5,-89"/>
<text text-anchor="start" x="190.5" y="-75.5" font-family="Helvetica,sans-Serif" font-size="10.00">HouseWindow::activateSensor</text>
<text text-anchor="middle" x="256.5" y="-63.5" font-family="Helvetica,sans-Serif" font-size="10.00">Clicked</text>
</a>
</g>
</g>
<!-- Node1&#45;&gt;Node2 -->
<g id="edge1_Node000001_Node000002" class="edge">
<title>Node1&#45;&gt;Node2</title>
<g id="a_edge1_Node000001_Node000002"><a xlink:title=" ">
<path fill="none" stroke="#63b8ff" d="M146.93,-58.02C155.01,-59.14 163.29,-60.28 171.49,-61.41"/>
<polygon fill="#63b8ff" stroke="#63b8ff" points="170.83,-64.99 181.22,-62.89 171.79,-58.06 170.83,-64.99"/>
</a>
</g>
</g>
<!-- Node8 -->
<g id="Node000008" class="node">
<title>Node8</title>
<g id="a_Node000008"><a xlink:href="class_house_window.html#aa0728cc945da23a28c8e89b1a4041275" target="_top" xlink:title=" ">
<polygon fill="white" stroke="#666666" points="323,-39 190,-39 190,-7 323,-7 323,-39"/>
<text text-anchor="start" x="198" y="-25.5" font-family="Helvetica,sans-Serif" font-size="10.00">HouseWindow::desactivate</text>
<text text-anchor="middle" x="256.5" y="-13.5" font-family="Helvetica,sans-Serif" font-size="10.00">SensorClicked</text>
</a>
</g>
</g>
<!-- Node1&#45;&gt;Node8 -->
<g id="edge7_Node000001_Node000008" class="edge">
<title>Node1&#45;&gt;Node8</title>
<g id="a_edge7_Node000001_Node000008"><a xlink:title=" ">
<path fill="none" stroke="#63b8ff" d="M146.93,-37.98C157.38,-36.53 168.16,-35.05 178.69,-33.59"/>
<polygon fill="#63b8ff" stroke="#63b8ff" points="179.12,-36.93 188.55,-32.1 178.17,-30 179.12,-36.93"/>
</a>
</g>
</g>
<!-- Node3 -->
<g id="Node000003" class="node">
<title>Node3</title>
<g id="a_Node000003"><a xlink:href="class_central.html#a76f3835048926b3c7a15b0e21ca5ac68" target="_top" xlink:title=" ">
<polygon fill="white" stroke="#666666" points="457.88,-58 368.38,-58 368.38,-38 457.88,-38 457.88,-58"/>
<text text-anchor="middle" x="413.12" y="-44.5" font-family="Helvetica,sans-Serif" font-size="10.00">Central::getLabel</text>
</a>
</g>
</g>
<!-- Node2&#45;&gt;Node3 -->
<g id="edge2_Node000002_Node000003" class="edge">
<title>Node2&#45;&gt;Node3</title>
<g id="a_edge2_Node000002_Node000003"><a xlink:title=" ">
<path fill="none" stroke="#63b8ff" d="M330.74,-61.16C339.74,-59.7 348.81,-58.24 357.47,-56.84"/>
<polygon fill="#63b8ff" stroke="#63b8ff" points="357.87,-60.16 367.18,-55.1 356.75,-53.25 357.87,-60.16"/>
</a>
</g>
</g>
<!-- Node4 -->
<g id="Node000004" class="node">
<title>Node4</title>
<g id="a_Node000004"><a xlink:href="class_central.html#a0e21a755f86da9476aa543cd3958fad4" target="_top" xlink:title=" ">
<polygon fill="white" stroke="#666666" points="459.75,-96 366.5,-96 366.5,-76 459.75,-76 459.75,-96"/>
<text text-anchor="middle" x="413.12" y="-82.5" font-family="Helvetica,sans-Serif" font-size="10.00">Central::perimeter</text>
</a>
</g>
</g>
<!-- Node2&#45;&gt;Node4 -->
<g id="edge3_Node000002_Node000004" class="edge">
<title>Node2&#45;&gt;Node4</title>
<g id="a_edge3_Node000002_Node000004"><a xlink:title=" ">
<path fill="none" stroke="#63b8ff" d="M330.74,-79.16C339,-79.85 347.33,-80.55 355.34,-81.23"/>
<polygon fill="#63b8ff" stroke="#63b8ff" points="354.77,-84.77 365.03,-82.12 355.36,-77.8 354.77,-84.77"/>
</a>
</g>
</g>
<!-- Node5 -->
<g id="Node000005" class="node">
<title>Node5</title>
<g id="a_Node000005"><a xlink:href="class_central.html#a5c7be0ff86909135d83e97bf19e77e5b" target="_top" xlink:title=" ">
<polygon fill="white" stroke="#666666" points="601,-96 495.75,-96 495.75,-76 601,-76 601,-96"/>
<text text-anchor="middle" x="548.38" y="-82.5" font-family="Helvetica,sans-Serif" font-size="10.00">Central::checkZones</text>
</a>
</g>
</g>
<!-- Node4&#45;&gt;Node5 -->
<g id="edge4_Node000004_Node000005" class="edge">
<title>Node4&#45;&gt;Node5</title>
<g id="a_edge4_Node000004_Node000005"><a xlink:title=" ">
<path fill="none" stroke="#63b8ff" d="M459.98,-86C467.94,-86 476.33,-86 484.65,-86"/>
<polygon fill="#63b8ff" stroke="#63b8ff" points="484.49,-89.5 494.49,-86 484.49,-82.5 484.49,-89.5"/>
</a>
</g>
</g>
<!-- Node6 -->
<g id="Node000006" class="node">
<title>Node6</title>
<g id="a_Node000006"><a xlink:href="class_central.html#a6d6decbdb1c66b9b2b34626f93d52b58" target="_top" xlink:title=" ">
<polygon fill="white" stroke="#666666" points="767,-115 637,-115 637,-95 767,-95 767,-115"/>
<text text-anchor="middle" x="702" y="-101.5" font-family="Helvetica,sans-Serif" font-size="10.00">Central::checkCloseZones</text>
</a>
</g>
</g>
<!-- Node5&#45;&gt;Node6 -->
<g id="edge5_Node000005_Node000006" class="edge">
<title>Node5&#45;&gt;Node6</title>
<g id="a_edge5_Node000005_Node000006"><a xlink:title=" ">
<path fill="none" stroke="#63b8ff" d="M601.13,-92.49C609.07,-93.48 617.39,-94.52 625.71,-95.57"/>
<polygon fill="#63b8ff" stroke="#63b8ff" points="625.25,-99.16 635.6,-96.93 626.12,-92.21 625.25,-99.16"/>
</a>
</g>
</g>
<!-- Node7 -->
<g id="Node000007" class="node">
<title>Node7</title>
<g id="a_Node000007"><a xlink:href="class_central.html#a5db18ec0ac455c386758ff4071bdd510" target="_top" xlink:title=" ">
<polygon fill="white" stroke="#666666" points="757.62,-77 646.38,-77 646.38,-57 757.62,-57 757.62,-77"/>
<text text-anchor="middle" x="702" y="-63.5" font-family="Helvetica,sans-Serif" font-size="10.00">Central::labelChanged</text>
</a>
</g>
</g>
<!-- Node5&#45;&gt;Node7 -->
<g id="edge6_Node000005_Node000007" class="edge">
<title>Node5&#45;&gt;Node7</title>
<g id="a_edge6_Node000005_Node000007"><a xlink:title=" ">
<path fill="none" stroke="#63b8ff" d="M601.13,-79.51C612.12,-78.14 623.86,-76.67 635.29,-75.23"/>
<polygon fill="#63b8ff" stroke="#63b8ff" points="635.62,-78.59 645.11,-73.88 634.75,-71.65 635.62,-78.59"/>
</a>
</g>
</g>
<!-- Node8&#45;&gt;Node3 -->
<g id="edge9_Node000008_Node000003" class="edge">
<title>Node8&#45;&gt;Node3</title>
<g id="a_edge9_Node000008_Node000003"><a xlink:title=" ">
<path fill="none" stroke="#63b8ff" d="M323.07,-33.6C334.43,-35.44 346.14,-37.33 357.18,-39.12"/>
<polygon fill="#63b8ff" stroke="#63b8ff" points="356.53,-42.72 366.96,-40.86 357.64,-35.81 356.53,-42.72"/>
</a>
</g>
</g>
<!-- Node9 -->
<g id="Node000009" class="node">
<title>Node9</title>
<g id="a_Node000009"><a xlink:href="class_central.html#af9d9bf3e36662a887c742856af0831f5" target="_top" xlink:title=" ">
<polygon fill="white" stroke="#666666" points="454.12,-20 372.12,-20 372.12,0 454.12,0 454.12,-20"/>
<text text-anchor="middle" x="413.12" y="-6.5" font-family="Helvetica,sans-Serif" font-size="10.00">Central::disarm</text>
</a>
</g>
</g>
<!-- Node8&#45;&gt;Node9 -->
<g id="edge8_Node000008_Node000009" class="edge">
<title>Node8&#45;&gt;Node9</title>
<g id="a_edge8_Node000008_Node000009"><a xlink:title=" ">
<path fill="none" stroke="#63b8ff" d="M323.07,-17.49C335.8,-16.42 348.97,-15.31 361.14,-14.29"/>
<polygon fill="#63b8ff" stroke="#63b8ff" points="361.34,-17.7 371.01,-13.37 360.75,-10.72 361.34,-17.7"/>
</a>
</g>
</g>
</g>
</svg>
