<?xml version="1.0" encoding="UTF-8" standalone="no"?>
<!DOCTYPE svg PUBLIC "-//W3C//DTD SVG 1.1//EN"
 "http://www.w3.org/Graphics/SVG/1.1/DTD/svg11.dtd">
<!-- Generated by graphviz version 8.0.5 (20230430.1635)
 -->
<!-- Title: Central::labelChanged Pages: 1 -->
<svg width="780pt" height="104pt"
 viewBox="0.00 0.00 779.50 104.00" xmlns="http://www.w3.org/2000/svg" xmlns:xlink="http://www.w3.org/1999/xlink">
<g id="graph0" class="graph" transform="scale(1 1) rotate(0) translate(4 100)">
<title>Central::labelChanged</title>
<!-- Node1 -->
<g id="Node000001" class="node">
<title>Node1</title>
<g id="a_Node000001"><a xlink:title=" ">
<polygon fill="#999999" stroke="#666666" points="771.5,-39 660.25,-39 660.25,-19 771.5,-19 771.5,-39"/>
<text text-anchor="middle" x="715.88" y="-25.5" font-family="Helvetica,sans-Serif" font-size="10.00">Central::labelChanged</text>
</a>
</g>
</g>
<!-- Node2 -->
<g id="Node000002" class="node">
<title>Node2</title>
<g id="a_Node000002"><a xlink:href="class_central.html#a5c7be0ff86909135d83e97bf19e77e5b" target="_top" xlink:title=" ">
<polygon fill="white" stroke="#666666" points="612.62,-58 507.38,-58 507.38,-38 612.62,-38 612.62,-58"/>
<text text-anchor="middle" x="560" y="-44.5" font-family="Helvetica,sans-Serif" font-size="10.00">Central::checkZones</text>
</a>
</g>
</g>
<!-- Node1&#45;&gt;Node2 -->
<g id="edge1_Node000001_Node000002" class="edge">
<title>Node1&#45;&gt;Node2</title>
<g id="a_edge1_Node000001_Node000002"><a xlink:title=" ">
<path fill="none" stroke="#63b8ff" d="M648.85,-37.15C636.83,-38.64 624.45,-40.17 612.91,-41.59"/>
<polygon fill="#63b8ff" stroke="#63b8ff" points="649.26,-40.5 658.76,-35.81 648.4,-33.56 649.26,-40.5"/>
</a>
</g>
</g>
<!-- Node7 -->
<g id="Node000007" class="node">
<title>Node7</title>
<g id="a_Node000007"><a xlink:href="class_house_window.html#afeb317a6f385d9561eb07713d456b9bd" target="_top" xlink:title=" ">
<polygon fill="white" stroke="#666666" points="624.25,-20 495.75,-20 495.75,0 624.25,0 624.25,-20"/>
<text text-anchor="middle" x="560" y="-6.5" font-family="Helvetica,sans-Serif" font-size="10.00">HouseWindow::setCentral</text>
</a>
</g>
</g>
<!-- Node1&#45;&gt;Node7 -->
<g id="edge6_Node000001_Node000007" class="edge">
<title>Node1&#45;&gt;Node7</title>
<g id="a_edge6_Node000001_Node000007"><a xlink:title=" ">
<path fill="none" stroke="#63b8ff" d="M648.92,-20.86C640.87,-19.86 632.65,-18.85 624.64,-17.86"/>
<polygon fill="#63b8ff" stroke="#63b8ff" points="648.4,-24.44 658.76,-22.19 649.26,-17.5 648.4,-24.44"/>
</a>
</g>
</g>
<!-- Node3 -->
<g id="Node000003" class="node">
<title>Node3</title>
<g id="a_Node000003"><a xlink:href="class_central.html#a6673d7411c27baea3a2030c72b32f79d" target="_top" xlink:title=" ">
<polygon fill="white" stroke="#666666" points="454.88,-96 371.38,-96 371.38,-76 454.88,-76 454.88,-96"/>
<text text-anchor="middle" x="413.12" y="-82.5" font-family="Helvetica,sans-Serif" font-size="10.00">Central::Central</text>
</a>
</g>
</g>
<!-- Node2&#45;&gt;Node3 -->
<g id="edge2_Node000002_Node000003" class="edge">
<title>Node2&#45;&gt;Node3</title>
<g id="a_edge2_Node000002_Node000003"><a xlink:title=" ">
<path fill="none" stroke="#63b8ff" d="M508.49,-61.25C490.64,-65.93 470.81,-71.13 453.97,-75.55"/>
<polygon fill="#63b8ff" stroke="#63b8ff" points="509.24,-64.41 518.03,-58.48 507.47,-57.64 509.24,-64.41"/>
</a>
</g>
</g>
<!-- Node4 -->
<g id="Node000004" class="node">
<title>Node4</title>
<g id="a_Node000004"><a xlink:href="class_central.html#a0e21a755f86da9476aa543cd3958fad4" target="_top" xlink:title=" ">
<polygon fill="white" stroke="#666666" points="459.75,-58 366.5,-58 366.5,-38 459.75,-38 459.75,-58"/>
<text text-anchor="middle" x="413.12" y="-44.5" font-family="Helvetica,sans-Serif" font-size="10.00">Central::perimeter</text>
</a>
</g>
</g>
<!-- Node2&#45;&gt;Node4 -->
<g id="edge3_Node000002_Node000004" class="edge">
<title>Node2&#45;&gt;Node4</title>
<g id="a_edge3_Node000002_Node000004"><a xlink:title=" ">
<path fill="none" stroke="#63b8ff" d="M496.45,-48C484.17,-48 471.5,-48 459.89,-48"/>
<polygon fill="#63b8ff" stroke="#63b8ff" points="496.11,-51.5 506.11,-48 496.11,-44.5 496.11,-51.5"/>
</a>
</g>
</g>
<!-- Node5 -->
<g id="Node000005" class="node">
<title>Node5</title>
<g id="a_Node000005"><a xlink:href="class_house_window.html#a18dbdb869155c26a90b5b89a535d31bd" target="_top" xlink:title=" ">
<polygon fill="white" stroke="#666666" points="330.5,-64 182.5,-64 182.5,-32 330.5,-32 330.5,-64"/>
<text text-anchor="start" x="190.5" y="-50.5" font-family="Helvetica,sans-Serif" font-size="10.00">HouseWindow::activateSensor</text>
<text text-anchor="middle" x="256.5" y="-38.5" font-family="Helvetica,sans-Serif" font-size="10.00">Clicked</text>
</a>
</g>
</g>
<!-- Node4&#45;&gt;Node5 -->
<g id="edge4_Node000004_Node000005" class="edge">
<title>Node4&#45;&gt;Node5</title>
<g id="a_edge4_Node000004_Node000005"><a xlink:title=" ">
<path fill="none" stroke="#63b8ff" d="M355.18,-48C347.24,-48 339,-48 330.81,-48"/>
<polygon fill="#63b8ff" stroke="#63b8ff" points="355.15,-51.5 365.15,-48 355.15,-44.5 355.15,-51.5"/>
</a>
</g>
</g>
<!-- Node6 -->
<g id="Node000006" class="node">
<title>Node6</title>
<g id="a_Node000006"><a xlink:href="class_house_window.html#a8e5eeed0472a24b8554624766fc31e57" target="_top" xlink:title=" ">
<polygon fill="white" stroke="#666666" points="146.5,-58 0,-58 0,-38 146.5,-38 146.5,-58"/>
<text text-anchor="middle" x="73.25" y="-44.5" font-family="Helvetica,sans-Serif" font-size="10.00">HouseWindow::HouseWindow</text>
</a>
</g>
</g>
<!-- Node5&#45;&gt;Node6 -->
<g id="edge5_Node000005_Node000006" class="edge">
<title>Node5&#45;&gt;Node6</title>
<g id="a_edge5_Node000005_Node000006"><a xlink:title=" ">
<path fill="none" stroke="#63b8ff" d="M171.09,-48C163.02,-48 154.88,-48 146.93,-48"/>
<polygon fill="#63b8ff" stroke="#63b8ff" points="171.04,-51.5 181.04,-48 171.04,-44.5 171.04,-51.5"/>
</a>
</g>
</g>
<!-- Node8 -->
<g id="Node000008" class="node">
<title>Node8</title>
<g id="a_Node000008"><a xlink:href="main_8cpp.html#a0ddf1224851353fc92bfbff6f499fa97" target="_top" xlink:title=" ">
<polygon fill="white" stroke="#666666" points="431.62,-20 394.62,-20 394.62,0 431.62,0 431.62,-20"/>
<text text-anchor="middle" x="413.12" y="-6.5" font-family="Helvetica,sans-Serif" font-size="10.00">main</text>
</a>
</g>
</g>
<!-- Node7&#45;&gt;Node8 -->
<g id="edge7_Node000007_Node000008" class="edge">
<title>Node7&#45;&gt;Node8</title>
<g id="a_edge7_Node000007_Node000008"><a xlink:title=" ">
<path fill="none" stroke="#63b8ff" d="M484.57,-10C464.94,-10 445.51,-10 432.04,-10"/>
<polygon fill="#63b8ff" stroke="#63b8ff" points="484.46,-13.5 494.46,-10 484.46,-6.5 484.46,-13.5"/>
</a>
</g>
</g>
</g>
</svg>
