<?xml version="1.0" encoding="UTF-8" standalone="no"?>
<!DOCTYPE svg PUBLIC "-//W3C//DTD SVG 1.1//EN"
 "http://www.w3.org/Graphics/SVG/1.1/DTD/svg11.dtd">
<!-- Generated by graphviz version 8.0.5 (20230430.1635)
 -->
<!-- Title: DoorView Pages: 1 -->
<svg width="342pt" height="637pt"
 viewBox="0.00 0.00 341.50 637.00" xmlns="http://www.w3.org/2000/svg" xmlns:xlink="http://www.w3.org/1999/xlink">
<g id="graph0" class="graph" transform="scale(1 1) rotate(0) translate(4 633)">
<title>DoorView</title>
<!-- Node1 -->
<g id="Node000001" class="node">
<title>Node1</title>
<g id="a_Node000001"><a xlink:title=" ">
<polygon fill="#999999" stroke="none" points="333.5,-540 213.5,-540 213.5,-344 333.5,-344 333.5,-540"/>
<text text-anchor="start" x="252.88" y="-526.5" font-family="Helvetica,sans-Serif" font-size="10.00">DoorView</text>
<text text-anchor="start" x="219" y="-510.5" font-family="Helvetica,sans-Serif" font-size="10.00">&#45;</text>
<text text-anchor="start" x="227.5" y="-510.5" font-family="Helvetica,sans-Serif" font-size="10.00">doorPanel</text>
<text text-anchor="start" x="219" y="-494.5" font-family="Helvetica,sans-Serif" font-size="10.00">&#45;</text>
<text text-anchor="start" x="227.5" y="-494.5" font-family="Helvetica,sans-Serif" font-size="10.00">switchPillar</text>
<text text-anchor="start" x="219" y="-478.5" font-family="Helvetica,sans-Serif" font-size="10.00">&#45;</text>
<text text-anchor="start" x="227.5" y="-478.5" font-family="Helvetica,sans-Serif" font-size="10.00">magnet</text>
<text text-anchor="start" x="217.5" y="-462.5" font-family="Helvetica,sans-Serif" font-size="10.00">+</text>
<text text-anchor="start" x="227.5" y="-462.5" font-family="Helvetica,sans-Serif" font-size="10.00">DoorView()</text>
<text text-anchor="start" x="217.5" y="-446.5" font-family="Helvetica,sans-Serif" font-size="10.00">+</text>
<text text-anchor="start" x="227.5" y="-446.5" font-family="Helvetica,sans-Serif" font-size="10.00">setDoorModel()</text>
<text text-anchor="start" x="217.5" y="-430.5" font-family="Helvetica,sans-Serif" font-size="10.00">+</text>
<text text-anchor="start" x="227.5" y="-430.5" font-family="Helvetica,sans-Serif" font-size="10.00">setOpen()</text>
<text text-anchor="start" x="217.5" y="-414.5" font-family="Helvetica,sans-Serif" font-size="10.00">+</text>
<text text-anchor="start" x="227.5" y="-414.5" font-family="Helvetica,sans-Serif" font-size="10.00">setClose()</text>
<text text-anchor="start" x="217.5" y="-398.5" font-family="Helvetica,sans-Serif" font-size="10.00">+</text>
<text text-anchor="start" x="227.5" y="-398.5" font-family="Helvetica,sans-Serif" font-size="10.00">mousePressEvent()</text>
<text text-anchor="start" x="217.5" y="-382.5" font-family="Helvetica,sans-Serif" font-size="10.00">+</text>
<text text-anchor="start" x="227.5" y="-382.5" font-family="Helvetica,sans-Serif" font-size="10.00">~DoorView()</text>
<text text-anchor="start" x="219" y="-366.5" font-family="Helvetica,sans-Serif" font-size="10.00">&#45;</text>
<text text-anchor="start" x="227.5" y="-366.5" font-family="Helvetica,sans-Serif" font-size="10.00">installMagneticSensor()</text>
<text text-anchor="start" x="219" y="-350.5" font-family="Helvetica,sans-Serif" font-size="10.00">&#45;</text>
<text text-anchor="start" x="227.5" y="-350.5" font-family="Helvetica,sans-Serif" font-size="10.00">makeDoorView()</text>
<polygon fill="#666666" stroke="#666666" points="213.5,-522 213.5,-522 333.5,-522 333.5,-522 213.5,-522"/>
<polygon fill="#666666" stroke="#666666" points="213.5,-474 213.5,-474 225.5,-474 225.5,-474 213.5,-474"/>
<polygon fill="#666666" stroke="#666666" points="225.5,-474 225.5,-474 333.5,-474 333.5,-474 225.5,-474"/>
<polygon fill="none" stroke="#666666" points="213.5,-344 213.5,-540 333.5,-540 333.5,-344 213.5,-344"/>
</a>
</g>
</g>
<!-- Node3 -->
<g id="Node000003" class="node">
<title>Node3</title>
<g id="a_Node000003"><a xlink:href="class_door.html" target="_top" xlink:title=" ">
<polygon fill="white" stroke="none" points="270.5,-84 192.5,-84 192.5,0 270.5,0 270.5,-84"/>
<text text-anchor="start" x="221.38" y="-70.5" font-family="Helvetica,sans-Serif" font-size="10.00">Door</text>
<text text-anchor="start" x="198" y="-54.5" font-family="Helvetica,sans-Serif" font-size="10.00">&#45;</text>
<text text-anchor="start" x="206.5" y="-54.5" font-family="Helvetica,sans-Serif" font-size="10.00">isClose</text>
<text text-anchor="start" x="196.5" y="-38.5" font-family="Helvetica,sans-Serif" font-size="10.00">+</text>
<text text-anchor="start" x="206.5" y="-38.5" font-family="Helvetica,sans-Serif" font-size="10.00">Door()</text>
<text text-anchor="start" x="196.5" y="-22.5" font-family="Helvetica,sans-Serif" font-size="10.00">+</text>
<text text-anchor="start" x="206.5" y="-22.5" font-family="Helvetica,sans-Serif" font-size="10.00">changeState()</text>
<text text-anchor="start" x="198" y="-6.5" font-family="Helvetica,sans-Serif" font-size="10.00">&#45;</text>
<text text-anchor="start" x="206.5" y="-6.5" font-family="Helvetica,sans-Serif" font-size="10.00">Door()</text>
<polygon fill="#666666" stroke="#666666" points="192.5,-66 192.5,-66 270.5,-66 270.5,-66 192.5,-66"/>
<polygon fill="#666666" stroke="#666666" points="192.5,-50 192.5,-50 204.5,-50 204.5,-50 192.5,-50"/>
<polygon fill="#666666" stroke="#666666" points="204.5,-50 204.5,-50 270.5,-50 270.5,-50 204.5,-50"/>
<polygon fill="none" stroke="#666666" points="192.5,0 192.5,-84 270.5,-84 270.5,0 192.5,0"/>
</a>
</g>
</g>
<!-- Node1&#45;&gt;Node3 -->
<g id="edge7_Node000003_Node000001" class="edge">
<title>Node1&#45;&gt;Node3</title>
<g id="a_edge7_Node000003_Node000001"><a xlink:title=" ">
<path fill="none" stroke="#63b8ff" d="M241.43,-344.33C237.31,-328.35 233.75,-311.83 231.5,-296 221.79,-227.59 224.01,-147.72 227.17,-96.31"/>
<polygon fill="none" stroke="#63b8ff" points="227.16,-96.43 223.57,-90.18 227.95,-84.46 231.55,-90.71 227.16,-96.43"/>
</a>
</g>
<text text-anchor="middle" x="243.5" y="-210.5" font-family="Helvetica,sans-Serif" font-size="10.00" fill="grey"> &#45;view</text>
</g>
<!-- Node2 -->
<g id="Node000002" class="node">
<title>Node2</title>
<g id="a_Node000002"><a xlink:title=" ">
<polygon fill="white" stroke="none" points="215,-629 114,-629 114,-577 215,-577 215,-629"/>
<text text-anchor="start" x="118.75" y="-615.5" font-family="Helvetica,sans-Serif" font-size="10.00">QGraphicsItemGroup</text>
<text text-anchor="start" x="163" y="-599.5" font-family="Helvetica,sans-Serif" font-size="10.00"> </text>
<text text-anchor="start" x="163" y="-583.5" font-family="Helvetica,sans-Serif" font-size="10.00"> </text>
<polygon fill="#666666" stroke="#666666" points="114,-611 114,-611 215,-611 215,-611 114,-611"/>
<polygon fill="#666666" stroke="#666666" points="114,-595 114,-595 215,-595 215,-595 114,-595"/>
<polygon fill="none" stroke="#666666" points="114,-577 114,-629 215,-629 215,-577 114,-577"/>
</a>
</g>
</g>
<!-- Node2&#45;&gt;Node1 -->
<g id="edge1_Node000001_Node000002" class="edge">
<title>Node2&#45;&gt;Node1</title>
<g id="a_edge1_Node000001_Node000002"><a xlink:title=" ">
<path fill="none" stroke="#63b8ff" d="M187.69,-568.17C195.41,-556.92 204.39,-543.81 213.58,-530.41"/>
<polygon fill="none" stroke="#63b8ff" points="184.3,-565.93 181.53,-576.16 190.07,-569.89 184.3,-565.93"/>
</a>
</g>
</g>
<!-- Node6 -->
<g id="Node000006" class="node">
<title>Node6</title>
<g id="a_Node000006"><a xlink:href="class_magnetic_sensor_view.html" target="_top" xlink:title=" ">
<polygon fill="white" stroke="none" points="115,-508 0,-508 0,-376 115,-376 115,-508"/>
<text text-anchor="start" x="11.75" y="-494.5" font-family="Helvetica,sans-Serif" font-size="10.00">MagneticSensorView</text>
<text text-anchor="start" x="5.5" y="-478.5" font-family="Helvetica,sans-Serif" font-size="10.00">&#45;</text>
<text text-anchor="start" x="14" y="-478.5" font-family="Helvetica,sans-Serif" font-size="10.00">switchView</text>
<text text-anchor="start" x="5.5" y="-462.5" font-family="Helvetica,sans-Serif" font-size="10.00">&#45;</text>
<text text-anchor="start" x="14" y="-462.5" font-family="Helvetica,sans-Serif" font-size="10.00">magnetView</text>
<text text-anchor="start" x="4" y="-446.5" font-family="Helvetica,sans-Serif" font-size="10.00">+</text>
<text text-anchor="start" x="14" y="-446.5" font-family="Helvetica,sans-Serif" font-size="10.00">MagneticSensorView()</text>
<text text-anchor="start" x="4" y="-430.5" font-family="Helvetica,sans-Serif" font-size="10.00">+</text>
<text text-anchor="start" x="14" y="-430.5" font-family="Helvetica,sans-Serif" font-size="10.00">setCloseView()</text>
<text text-anchor="start" x="4" y="-414.5" font-family="Helvetica,sans-Serif" font-size="10.00">+</text>
<text text-anchor="start" x="14" y="-414.5" font-family="Helvetica,sans-Serif" font-size="10.00">setOpenView()</text>
<text text-anchor="start" x="4" y="-398.5" font-family="Helvetica,sans-Serif" font-size="10.00">+</text>
<text text-anchor="start" x="14" y="-398.5" font-family="Helvetica,sans-Serif" font-size="10.00">getSwitchView()</text>
<text text-anchor="start" x="4" y="-382.5" font-family="Helvetica,sans-Serif" font-size="10.00">+</text>
<text text-anchor="start" x="14" y="-382.5" font-family="Helvetica,sans-Serif" font-size="10.00">getMagnetView()</text>
<polygon fill="#666666" stroke="#666666" points="0,-490 0,-490 115,-490 115,-490 0,-490"/>
<polygon fill="#666666" stroke="#666666" points="0,-458 0,-458 12,-458 12,-458 0,-458"/>
<polygon fill="#666666" stroke="#666666" points="12,-458 12,-458 115,-458 115,-458 12,-458"/>
<polygon fill="none" stroke="#666666" points="0,-376 0,-508 115,-508 115,-376 0,-376"/>
</a>
</g>
</g>
<!-- Node2&#45;&gt;Node6 -->
<g id="edge6_Node000006_Node000002" class="edge">
<title>Node2&#45;&gt;Node6</title>
<g id="a_edge6_Node000006_Node000002"><a xlink:title=" ">
<path fill="none" stroke="#63b8ff" d="M141.88,-568.39C130.03,-550.77 115.09,-528.58 101.1,-507.79"/>
<polygon fill="none" stroke="#63b8ff" points="139.29,-569.81 147.78,-576.16 145.1,-565.91 139.29,-569.81"/>
</a>
</g>
</g>
<!-- Node3&#45;&gt;Node1 -->
<g id="edge2_Node000001_Node000003" class="edge">
<title>Node3&#45;&gt;Node1</title>
<g id="a_edge2_Node000001_Node000003"><a xlink:title=" ">
<path fill="none" stroke="#63b8ff" d="M246.73,-83.65C251.69,-98.64 256.65,-115.89 259.5,-132 271.09,-197.52 274.74,-272.01 275.42,-331.43"/>
<polygon fill="none" stroke="#63b8ff" points="275.42,-331.35 279.47,-337.32 275.52,-343.35 271.47,-337.39 275.42,-331.35"/>
</a>
</g>
<text text-anchor="middle" x="290.62" y="-210.5" font-family="Helvetica,sans-Serif" font-size="10.00" fill="grey"> &#45;model</text>
</g>
<!-- Node4 -->
<g id="Node000004" class="node">
<title>Node4</title>
<g id="a_Node000004"><a xlink:href="class_magnetic_sensor.html" target="_top" xlink:title=" ">
<polygon fill="white" stroke="none" points="189.5,-296 89.5,-296 89.5,-132 189.5,-132 189.5,-296"/>
<text text-anchor="start" x="104.25" y="-282.5" font-family="Helvetica,sans-Serif" font-size="10.00">MagneticSensor</text>
<text text-anchor="start" x="138" y="-266.5" font-family="Helvetica,sans-Serif" font-size="10.00"> </text>
<text text-anchor="start" x="93.5" y="-250.5" font-family="Helvetica,sans-Serif" font-size="10.00">+</text>
<text text-anchor="start" x="103.5" y="-250.5" font-family="Helvetica,sans-Serif" font-size="10.00">MagneticSensor()</text>
<text text-anchor="start" x="93.5" y="-234.5" font-family="Helvetica,sans-Serif" font-size="10.00">+</text>
<text text-anchor="start" x="103.5" y="-234.5" font-family="Helvetica,sans-Serif" font-size="10.00">setSensorOpen()</text>
<text text-anchor="start" x="93.5" y="-218.5" font-family="Helvetica,sans-Serif" font-size="10.00">+</text>
<text text-anchor="start" x="103.5" y="-218.5" font-family="Helvetica,sans-Serif" font-size="10.00">setSensorClose()</text>
<text text-anchor="start" x="93.5" y="-202.5" font-family="Helvetica,sans-Serif" font-size="10.00">+</text>
<text text-anchor="start" x="103.5" y="-202.5" font-family="Helvetica,sans-Serif" font-size="10.00">MagneticSensor()</text>
<text text-anchor="start" x="93.5" y="-186.5" font-family="Helvetica,sans-Serif" font-size="10.00">+</text>
<text text-anchor="start" x="103.5" y="-186.5" font-family="Helvetica,sans-Serif" font-size="10.00">~MagneticSensor()</text>
<text text-anchor="start" x="93.5" y="-170.5" font-family="Helvetica,sans-Serif" font-size="10.00">+</text>
<text text-anchor="start" x="103.5" y="-170.5" font-family="Helvetica,sans-Serif" font-size="10.00">setSensorOpen()</text>
<text text-anchor="start" x="93.5" y="-154.5" font-family="Helvetica,sans-Serif" font-size="10.00">+</text>
<text text-anchor="start" x="103.5" y="-154.5" font-family="Helvetica,sans-Serif" font-size="10.00">setSensorClose()</text>
<text text-anchor="start" x="93.5" y="-138.5" font-family="Helvetica,sans-Serif" font-size="10.00">+</text>
<text text-anchor="start" x="103.5" y="-138.5" font-family="Helvetica,sans-Serif" font-size="10.00">getView()</text>
<polygon fill="#666666" stroke="#666666" points="89.5,-278 89.5,-278 189.5,-278 189.5,-278 89.5,-278"/>
<polygon fill="#666666" stroke="#666666" points="89.5,-262 89.5,-262 189.5,-262 189.5,-262 89.5,-262"/>
<polygon fill="none" stroke="#666666" points="89.5,-132 89.5,-296 189.5,-296 189.5,-132 89.5,-132"/>
</a>
</g>
</g>
<!-- Node4&#45;&gt;Node3 -->
<g id="edge3_Node000003_Node000004" class="edge">
<title>Node4&#45;&gt;Node3</title>
<g id="a_edge3_Node000003_Node000004"><a xlink:title=" ">
<path fill="none" stroke="#63b8ff" d="M131.41,-132.05C132.96,-121.52 135.93,-111.2 141,-102 149.95,-85.74 165.51,-73.23 181.23,-64.01"/>
<polygon fill="none" stroke="#63b8ff" points="181.26,-63.99 184.64,-57.62 191.82,-58.29 188.44,-64.66 181.26,-63.99"/>
</a>
</g>
<text text-anchor="middle" x="179.75" y="-104.5" font-family="Helvetica,sans-Serif" font-size="10.00" fill="grey"> &#45;magneticSensor</text>
</g>
<!-- Node5 -->
<g id="Node000005" class="node">
<title>Node5</title>
<g id="a_Node000005"><a xlink:href="class_sensor.html" target="_top" xlink:title=" ">
<polygon fill="white" stroke="none" points="195.5,-500 133.5,-500 133.5,-384 195.5,-384 195.5,-500"/>
<text text-anchor="start" x="149.12" y="-486.5" font-family="Helvetica,sans-Serif" font-size="10.00">Sensor</text>
<text text-anchor="start" x="139" y="-470.5" font-family="Helvetica,sans-Serif" font-size="10.00">&#45;</text>
<text text-anchor="start" x="147.5" y="-470.5" font-family="Helvetica,sans-Serif" font-size="10.00">zone</text>
<text text-anchor="start" x="139" y="-454.5" font-family="Helvetica,sans-Serif" font-size="10.00">&#45;</text>
<text text-anchor="start" x="147.5" y="-454.5" font-family="Helvetica,sans-Serif" font-size="10.00">close</text>
<text text-anchor="start" x="137.5" y="-438.5" font-family="Helvetica,sans-Serif" font-size="10.00">+</text>
<text text-anchor="start" x="147.5" y="-438.5" font-family="Helvetica,sans-Serif" font-size="10.00">Sensor()</text>
<text text-anchor="start" x="137.5" y="-422.5" font-family="Helvetica,sans-Serif" font-size="10.00">+</text>
<text text-anchor="start" x="147.5" y="-422.5" font-family="Helvetica,sans-Serif" font-size="10.00">isClose()</text>
<text text-anchor="start" x="137.5" y="-406.5" font-family="Helvetica,sans-Serif" font-size="10.00">+</text>
<text text-anchor="start" x="147.5" y="-406.5" font-family="Helvetica,sans-Serif" font-size="10.00">getZone()</text>
<text text-anchor="start" x="137.88" y="-390.5" font-family="Helvetica,sans-Serif" font-size="10.00">#</text>
<text text-anchor="start" x="147.5" y="-390.5" font-family="Helvetica,sans-Serif" font-size="10.00">setClose()</text>
<polygon fill="#666666" stroke="#666666" points="133.5,-482 133.5,-482 195.5,-482 195.5,-482 133.5,-482"/>
<polygon fill="#666666" stroke="#666666" points="133.5,-450 133.5,-450 145.5,-450 145.5,-450 133.5,-450"/>
<polygon fill="#666666" stroke="#666666" points="145.5,-450 145.5,-450 195.5,-450 195.5,-450 145.5,-450"/>
<polygon fill="none" stroke="#666666" points="133.5,-384 133.5,-500 195.5,-500 195.5,-384 133.5,-384"/>
</a>
</g>
</g>
<!-- Node5&#45;&gt;Node4 -->
<g id="edge4_Node000004_Node000005" class="edge">
<title>Node5&#45;&gt;Node4</title>
<g id="a_edge4_Node000004_Node000005"><a xlink:title=" ">
<path fill="none" stroke="#63b8ff" d="M157.05,-373.63C154.34,-349.14 151.25,-321.21 148.42,-295.68"/>
<polygon fill="none" stroke="#63b8ff" points="153.65,-373.71 158.22,-383.26 160.6,-372.94 153.65,-373.71"/>
</a>
</g>
</g>
<!-- Node6&#45;&gt;Node4 -->
<g id="edge5_Node000004_Node000006" class="edge">
<title>Node6&#45;&gt;Node4</title>
<g id="a_edge5_Node000004_Node000006"><a xlink:title=" ">
<path fill="none" stroke="#63b8ff" d="M81,-376.24C88.7,-355.01 97.42,-330.98 105.73,-308.09"/>
<polygon fill="none" stroke="#63b8ff" points="105.76,-308 104.04,-301 109.85,-296.72 111.56,-303.72 105.76,-308"/>
</a>
</g>
<text text-anchor="middle" x="115.5" y="-316.5" font-family="Helvetica,sans-Serif" font-size="10.00" fill="grey"> &#45;view</text>
</g>
</g>
</svg>
