<?xml version="1.0" encoding="UTF-8" standalone="no"?>
<!DOCTYPE svg PUBLIC "-//W3C//DTD SVG 1.1//EN"
 "http://www.w3.org/Graphics/SVG/1.1/DTD/svg11.dtd">
<!-- Generated by graphviz version 8.0.5 (20230430.1635)
 -->
<!-- Title: MagneticSensor::setSensorOpen Pages: 1 -->
<svg width="416pt" height="28pt"
 viewBox="0.00 0.00 416.00 28.00" xmlns="http://www.w3.org/2000/svg" xmlns:xlink="http://www.w3.org/1999/xlink">
<g id="graph0" class="graph" transform="scale(1 1) rotate(0) translate(4 24)">
<title>MagneticSensor::setSensorOpen</title>
<!-- Node1 -->
<g id="Node000001" class="node">
<title>Node1</title>
<g id="a_Node000001"><a xlink:title=" ">
<polygon fill="#999999" stroke="#666666" points="160,-20 0,-20 0,0 160,0 160,-20"/>
<text text-anchor="middle" x="80" y="-6.5" font-family="Helvetica,sans-Serif" font-size="10.00">MagneticSensor::setSensorOpen</text>
</a>
</g>
</g>
<!-- Node2 -->
<g id="Node000002" class="node">
<title>Node2</title>
<g id="a_Node000002"><a xlink:href="class_sensor.html#acacc74ce0d13c69a3c72248fb65da51e" target="_top" xlink:title=" ">
<polygon fill="white" stroke="#666666" points="287,-20 196,-20 196,0 287,0 287,-20"/>
<text text-anchor="middle" x="241.5" y="-6.5" font-family="Helvetica,sans-Serif" font-size="10.00">Sensor::setClose</text>
</a>
</g>
</g>
<!-- Node1&#45;&gt;Node2 -->
<g id="edge1_Node000001_Node000002" class="edge">
<title>Node1&#45;&gt;Node2</title>
<g id="a_edge1_Node000001_Node000002"><a xlink:title=" ">
<path fill="none" stroke="#63b8ff" d="M160.28,-10C168.57,-10 176.87,-10 184.81,-10"/>
<polygon fill="#63b8ff" stroke="#63b8ff" points="184.78,-13.5 194.78,-10 184.78,-6.5 184.78,-13.5"/>
</a>
</g>
</g>
<!-- Node3 -->
<g id="Node000003" class="node">
<title>Node3</title>
<g id="a_Node000003"><a xlink:href="class_sensor.html#ab7230363277330982c3a96821859493a" target="_top" xlink:title=" ">
<polygon fill="white" stroke="#666666" points="408,-20 323,-20 323,0 408,0 408,-20"/>
<text text-anchor="middle" x="365.5" y="-6.5" font-family="Helvetica,sans-Serif" font-size="10.00">Sensor::isClose</text>
</a>
</g>
</g>
<!-- Node2&#45;&gt;Node3 -->
<g id="edge2_Node000002_Node000003" class="edge">
<title>Node2&#45;&gt;Node3</title>
<g id="a_edge2_Node000002_Node000003"><a xlink:title=" ">
<path fill="none" stroke="#63b8ff" d="M287.24,-10C295.18,-10 303.53,-10 311.68,-10"/>
<polygon fill="#63b8ff" stroke="#63b8ff" points="311.61,-13.5 321.61,-10 311.61,-6.5 311.61,-13.5"/>
</a>
</g>
</g>
</g>
</svg>
