<?xml version="1.0" encoding="UTF-8" standalone="no"?>
<!DOCTYPE svg PUBLIC "-//W3C//DTD SVG 1.1//EN"
 "http://www.w3.org/Graphics/SVG/1.1/DTD/svg11.dtd">
<!-- Generated by graphviz version 8.0.5 (20230430.1635)
 -->
<!-- Title: Sensor Pages: 1 -->
<svg width="108pt" height="324pt"
 viewBox="0.00 0.00 108.00 324.00" xmlns="http://www.w3.org/2000/svg" xmlns:xlink="http://www.w3.org/1999/xlink">

<svg id="main" version="1.1" xmlns="http://www.w3.org/2000/svg" xmlns:xlink="http://www.w3.org/1999/xlink" xml:space="preserve" onload="init(evt)">
<style type="text/css"><![CDATA[
.node, .edge {opacity: 0.7;}
.node.selected, .edge.selected {opacity: 1;}
.edge:hover path { stroke: red; }
.edge:hover polygon { stroke: red; fill: red; }
]]></style>
<script type="application/ecmascript" xlink:href="svg.min.js"/>
<svg id="graph" class="graph">
<g id="graph0" class="graph" transform="scale(1 1) rotate(0) translate(4 320)">
<title>Sensor</title>
<!-- Node1 -->
<g id="Node000001" class="node">
<title>Node1</title>
<g id="a_Node000001"><a xlink:title=" ">
<polygon fill="#999999" stroke="none" points="81,-316 19,-316 19,-200 81,-200 81,-316"/>
<text text-anchor="start" x="34.62" y="-302.5" font-family="Helvetica,sans-Serif" font-size="10.00">Sensor</text>
<text text-anchor="start" x="24.5" y="-286.5" font-family="Helvetica,sans-Serif" font-size="10.00">&#45;</text>
<text text-anchor="start" x="33" y="-286.5" font-family="Helvetica,sans-Serif" font-size="10.00">zone</text>
<text text-anchor="start" x="24.5" y="-270.5" font-family="Helvetica,sans-Serif" font-size="10.00">&#45;</text>
<text text-anchor="start" x="33" y="-270.5" font-family="Helvetica,sans-Serif" font-size="10.00">close</text>
<text text-anchor="start" x="23" y="-254.5" font-family="Helvetica,sans-Serif" font-size="10.00">+</text>
<text text-anchor="start" x="33" y="-254.5" font-family="Helvetica,sans-Serif" font-size="10.00">Sensor()</text>
<text text-anchor="start" x="23" y="-238.5" font-family="Helvetica,sans-Serif" font-size="10.00">+</text>
<text text-anchor="start" x="33" y="-238.5" font-family="Helvetica,sans-Serif" font-size="10.00">isClose()</text>
<text text-anchor="start" x="23" y="-222.5" font-family="Helvetica,sans-Serif" font-size="10.00">+</text>
<text text-anchor="start" x="33" y="-222.5" font-family="Helvetica,sans-Serif" font-size="10.00">getZone()</text>
<text text-anchor="start" x="23.38" y="-206.5" font-family="Helvetica,sans-Serif" font-size="10.00">#</text>
<text text-anchor="start" x="33" y="-206.5" font-family="Helvetica,sans-Serif" font-size="10.00">setClose()</text>
<polygon fill="#666666" stroke="#666666" points="19,-298 19,-298 81,-298 81,-298 19,-298"/>
<polygon fill="#666666" stroke="#666666" points="19,-266 19,-266 31,-266 31,-266 19,-266"/>
<polygon fill="#666666" stroke="#666666" points="31,-266 31,-266 81,-266 81,-266 31,-266"/>
<polygon fill="none" stroke="#666666" points="19,-200 19,-316 81,-316 81,-200 19,-200"/>
</a>
</g>
</g>
<!-- Node2 -->
<g id="Node000002" class="node">
<title>Node2</title>
<g id="a_Node000002"><a xlink:href="class_magnetic_sensor.html" target="_top" xlink:title=" ">
<polygon fill="white" stroke="none" points="100,-164 0,-164 0,0 100,0 100,-164"/>
<text text-anchor="start" x="14.75" y="-150.5" font-family="Helvetica,sans-Serif" font-size="10.00">MagneticSensor</text>
<text text-anchor="start" x="5.5" y="-134.5" font-family="Helvetica,sans-Serif" font-size="10.00">&#45;</text>
<text text-anchor="start" x="14" y="-134.5" font-family="Helvetica,sans-Serif" font-size="10.00">view</text>
<text text-anchor="start" x="4" y="-118.5" font-family="Helvetica,sans-Serif" font-size="10.00">+</text>
<text text-anchor="start" x="14" y="-118.5" font-family="Helvetica,sans-Serif" font-size="10.00">MagneticSensor()</text>
<text text-anchor="start" x="4" y="-102.5" font-family="Helvetica,sans-Serif" font-size="10.00">+</text>
<text text-anchor="start" x="14" y="-102.5" font-family="Helvetica,sans-Serif" font-size="10.00">setSensorOpen()</text>
<text text-anchor="start" x="4" y="-86.5" font-family="Helvetica,sans-Serif" font-size="10.00">+</text>
<text text-anchor="start" x="14" y="-86.5" font-family="Helvetica,sans-Serif" font-size="10.00">setSensorClose()</text>
<text text-anchor="start" x="4" y="-70.5" font-family="Helvetica,sans-Serif" font-size="10.00">+</text>
<text text-anchor="start" x="14" y="-70.5" font-family="Helvetica,sans-Serif" font-size="10.00">MagneticSensor()</text>
<text text-anchor="start" x="4" y="-54.5" font-family="Helvetica,sans-Serif" font-size="10.00">+</text>
<text text-anchor="start" x="14" y="-54.5" font-family="Helvetica,sans-Serif" font-size="10.00">~MagneticSensor()</text>
<text text-anchor="start" x="4" y="-38.5" font-family="Helvetica,sans-Serif" font-size="10.00">+</text>
<text text-anchor="start" x="14" y="-38.5" font-family="Helvetica,sans-Serif" font-size="10.00">setSensorOpen()</text>
<text text-anchor="start" x="4" y="-22.5" font-family="Helvetica,sans-Serif" font-size="10.00">+</text>
<text text-anchor="start" x="14" y="-22.5" font-family="Helvetica,sans-Serif" font-size="10.00">setSensorClose()</text>
<text text-anchor="start" x="4" y="-6.5" font-family="Helvetica,sans-Serif" font-size="10.00">+</text>
<text text-anchor="start" x="14" y="-6.5" font-family="Helvetica,sans-Serif" font-size="10.00">getView()</text>
<polygon fill="#666666" stroke="#666666" points="0,-146 0,-146 100,-146 100,-146 0,-146"/>
<polygon fill="#666666" stroke="#666666" points="0,-130 0,-130 12,-130 12,-130 0,-130"/>
<polygon fill="#666666" stroke="#666666" points="12,-130 12,-130 100,-130 100,-130 12,-130"/>
<polygon fill="none" stroke="#666666" points="0,0 0,-164 100,-164 100,0 0,0"/>
</a>
</g>
</g>
<!-- Node1&#45;&gt;Node2 -->
<g id="edge1_Node000001_Node000002" class="edge">
<title>Node1&#45;&gt;Node2</title>
<g id="a_edge1_Node000001_Node000002"><a xlink:title=" ">
<path fill="none" stroke="#63b8ff" d="M50,-189.23C50,-180.88 50,-172.29 50,-163.78"/>
<polygon fill="none" stroke="#63b8ff" points="46.5,-189.03 50,-199.03 53.5,-189.03 46.5,-189.03"/>
</a>
</g>
</g>
</g>
</svg>
</svg>

<style type='text/css'>
<![CDATA[
[data-mouse-over-selected='false'] { opacity: 0.7; }
[data-mouse-over-selected='true']  { opacity: 1.0; }
]]>
</style>
<script type="application/ecmascript"><![CDATA[
document.addEventListener('DOMContentLoaded', (event) => {
  highlightEdges();
  highlightAdjacentNodes();
});
]]></script>
</svg>
