<?xml version="1.0" encoding="UTF-8" standalone="no"?>
<!DOCTYPE svg PUBLIC "-//W3C//DTD SVG 1.1//EN"
 "http://www.w3.org/Graphics/SVG/1.1/DTD/svg11.dtd">
<!-- Generated by graphviz version 8.0.5 (20230430.1635)
 -->
<!-- Title: DoorView::DoorView Pages: 1 -->
<svg width="421pt" height="122pt"
 viewBox="0.00 0.00 420.50 122.00" xmlns="http://www.w3.org/2000/svg" xmlns:xlink="http://www.w3.org/1999/xlink">

<svg id="main" version="1.1" xmlns="http://www.w3.org/2000/svg" xmlns:xlink="http://www.w3.org/1999/xlink" xml:space="preserve" onload="init(evt)">
<style type="text/css"><![CDATA[
.node, .edge {opacity: 0.7;}
.node.selected, .edge.selected {opacity: 1;}
.edge:hover path { stroke: red; }
.edge:hover polygon { stroke: red; fill: red; }
]]></style>
<script type="application/ecmascript" xlink:href="svg.min.js"/>
<svg id="graph" class="graph">
<g id="graph0" class="graph" transform="scale(1 1) rotate(0) translate(4 118)">
<title>DoorView::DoorView</title>
<!-- Node1 -->
<g id="Node000001" class="node">
<title>Node1</title>
<g id="a_Node000001"><a xlink:title=" ">
<polygon fill="#999999" stroke="#666666" points="104.5,-64 0,-64 0,-44 104.5,-44 104.5,-64"/>
<text text-anchor="middle" x="52.25" y="-50.5" font-family="Helvetica,sans-Serif" font-size="10.00">DoorView::DoorView</text>
</a>
</g>
</g>
<!-- Node2 -->
<g id="Node000002" class="node">
<title>Node2</title>
<g id="a_Node000002"><a xlink:href="class_magnetic_sensor_view.html#a02ee42e106e5647ff1abb8d7dc965e27" target="_top" xlink:title=" ">
<polygon fill="white" stroke="#666666" points="412.5,-114 305,-114 305,-82 412.5,-82 412.5,-114"/>
<text text-anchor="start" x="313" y="-100.5" font-family="Helvetica,sans-Serif" font-size="10.00">MagneticSensorView</text>
<text text-anchor="middle" x="358.75" y="-88.5" font-family="Helvetica,sans-Serif" font-size="10.00">::getMagnetView</text>
</a>
</g>
</g>
<!-- Node1&#45;&gt;Node2 -->
<g id="edge1_Node000001_Node000002" class="edge">
<title>Node1&#45;&gt;Node2</title>
<g id="a_edge1_Node000001_Node000002"><a xlink:title=" ">
<path fill="none" stroke="#63b8ff" d="M84,-64.37C100.56,-69.56 121.44,-75.47 140.5,-79 191.64,-88.47 250.44,-93.25 293.97,-95.64"/>
<polygon fill="#63b8ff" stroke="#63b8ff" points="293.52,-99.18 303.69,-96.2 293.88,-92.19 293.52,-99.18"/>
</a>
</g>
</g>
<!-- Node3 -->
<g id="Node000003" class="node">
<title>Node3</title>
<g id="a_Node000003"><a xlink:href="class_door_view.html#ad059eb585444fc7ce745fed7d42a7f53" target="_top" xlink:title=" ">
<polygon fill="white" stroke="#666666" points="269,-70 140.5,-70 140.5,-38 269,-38 269,-70"/>
<text text-anchor="start" x="148.5" y="-56.5" font-family="Helvetica,sans-Serif" font-size="10.00">DoorView::installMagnetic</text>
<text text-anchor="middle" x="204.75" y="-44.5" font-family="Helvetica,sans-Serif" font-size="10.00">Sensor</text>
</a>
</g>
</g>
<!-- Node1&#45;&gt;Node3 -->
<g id="edge2_Node000001_Node000003" class="edge">
<title>Node1&#45;&gt;Node3</title>
<g id="a_edge2_Node000001_Node000003"><a xlink:title=" ">
<path fill="none" stroke="#63b8ff" d="M104.62,-54C112.56,-54 120.89,-54 129.2,-54"/>
<polygon fill="#63b8ff" stroke="#63b8ff" points="129.1,-57.5 139.1,-54 129.1,-50.5 129.1,-57.5"/>
</a>
</g>
</g>
<!-- Node5 -->
<g id="Node000005" class="node">
<title>Node5</title>
<g id="a_Node000005"><a xlink:href="class_door_view.html#abc2cab077f0cfd699b1545c334ace0be" target="_top" xlink:title=" ">
<polygon fill="white" stroke="#666666" points="269,-20 140.5,-20 140.5,0 269,0 269,-20"/>
<text text-anchor="middle" x="204.75" y="-6.5" font-family="Helvetica,sans-Serif" font-size="10.00">DoorView::makeDoorView</text>
</a>
</g>
</g>
<!-- Node1&#45;&gt;Node5 -->
<g id="edge5_Node000001_Node000005" class="edge">
<title>Node1&#45;&gt;Node5</title>
<g id="a_edge5_Node000001_Node000005"><a xlink:title=" ">
<path fill="none" stroke="#63b8ff" d="M88.92,-43.57C109.46,-37.57 135.5,-29.95 157.59,-23.49"/>
<polygon fill="#63b8ff" stroke="#63b8ff" points="158.46,-26.59 167.08,-20.43 156.5,-19.88 158.46,-26.59"/>
</a>
</g>
</g>
<!-- Node3&#45;&gt;Node2 -->
<g id="edge3_Node000003_Node000002" class="edge">
<title>Node3&#45;&gt;Node2</title>
<g id="a_edge3_Node000003_Node000002"><a xlink:title=" ">
<path fill="none" stroke="#63b8ff" d="M262.35,-70.38C272.73,-73.39 283.63,-76.54 294.2,-79.6"/>
<polygon fill="#63b8ff" stroke="#63b8ff" points="293.05,-83.2 303.63,-82.62 295,-76.48 293.05,-83.2"/>
</a>
</g>
</g>
<!-- Node4 -->
<g id="Node000004" class="node">
<title>Node4</title>
<g id="a_Node000004"><a xlink:href="class_magnetic_sensor_view.html#a0c3d7ba43abf57a057d86ca8ea84c99b" target="_top" xlink:title=" ">
<polygon fill="white" stroke="#666666" points="412.5,-64 305,-64 305,-32 412.5,-32 412.5,-64"/>
<text text-anchor="start" x="313" y="-50.5" font-family="Helvetica,sans-Serif" font-size="10.00">MagneticSensorView</text>
<text text-anchor="middle" x="358.75" y="-38.5" font-family="Helvetica,sans-Serif" font-size="10.00">::getSwitchView</text>
</a>
</g>
</g>
<!-- Node3&#45;&gt;Node4 -->
<g id="edge4_Node000003_Node000004" class="edge">
<title>Node3&#45;&gt;Node4</title>
<g id="a_edge4_Node000003_Node000004"><a xlink:title=" ">
<path fill="none" stroke="#63b8ff" d="M269.33,-51.49C277.38,-51.17 285.63,-50.85 293.69,-50.53"/>
<polygon fill="#63b8ff" stroke="#63b8ff" points="293.68,-53.99 303.53,-50.1 293.4,-47 293.68,-53.99"/>
</a>
</g>
</g>
</g>
</svg>
</svg>

<style type='text/css'>
<![CDATA[
[data-mouse-over-selected='false'] { opacity: 0.7; }
[data-mouse-over-selected='true']  { opacity: 1.0; }
]]>
</style>
<script type="application/ecmascript"><![CDATA[
document.addEventListener('DOMContentLoaded', (event) => {
  highlightEdges();
  highlightAdjacentNodes();
});
]]></script>
</svg>
