<?xml version="1.0" encoding="UTF-8" standalone="no"?>
<!DOCTYPE svg PUBLIC "-//W3C//DTD SVG 1.1//EN"
 "http://www.w3.org/Graphics/SVG/1.1/DTD/svg11.dtd">
<!-- Generated by graphviz version 8.0.5 (20230430.1635)
 -->
<!-- Title: MagneticSensorView::getSwitchView Pages: 1 -->
<svg width="463pt" height="90pt"
 viewBox="0.00 0.00 463.25 90.00" xmlns="http://www.w3.org/2000/svg" xmlns:xlink="http://www.w3.org/1999/xlink">
<g id="graph0" class="graph" transform="scale(1 1) rotate(0) translate(4 86)">
<title>MagneticSensorView::getSwitchView</title>
<!-- Node1 -->
<g id="Node000001" class="node">
<title>Node1</title>
<g id="a_Node000001"><a xlink:title=" ">
<polygon fill="#999999" stroke="#666666" points="455.25,-57 347.75,-57 347.75,-25 455.25,-25 455.25,-57"/>
<text text-anchor="start" x="355.75" y="-43.5" font-family="Helvetica,sans-Serif" font-size="10.00">MagneticSensorView</text>
<text text-anchor="middle" x="401.5" y="-31.5" font-family="Helvetica,sans-Serif" font-size="10.00">::getSwitchView</text>
</a>
</g>
</g>
<!-- Node2 -->
<g id="Node000002" class="node">
<title>Node2</title>
<g id="a_Node000002"><a xlink:href="class_door_view.html#ad059eb585444fc7ce745fed7d42a7f53" target="_top" xlink:title=" ">
<polygon fill="white" stroke="#666666" points="304.62,-82 176.12,-82 176.12,-50 304.62,-50 304.62,-82"/>
<text text-anchor="start" x="184.12" y="-68.5" font-family="Helvetica,sans-Serif" font-size="10.00">DoorView::installMagnetic</text>
<text text-anchor="middle" x="240.38" y="-56.5" font-family="Helvetica,sans-Serif" font-size="10.00">Sensor</text>
</a>
</g>
</g>
<!-- Node1&#45;&gt;Node2 -->
<g id="edge1_Node000001_Node000002" class="edge">
<title>Node1&#45;&gt;Node2</title>
<g id="a_edge1_Node000001_Node000002"><a xlink:title=" ">
<path fill="none" stroke="#63b8ff" d="M336.75,-51.02C326.26,-52.66 315.39,-54.37 304.9,-56.02"/>
<polygon fill="#63b8ff" stroke="#63b8ff" points="337.18,-54.33 346.51,-49.32 336.09,-47.42 337.18,-54.33"/>
</a>
</g>
</g>
<!-- Node4 -->
<g id="Node000004" class="node">
<title>Node4</title>
<g id="a_Node000004"><a xlink:href="class_window_view.html#a53f0f8a3b2d70717d7cde5e57caf3d82" target="_top" xlink:title=" ">
<polygon fill="white" stroke="#666666" points="311.75,-32 169,-32 169,0 311.75,0 311.75,-32"/>
<text text-anchor="start" x="177" y="-18.5" font-family="Helvetica,sans-Serif" font-size="10.00">WindowView::installMagnetic</text>
<text text-anchor="middle" x="240.38" y="-6.5" font-family="Helvetica,sans-Serif" font-size="10.00">Sensor</text>
</a>
</g>
</g>
<!-- Node1&#45;&gt;Node4 -->
<g id="edge3_Node000001_Node000004" class="edge">
<title>Node1&#45;&gt;Node4</title>
<g id="a_edge3_Node000001_Node000004"><a xlink:title=" ">
<path fill="none" stroke="#63b8ff" d="M336.9,-31.01C328.71,-29.72 320.27,-28.4 311.97,-27.09"/>
<polygon fill="#63b8ff" stroke="#63b8ff" points="336.09,-34.58 346.51,-32.68 337.18,-27.67 336.09,-34.58"/>
</a>
</g>
</g>
<!-- Node3 -->
<g id="Node000003" class="node">
<title>Node3</title>
<g id="a_Node000003"><a xlink:href="class_door_view.html#a42fcff1365167f13a52f96d4cde8d01d" target="_top" xlink:title=" ">
<polygon fill="white" stroke="#666666" points="118.75,-76 14.25,-76 14.25,-56 118.75,-56 118.75,-76"/>
<text text-anchor="middle" x="66.5" y="-62.5" font-family="Helvetica,sans-Serif" font-size="10.00">DoorView::DoorView</text>
</a>
</g>
</g>
<!-- Node2&#45;&gt;Node3 -->
<g id="edge2_Node000002_Node000003" class="edge">
<title>Node2&#45;&gt;Node3</title>
<g id="a_edge2_Node000002_Node000003"><a xlink:title=" ">
<path fill="none" stroke="#63b8ff" d="M165.24,-66C149.74,-66 133.71,-66 119.24,-66"/>
<polygon fill="#63b8ff" stroke="#63b8ff" points="164.86,-69.5 174.86,-66 164.86,-62.5 164.86,-69.5"/>
</a>
</g>
</g>
<!-- Node5 -->
<g id="Node000005" class="node">
<title>Node5</title>
<g id="a_Node000005"><a xlink:href="class_window_view.html#afc6603d9a903376770f09cee09c9f3e6" target="_top" xlink:title=" ">
<polygon fill="white" stroke="#666666" points="133,-26 0,-26 0,-6 133,-6 133,-26"/>
<text text-anchor="middle" x="66.5" y="-12.5" font-family="Helvetica,sans-Serif" font-size="10.00">WindowView::WindowView</text>
</a>
</g>
</g>
<!-- Node4&#45;&gt;Node5 -->
<g id="edge4_Node000004_Node000005" class="edge">
<title>Node4&#45;&gt;Node5</title>
<g id="a_edge4_Node000004_Node000005"><a xlink:title=" ">
<path fill="none" stroke="#63b8ff" d="M158.12,-16C149.83,-16 141.47,-16 133.37,-16"/>
<polygon fill="#63b8ff" stroke="#63b8ff" points="157.97,-19.5 167.97,-16 157.97,-12.5 157.97,-19.5"/>
</a>
</g>
</g>
</g>
</svg>
