<?xml version="1.0" encoding="UTF-8" standalone="no"?>
<!DOCTYPE svg PUBLIC "-//W3C//DTD SVG 1.1//EN"
 "http://www.w3.org/Graphics/SVG/1.1/DTD/svg11.dtd">
<!-- Generated by graphviz version 8.0.5 (20230430.1635)
 -->
<!-- Title: MagneticSensorView::getMagnetView Pages: 1 -->
<svg width="463pt" height="131pt"
 viewBox="0.00 0.00 463.25 131.23" xmlns="http://www.w3.org/2000/svg" xmlns:xlink="http://www.w3.org/1999/xlink">

<svg id="main" version="1.1" xmlns="http://www.w3.org/2000/svg" xmlns:xlink="http://www.w3.org/1999/xlink" xml:space="preserve" onload="init(evt)">
<style type="text/css"><![CDATA[
.node, .edge {opacity: 0.7;}
.node.selected, .edge.selected {opacity: 1;}
.edge:hover path { stroke: red; }
.edge:hover polygon { stroke: red; fill: red; }
]]></style>
<script type="application/ecmascript" xlink:href="svg.min.js"/>
<svg id="graph" class="graph">
<g id="graph0" class="graph" transform="scale(1 1) rotate(0) translate(4 127.23)">
<title>MagneticSensorView::getMagnetView</title>
<!-- Node1 -->
<g id="Node000001" class="node">
<title>Node1</title>
<g id="a_Node000001"><a xlink:title=" ">
<polygon fill="#999999" stroke="#666666" points="455.25,-77.7 347.75,-77.7 347.75,-45.7 455.25,-45.7 455.25,-77.7"/>
<text text-anchor="start" x="355.75" y="-64.2" font-family="Helvetica,sans-Serif" font-size="10.00">MagneticSensorView</text>
<text text-anchor="middle" x="401.5" y="-52.2" font-family="Helvetica,sans-Serif" font-size="10.00">::getMagnetView</text>
</a>
</g>
</g>
<!-- Node2 -->
<g id="Node000002" class="node">
<title>Node2</title>
<g id="a_Node000002"><a xlink:href="class_door_view.html#a42fcff1365167f13a52f96d4cde8d01d" target="_top" xlink:title=" ">
<polygon fill="white" stroke="#666666" points="118.75,-118.7 14.25,-118.7 14.25,-98.7 118.75,-98.7 118.75,-118.7"/>
<text text-anchor="middle" x="66.5" y="-105.2" font-family="Helvetica,sans-Serif" font-size="10.00">DoorView::DoorView</text>
</a>
</g>
</g>
<!-- Node1&#45;&gt;Node2 -->
<g id="edge1_Node000001_Node000002" class="edge">
<title>Node1&#45;&gt;Node2</title>
<g id="a_edge1_Node000001_Node000002"><a xlink:title=" ">
<path fill="none" stroke="#63b8ff" d="M369.84,-84.16C353.48,-94.76 332.48,-106.26 311.75,-111.7 246.94,-128.7 169.09,-123.57 118.98,-117.15"/>
<polygon fill="#63b8ff" stroke="#63b8ff" points="371.55,-86.55 377.9,-78.07 367.65,-80.74 371.55,-86.55"/>
</a>
</g>
</g>
<!-- Node3 -->
<g id="Node000003" class="node">
<title>Node3</title>
<g id="a_Node000003"><a xlink:href="class_door_view.html#ad059eb585444fc7ce745fed7d42a7f53" target="_top" xlink:title=" ">
<polygon fill="white" stroke="#666666" points="304.62,-102.7 176.12,-102.7 176.12,-70.7 304.62,-70.7 304.62,-102.7"/>
<text text-anchor="start" x="184.12" y="-89.2" font-family="Helvetica,sans-Serif" font-size="10.00">DoorView::installMagnetic</text>
<text text-anchor="middle" x="240.38" y="-77.2" font-family="Helvetica,sans-Serif" font-size="10.00">Sensor</text>
</a>
</g>
</g>
<!-- Node1&#45;&gt;Node3 -->
<g id="edge2_Node000001_Node000003" class="edge">
<title>Node1&#45;&gt;Node3</title>
<g id="a_edge2_Node000001_Node000003"><a xlink:title=" ">
<path fill="none" stroke="#63b8ff" d="M336.75,-71.71C326.26,-73.36 315.39,-75.07 304.9,-76.71"/>
<polygon fill="#63b8ff" stroke="#63b8ff" points="337.18,-75.03 346.51,-70.02 336.09,-68.11 337.18,-75.03"/>
</a>
</g>
</g>
<!-- Node4 -->
<g id="Node000004" class="node">
<title>Node4</title>
<g id="a_Node000004"><a xlink:href="class_window_view.html#a53f0f8a3b2d70717d7cde5e57caf3d82" target="_top" xlink:title=" ">
<polygon fill="white" stroke="#666666" points="311.75,-52.7 169,-52.7 169,-20.7 311.75,-20.7 311.75,-52.7"/>
<text text-anchor="start" x="177" y="-39.2" font-family="Helvetica,sans-Serif" font-size="10.00">WindowView::installMagnetic</text>
<text text-anchor="middle" x="240.38" y="-27.2" font-family="Helvetica,sans-Serif" font-size="10.00">Sensor</text>
</a>
</g>
</g>
<!-- Node1&#45;&gt;Node4 -->
<g id="edge4_Node000001_Node000004" class="edge">
<title>Node1&#45;&gt;Node4</title>
<g id="a_edge4_Node000001_Node000004"><a xlink:title=" ">
<path fill="none" stroke="#63b8ff" d="M336.9,-51.7C328.71,-50.42 320.27,-49.09 311.97,-47.79"/>
<polygon fill="#63b8ff" stroke="#63b8ff" points="336.09,-55.28 346.51,-53.37 337.18,-48.36 336.09,-55.28"/>
</a>
</g>
</g>
<!-- Node5 -->
<g id="Node000005" class="node">
<title>Node5</title>
<g id="a_Node000005"><a xlink:href="class_window_view.html#afc6603d9a903376770f09cee09c9f3e6" target="_top" xlink:title=" ">
<polygon fill="white" stroke="#666666" points="133,-24.7 0,-24.7 0,-4.7 133,-4.7 133,-24.7"/>
<text text-anchor="middle" x="66.5" y="-11.2" font-family="Helvetica,sans-Serif" font-size="10.00">WindowView::WindowView</text>
</a>
</g>
</g>
<!-- Node1&#45;&gt;Node5 -->
<g id="edge6_Node000001_Node000005" class="edge">
<title>Node1&#45;&gt;Node5</title>
<g id="a_edge6_Node000001_Node000005"><a xlink:title=" ">
<path fill="none" stroke="#63b8ff" d="M369.84,-39.23C353.48,-28.63 332.48,-17.13 311.75,-11.7 252.89,3.75 183.27,0.93 133.45,-4.52"/>
<polygon fill="#63b8ff" stroke="#63b8ff" points="367.65,-42.65 377.9,-45.32 371.55,-36.84 367.65,-42.65"/>
</a>
</g>
</g>
<!-- Node3&#45;&gt;Node2 -->
<g id="edge3_Node000003_Node000002" class="edge">
<title>Node3&#45;&gt;Node2</title>
<g id="a_edge3_Node000003_Node000002"><a xlink:title=" ">
<path fill="none" stroke="#63b8ff" d="M165.24,-96.18C149.74,-98.17 133.71,-100.22 119.24,-102.07"/>
<polygon fill="#63b8ff" stroke="#63b8ff" points="165.39,-99.57 174.86,-94.82 164.5,-92.62 165.39,-99.57"/>
</a>
</g>
</g>
<!-- Node4&#45;&gt;Node5 -->
<g id="edge5_Node000004_Node000005" class="edge">
<title>Node4&#45;&gt;Node5</title>
<g id="a_edge5_Node000004_Node000005"><a xlink:title=" ">
<path fill="none" stroke="#63b8ff" d="M158.12,-26.29C149.83,-25.23 141.47,-24.16 133.37,-23.13"/>
<polygon fill="#63b8ff" stroke="#63b8ff" points="157.61,-29.89 167.97,-27.68 158.5,-22.94 157.61,-29.89"/>
</a>
</g>
</g>
</g>
</svg>
</svg>

<style type='text/css'>
<![CDATA[
[data-mouse-over-selected='false'] { opacity: 0.7; }
[data-mouse-over-selected='true']  { opacity: 1.0; }
]]>
</style>
<script type="application/ecmascript"><![CDATA[
document.addEventListener('DOMContentLoaded', (event) => {
  highlightEdges();
  highlightAdjacentNodes();
});
]]></script>
</svg>
