<?xml version="1.0" encoding="UTF-8" standalone="no"?>
<!DOCTYPE svg PUBLIC "-//W3C//DTD SVG 1.1//EN"
 "http://www.w3.org/Graphics/SVG/1.1/DTD/svg11.dtd">
<!-- Generated by graphviz version 8.0.5 (20230430.1635)
 -->
<!-- Title: Door Pages: 1 -->
<svg width="245pt" height="817pt"
 viewBox="0.00 0.00 244.50 817.00" xmlns="http://www.w3.org/2000/svg" xmlns:xlink="http://www.w3.org/1999/xlink">
<g id="graph0" class="graph" transform="scale(1 1) rotate(0) translate(4 813)">
<title>Door</title>
<!-- Node1 -->
<g id="Node000001" class="node">
<title>Node1</title>
<g id="a_Node000001"><a xlink:title=" ">
<polygon fill="#999999" stroke="none" points="169.5,-328 91.5,-328 91.5,-244 169.5,-244 169.5,-328"/>
<text text-anchor="start" x="120.38" y="-314.5" font-family="Helvetica,sans-Serif" font-size="10.00">Door</text>
<text text-anchor="start" x="97" y="-298.5" font-family="Helvetica,sans-Serif" font-size="10.00">&#45;</text>
<text text-anchor="start" x="105.5" y="-298.5" font-family="Helvetica,sans-Serif" font-size="10.00">isClose</text>
<text text-anchor="start" x="95.5" y="-282.5" font-family="Helvetica,sans-Serif" font-size="10.00">+</text>
<text text-anchor="start" x="105.5" y="-282.5" font-family="Helvetica,sans-Serif" font-size="10.00">Door()</text>
<text text-anchor="start" x="95.5" y="-266.5" font-family="Helvetica,sans-Serif" font-size="10.00">+</text>
<text text-anchor="start" x="105.5" y="-266.5" font-family="Helvetica,sans-Serif" font-size="10.00">changeState()</text>
<text text-anchor="start" x="97" y="-250.5" font-family="Helvetica,sans-Serif" font-size="10.00">&#45;</text>
<text text-anchor="start" x="105.5" y="-250.5" font-family="Helvetica,sans-Serif" font-size="10.00">Door()</text>
<polygon fill="#666666" stroke="#666666" points="91.5,-310 91.5,-310 169.5,-310 169.5,-310 91.5,-310"/>
<polygon fill="#666666" stroke="#666666" points="91.5,-294 91.5,-294 103.5,-294 103.5,-294 91.5,-294"/>
<polygon fill="#666666" stroke="#666666" points="103.5,-294 103.5,-294 169.5,-294 169.5,-294 103.5,-294"/>
<polygon fill="none" stroke="#666666" points="91.5,-244 91.5,-328 169.5,-328 169.5,-244 91.5,-244"/>
</a>
</g>
</g>
<!-- Node6 -->
<g id="Node000006" class="node">
<title>Node6</title>
<g id="a_Node000006"><a xlink:href="class_door_view.html" target="_top" xlink:title=" ">
<polygon fill="white" stroke="none" points="236.5,-196 116.5,-196 116.5,0 236.5,0 236.5,-196"/>
<text text-anchor="start" x="155.88" y="-182.5" font-family="Helvetica,sans-Serif" font-size="10.00">DoorView</text>
<text text-anchor="start" x="122" y="-166.5" font-family="Helvetica,sans-Serif" font-size="10.00">&#45;</text>
<text text-anchor="start" x="130.5" y="-166.5" font-family="Helvetica,sans-Serif" font-size="10.00">doorPanel</text>
<text text-anchor="start" x="122" y="-150.5" font-family="Helvetica,sans-Serif" font-size="10.00">&#45;</text>
<text text-anchor="start" x="130.5" y="-150.5" font-family="Helvetica,sans-Serif" font-size="10.00">switchPillar</text>
<text text-anchor="start" x="122" y="-134.5" font-family="Helvetica,sans-Serif" font-size="10.00">&#45;</text>
<text text-anchor="start" x="130.5" y="-134.5" font-family="Helvetica,sans-Serif" font-size="10.00">magnet</text>
<text text-anchor="start" x="120.5" y="-118.5" font-family="Helvetica,sans-Serif" font-size="10.00">+</text>
<text text-anchor="start" x="130.5" y="-118.5" font-family="Helvetica,sans-Serif" font-size="10.00">DoorView()</text>
<text text-anchor="start" x="120.5" y="-102.5" font-family="Helvetica,sans-Serif" font-size="10.00">+</text>
<text text-anchor="start" x="130.5" y="-102.5" font-family="Helvetica,sans-Serif" font-size="10.00">setDoorModel()</text>
<text text-anchor="start" x="120.5" y="-86.5" font-family="Helvetica,sans-Serif" font-size="10.00">+</text>
<text text-anchor="start" x="130.5" y="-86.5" font-family="Helvetica,sans-Serif" font-size="10.00">setOpen()</text>
<text text-anchor="start" x="120.5" y="-70.5" font-family="Helvetica,sans-Serif" font-size="10.00">+</text>
<text text-anchor="start" x="130.5" y="-70.5" font-family="Helvetica,sans-Serif" font-size="10.00">setClose()</text>
<text text-anchor="start" x="120.5" y="-54.5" font-family="Helvetica,sans-Serif" font-size="10.00">+</text>
<text text-anchor="start" x="130.5" y="-54.5" font-family="Helvetica,sans-Serif" font-size="10.00">mousePressEvent()</text>
<text text-anchor="start" x="120.5" y="-38.5" font-family="Helvetica,sans-Serif" font-size="10.00">+</text>
<text text-anchor="start" x="130.5" y="-38.5" font-family="Helvetica,sans-Serif" font-size="10.00">~DoorView()</text>
<text text-anchor="start" x="122" y="-22.5" font-family="Helvetica,sans-Serif" font-size="10.00">&#45;</text>
<text text-anchor="start" x="130.5" y="-22.5" font-family="Helvetica,sans-Serif" font-size="10.00">installMagneticSensor()</text>
<text text-anchor="start" x="122" y="-6.5" font-family="Helvetica,sans-Serif" font-size="10.00">&#45;</text>
<text text-anchor="start" x="130.5" y="-6.5" font-family="Helvetica,sans-Serif" font-size="10.00">makeDoorView()</text>
<polygon fill="#666666" stroke="#666666" points="116.5,-178 116.5,-178 236.5,-178 236.5,-178 116.5,-178"/>
<polygon fill="#666666" stroke="#666666" points="116.5,-130 116.5,-130 128.5,-130 128.5,-130 116.5,-130"/>
<polygon fill="#666666" stroke="#666666" points="128.5,-130 128.5,-130 236.5,-130 236.5,-130 128.5,-130"/>
<polygon fill="none" stroke="#666666" points="116.5,0 116.5,-196 236.5,-196 236.5,0 116.5,0"/>
</a>
</g>
</g>
<!-- Node1&#45;&gt;Node6 -->
<g id="edge7_Node000006_Node000001" class="edge">
<title>Node1&#45;&gt;Node6</title>
<g id="a_edge7_Node000006_Node000001"><a xlink:title=" ">
<path fill="none" stroke="#63b8ff" d="M148.44,-244.14C150.69,-238.13 152.8,-231.95 154.5,-226 156.15,-220.25 157.69,-214.32 159.13,-208.31"/>
<polygon fill="none" stroke="#63b8ff" points="159.1,-208.46 156.52,-201.72 161.75,-196.76 164.32,-203.49 159.1,-208.46"/>
</a>
</g>
<text text-anchor="middle" x="173.62" y="-216.5" font-family="Helvetica,sans-Serif" font-size="10.00" fill="grey"> &#45;model</text>
</g>
<!-- Node2 -->
<g id="Node000002" class="node">
<title>Node2</title>
<g id="a_Node000002"><a xlink:href="class_magnetic_sensor.html" target="_top" xlink:title=" ">
<polygon fill="white" stroke="none" points="180.5,-540 80.5,-540 80.5,-376 180.5,-376 180.5,-540"/>
<text text-anchor="start" x="95.25" y="-526.5" font-family="Helvetica,sans-Serif" font-size="10.00">MagneticSensor</text>
<text text-anchor="start" x="129" y="-510.5" font-family="Helvetica,sans-Serif" font-size="10.00"> </text>
<text text-anchor="start" x="84.5" y="-494.5" font-family="Helvetica,sans-Serif" font-size="10.00">+</text>
<text text-anchor="start" x="94.5" y="-494.5" font-family="Helvetica,sans-Serif" font-size="10.00">MagneticSensor()</text>
<text text-anchor="start" x="84.5" y="-478.5" font-family="Helvetica,sans-Serif" font-size="10.00">+</text>
<text text-anchor="start" x="94.5" y="-478.5" font-family="Helvetica,sans-Serif" font-size="10.00">setSensorOpen()</text>
<text text-anchor="start" x="84.5" y="-462.5" font-family="Helvetica,sans-Serif" font-size="10.00">+</text>
<text text-anchor="start" x="94.5" y="-462.5" font-family="Helvetica,sans-Serif" font-size="10.00">setSensorClose()</text>
<text text-anchor="start" x="84.5" y="-446.5" font-family="Helvetica,sans-Serif" font-size="10.00">+</text>
<text text-anchor="start" x="94.5" y="-446.5" font-family="Helvetica,sans-Serif" font-size="10.00">MagneticSensor()</text>
<text text-anchor="start" x="84.5" y="-430.5" font-family="Helvetica,sans-Serif" font-size="10.00">+</text>
<text text-anchor="start" x="94.5" y="-430.5" font-family="Helvetica,sans-Serif" font-size="10.00">~MagneticSensor()</text>
<text text-anchor="start" x="84.5" y="-414.5" font-family="Helvetica,sans-Serif" font-size="10.00">+</text>
<text text-anchor="start" x="94.5" y="-414.5" font-family="Helvetica,sans-Serif" font-size="10.00">setSensorOpen()</text>
<text text-anchor="start" x="84.5" y="-398.5" font-family="Helvetica,sans-Serif" font-size="10.00">+</text>
<text text-anchor="start" x="94.5" y="-398.5" font-family="Helvetica,sans-Serif" font-size="10.00">setSensorClose()</text>
<text text-anchor="start" x="84.5" y="-382.5" font-family="Helvetica,sans-Serif" font-size="10.00">+</text>
<text text-anchor="start" x="94.5" y="-382.5" font-family="Helvetica,sans-Serif" font-size="10.00">getView()</text>
<polygon fill="#666666" stroke="#666666" points="80.5,-522 80.5,-522 180.5,-522 180.5,-522 80.5,-522"/>
<polygon fill="#666666" stroke="#666666" points="80.5,-506 80.5,-506 180.5,-506 180.5,-506 80.5,-506"/>
<polygon fill="none" stroke="#666666" points="80.5,-376 80.5,-540 180.5,-540 180.5,-376 80.5,-376"/>
</a>
</g>
</g>
<!-- Node2&#45;&gt;Node1 -->
<g id="edge1_Node000001_Node000002" class="edge">
<title>Node2&#45;&gt;Node1</title>
<g id="a_edge1_Node000001_Node000002"><a xlink:title=" ">
<path fill="none" stroke="#63b8ff" d="M130.5,-376.48C130.5,-364.39 130.5,-352.18 130.5,-340.83"/>
<polygon fill="none" stroke="#63b8ff" points="130.5,-340.86 126.5,-334.86 130.5,-328.86 134.5,-334.86 130.5,-340.86"/>
</a>
</g>
<text text-anchor="middle" x="168.75" y="-348.5" font-family="Helvetica,sans-Serif" font-size="10.00" fill="grey"> &#45;magneticSensor</text>
</g>
<!-- Node3 -->
<g id="Node000003" class="node">
<title>Node3</title>
<g id="a_Node000003"><a xlink:href="class_sensor.html" target="_top" xlink:title=" ">
<polygon fill="white" stroke="none" points="195.5,-712 133.5,-712 133.5,-596 195.5,-596 195.5,-712"/>
<text text-anchor="start" x="149.12" y="-698.5" font-family="Helvetica,sans-Serif" font-size="10.00">Sensor</text>
<text text-anchor="start" x="139" y="-682.5" font-family="Helvetica,sans-Serif" font-size="10.00">&#45;</text>
<text text-anchor="start" x="147.5" y="-682.5" font-family="Helvetica,sans-Serif" font-size="10.00">zone</text>
<text text-anchor="start" x="139" y="-666.5" font-family="Helvetica,sans-Serif" font-size="10.00">&#45;</text>
<text text-anchor="start" x="147.5" y="-666.5" font-family="Helvetica,sans-Serif" font-size="10.00">close</text>
<text text-anchor="start" x="137.5" y="-650.5" font-family="Helvetica,sans-Serif" font-size="10.00">+</text>
<text text-anchor="start" x="147.5" y="-650.5" font-family="Helvetica,sans-Serif" font-size="10.00">Sensor()</text>
<text text-anchor="start" x="137.5" y="-634.5" font-family="Helvetica,sans-Serif" font-size="10.00">+</text>
<text text-anchor="start" x="147.5" y="-634.5" font-family="Helvetica,sans-Serif" font-size="10.00">isClose()</text>
<text text-anchor="start" x="137.5" y="-618.5" font-family="Helvetica,sans-Serif" font-size="10.00">+</text>
<text text-anchor="start" x="147.5" y="-618.5" font-family="Helvetica,sans-Serif" font-size="10.00">getZone()</text>
<text text-anchor="start" x="137.88" y="-602.5" font-family="Helvetica,sans-Serif" font-size="10.00">#</text>
<text text-anchor="start" x="147.5" y="-602.5" font-family="Helvetica,sans-Serif" font-size="10.00">setClose()</text>
<polygon fill="#666666" stroke="#666666" points="133.5,-694 133.5,-694 195.5,-694 195.5,-694 133.5,-694"/>
<polygon fill="#666666" stroke="#666666" points="133.5,-662 133.5,-662 145.5,-662 145.5,-662 133.5,-662"/>
<polygon fill="#666666" stroke="#666666" points="145.5,-662 145.5,-662 195.5,-662 195.5,-662 145.5,-662"/>
<polygon fill="none" stroke="#666666" points="133.5,-596 133.5,-712 195.5,-712 195.5,-596 133.5,-596"/>
</a>
</g>
</g>
<!-- Node3&#45;&gt;Node2 -->
<g id="edge2_Node000002_Node000003" class="edge">
<title>Node3&#45;&gt;Node2</title>
<g id="a_edge2_Node000002_Node000003"><a xlink:title=" ">
<path fill="none" stroke="#63b8ff" d="M152.68,-585.53C150.08,-570.73 147.31,-554.92 144.64,-539.66"/>
<polygon fill="none" stroke="#63b8ff" points="149.35,-585.86 154.53,-595.1 156.25,-584.65 149.35,-585.86"/>
</a>
</g>
</g>
<!-- Node4 -->
<g id="Node000004" class="node">
<title>Node4</title>
<g id="a_Node000004"><a xlink:href="class_magnetic_sensor_view.html" target="_top" xlink:title=" ">
<polygon fill="white" stroke="none" points="115,-720 0,-720 0,-588 115,-588 115,-720"/>
<text text-anchor="start" x="11.75" y="-706.5" font-family="Helvetica,sans-Serif" font-size="10.00">MagneticSensorView</text>
<text text-anchor="start" x="5.5" y="-690.5" font-family="Helvetica,sans-Serif" font-size="10.00">&#45;</text>
<text text-anchor="start" x="14" y="-690.5" font-family="Helvetica,sans-Serif" font-size="10.00">switchView</text>
<text text-anchor="start" x="5.5" y="-674.5" font-family="Helvetica,sans-Serif" font-size="10.00">&#45;</text>
<text text-anchor="start" x="14" y="-674.5" font-family="Helvetica,sans-Serif" font-size="10.00">magnetView</text>
<text text-anchor="start" x="4" y="-658.5" font-family="Helvetica,sans-Serif" font-size="10.00">+</text>
<text text-anchor="start" x="14" y="-658.5" font-family="Helvetica,sans-Serif" font-size="10.00">MagneticSensorView()</text>
<text text-anchor="start" x="4" y="-642.5" font-family="Helvetica,sans-Serif" font-size="10.00">+</text>
<text text-anchor="start" x="14" y="-642.5" font-family="Helvetica,sans-Serif" font-size="10.00">setCloseView()</text>
<text text-anchor="start" x="4" y="-626.5" font-family="Helvetica,sans-Serif" font-size="10.00">+</text>
<text text-anchor="start" x="14" y="-626.5" font-family="Helvetica,sans-Serif" font-size="10.00">setOpenView()</text>
<text text-anchor="start" x="4" y="-610.5" font-family="Helvetica,sans-Serif" font-size="10.00">+</text>
<text text-anchor="start" x="14" y="-610.5" font-family="Helvetica,sans-Serif" font-size="10.00">getSwitchView()</text>
<text text-anchor="start" x="4" y="-594.5" font-family="Helvetica,sans-Serif" font-size="10.00">+</text>
<text text-anchor="start" x="14" y="-594.5" font-family="Helvetica,sans-Serif" font-size="10.00">getMagnetView()</text>
<polygon fill="#666666" stroke="#666666" points="0,-702 0,-702 115,-702 115,-702 0,-702"/>
<polygon fill="#666666" stroke="#666666" points="0,-670 0,-670 12,-670 12,-670 0,-670"/>
<polygon fill="#666666" stroke="#666666" points="12,-670 12,-670 115,-670 115,-670 12,-670"/>
<polygon fill="none" stroke="#666666" points="0,-588 0,-720 115,-720 115,-588 0,-588"/>
</a>
</g>
</g>
<!-- Node4&#45;&gt;Node2 -->
<g id="edge3_Node000002_Node000004" class="edge">
<title>Node4&#45;&gt;Node2</title>
<g id="a_edge3_Node000002_Node000004"><a xlink:title=" ">
<path fill="none" stroke="#63b8ff" d="M81.91,-588.13C86.29,-576.48 90.94,-564.14 95.55,-551.88"/>
<polygon fill="none" stroke="#63b8ff" points="95.6,-551.76 93.97,-544.73 99.82,-540.52 101.45,-547.55 95.6,-551.76"/>
</a>
</g>
<text text-anchor="middle" x="104.5" y="-560.5" font-family="Helvetica,sans-Serif" font-size="10.00" fill="grey"> &#45;view</text>
</g>
<!-- Node5 -->
<g id="Node000005" class="node">
<title>Node5</title>
<g id="a_Node000005"><a xlink:title=" ">
<polygon fill="white" stroke="none" points="191,-809 90,-809 90,-757 191,-757 191,-809"/>
<text text-anchor="start" x="94.75" y="-795.5" font-family="Helvetica,sans-Serif" font-size="10.00">QGraphicsItemGroup</text>
<text text-anchor="start" x="139" y="-779.5" font-family="Helvetica,sans-Serif" font-size="10.00"> </text>
<text text-anchor="start" x="139" y="-763.5" font-family="Helvetica,sans-Serif" font-size="10.00"> </text>
<polygon fill="#666666" stroke="#666666" points="90,-791 90,-791 191,-791 191,-791 90,-791"/>
<polygon fill="#666666" stroke="#666666" points="90,-775 90,-775 191,-775 191,-775 90,-775"/>
<polygon fill="none" stroke="#666666" points="90,-757 90,-809 191,-809 191,-757 90,-757"/>
</a>
</g>
</g>
<!-- Node5&#45;&gt;Node4 -->
<g id="edge4_Node000004_Node000005" class="edge">
<title>Node5&#45;&gt;Node4</title>
<g id="a_edge4_Node000004_Node000005"><a xlink:title=" ">
<path fill="none" stroke="#63b8ff" d="M118.35,-748.11C112.62,-739.34 106.25,-729.59 99.85,-719.79"/>
<polygon fill="none" stroke="#63b8ff" points="115.9,-749.76 124.3,-756.21 121.76,-745.93 115.9,-749.76"/>
</a>
</g>
</g>
<!-- Node5&#45;&gt;Node6 -->
<g id="edge6_Node000006_Node000005" class="edge">
<title>Node5&#45;&gt;Node6</title>
<g id="a_edge6_Node000006_Node000005"><a xlink:title=" ">
<path fill="none" stroke="#63b8ff" d="M180.19,-749.8C189.2,-740.93 198.01,-730.76 204.5,-720 220.05,-694.23 223.5,-685.1 223.5,-655 223.5,-655 223.5,-655 223.5,-285 223.5,-255.52 217.88,-224.2 210.53,-195.83"/>
<polygon fill="none" stroke="#63b8ff" points="178.16,-746.85 173.27,-756.25 182.96,-751.95 178.16,-746.85"/>
</a>
</g>
</g>
<!-- Node6&#45;&gt;Node1 -->
<g id="edge5_Node000001_Node000006" class="edge">
<title>Node6&#45;&gt;Node1</title>
<g id="a_edge5_Node000001_Node000006"><a xlink:title=" ">
<path fill="none" stroke="#63b8ff" d="M134.83,-195.78C133.13,-201.88 131.66,-207.98 130.5,-214 129.42,-219.6 128.73,-225.49 128.33,-231.39"/>
<polygon fill="none" stroke="#63b8ff" points="128.33,-231.31 132.11,-237.45 127.89,-243.3 124.11,-237.15 128.33,-231.31"/>
</a>
</g>
<text text-anchor="middle" x="142.5" y="-216.5" font-family="Helvetica,sans-Serif" font-size="10.00" fill="grey"> &#45;view</text>
</g>
</g>
</svg>
