<?xml version="1.0" encoding="UTF-8" standalone="no"?>
<!DOCTYPE svg PUBLIC "-//W3C//DTD SVG 1.1//EN"
 "http://www.w3.org/Graphics/SVG/1.1/DTD/svg11.dtd">
<!-- Generated by graphviz version 8.0.5 (20230430.1635)
 -->
<!-- Title: HouseWindow::activateSensorClicked Pages: 1 -->
<svg width="593pt" height="85pt"
 viewBox="0.00 0.00 592.50 85.00" xmlns="http://www.w3.org/2000/svg" xmlns:xlink="http://www.w3.org/1999/xlink">
<g id="graph0" class="graph" transform="scale(1 1) rotate(0) translate(4 81)">
<title>HouseWindow::activateSensorClicked</title>
<!-- Node1 -->
<g id="Node000001" class="node">
<title>Node1</title>
<g id="a_Node000001"><a xlink:title=" ">
<polygon fill="#999999" stroke="#666666" points="148,-64 0,-64 0,-32 148,-32 148,-64"/>
<text text-anchor="start" x="8" y="-50.5" font-family="Helvetica,sans-Serif" font-size="10.00">HouseWindow::activateSensor</text>
<text text-anchor="middle" x="74" y="-38.5" font-family="Helvetica,sans-Serif" font-size="10.00">Clicked</text>
</a>
</g>
</g>
<!-- Node2 -->
<g id="Node000002" class="node">
<title>Node2</title>
<g id="a_Node000002"><a xlink:href="class_central.html#a76f3835048926b3c7a15b0e21ca5ac68" target="_top" xlink:title=" ">
<polygon fill="white" stroke="#666666" points="275.38,-77 185.88,-77 185.88,-57 275.38,-57 275.38,-77"/>
<text text-anchor="middle" x="230.62" y="-63.5" font-family="Helvetica,sans-Serif" font-size="10.00">Central::getLabel</text>
</a>
</g>
</g>
<!-- Node1&#45;&gt;Node2 -->
<g id="edge1_Node000001_Node000002" class="edge">
<title>Node1&#45;&gt;Node2</title>
<g id="a_edge1_Node000001_Node000002"><a xlink:title=" ">
<path fill="none" stroke="#63b8ff" d="M148.24,-57C157.24,-58.11 166.31,-59.22 174.97,-60.28"/>
<polygon fill="#63b8ff" stroke="#63b8ff" points="174.33,-63.85 184.68,-61.6 175.18,-56.91 174.33,-63.85"/>
</a>
</g>
</g>
<!-- Node3 -->
<g id="Node000003" class="node">
<title>Node3</title>
<g id="a_Node000003"><a xlink:href="class_central.html#a0e21a755f86da9476aa543cd3958fad4" target="_top" xlink:title=" ">
<polygon fill="white" stroke="#666666" points="277.25,-39 184,-39 184,-19 277.25,-19 277.25,-39"/>
<text text-anchor="middle" x="230.62" y="-25.5" font-family="Helvetica,sans-Serif" font-size="10.00">Central::perimeter</text>
</a>
</g>
</g>
<!-- Node1&#45;&gt;Node3 -->
<g id="edge2_Node000001_Node000003" class="edge">
<title>Node1&#45;&gt;Node3</title>
<g id="a_edge2_Node000001_Node000003"><a xlink:title=" ">
<path fill="none" stroke="#63b8ff" d="M148.24,-39C156.5,-37.99 164.83,-36.96 172.84,-35.98"/>
<polygon fill="#63b8ff" stroke="#63b8ff" points="173.03,-39.36 182.53,-34.66 172.18,-32.41 173.03,-39.36"/>
</a>
</g>
</g>
<!-- Node4 -->
<g id="Node000004" class="node">
<title>Node4</title>
<g id="a_Node000004"><a xlink:href="class_central.html#a5c7be0ff86909135d83e97bf19e77e5b" target="_top" xlink:title=" ">
<polygon fill="white" stroke="#666666" points="418.5,-39 313.25,-39 313.25,-19 418.5,-19 418.5,-39"/>
<text text-anchor="middle" x="365.88" y="-25.5" font-family="Helvetica,sans-Serif" font-size="10.00">Central::checkZones</text>
</a>
</g>
</g>
<!-- Node3&#45;&gt;Node4 -->
<g id="edge3_Node000003_Node000004" class="edge">
<title>Node3&#45;&gt;Node4</title>
<g id="a_edge3_Node000003_Node000004"><a xlink:title=" ">
<path fill="none" stroke="#63b8ff" d="M277.48,-29C285.44,-29 293.83,-29 302.15,-29"/>
<polygon fill="#63b8ff" stroke="#63b8ff" points="301.99,-32.5 311.99,-29 301.99,-25.5 301.99,-32.5"/>
</a>
</g>
</g>
<!-- Node5 -->
<g id="Node000005" class="node">
<title>Node5</title>
<g id="a_Node000005"><a xlink:href="class_central.html#a6d6decbdb1c66b9b2b34626f93d52b58" target="_top" xlink:title=" ">
<polygon fill="white" stroke="#666666" points="584.5,-58 454.5,-58 454.5,-38 584.5,-38 584.5,-58"/>
<text text-anchor="middle" x="519.5" y="-44.5" font-family="Helvetica,sans-Serif" font-size="10.00">Central::checkCloseZones</text>
</a>
</g>
</g>
<!-- Node4&#45;&gt;Node5 -->
<g id="edge4_Node000004_Node000005" class="edge">
<title>Node4&#45;&gt;Node5</title>
<g id="a_edge4_Node000004_Node000005"><a xlink:title=" ">
<path fill="none" stroke="#63b8ff" d="M418.63,-35.49C426.57,-36.48 434.89,-37.52 443.21,-38.57"/>
<polygon fill="#63b8ff" stroke="#63b8ff" points="442.75,-42.16 453.1,-39.93 443.62,-35.21 442.75,-42.16"/>
</a>
</g>
</g>
<!-- Node6 -->
<g id="Node000006" class="node">
<title>Node6</title>
<g id="a_Node000006"><a xlink:href="class_central.html#a5db18ec0ac455c386758ff4071bdd510" target="_top" xlink:title=" ">
<polygon fill="white" stroke="#666666" points="575.12,-20 463.88,-20 463.88,0 575.12,0 575.12,-20"/>
<text text-anchor="middle" x="519.5" y="-6.5" font-family="Helvetica,sans-Serif" font-size="10.00">Central::labelChanged</text>
</a>
</g>
</g>
<!-- Node4&#45;&gt;Node6 -->
<g id="edge5_Node000004_Node000006" class="edge">
<title>Node4&#45;&gt;Node6</title>
<g id="a_edge5_Node000004_Node000006"><a xlink:title=" ">
<path fill="none" stroke="#63b8ff" d="M418.63,-22.51C429.62,-21.14 441.36,-19.67 452.79,-18.23"/>
<polygon fill="#63b8ff" stroke="#63b8ff" points="453.12,-21.59 462.61,-16.88 452.25,-14.65 453.12,-21.59"/>
</a>
</g>
</g>
</g>
</svg>
