<?xml version="1.0" encoding="UTF-8" standalone="no"?>
<!DOCTYPE svg PUBLIC "-//W3C//DTD SVG 1.1//EN"
 "http://www.w3.org/Graphics/SVG/1.1/DTD/svg11.dtd">
<!-- Generated by graphviz version 8.0.5 (20230430.1635)
 -->
<!-- Title: DoorView::setOpen Pages: 1 -->
<svg width="419pt" height="28pt"
 viewBox="0.00 0.00 419.00 28.00" xmlns="http://www.w3.org/2000/svg" xmlns:xlink="http://www.w3.org/1999/xlink">
<g id="graph0" class="graph" transform="scale(1 1) rotate(0) translate(4 24)">
<title>DoorView::setOpen</title>
<!-- Node1 -->
<g id="Node000001" class="node">
<title>Node1</title>
<g id="a_Node000001"><a xlink:title=" ">
<polygon fill="#999999" stroke="#666666" points="411,-20 311,-20 311,0 411,0 411,-20"/>
<text text-anchor="middle" x="361" y="-6.5" font-family="Helvetica,sans-Serif" font-size="10.00">DoorView::setOpen</text>
</a>
</g>
</g>
<!-- Node2 -->
<g id="Node000002" class="node">
<title>Node2</title>
<g id="a_Node000002"><a xlink:href="class_door.html#a7eb5d6571d7eda319e262efc2c61893f" target="_top" xlink:title=" ">
<polygon fill="white" stroke="#666666" points="275,-20 178,-20 178,0 275,0 275,-20"/>
<text text-anchor="middle" x="226.5" y="-6.5" font-family="Helvetica,sans-Serif" font-size="10.00">Door::changeState</text>
</a>
</g>
</g>
<!-- Node1&#45;&gt;Node2 -->
<g id="edge1_Node000001_Node000002" class="edge">
<title>Node1&#45;&gt;Node2</title>
<g id="a_edge1_Node000001_Node000002"><a xlink:title=" ">
<path fill="none" stroke="#63b8ff" d="M299.87,-10C291.58,-10 283.15,-10 275.12,-10"/>
<polygon fill="#63b8ff" stroke="#63b8ff" points="299.66,-13.5 309.66,-10 299.66,-6.5 299.66,-13.5"/>
</a>
</g>
</g>
<!-- Node3 -->
<g id="Node000003" class="node">
<title>Node3</title>
<g id="a_Node000003"><a xlink:href="class_door_view.html#a9ca2aa9585550b49e08cf32215156e10" target="_top" xlink:title=" ">
<polygon fill="white" stroke="#666666" points="142,-20 0,-20 0,0 142,0 142,-20"/>
<text text-anchor="middle" x="71" y="-6.5" font-family="Helvetica,sans-Serif" font-size="10.00">DoorView::mousePressEvent</text>
</a>
</g>
</g>
<!-- Node2&#45;&gt;Node3 -->
<g id="edge2_Node000002_Node000003" class="edge">
<title>Node2&#45;&gt;Node3</title>
<g id="a_edge2_Node000002_Node000003"><a xlink:title=" ">
<path fill="none" stroke="#63b8ff" d="M166.96,-10C158.88,-10 150.51,-10 142.24,-10"/>
<polygon fill="#63b8ff" stroke="#63b8ff" points="166.77,-13.5 176.77,-10 166.77,-6.5 166.77,-13.5"/>
</a>
</g>
</g>
</g>
</svg>
