<?xml version="1.0" encoding="UTF-8" standalone="no"?>
<!DOCTYPE svg PUBLIC "-//W3C//DTD SVG 1.1//EN"
 "http://www.w3.org/Graphics/SVG/1.1/DTD/svg11.dtd">
<!-- Generated by graphviz version 8.0.5 (20230430.1635)
 -->
<!-- Title: MagneticSensor::setSensorClose Pages: 1 -->
<svg width="484pt" height="66pt"
 viewBox="0.00 0.00 484.25 66.00" xmlns="http://www.w3.org/2000/svg" xmlns:xlink="http://www.w3.org/1999/xlink">
<g id="graph0" class="graph" transform="scale(1 1) rotate(0) translate(4 62)">
<title>MagneticSensor::setSensorClose</title>
<!-- Node1 -->
<g id="Node000001" class="node">
<title>Node1</title>
<g id="a_Node000001"><a xlink:title=" ">
<polygon fill="#999999" stroke="#666666" points="476.25,-45 339.5,-45 339.5,-13 476.25,-13 476.25,-45"/>
<text text-anchor="start" x="347.5" y="-31.5" font-family="Helvetica,sans-Serif" font-size="10.00">MagneticSensor::setSensor</text>
<text text-anchor="middle" x="407.88" y="-19.5" font-family="Helvetica,sans-Serif" font-size="10.00">Close</text>
</a>
</g>
</g>
<!-- Node2 -->
<g id="Node000002" class="node">
<title>Node2</title>
<g id="a_Node000002"><a xlink:href="class_door.html#a7eb5d6571d7eda319e262efc2c61893f" target="_top" xlink:title=" ">
<polygon fill="white" stroke="#666666" points="296.38,-58 199.38,-58 199.38,-38 296.38,-38 296.38,-58"/>
<text text-anchor="middle" x="247.88" y="-44.5" font-family="Helvetica,sans-Serif" font-size="10.00">Door::changeState</text>
</a>
</g>
</g>
<!-- Node1&#45;&gt;Node2 -->
<g id="edge1_Node000001_Node000002" class="edge">
<title>Node1&#45;&gt;Node2</title>
<g id="a_edge1_Node000001_Node000002"><a xlink:title=" ">
<path fill="none" stroke="#63b8ff" d="M328.52,-38.42C317.6,-39.74 306.66,-41.05 296.54,-42.27"/>
<polygon fill="#63b8ff" stroke="#63b8ff" points="328.9,-41.78 338.41,-37.11 328.06,-34.83 328.9,-41.78"/>
</a>
</g>
</g>
<!-- Node4 -->
<g id="Node000004" class="node">
<title>Node4</title>
<g id="a_Node000004"><a xlink:href="class_window.html#a01150b51096d19c88e81ab1edd6ca272" target="_top" xlink:title=" ">
<polygon fill="white" stroke="#666666" points="303.5,-20 192.25,-20 192.25,0 303.5,0 303.5,-20"/>
<text text-anchor="middle" x="247.88" y="-6.5" font-family="Helvetica,sans-Serif" font-size="10.00">Window::changeState</text>
</a>
</g>
</g>
<!-- Node1&#45;&gt;Node4 -->
<g id="edge3_Node000001_Node000004" class="edge">
<title>Node1&#45;&gt;Node4</title>
<g id="a_edge3_Node000001_Node000004"><a xlink:title=" ">
<path fill="none" stroke="#63b8ff" d="M328.74,-19.6C320.28,-18.59 311.82,-17.57 303.72,-16.6"/>
<polygon fill="#63b8ff" stroke="#63b8ff" points="328.06,-23.17 338.41,-20.89 328.9,-16.22 328.06,-23.17"/>
</a>
</g>
</g>
<!-- Node3 -->
<g id="Node000003" class="node">
<title>Node3</title>
<g id="a_Node000003"><a xlink:href="class_door_view.html#a9ca2aa9585550b49e08cf32215156e10" target="_top" xlink:title=" ">
<polygon fill="white" stroke="#666666" points="149.12,-58 7.12,-58 7.12,-38 149.12,-38 149.12,-58"/>
<text text-anchor="middle" x="78.12" y="-44.5" font-family="Helvetica,sans-Serif" font-size="10.00">DoorView::mousePressEvent</text>
</a>
</g>
</g>
<!-- Node2&#45;&gt;Node3 -->
<g id="edge2_Node000002_Node000003" class="edge">
<title>Node2&#45;&gt;Node3</title>
<g id="a_edge2_Node000002_Node000003"><a xlink:title=" ">
<path fill="none" stroke="#63b8ff" d="M188.44,-48C175.84,-48 162.41,-48 149.42,-48"/>
<polygon fill="#63b8ff" stroke="#63b8ff" points="188.25,-51.5 198.25,-48 188.25,-44.5 188.25,-51.5"/>
</a>
</g>
</g>
<!-- Node5 -->
<g id="Node000005" class="node">
<title>Node5</title>
<g id="a_Node000005"><a xlink:href="class_window_view.html#ad1bf6bdfe84dcf011f25261d730e4cc9" target="_top" xlink:title=" ">
<polygon fill="white" stroke="#666666" points="156.25,-20 0,-20 0,0 156.25,0 156.25,-20"/>
<text text-anchor="middle" x="78.12" y="-6.5" font-family="Helvetica,sans-Serif" font-size="10.00">WindowView::mousePressEvent</text>
</a>
</g>
</g>
<!-- Node4&#45;&gt;Node5 -->
<g id="edge4_Node000004_Node000005" class="edge">
<title>Node4&#45;&gt;Node5</title>
<g id="a_edge4_Node000004_Node000005"><a xlink:title=" ">
<path fill="none" stroke="#63b8ff" d="M181.17,-10C173.14,-10 164.88,-10 156.7,-10"/>
<polygon fill="#63b8ff" stroke="#63b8ff" points="180.95,-13.5 190.95,-10 180.95,-6.5 180.95,-13.5"/>
</a>
</g>
</g>
</g>
</svg>
