<?xml version="1.0" encoding="UTF-8" standalone="no"?>
<!DOCTYPE svg PUBLIC "-//W3C//DTD SVG 1.1//EN"
 "http://www.w3.org/Graphics/SVG/1.1/DTD/svg11.dtd">
<!-- Generated by graphviz version 8.0.5 (20230430.1635)
 -->
<!-- Title: Central::getLabel Pages: 1 -->
<svg width="464pt" height="90pt"
 viewBox="0.00 0.00 464.00 90.00" xmlns="http://www.w3.org/2000/svg" xmlns:xlink="http://www.w3.org/1999/xlink">

<svg id="main" version="1.1" xmlns="http://www.w3.org/2000/svg" xmlns:xlink="http://www.w3.org/1999/xlink" xml:space="preserve" onload="init(evt)">
<style type="text/css"><![CDATA[
.node, .edge {opacity: 0.7;}
.node.selected, .edge.selected {opacity: 1;}
.edge:hover path { stroke: red; }
.edge:hover polygon { stroke: red; fill: red; }
]]></style>
<script type="application/ecmascript" xlink:href="svg.min.js"/>
<svg id="graph" class="graph">
<g id="graph0" class="graph" transform="scale(1 1) rotate(0) translate(4 86)">
<title>Central::getLabel</title>
<!-- Node1 -->
<g id="Node000001" class="node">
<title>Node1</title>
<g id="a_Node000001"><a xlink:title=" ">
<polygon fill="#999999" stroke="#666666" points="456,-51 366.5,-51 366.5,-31 456,-31 456,-51"/>
<text text-anchor="middle" x="411.25" y="-37.5" font-family="Helvetica,sans-Serif" font-size="10.00">Central::getLabel</text>
</a>
</g>
</g>
<!-- Node2 -->
<g id="Node000002" class="node">
<title>Node2</title>
<g id="a_Node000002"><a xlink:href="class_house_window.html#a18dbdb869155c26a90b5b89a535d31bd" target="_top" xlink:title=" ">
<polygon fill="white" stroke="#666666" points="330.5,-82 182.5,-82 182.5,-50 330.5,-50 330.5,-82"/>
<text text-anchor="start" x="190.5" y="-68.5" font-family="Helvetica,sans-Serif" font-size="10.00">HouseWindow::activateSensor</text>
<text text-anchor="middle" x="256.5" y="-56.5" font-family="Helvetica,sans-Serif" font-size="10.00">Clicked</text>
</a>
</g>
</g>
<!-- Node1&#45;&gt;Node2 -->
<g id="edge1_Node000001_Node000002" class="edge">
<title>Node1&#45;&gt;Node2</title>
<g id="a_edge1_Node000001_Node000002"><a xlink:title=" ">
<path fill="none" stroke="#63b8ff" d="M355.46,-49.97C347.5,-51.27 339.19,-52.63 330.94,-53.98"/>
<polygon fill="#63b8ff" stroke="#63b8ff" points="355.77,-53.3 365.07,-48.23 354.63,-46.39 355.77,-53.3"/>
</a>
</g>
</g>
<!-- Node4 -->
<g id="Node000004" class="node">
<title>Node4</title>
<g id="a_Node000004"><a xlink:href="class_house_window.html#aa0728cc945da23a28c8e89b1a4041275" target="_top" xlink:title=" ">
<polygon fill="white" stroke="#666666" points="323,-32 190,-32 190,0 323,0 323,-32"/>
<text text-anchor="start" x="198" y="-18.5" font-family="Helvetica,sans-Serif" font-size="10.00">HouseWindow::desactivate</text>
<text text-anchor="middle" x="256.5" y="-6.5" font-family="Helvetica,sans-Serif" font-size="10.00">SensorClicked</text>
</a>
</g>
</g>
<!-- Node1&#45;&gt;Node4 -->
<g id="edge3_Node000001_Node000004" class="edge">
<title>Node1&#45;&gt;Node4</title>
<g id="a_edge3_Node000001_Node000004"><a xlink:title=" ">
<path fill="none" stroke="#63b8ff" d="M355.5,-32.04C345.11,-30.34 334.15,-28.55 323.47,-26.8"/>
<polygon fill="#63b8ff" stroke="#63b8ff" points="354.63,-35.61 365.07,-33.77 355.77,-28.7 354.63,-35.61"/>
</a>
</g>
</g>
<!-- Node3 -->
<g id="Node000003" class="node">
<title>Node3</title>
<g id="a_Node000003"><a xlink:href="class_house_window.html#a8e5eeed0472a24b8554624766fc31e57" target="_top" xlink:title=" ">
<polygon fill="white" stroke="#666666" points="146.5,-51 0,-51 0,-31 146.5,-31 146.5,-51"/>
<text text-anchor="middle" x="73.25" y="-37.5" font-family="Helvetica,sans-Serif" font-size="10.00">HouseWindow::HouseWindow</text>
</a>
</g>
</g>
<!-- Node2&#45;&gt;Node3 -->
<g id="edge2_Node000002_Node000003" class="edge">
<title>Node2&#45;&gt;Node3</title>
<g id="a_edge2_Node000002_Node000003"><a xlink:title=" ">
<path fill="none" stroke="#63b8ff" d="M171.37,-54.4C163.21,-53.27 154.97,-52.13 146.93,-51.03"/>
<polygon fill="#63b8ff" stroke="#63b8ff" points="170.66,-57.97 181.04,-55.87 171.61,-51.03 170.66,-57.97"/>
</a>
</g>
</g>
<!-- Node4&#45;&gt;Node3 -->
<g id="edge4_Node000004_Node000003" class="edge">
<title>Node4&#45;&gt;Node3</title>
<g id="a_edge4_Node000004_Node000003"><a xlink:title=" ">
<path fill="none" stroke="#63b8ff" d="M178.68,-26.6C168.14,-28.05 157.35,-29.54 146.89,-30.98"/>
<polygon fill="#63b8ff" stroke="#63b8ff" points="179.12,-29.93 188.55,-25.1 178.17,-23 179.12,-29.93"/>
</a>
</g>
</g>
</g>
</svg>
</svg>

<style type='text/css'>
<![CDATA[
[data-mouse-over-selected='false'] { opacity: 0.7; }
[data-mouse-over-selected='true']  { opacity: 1.0; }
]]>
</style>
<script type="application/ecmascript"><![CDATA[
document.addEventListener('DOMContentLoaded', (event) => {
  highlightEdges();
  highlightAdjacentNodes();
});
]]></script>
</svg>
