<?xml version="1.0" encoding="UTF-8" standalone="no"?>
<!DOCTYPE svg PUBLIC "-//W3C//DTD SVG 1.1//EN"
 "http://www.w3.org/Graphics/SVG/1.1/DTD/svg11.dtd">
<!-- Generated by graphviz version 8.0.5 (20230430.1635)
 -->
<!-- Title: Central::Central Pages: 1 -->
<svg width="399pt" height="66pt"
 viewBox="0.00 0.00 398.75 66.00" xmlns="http://www.w3.org/2000/svg" xmlns:xlink="http://www.w3.org/1999/xlink">
<g id="graph0" class="graph" transform="scale(1 1) rotate(0) translate(4 62)">
<title>Central::Central</title>
<!-- Node1 -->
<g id="Node000001" class="node">
<title>Node1</title>
<g id="a_Node000001"><a xlink:title=" ">
<polygon fill="#999999" stroke="#666666" points="83.5,-39 0,-39 0,-19 83.5,-19 83.5,-39"/>
<text text-anchor="middle" x="41.75" y="-25.5" font-family="Helvetica,sans-Serif" font-size="10.00">Central::Central</text>
</a>
</g>
</g>
<!-- Node2 -->
<g id="Node000002" class="node">
<title>Node2</title>
<g id="a_Node000002"><a xlink:href="class_central.html#a5c7be0ff86909135d83e97bf19e77e5b" target="_top" xlink:title=" ">
<polygon fill="white" stroke="#666666" points="224.75,-39 119.5,-39 119.5,-19 224.75,-19 224.75,-39"/>
<text text-anchor="middle" x="172.12" y="-25.5" font-family="Helvetica,sans-Serif" font-size="10.00">Central::checkZones</text>
</a>
</g>
</g>
<!-- Node1&#45;&gt;Node2 -->
<g id="edge1_Node000001_Node000002" class="edge">
<title>Node1&#45;&gt;Node2</title>
<g id="a_edge1_Node000001_Node000002"><a xlink:title=" ">
<path fill="none" stroke="#63b8ff" d="M83.72,-29C91.58,-29 99.97,-29 108.33,-29"/>
<polygon fill="#63b8ff" stroke="#63b8ff" points="108.26,-32.5 118.26,-29 108.26,-25.5 108.26,-32.5"/>
</a>
</g>
</g>
<!-- Node3 -->
<g id="Node000003" class="node">
<title>Node3</title>
<g id="a_Node000003"><a xlink:href="class_central.html#a6d6decbdb1c66b9b2b34626f93d52b58" target="_top" xlink:title=" ">
<polygon fill="white" stroke="#666666" points="390.75,-58 260.75,-58 260.75,-38 390.75,-38 390.75,-58"/>
<text text-anchor="middle" x="325.75" y="-44.5" font-family="Helvetica,sans-Serif" font-size="10.00">Central::checkCloseZones</text>
</a>
</g>
</g>
<!-- Node2&#45;&gt;Node3 -->
<g id="edge2_Node000002_Node000003" class="edge">
<title>Node2&#45;&gt;Node3</title>
<g id="a_edge2_Node000002_Node000003"><a xlink:title=" ">
<path fill="none" stroke="#63b8ff" d="M224.88,-35.49C232.82,-36.48 241.14,-37.52 249.46,-38.57"/>
<polygon fill="#63b8ff" stroke="#63b8ff" points="249,-42.16 259.35,-39.93 249.87,-35.21 249,-42.16"/>
</a>
</g>
</g>
<!-- Node4 -->
<g id="Node000004" class="node">
<title>Node4</title>
<g id="a_Node000004"><a xlink:href="class_central.html#a5db18ec0ac455c386758ff4071bdd510" target="_top" xlink:title=" ">
<polygon fill="white" stroke="#666666" points="381.38,-20 270.12,-20 270.12,0 381.38,0 381.38,-20"/>
<text text-anchor="middle" x="325.75" y="-6.5" font-family="Helvetica,sans-Serif" font-size="10.00">Central::labelChanged</text>
</a>
</g>
</g>
<!-- Node2&#45;&gt;Node4 -->
<g id="edge3_Node000002_Node000004" class="edge">
<title>Node2&#45;&gt;Node4</title>
<g id="a_edge3_Node000002_Node000004"><a xlink:title=" ">
<path fill="none" stroke="#63b8ff" d="M224.88,-22.51C235.87,-21.14 247.61,-19.67 259.04,-18.23"/>
<polygon fill="#63b8ff" stroke="#63b8ff" points="259.37,-21.59 268.86,-16.88 258.5,-14.65 259.37,-21.59"/>
</a>
</g>
</g>
</g>
</svg>
