<?xml version="1.0" encoding="UTF-8" standalone="no"?>
<!DOCTYPE svg PUBLIC "-//W3C//DTD SVG 1.1//EN"
 "http://www.w3.org/Graphics/SVG/1.1/DTD/svg11.dtd">
<!-- Generated by graphviz version 8.0.5 (20230430.1635)
 -->
<!-- Title: Central::checkCloseZones Pages: 1 -->
<svg width="775pt" height="72pt"
 viewBox="0.00 0.00 775.00 72.00" xmlns="http://www.w3.org/2000/svg" xmlns:xlink="http://www.w3.org/1999/xlink">
<g id="graph0" class="graph" transform="scale(1 1) rotate(0) translate(4 68)">
<title>Central::checkCloseZones</title>
<!-- Node1 -->
<g id="Node000001" class="node">
<title>Node1</title>
<g id="a_Node000001"><a xlink:title=" ">
<polygon fill="#999999" stroke="#666666" points="767,-45 637,-45 637,-25 767,-25 767,-45"/>
<text text-anchor="middle" x="702" y="-31.5" font-family="Helvetica,sans-Serif" font-size="10.00">Central::checkCloseZones</text>
</a>
</g>
</g>
<!-- Node2 -->
<g id="Node000002" class="node">
<title>Node2</title>
<g id="a_Node000002"><a xlink:href="class_central.html#a5c7be0ff86909135d83e97bf19e77e5b" target="_top" xlink:title=" ">
<polygon fill="white" stroke="#666666" points="601,-45 495.75,-45 495.75,-25 601,-25 601,-45"/>
<text text-anchor="middle" x="548.38" y="-31.5" font-family="Helvetica,sans-Serif" font-size="10.00">Central::checkZones</text>
</a>
</g>
</g>
<!-- Node1&#45;&gt;Node2 -->
<g id="edge1_Node000001_Node000002" class="edge">
<title>Node1&#45;&gt;Node2</title>
<g id="a_edge1_Node000001_Node000002"><a xlink:title=" ">
<path fill="none" stroke="#63b8ff" d="M625.85,-35C617.57,-35 609.29,-35 601.38,-35"/>
<polygon fill="#63b8ff" stroke="#63b8ff" points="625.7,-38.5 635.7,-35 625.7,-31.5 625.7,-38.5"/>
</a>
</g>
</g>
<!-- Node3 -->
<g id="Node000003" class="node">
<title>Node3</title>
<g id="a_Node000003"><a xlink:href="class_central.html#a6673d7411c27baea3a2030c72b32f79d" target="_top" xlink:title=" ">
<polygon fill="white" stroke="#666666" points="454.88,-64 371.38,-64 371.38,-44 454.88,-44 454.88,-64"/>
<text text-anchor="middle" x="413.12" y="-50.5" font-family="Helvetica,sans-Serif" font-size="10.00">Central::Central</text>
</a>
</g>
</g>
<!-- Node2&#45;&gt;Node3 -->
<g id="edge2_Node000002_Node000003" class="edge">
<title>Node2&#45;&gt;Node3</title>
<g id="a_edge2_Node000002_Node000003"><a xlink:title=" ">
<path fill="none" stroke="#63b8ff" d="M484.75,-43.93C474.77,-45.35 464.68,-46.79 455.37,-48.12"/>
<polygon fill="#63b8ff" stroke="#63b8ff" points="485.07,-47.28 494.48,-42.4 484.08,-40.35 485.07,-47.28"/>
</a>
</g>
</g>
<!-- Node4 -->
<g id="Node000004" class="node">
<title>Node4</title>
<g id="a_Node000004"><a xlink:href="class_central.html#a0e21a755f86da9476aa543cd3958fad4" target="_top" xlink:title=" ">
<polygon fill="white" stroke="#666666" points="459.75,-26 366.5,-26 366.5,-6 459.75,-6 459.75,-26"/>
<text text-anchor="middle" x="413.12" y="-12.5" font-family="Helvetica,sans-Serif" font-size="10.00">Central::perimeter</text>
</a>
</g>
</g>
<!-- Node2&#45;&gt;Node4 -->
<g id="edge3_Node000002_Node000004" class="edge">
<title>Node2&#45;&gt;Node4</title>
<g id="a_edge3_Node000002_Node000004"><a xlink:title=" ">
<path fill="none" stroke="#63b8ff" d="M484.65,-26.06C476.35,-24.87 467.97,-23.68 460.03,-22.55"/>
<polygon fill="#63b8ff" stroke="#63b8ff" points="484.08,-29.65 494.48,-27.6 485.07,-22.72 484.08,-29.65"/>
</a>
</g>
</g>
<!-- Node5 -->
<g id="Node000005" class="node">
<title>Node5</title>
<g id="a_Node000005"><a xlink:href="class_house_window.html#a18dbdb869155c26a90b5b89a535d31bd" target="_top" xlink:title=" ">
<polygon fill="white" stroke="#666666" points="330.5,-32 182.5,-32 182.5,0 330.5,0 330.5,-32"/>
<text text-anchor="start" x="190.5" y="-18.5" font-family="Helvetica,sans-Serif" font-size="10.00">HouseWindow::activateSensor</text>
<text text-anchor="middle" x="256.5" y="-6.5" font-family="Helvetica,sans-Serif" font-size="10.00">Clicked</text>
</a>
</g>
</g>
<!-- Node4&#45;&gt;Node5 -->
<g id="edge4_Node000004_Node000005" class="edge">
<title>Node4&#45;&gt;Node5</title>
<g id="a_edge4_Node000004_Node000005"><a xlink:title=" ">
<path fill="none" stroke="#63b8ff" d="M355.18,-16C347.24,-16 339,-16 330.81,-16"/>
<polygon fill="#63b8ff" stroke="#63b8ff" points="355.15,-19.5 365.15,-16 355.15,-12.5 355.15,-19.5"/>
</a>
</g>
</g>
<!-- Node6 -->
<g id="Node000006" class="node">
<title>Node6</title>
<g id="a_Node000006"><a xlink:href="class_house_window.html#a8e5eeed0472a24b8554624766fc31e57" target="_top" xlink:title=" ">
<polygon fill="white" stroke="#666666" points="146.5,-26 0,-26 0,-6 146.5,-6 146.5,-26"/>
<text text-anchor="middle" x="73.25" y="-12.5" font-family="Helvetica,sans-Serif" font-size="10.00">HouseWindow::HouseWindow</text>
</a>
</g>
</g>
<!-- Node5&#45;&gt;Node6 -->
<g id="edge5_Node000005_Node000006" class="edge">
<title>Node5&#45;&gt;Node6</title>
<g id="a_edge5_Node000005_Node000006"><a xlink:title=" ">
<path fill="none" stroke="#63b8ff" d="M171.09,-16C163.02,-16 154.88,-16 146.93,-16"/>
<polygon fill="#63b8ff" stroke="#63b8ff" points="171.04,-19.5 181.04,-16 171.04,-12.5 171.04,-19.5"/>
</a>
</g>
</g>
</g>
</svg>
