<?xml version="1.0" encoding="UTF-8" standalone="no"?>
<!DOCTYPE svg PUBLIC "-//W3C//DTD SVG 1.1//EN"
 "http://www.w3.org/Graphics/SVG/1.1/DTD/svg11.dtd">
<!-- Generated by graphviz version 8.0.5 (20230430.1635)
 -->
<!-- Title: Sensor::setClose Pages: 1 -->
<svg width="635pt" height="78pt"
 viewBox="0.00 0.00 634.50 78.00" xmlns="http://www.w3.org/2000/svg" xmlns:xlink="http://www.w3.org/1999/xlink">
<g id="graph0" class="graph" transform="scale(1 1) rotate(0) translate(4 74)">
<title>Sensor::setClose</title>
<!-- Node1 -->
<g id="Node000001" class="node">
<title>Node1</title>
<g id="a_Node000001"><a xlink:title=" ">
<polygon fill="#999999" stroke="#666666" points="626.5,-42 535.5,-42 535.5,-22 626.5,-22 626.5,-42"/>
<text text-anchor="middle" x="581" y="-28.5" font-family="Helvetica,sans-Serif" font-size="10.00">Sensor::setClose</text>
</a>
</g>
</g>
<!-- Node2 -->
<g id="Node000002" class="node">
<title>Node2</title>
<g id="a_Node000002"><a xlink:href="class_magnetic_sensor.html#a5ceec404413f6e3520ddbbca2b41fdc1" target="_top" xlink:title=" ">
<polygon fill="white" stroke="#666666" points="487.88,-70 351.12,-70 351.12,-38 487.88,-38 487.88,-70"/>
<text text-anchor="start" x="359.12" y="-56.5" font-family="Helvetica,sans-Serif" font-size="10.00">MagneticSensor::setSensor</text>
<text text-anchor="middle" x="419.5" y="-44.5" font-family="Helvetica,sans-Serif" font-size="10.00">Close</text>
</a>
</g>
</g>
<!-- Node1&#45;&gt;Node2 -->
<g id="edge1_Node000001_Node000002" class="edge">
<title>Node1&#45;&gt;Node2</title>
<g id="a_edge1_Node000001_Node000002"><a xlink:title=" ">
<path fill="none" stroke="#63b8ff" d="M524.26,-39.69C512.64,-41.29 500.26,-43 488.25,-44.65"/>
<polygon fill="#63b8ff" stroke="#63b8ff" points="524.72,-43.02 534.15,-38.19 523.76,-36.09 524.72,-43.02"/>
</a>
</g>
</g>
<!-- Node7 -->
<g id="Node000007" class="node">
<title>Node7</title>
<g id="a_Node000007"><a xlink:href="class_magnetic_sensor.html#ac502781def2eff7748530b0f21099307" target="_top" xlink:title=" ">
<polygon fill="white" stroke="#666666" points="499.5,-20 339.5,-20 339.5,0 499.5,0 499.5,-20"/>
<text text-anchor="middle" x="419.5" y="-6.5" font-family="Helvetica,sans-Serif" font-size="10.00">MagneticSensor::setSensorOpen</text>
</a>
</g>
</g>
<!-- Node1&#45;&gt;Node7 -->
<g id="edge6_Node000001_Node000007" class="edge">
<title>Node1&#45;&gt;Node7</title>
<g id="a_edge6_Node000001_Node000007"><a xlink:title=" ">
<path fill="none" stroke="#63b8ff" d="M524.38,-24.33C515.34,-23.08 505.84,-21.77 496.42,-20.47"/>
<polygon fill="#63b8ff" stroke="#63b8ff" points="523.76,-27.91 534.15,-25.81 524.72,-20.98 523.76,-27.91"/>
</a>
</g>
</g>
<!-- Node3 -->
<g id="Node000003" class="node">
<title>Node3</title>
<g id="a_Node000003"><a xlink:href="class_door.html#a7eb5d6571d7eda319e262efc2c61893f" target="_top" xlink:title=" ">
<polygon fill="white" stroke="#666666" points="296.38,-62 199.38,-62 199.38,-42 296.38,-42 296.38,-62"/>
<text text-anchor="middle" x="247.88" y="-48.5" font-family="Helvetica,sans-Serif" font-size="10.00">Door::changeState</text>
</a>
</g>
</g>
<!-- Node2&#45;&gt;Node3 -->
<g id="edge2_Node000002_Node000003" class="edge">
<title>Node2&#45;&gt;Node3</title>
<g id="a_edge2_Node000002_Node000003"><a xlink:title=" ">
<path fill="none" stroke="#63b8ff" d="M340.26,-53.08C325.45,-52.9 310.38,-52.73 296.85,-52.57"/>
<polygon fill="#63b8ff" stroke="#63b8ff" points="339.93,-56.59 349.97,-53.2 340.01,-49.59 339.93,-56.59"/>
</a>
</g>
</g>
<!-- Node5 -->
<g id="Node000005" class="node">
<title>Node5</title>
<g id="a_Node000005"><a xlink:href="class_window.html#a01150b51096d19c88e81ab1edd6ca272" target="_top" xlink:title=" ">
<polygon fill="white" stroke="#666666" points="303.5,-23 192.25,-23 192.25,-3 303.5,-3 303.5,-23"/>
<text text-anchor="middle" x="247.88" y="-9.5" font-family="Helvetica,sans-Serif" font-size="10.00">Window::changeState</text>
</a>
</g>
</g>
<!-- Node2&#45;&gt;Node5 -->
<g id="edge4_Node000002_Node000005" class="edge">
<title>Node2&#45;&gt;Node5</title>
<g id="a_edge4_Node000002_Node000005"><a xlink:title=" ">
<path fill="none" stroke="#63b8ff" d="M340.68,-35.19C324.05,-31.17 307.05,-27.06 292.28,-23.49"/>
<polygon fill="#63b8ff" stroke="#63b8ff" points="339.43,-38.73 349.97,-37.68 341.07,-31.93 339.43,-38.73"/>
</a>
</g>
</g>
<!-- Node4 -->
<g id="Node000004" class="node">
<title>Node4</title>
<g id="a_Node000004"><a xlink:href="class_door_view.html#a9ca2aa9585550b49e08cf32215156e10" target="_top" xlink:title=" ">
<polygon fill="white" stroke="#666666" points="149.12,-62 7.12,-62 7.12,-42 149.12,-42 149.12,-62"/>
<text text-anchor="middle" x="78.12" y="-48.5" font-family="Helvetica,sans-Serif" font-size="10.00">DoorView::mousePressEvent</text>
</a>
</g>
</g>
<!-- Node3&#45;&gt;Node4 -->
<g id="edge3_Node000003_Node000004" class="edge">
<title>Node3&#45;&gt;Node4</title>
<g id="a_edge3_Node000003_Node000004"><a xlink:title=" ">
<path fill="none" stroke="#63b8ff" d="M188.44,-52C175.84,-52 162.41,-52 149.42,-52"/>
<polygon fill="#63b8ff" stroke="#63b8ff" points="188.25,-55.5 198.25,-52 188.25,-48.5 188.25,-55.5"/>
</a>
</g>
</g>
<!-- Node6 -->
<g id="Node000006" class="node">
<title>Node6</title>
<g id="a_Node000006"><a xlink:href="class_window_view.html#ad1bf6bdfe84dcf011f25261d730e4cc9" target="_top" xlink:title=" ">
<polygon fill="white" stroke="#666666" points="156.25,-23 0,-23 0,-3 156.25,-3 156.25,-23"/>
<text text-anchor="middle" x="78.12" y="-9.5" font-family="Helvetica,sans-Serif" font-size="10.00">WindowView::mousePressEvent</text>
</a>
</g>
</g>
<!-- Node5&#45;&gt;Node6 -->
<g id="edge5_Node000005_Node000006" class="edge">
<title>Node5&#45;&gt;Node6</title>
<g id="a_edge5_Node000005_Node000006"><a xlink:title=" ">
<path fill="none" stroke="#63b8ff" d="M181.17,-13C173.14,-13 164.88,-13 156.7,-13"/>
<polygon fill="#63b8ff" stroke="#63b8ff" points="180.95,-16.5 190.95,-13 180.95,-9.5 180.95,-16.5"/>
</a>
</g>
</g>
<!-- Node7&#45;&gt;Node3 -->
<g id="edge7_Node000007_Node000003" class="edge">
<title>Node7&#45;&gt;Node3</title>
<g id="a_edge7_Node000007_Node000003"><a xlink:title=" ">
<path fill="none" stroke="#63b8ff" d="M363.96,-23.02C355.76,-25.01 347.4,-27.05 339.5,-29 323.11,-33.05 305.08,-37.61 289.45,-41.59"/>
<polygon fill="#63b8ff" stroke="#63b8ff" points="364.7,-26.2 373.6,-20.45 363.06,-19.4 364.7,-26.2"/>
</a>
</g>
</g>
<!-- Node7&#45;&gt;Node5 -->
<g id="edge8_Node000007_Node000005" class="edge">
<title>Node7&#45;&gt;Node5</title>
<g id="a_edge8_Node000007_Node000005"><a xlink:title=" ">
<path fill="none" stroke="#63b8ff" d="M328.26,-11.6C319.99,-11.74 311.78,-11.89 303.96,-12.03"/>
<polygon fill="#63b8ff" stroke="#63b8ff" points="328.21,-15.08 338.15,-11.4 328.09,-8.08 328.21,-15.08"/>
</a>
</g>
</g>
</g>
</svg>
