<?xml version="1.0" encoding="UTF-8" standalone="no"?>
<!DOCTYPE svg PUBLIC "-//W3C//DTD SVG 1.1//EN"
 "http://www.w3.org/Graphics/SVG/1.1/DTD/svg11.dtd">
<!-- Generated by graphviz version 8.0.5 (20230430.1635)
 -->
<!-- Title: DoorView::mousePressEvent Pages: 1 -->
<svg width="727pt" height="154pt"
 viewBox="0.00 0.00 727.00 154.00" xmlns="http://www.w3.org/2000/svg" xmlns:xlink="http://www.w3.org/1999/xlink">
<g id="graph0" class="graph" transform="scale(1 1) rotate(0) translate(4 150)">
<title>DoorView::mousePressEvent</title>
<!-- Node1 -->
<g id="Node000001" class="node">
<title>Node1</title>
<g id="a_Node000001"><a xlink:title=" ">
<polygon fill="#999999" stroke="#666666" points="142,-86 0,-86 0,-66 142,-66 142,-86"/>
<text text-anchor="middle" x="71" y="-72.5" font-family="Helvetica,sans-Serif" font-size="10.00">DoorView::mousePressEvent</text>
</a>
</g>
</g>
<!-- Node2 -->
<g id="Node000002" class="node">
<title>Node2</title>
<g id="a_Node000002"><a xlink:href="class_door.html#a7eb5d6571d7eda319e262efc2c61893f" target="_top" xlink:title=" ">
<polygon fill="white" stroke="#666666" points="275,-86 178,-86 178,-66 275,-66 275,-86"/>
<text text-anchor="middle" x="226.5" y="-72.5" font-family="Helvetica,sans-Serif" font-size="10.00">Door::changeState</text>
</a>
</g>
</g>
<!-- Node1&#45;&gt;Node2 -->
<g id="edge1_Node000001_Node000002" class="edge">
<title>Node1&#45;&gt;Node2</title>
<g id="a_edge1_Node000001_Node000002"><a xlink:title=" ">
<path fill="none" stroke="#63b8ff" d="M142.46,-76C150.7,-76 159.03,-76 167.08,-76"/>
<polygon fill="#63b8ff" stroke="#63b8ff" points="166.84,-79.5 176.84,-76 166.84,-72.5 166.84,-79.5"/>
</a>
</g>
</g>
<!-- Node3 -->
<g id="Node000003" class="node">
<title>Node3</title>
<g id="a_Node000003"><a xlink:href="class_door_view.html#a42588537201406b2d46fe9bb93949dd6" target="_top" xlink:title=" ">
<polygon fill="white" stroke="#666666" points="441.75,-146 340.25,-146 340.25,-126 441.75,-126 441.75,-146"/>
<text text-anchor="middle" x="391" y="-132.5" font-family="Helvetica,sans-Serif" font-size="10.00">DoorView::setClose</text>
</a>
</g>
</g>
<!-- Node2&#45;&gt;Node3 -->
<g id="edge2_Node000002_Node000003" class="edge">
<title>Node2&#45;&gt;Node3</title>
<g id="a_edge2_Node000002_Node000003"><a xlink:title=" ">
<path fill="none" stroke="#63b8ff" d="M245.89,-86.5C262.47,-95.61 287.76,-108.61 311,-117 316.87,-119.12 323.06,-121.07 329.3,-122.85"/>
<polygon fill="#63b8ff" stroke="#63b8ff" points="328.21,-126.45 338.78,-125.68 330.04,-119.69 328.21,-126.45"/>
</a>
</g>
</g>
<!-- Node4 -->
<g id="Node000004" class="node">
<title>Node4</title>
<g id="a_Node000004"><a xlink:href="class_door_view.html#a30bb06802a33fd78d61ef6f4a87f3245" target="_top" xlink:title=" ">
<polygon fill="white" stroke="#666666" points="441,-108 341,-108 341,-88 441,-88 441,-108"/>
<text text-anchor="middle" x="391" y="-94.5" font-family="Helvetica,sans-Serif" font-size="10.00">DoorView::setOpen</text>
</a>
</g>
</g>
<!-- Node2&#45;&gt;Node4 -->
<g id="edge3_Node000002_Node000004" class="edge">
<title>Node2&#45;&gt;Node4</title>
<g id="a_edge3_Node000002_Node000004"><a xlink:title=" ">
<path fill="none" stroke="#63b8ff" d="M275.38,-82.48C292.51,-84.8 312.05,-87.45 330.07,-89.89"/>
<polygon fill="#63b8ff" stroke="#63b8ff" points="329.4,-93.46 339.78,-91.34 330.34,-86.53 329.4,-93.46"/>
</a>
</g>
</g>
<!-- Node5 -->
<g id="Node000005" class="node">
<title>Node5</title>
<g id="a_Node000005"><a xlink:href="class_magnetic_sensor.html#a5ceec404413f6e3520ddbbca2b41fdc1" target="_top" xlink:title=" ">
<polygon fill="white" stroke="#666666" points="459.38,-70 322.62,-70 322.62,-38 459.38,-38 459.38,-70"/>
<text text-anchor="start" x="330.62" y="-56.5" font-family="Helvetica,sans-Serif" font-size="10.00">MagneticSensor::setSensor</text>
<text text-anchor="middle" x="391" y="-44.5" font-family="Helvetica,sans-Serif" font-size="10.00">Close</text>
</a>
</g>
</g>
<!-- Node2&#45;&gt;Node5 -->
<g id="edge4_Node000002_Node000005" class="edge">
<title>Node2&#45;&gt;Node5</title>
<g id="a_edge4_Node000002_Node000005"><a xlink:title=" ">
<path fill="none" stroke="#63b8ff" d="M275.38,-69.52C286.74,-67.98 299.17,-66.3 311.51,-64.63"/>
<polygon fill="#63b8ff" stroke="#63b8ff" points="311.86,-67.98 321.3,-63.17 310.92,-61.04 311.86,-67.98"/>
</a>
</g>
</g>
<!-- Node8 -->
<g id="Node000008" class="node">
<title>Node8</title>
<g id="a_Node000008"><a xlink:href="class_magnetic_sensor.html#ac502781def2eff7748530b0f21099307" target="_top" xlink:title=" ">
<polygon fill="white" stroke="#666666" points="471,-20 311,-20 311,0 471,0 471,-20"/>
<text text-anchor="middle" x="391" y="-6.5" font-family="Helvetica,sans-Serif" font-size="10.00">MagneticSensor::setSensorOpen</text>
</a>
</g>
</g>
<!-- Node2&#45;&gt;Node8 -->
<g id="edge7_Node000002_Node000008" class="edge">
<title>Node2&#45;&gt;Node8</title>
<g id="a_edge7_Node000002_Node000008"><a xlink:title=" ">
<path fill="none" stroke="#63b8ff" d="M242.86,-65.63C259.14,-55.06 285.92,-38.85 311,-29 316.12,-26.99 321.51,-25.15 326.98,-23.48"/>
<polygon fill="#63b8ff" stroke="#63b8ff" points="327.87,-26.57 336.52,-20.46 325.95,-19.84 327.87,-26.57"/>
</a>
</g>
</g>
<!-- Node6 -->
<g id="Node000006" class="node">
<title>Node6</title>
<g id="a_Node000006"><a xlink:href="class_sensor.html#acacc74ce0d13c69a3c72248fb65da51e" target="_top" xlink:title=" ">
<polygon fill="white" stroke="#666666" points="598,-42 507,-42 507,-22 598,-22 598,-42"/>
<text text-anchor="middle" x="552.5" y="-28.5" font-family="Helvetica,sans-Serif" font-size="10.00">Sensor::setClose</text>
</a>
</g>
</g>
<!-- Node5&#45;&gt;Node6 -->
<g id="edge5_Node000005_Node000006" class="edge">
<title>Node5&#45;&gt;Node6</title>
<g id="a_edge5_Node000005_Node000006"><a xlink:title=" ">
<path fill="none" stroke="#63b8ff" d="M459.64,-44.67C471.86,-42.98 484.47,-41.25 496.29,-39.62"/>
<polygon fill="#63b8ff" stroke="#63b8ff" points="496.45,-42.99 505.88,-38.15 495.49,-36.05 496.45,-42.99"/>
</a>
</g>
</g>
<!-- Node7 -->
<g id="Node000007" class="node">
<title>Node7</title>
<g id="a_Node000007"><a xlink:href="class_sensor.html#ab7230363277330982c3a96821859493a" target="_top" xlink:title=" ">
<polygon fill="white" stroke="#666666" points="719,-42 634,-42 634,-22 719,-22 719,-42"/>
<text text-anchor="middle" x="676.5" y="-28.5" font-family="Helvetica,sans-Serif" font-size="10.00">Sensor::isClose</text>
</a>
</g>
</g>
<!-- Node6&#45;&gt;Node7 -->
<g id="edge6_Node000006_Node000007" class="edge">
<title>Node6&#45;&gt;Node7</title>
<g id="a_edge6_Node000006_Node000007"><a xlink:title=" ">
<path fill="none" stroke="#63b8ff" d="M598.24,-32C606.18,-32 614.53,-32 622.68,-32"/>
<polygon fill="#63b8ff" stroke="#63b8ff" points="622.61,-35.5 632.61,-32 622.61,-28.5 622.61,-35.5"/>
</a>
</g>
</g>
<!-- Node8&#45;&gt;Node6 -->
<g id="edge8_Node000008_Node000006" class="edge">
<title>Node8&#45;&gt;Node6</title>
<g id="a_edge8_Node000008_Node000006"><a xlink:title=" ">
<path fill="none" stroke="#63b8ff" d="M468.01,-20.48C477.48,-21.79 487.02,-23.11 496.1,-24.36"/>
<polygon fill="#63b8ff" stroke="#63b8ff" points="495.51,-27.95 505.9,-25.85 496.47,-21.01 495.51,-27.95"/>
</a>
</g>
</g>
</g>
</svg>
