<?xml version="1.0" encoding="UTF-8" standalone="no"?>
<!DOCTYPE svg PUBLIC "-//W3C//DTD SVG 1.1//EN"
 "http://www.w3.org/Graphics/SVG/1.1/DTD/svg11.dtd">
<!-- Generated by graphviz version 8.0.5 (20230430.1635)
 -->
<!-- Title: WindowView::setClose Pages: 1 -->
<svg width="463pt" height="28pt"
 viewBox="0.00 0.00 463.25 28.00" xmlns="http://www.w3.org/2000/svg" xmlns:xlink="http://www.w3.org/1999/xlink">
<g id="graph0" class="graph" transform="scale(1 1) rotate(0) translate(4 24)">
<title>WindowView::setClose</title>
<!-- Node1 -->
<g id="Node000001" class="node">
<title>Node1</title>
<g id="a_Node000001"><a xlink:title=" ">
<polygon fill="#999999" stroke="#666666" points="455.25,-20 339.5,-20 339.5,0 455.25,0 455.25,-20"/>
<text text-anchor="middle" x="397.38" y="-6.5" font-family="Helvetica,sans-Serif" font-size="10.00">WindowView::setClose</text>
</a>
</g>
</g>
<!-- Node2 -->
<g id="Node000002" class="node">
<title>Node2</title>
<g id="a_Node000002"><a xlink:href="class_window.html#a01150b51096d19c88e81ab1edd6ca272" target="_top" xlink:title=" ">
<polygon fill="white" stroke="#666666" points="303.5,-20 192.25,-20 192.25,0 303.5,0 303.5,-20"/>
<text text-anchor="middle" x="247.88" y="-6.5" font-family="Helvetica,sans-Serif" font-size="10.00">Window::changeState</text>
</a>
</g>
</g>
<!-- Node1&#45;&gt;Node2 -->
<g id="edge1_Node000001_Node000002" class="edge">
<title>Node1&#45;&gt;Node2</title>
<g id="a_edge1_Node000001_Node000002"><a xlink:title=" ">
<path fill="none" stroke="#63b8ff" d="M328.55,-10C320.26,-10 311.88,-10 303.81,-10"/>
<polygon fill="#63b8ff" stroke="#63b8ff" points="328.35,-13.5 338.35,-10 328.35,-6.5 328.35,-13.5"/>
</a>
</g>
</g>
<!-- Node3 -->
<g id="Node000003" class="node">
<title>Node3</title>
<g id="a_Node000003"><a xlink:href="class_window_view.html#ad1bf6bdfe84dcf011f25261d730e4cc9" target="_top" xlink:title=" ">
<polygon fill="white" stroke="#666666" points="156.25,-20 0,-20 0,0 156.25,0 156.25,-20"/>
<text text-anchor="middle" x="78.12" y="-6.5" font-family="Helvetica,sans-Serif" font-size="10.00">WindowView::mousePressEvent</text>
</a>
</g>
</g>
<!-- Node2&#45;&gt;Node3 -->
<g id="edge2_Node000002_Node000003" class="edge">
<title>Node2&#45;&gt;Node3</title>
<g id="a_edge2_Node000002_Node000003"><a xlink:title=" ">
<path fill="none" stroke="#63b8ff" d="M181.17,-10C173.14,-10 164.88,-10 156.7,-10"/>
<polygon fill="#63b8ff" stroke="#63b8ff" points="180.95,-13.5 190.95,-10 180.95,-6.5 180.95,-13.5"/>
</a>
</g>
</g>
</g>
</svg>
