<?xml version="1.0" encoding="UTF-8" standalone="no"?>
<!DOCTYPE svg PUBLIC "-//W3C//DTD SVG 1.1//EN"
 "http://www.w3.org/Graphics/SVG/1.1/DTD/svg11.dtd">
<!-- Generated by graphviz version 8.0.5 (20230430.1635)
 -->
<!-- Title: HouseWindow Pages: 1 -->
<svg width="200pt" height="601pt"
 viewBox="0.00 0.00 200.00 601.00" xmlns="http://www.w3.org/2000/svg" xmlns:xlink="http://www.w3.org/1999/xlink">
<g id="graph0" class="graph" transform="scale(1 1) rotate(0) translate(4 597)">
<title>HouseWindow</title>
<!-- Node1 -->
<g id="Node000001" class="node">
<title>Node1</title>
<g id="a_Node000001"><a xlink:title=" ">
<polygon fill="#999999" stroke="none" points="138,-228 3,-228 3,0 138,0 138,-228"/>
<text text-anchor="start" x="39.38" y="-214.5" font-family="Helvetica,sans-Serif" font-size="10.00">HouseWindow</text>
<text text-anchor="start" x="8.5" y="-198.5" font-family="Helvetica,sans-Serif" font-size="10.00">&#45;</text>
<text text-anchor="start" x="17" y="-198.5" font-family="Helvetica,sans-Serif" font-size="10.00">ui</text>
<text text-anchor="start" x="8.5" y="-182.5" font-family="Helvetica,sans-Serif" font-size="10.00">&#45;</text>
<text text-anchor="start" x="17" y="-182.5" font-family="Helvetica,sans-Serif" font-size="10.00">interiorScene</text>
<text text-anchor="start" x="8.5" y="-166.5" font-family="Helvetica,sans-Serif" font-size="10.00">&#45;</text>
<text text-anchor="start" x="17" y="-166.5" font-family="Helvetica,sans-Serif" font-size="10.00">btnPerimeter</text>
<text text-anchor="start" x="8.5" y="-150.5" font-family="Helvetica,sans-Serif" font-size="10.00">&#45;</text>
<text text-anchor="start" x="17" y="-150.5" font-family="Helvetica,sans-Serif" font-size="10.00">btnDisarm</text>
<text text-anchor="start" x="8.5" y="-134.5" font-family="Helvetica,sans-Serif" font-size="10.00">&#45;</text>
<text text-anchor="start" x="17" y="-134.5" font-family="Helvetica,sans-Serif" font-size="10.00">Display</text>
<text text-anchor="start" x="8.5" y="-118.5" font-family="Helvetica,sans-Serif" font-size="10.00">&#45;</text>
<text text-anchor="start" x="17" y="-118.5" font-family="Helvetica,sans-Serif" font-size="10.00">Alarm</text>
<text text-anchor="start" x="7" y="-102.5" font-family="Helvetica,sans-Serif" font-size="10.00">+</text>
<text text-anchor="start" x="17" y="-102.5" font-family="Helvetica,sans-Serif" font-size="10.00">HouseWindow()</text>
<text text-anchor="start" x="7" y="-86.5" font-family="Helvetica,sans-Serif" font-size="10.00">+</text>
<text text-anchor="start" x="17" y="-86.5" font-family="Helvetica,sans-Serif" font-size="10.00">addHouseHollow()</text>
<text text-anchor="start" x="7" y="-70.5" font-family="Helvetica,sans-Serif" font-size="10.00">+</text>
<text text-anchor="start" x="17" y="-70.5" font-family="Helvetica,sans-Serif" font-size="10.00">~HouseWindow()</text>
<text text-anchor="start" x="7" y="-54.5" font-family="Helvetica,sans-Serif" font-size="10.00">+</text>
<text text-anchor="start" x="17" y="-54.5" font-family="Helvetica,sans-Serif" font-size="10.00">setCentral()</text>
<text text-anchor="start" x="8.5" y="-38.5" font-family="Helvetica,sans-Serif" font-size="10.00">&#45;</text>
<text text-anchor="start" x="17" y="-38.5" font-family="Helvetica,sans-Serif" font-size="10.00">activateSensorClicked()</text>
<text text-anchor="start" x="8.5" y="-22.5" font-family="Helvetica,sans-Serif" font-size="10.00">&#45;</text>
<text text-anchor="start" x="17" y="-22.5" font-family="Helvetica,sans-Serif" font-size="10.00">desactivateSensorClicked()</text>
<text text-anchor="start" x="8.5" y="-6.5" font-family="Helvetica,sans-Serif" font-size="10.00">&#45;</text>
<text text-anchor="start" x="17" y="-6.5" font-family="Helvetica,sans-Serif" font-size="10.00">updateAlarm()</text>
<polygon fill="#666666" stroke="#666666" points="3,-210 3,-210 138,-210 138,-210 3,-210"/>
<polygon fill="#666666" stroke="#666666" points="3,-114 3,-114 15,-114 15,-114 3,-114"/>
<polygon fill="#666666" stroke="#666666" points="15,-114 15,-114 138,-114 138,-114 15,-114"/>
<polygon fill="none" stroke="#666666" points="3,0 3,-228 138,-228 138,0 3,0"/>
</a>
</g>
</g>
<!-- Node2 -->
<g id="Node000002" class="node">
<title>Node2</title>
<g id="a_Node000002"><a xlink:title=" ">
<polygon fill="white" stroke="none" points="73,-416 0,-416 0,-364 73,-364 73,-416"/>
<text text-anchor="start" x="5" y="-402.5" font-family="Helvetica,sans-Serif" font-size="10.00">QMainWindow</text>
<text text-anchor="start" x="35" y="-386.5" font-family="Helvetica,sans-Serif" font-size="10.00"> </text>
<text text-anchor="start" x="35" y="-370.5" font-family="Helvetica,sans-Serif" font-size="10.00"> </text>
<polygon fill="#666666" stroke="#666666" points="0,-398 0,-398 73,-398 73,-398 0,-398"/>
<polygon fill="#666666" stroke="#666666" points="0,-382 0,-382 73,-382 73,-382 0,-382"/>
<polygon fill="none" stroke="#666666" points="0,-364 0,-416 73,-416 73,-364 0,-364"/>
</a>
</g>
</g>
<!-- Node2&#45;&gt;Node1 -->
<g id="edge1_Node000001_Node000002" class="edge">
<title>Node2&#45;&gt;Node1</title>
<g id="a_edge1_Node000001_Node000002"><a xlink:title=" ">
<path fill="none" stroke="#63b8ff" d="M40.89,-353.64C44.85,-321.68 50.91,-272.88 56.51,-227.71"/>
<polygon fill="none" stroke="#63b8ff" points="37.34,-352.85 39.58,-363.2 44.28,-353.71 37.34,-352.85"/>
</a>
</g>
</g>
<!-- Node3 -->
<g id="Node000003" class="node">
<title>Node3</title>
<g id="a_Node000003"><a xlink:href="class_central.html" target="_top" xlink:title=" ">
<polygon fill="white" stroke="none" points="192,-504 91,-504 91,-276 192,-276 192,-504"/>
<text text-anchor="start" x="126.12" y="-490.5" font-family="Helvetica,sans-Serif" font-size="10.00">Central</text>
<text text-anchor="start" x="96.5" y="-474.5" font-family="Helvetica,sans-Serif" font-size="10.00">&#45;</text>
<text text-anchor="start" x="105" y="-474.5" font-family="Helvetica,sans-Serif" font-size="10.00">closeZones</text>
<text text-anchor="start" x="96.5" y="-458.5" font-family="Helvetica,sans-Serif" font-size="10.00">&#45;</text>
<text text-anchor="start" x="105" y="-458.5" font-family="Helvetica,sans-Serif" font-size="10.00">zones</text>
<text text-anchor="start" x="96.5" y="-442.5" font-family="Helvetica,sans-Serif" font-size="10.00">&#45;</text>
<text text-anchor="start" x="105" y="-442.5" font-family="Helvetica,sans-Serif" font-size="10.00">timer</text>
<text text-anchor="start" x="96.5" y="-426.5" font-family="Helvetica,sans-Serif" font-size="10.00">&#45;</text>
<text text-anchor="start" x="105" y="-426.5" font-family="Helvetica,sans-Serif" font-size="10.00">security</text>
<text text-anchor="start" x="96.5" y="-410.5" font-family="Helvetica,sans-Serif" font-size="10.00">&#45;</text>
<text text-anchor="start" x="105" y="-410.5" font-family="Helvetica,sans-Serif" font-size="10.00">label</text>
<text text-anchor="start" x="95" y="-394.5" font-family="Helvetica,sans-Serif" font-size="10.00">+</text>
<text text-anchor="start" x="105" y="-394.5" font-family="Helvetica,sans-Serif" font-size="10.00">Central()</text>
<text text-anchor="start" x="95" y="-378.5" font-family="Helvetica,sans-Serif" font-size="10.00">+</text>
<text text-anchor="start" x="105" y="-378.5" font-family="Helvetica,sans-Serif" font-size="10.00">addNewSensor()</text>
<text text-anchor="start" x="95" y="-362.5" font-family="Helvetica,sans-Serif" font-size="10.00">+</text>
<text text-anchor="start" x="105" y="-362.5" font-family="Helvetica,sans-Serif" font-size="10.00">getLabel()</text>
<text text-anchor="start" x="95" y="-346.5" font-family="Helvetica,sans-Serif" font-size="10.00">+</text>
<text text-anchor="start" x="105" y="-346.5" font-family="Helvetica,sans-Serif" font-size="10.00">~Central()</text>
<text text-anchor="start" x="95" y="-330.5" font-family="Helvetica,sans-Serif" font-size="10.00">+</text>
<text text-anchor="start" x="105" y="-330.5" font-family="Helvetica,sans-Serif" font-size="10.00">perimeter()</text>
<text text-anchor="start" x="95" y="-314.5" font-family="Helvetica,sans-Serif" font-size="10.00">+</text>
<text text-anchor="start" x="105" y="-314.5" font-family="Helvetica,sans-Serif" font-size="10.00">disarm()</text>
<text text-anchor="start" x="96.5" y="-298.5" font-family="Helvetica,sans-Serif" font-size="10.00">&#45;</text>
<text text-anchor="start" x="105" y="-298.5" font-family="Helvetica,sans-Serif" font-size="10.00">checkCloseZones()</text>
<text text-anchor="start" x="96.5" y="-282.5" font-family="Helvetica,sans-Serif" font-size="10.00">&#45;</text>
<text text-anchor="start" x="105" y="-282.5" font-family="Helvetica,sans-Serif" font-size="10.00">checkZones()</text>
<polygon fill="#666666" stroke="#666666" points="91,-486 91,-486 192,-486 192,-486 91,-486"/>
<polygon fill="#666666" stroke="#666666" points="91,-406 91,-406 103,-406 103,-406 91,-406"/>
<polygon fill="#666666" stroke="#666666" points="103,-406 103,-406 192,-406 192,-406 103,-406"/>
<polygon fill="none" stroke="#666666" points="91,-276 91,-504 192,-504 192,-276 91,-276"/>
</a>
</g>
</g>
<!-- Node3&#45;&gt;Node1 -->
<g id="edge2_Node000001_Node000003" class="edge">
<title>Node3&#45;&gt;Node1</title>
<g id="a_edge2_Node000001_Node000003"><a xlink:title=" ">
<path fill="none" stroke="#63b8ff" d="M112.31,-276.37C109.22,-264.43 106.06,-252.23 102.93,-240.16"/>
<polygon fill="none" stroke="#63b8ff" points="102.92,-240.13 97.55,-235.32 99.91,-228.51 105.29,-233.32 102.92,-240.13"/>
</a>
</g>
<text text-anchor="middle" x="123.12" y="-248.5" font-family="Helvetica,sans-Serif" font-size="10.00" fill="grey"> &#45;central</text>
</g>
<!-- Node4 -->
<g id="Node000004" class="node">
<title>Node4</title>
<g id="a_Node000004"><a xlink:title=" ">
<polygon fill="white" stroke="none" points="164.5,-593 118.5,-593 118.5,-541 164.5,-541 164.5,-593"/>
<text text-anchor="start" x="123.5" y="-579.5" font-family="Helvetica,sans-Serif" font-size="10.00">QObject</text>
<text text-anchor="start" x="140" y="-563.5" font-family="Helvetica,sans-Serif" font-size="10.00"> </text>
<text text-anchor="start" x="140" y="-547.5" font-family="Helvetica,sans-Serif" font-size="10.00"> </text>
<polygon fill="#666666" stroke="#666666" points="118.5,-575 118.5,-575 164.5,-575 164.5,-575 118.5,-575"/>
<polygon fill="#666666" stroke="#666666" points="118.5,-559 118.5,-559 164.5,-559 164.5,-559 118.5,-559"/>
<polygon fill="none" stroke="#666666" points="118.5,-541 118.5,-593 164.5,-593 164.5,-541 118.5,-541"/>
</a>
</g>
</g>
<!-- Node4&#45;&gt;Node3 -->
<g id="edge3_Node000003_Node000004" class="edge">
<title>Node4&#45;&gt;Node3</title>
<g id="a_edge3_Node000003_Node000004"><a xlink:title=" ">
<path fill="none" stroke="#63b8ff" d="M141.5,-530.52C141.5,-522.42 141.5,-513.39 141.5,-503.92"/>
<polygon fill="none" stroke="#63b8ff" points="138,-530.3 141.5,-540.3 145,-530.3 138,-530.3"/>
</a>
</g>
</g>
</g>
</svg>
