<?xml version="1.0" encoding="UTF-8" standalone="no"?>
<!DOCTYPE svg PUBLIC "-//W3C//DTD SVG 1.1//EN"
 "http://www.w3.org/Graphics/SVG/1.1/DTD/svg11.dtd">
<!-- Generated by graphviz version 8.0.5 (20230430.1635)
 -->
<!-- Title: Door::changeState Pages: 1 -->
<svg width="549pt" height="154pt"
 viewBox="0.00 0.00 549.00 154.00" xmlns="http://www.w3.org/2000/svg" xmlns:xlink="http://www.w3.org/1999/xlink">
<g id="graph0" class="graph" transform="scale(1 1) rotate(0) translate(4 150)">
<title>Door::changeState</title>
<!-- Node1 -->
<g id="Node000001" class="node">
<title>Node1</title>
<g id="a_Node000001"><a xlink:title=" ">
<polygon fill="#999999" stroke="#666666" points="97,-86 0,-86 0,-66 97,-66 97,-86"/>
<text text-anchor="middle" x="48.5" y="-72.5" font-family="Helvetica,sans-Serif" font-size="10.00">Door::changeState</text>
</a>
</g>
</g>
<!-- Node2 -->
<g id="Node000002" class="node">
<title>Node2</title>
<g id="a_Node000002"><a xlink:href="class_door_view.html#a42588537201406b2d46fe9bb93949dd6" target="_top" xlink:title=" ">
<polygon fill="white" stroke="#666666" points="263.75,-146 162.25,-146 162.25,-126 263.75,-126 263.75,-146"/>
<text text-anchor="middle" x="213" y="-132.5" font-family="Helvetica,sans-Serif" font-size="10.00">DoorView::setClose</text>
</a>
</g>
</g>
<!-- Node1&#45;&gt;Node2 -->
<g id="edge1_Node000001_Node000002" class="edge">
<title>Node1&#45;&gt;Node2</title>
<g id="a_edge1_Node000001_Node000002"><a xlink:title=" ">
<path fill="none" stroke="#63b8ff" d="M67.89,-86.5C84.47,-95.61 109.76,-108.61 133,-117 138.87,-119.12 145.06,-121.07 151.3,-122.85"/>
<polygon fill="#63b8ff" stroke="#63b8ff" points="150.21,-126.45 160.78,-125.68 152.04,-119.69 150.21,-126.45"/>
</a>
</g>
</g>
<!-- Node3 -->
<g id="Node000003" class="node">
<title>Node3</title>
<g id="a_Node000003"><a xlink:href="class_door_view.html#a30bb06802a33fd78d61ef6f4a87f3245" target="_top" xlink:title=" ">
<polygon fill="white" stroke="#666666" points="263,-108 163,-108 163,-88 263,-88 263,-108"/>
<text text-anchor="middle" x="213" y="-94.5" font-family="Helvetica,sans-Serif" font-size="10.00">DoorView::setOpen</text>
</a>
</g>
</g>
<!-- Node1&#45;&gt;Node3 -->
<g id="edge2_Node000001_Node000003" class="edge">
<title>Node1&#45;&gt;Node3</title>
<g id="a_edge2_Node000001_Node000003"><a xlink:title=" ">
<path fill="none" stroke="#63b8ff" d="M97.38,-82.48C114.51,-84.8 134.05,-87.45 152.07,-89.89"/>
<polygon fill="#63b8ff" stroke="#63b8ff" points="151.4,-93.46 161.78,-91.34 152.34,-86.53 151.4,-93.46"/>
</a>
</g>
</g>
<!-- Node4 -->
<g id="Node000004" class="node">
<title>Node4</title>
<g id="a_Node000004"><a xlink:href="class_magnetic_sensor.html#a5ceec404413f6e3520ddbbca2b41fdc1" target="_top" xlink:title=" ">
<polygon fill="white" stroke="#666666" points="281.38,-70 144.62,-70 144.62,-38 281.38,-38 281.38,-70"/>
<text text-anchor="start" x="152.62" y="-56.5" font-family="Helvetica,sans-Serif" font-size="10.00">MagneticSensor::setSensor</text>
<text text-anchor="middle" x="213" y="-44.5" font-family="Helvetica,sans-Serif" font-size="10.00">Close</text>
</a>
</g>
</g>
<!-- Node1&#45;&gt;Node4 -->
<g id="edge3_Node000001_Node000004" class="edge">
<title>Node1&#45;&gt;Node4</title>
<g id="a_edge3_Node000001_Node000004"><a xlink:title=" ">
<path fill="none" stroke="#63b8ff" d="M97.38,-69.52C108.74,-67.98 121.17,-66.3 133.51,-64.63"/>
<polygon fill="#63b8ff" stroke="#63b8ff" points="133.86,-67.98 143.3,-63.17 132.92,-61.04 133.86,-67.98"/>
</a>
</g>
</g>
<!-- Node7 -->
<g id="Node000007" class="node">
<title>Node7</title>
<g id="a_Node000007"><a xlink:href="class_magnetic_sensor.html#ac502781def2eff7748530b0f21099307" target="_top" xlink:title=" ">
<polygon fill="white" stroke="#666666" points="293,-20 133,-20 133,0 293,0 293,-20"/>
<text text-anchor="middle" x="213" y="-6.5" font-family="Helvetica,sans-Serif" font-size="10.00">MagneticSensor::setSensorOpen</text>
</a>
</g>
</g>
<!-- Node1&#45;&gt;Node7 -->
<g id="edge6_Node000001_Node000007" class="edge">
<title>Node1&#45;&gt;Node7</title>
<g id="a_edge6_Node000001_Node000007"><a xlink:title=" ">
<path fill="none" stroke="#63b8ff" d="M64.86,-65.63C81.14,-55.06 107.92,-38.85 133,-29 138.12,-26.99 143.51,-25.15 148.98,-23.48"/>
<polygon fill="#63b8ff" stroke="#63b8ff" points="149.87,-26.57 158.52,-20.46 147.95,-19.84 149.87,-26.57"/>
</a>
</g>
</g>
<!-- Node5 -->
<g id="Node000005" class="node">
<title>Node5</title>
<g id="a_Node000005"><a xlink:href="class_sensor.html#acacc74ce0d13c69a3c72248fb65da51e" target="_top" xlink:title=" ">
<polygon fill="white" stroke="#666666" points="420,-42 329,-42 329,-22 420,-22 420,-42"/>
<text text-anchor="middle" x="374.5" y="-28.5" font-family="Helvetica,sans-Serif" font-size="10.00">Sensor::setClose</text>
</a>
</g>
</g>
<!-- Node4&#45;&gt;Node5 -->
<g id="edge4_Node000004_Node000005" class="edge">
<title>Node4&#45;&gt;Node5</title>
<g id="a_edge4_Node000004_Node000005"><a xlink:title=" ">
<path fill="none" stroke="#63b8ff" d="M281.64,-44.67C293.86,-42.98 306.47,-41.25 318.29,-39.62"/>
<polygon fill="#63b8ff" stroke="#63b8ff" points="318.45,-42.99 327.88,-38.15 317.49,-36.05 318.45,-42.99"/>
</a>
</g>
</g>
<!-- Node6 -->
<g id="Node000006" class="node">
<title>Node6</title>
<g id="a_Node000006"><a xlink:href="class_sensor.html#ab7230363277330982c3a96821859493a" target="_top" xlink:title=" ">
<polygon fill="white" stroke="#666666" points="541,-42 456,-42 456,-22 541,-22 541,-42"/>
<text text-anchor="middle" x="498.5" y="-28.5" font-family="Helvetica,sans-Serif" font-size="10.00">Sensor::isClose</text>
</a>
</g>
</g>
<!-- Node5&#45;&gt;Node6 -->
<g id="edge5_Node000005_Node000006" class="edge">
<title>Node5&#45;&gt;Node6</title>
<g id="a_edge5_Node000005_Node000006"><a xlink:title=" ">
<path fill="none" stroke="#63b8ff" d="M420.24,-32C428.18,-32 436.53,-32 444.68,-32"/>
<polygon fill="#63b8ff" stroke="#63b8ff" points="444.61,-35.5 454.61,-32 444.61,-28.5 444.61,-35.5"/>
</a>
</g>
</g>
<!-- Node7&#45;&gt;Node5 -->
<g id="edge7_Node000007_Node000005" class="edge">
<title>Node7&#45;&gt;Node5</title>
<g id="a_edge7_Node000007_Node000005"><a xlink:title=" ">
<path fill="none" stroke="#63b8ff" d="M290.01,-20.48C299.48,-21.79 309.02,-23.11 318.1,-24.36"/>
<polygon fill="#63b8ff" stroke="#63b8ff" points="317.51,-27.95 327.9,-25.85 318.47,-21.01 317.51,-27.95"/>
</a>
</g>
</g>
</g>
</svg>
