<?xml version="1.0" encoding="UTF-8" standalone="no"?>
<!DOCTYPE svg PUBLIC "-//W3C//DTD SVG 1.1//EN"
 "http://www.w3.org/Graphics/SVG/1.1/DTD/svg11.dtd">
<!-- Generated by graphviz version 8.0.5 (20230430.1635)
 -->
<!-- Title: DoorView::installMagneticSensor Pages: 1 -->
<svg width="280pt" height="90pt"
 viewBox="0.00 0.00 280.00 90.00" xmlns="http://www.w3.org/2000/svg" xmlns:xlink="http://www.w3.org/1999/xlink">
<g id="graph0" class="graph" transform="scale(1 1) rotate(0) translate(4 86)">
<title>DoorView::installMagneticSensor</title>
<!-- Node1 -->
<g id="Node000001" class="node">
<title>Node1</title>
<g id="a_Node000001"><a xlink:title=" ">
<polygon fill="#999999" stroke="#666666" points="128.5,-57 0,-57 0,-25 128.5,-25 128.5,-57"/>
<text text-anchor="start" x="8" y="-43.5" font-family="Helvetica,sans-Serif" font-size="10.00">DoorView::installMagnetic</text>
<text text-anchor="middle" x="64.25" y="-31.5" font-family="Helvetica,sans-Serif" font-size="10.00">Sensor</text>
</a>
</g>
</g>
<!-- Node2 -->
<g id="Node000002" class="node">
<title>Node2</title>
<g id="a_Node000002"><a xlink:href="class_magnetic_sensor_view.html#a02ee42e106e5647ff1abb8d7dc965e27" target="_top" xlink:title=" ">
<polygon fill="white" stroke="#666666" points="272,-82 164.5,-82 164.5,-50 272,-50 272,-82"/>
<text text-anchor="start" x="172.5" y="-68.5" font-family="Helvetica,sans-Serif" font-size="10.00">MagneticSensorView</text>
<text text-anchor="middle" x="218.25" y="-56.5" font-family="Helvetica,sans-Serif" font-size="10.00">::getMagnetView</text>
</a>
</g>
</g>
<!-- Node1&#45;&gt;Node2 -->
<g id="edge1_Node000001_Node000002" class="edge">
<title>Node1&#45;&gt;Node2</title>
<g id="a_edge1_Node000001_Node000002"><a xlink:title=" ">
<path fill="none" stroke="#63b8ff" d="M128.83,-51.46C136.88,-52.78 145.13,-54.14 153.19,-55.46"/>
<polygon fill="#63b8ff" stroke="#63b8ff" points="152.6,-59.08 163.03,-57.25 153.74,-52.17 152.6,-59.08"/>
</a>
</g>
</g>
<!-- Node3 -->
<g id="Node000003" class="node">
<title>Node3</title>
<g id="a_Node000003"><a xlink:href="class_magnetic_sensor_view.html#a0c3d7ba43abf57a057d86ca8ea84c99b" target="_top" xlink:title=" ">
<polygon fill="white" stroke="#666666" points="272,-32 164.5,-32 164.5,0 272,0 272,-32"/>
<text text-anchor="start" x="172.5" y="-18.5" font-family="Helvetica,sans-Serif" font-size="10.00">MagneticSensorView</text>
<text text-anchor="middle" x="218.25" y="-6.5" font-family="Helvetica,sans-Serif" font-size="10.00">::getSwitchView</text>
</a>
</g>
</g>
<!-- Node1&#45;&gt;Node3 -->
<g id="edge2_Node000001_Node000003" class="edge">
<title>Node1&#45;&gt;Node3</title>
<g id="a_edge2_Node000001_Node000003"><a xlink:title=" ">
<path fill="none" stroke="#63b8ff" d="M128.83,-30.54C136.88,-29.22 145.13,-27.86 153.19,-26.54"/>
<polygon fill="#63b8ff" stroke="#63b8ff" points="153.74,-29.83 163.03,-24.75 152.6,-22.92 153.74,-29.83"/>
</a>
</g>
</g>
</g>
</svg>
