<?xml version="1.0" encoding="UTF-8" standalone="no"?>
<!DOCTYPE svg PUBLIC "-//W3C//DTD SVG 1.1//EN"
 "http://www.w3.org/Graphics/SVG/1.1/DTD/svg11.dtd">
<!-- Generated by graphviz version 8.0.5 (20230430.1635)
 -->
<!-- Title: HouseWindow::desactivateSensorClicked Pages: 1 -->
<svg width="267pt" height="66pt"
 viewBox="0.00 0.00 266.50 66.00" xmlns="http://www.w3.org/2000/svg" xmlns:xlink="http://www.w3.org/1999/xlink">
<g id="graph0" class="graph" transform="scale(1 1) rotate(0) translate(4 62)">
<title>HouseWindow::desactivateSensorClicked</title>
<!-- Node1 -->
<g id="Node000001" class="node">
<title>Node1</title>
<g id="a_Node000001"><a xlink:title=" ">
<polygon fill="#999999" stroke="#666666" points="133,-45 0,-45 0,-13 133,-13 133,-45"/>
<text text-anchor="start" x="8" y="-31.5" font-family="Helvetica,sans-Serif" font-size="10.00">HouseWindow::desactivate</text>
<text text-anchor="middle" x="66.5" y="-19.5" font-family="Helvetica,sans-Serif" font-size="10.00">SensorClicked</text>
</a>
</g>
</g>
<!-- Node2 -->
<g id="Node000002" class="node">
<title>Node2</title>
<g id="a_Node000002"><a xlink:href="class_central.html#af9d9bf3e36662a887c742856af0831f5" target="_top" xlink:title=" ">
<polygon fill="white" stroke="#666666" points="254.75,-58 172.75,-58 172.75,-38 254.75,-38 254.75,-58"/>
<text text-anchor="middle" x="213.75" y="-44.5" font-family="Helvetica,sans-Serif" font-size="10.00">Central::disarm</text>
</a>
</g>
</g>
<!-- Node1&#45;&gt;Node2 -->
<g id="edge1_Node000001_Node000002" class="edge">
<title>Node1&#45;&gt;Node2</title>
<g id="a_edge1_Node000001_Node000002"><a xlink:title=" ">
<path fill="none" stroke="#63b8ff" d="M133.33,-37.61C142.82,-38.85 152.48,-40.12 161.63,-41.31"/>
<polygon fill="#63b8ff" stroke="#63b8ff" points="161.14,-44.91 171.51,-42.74 162.05,-37.97 161.14,-44.91"/>
</a>
</g>
</g>
<!-- Node3 -->
<g id="Node000003" class="node">
<title>Node3</title>
<g id="a_Node000003"><a xlink:href="class_central.html#a76f3835048926b3c7a15b0e21ca5ac68" target="_top" xlink:title=" ">
<polygon fill="white" stroke="#666666" points="258.5,-20 169,-20 169,0 258.5,0 258.5,-20"/>
<text text-anchor="middle" x="213.75" y="-6.5" font-family="Helvetica,sans-Serif" font-size="10.00">Central::getLabel</text>
</a>
</g>
</g>
<!-- Node1&#45;&gt;Node3 -->
<g id="edge2_Node000001_Node000003" class="edge">
<title>Node1&#45;&gt;Node3</title>
<g id="a_edge2_Node000001_Node000003"><a xlink:title=" ">
<path fill="none" stroke="#63b8ff" d="M133.33,-20.39C141.58,-19.31 149.96,-18.21 158.02,-17.16"/>
<polygon fill="#63b8ff" stroke="#63b8ff" points="158.31,-20.52 167.78,-15.75 157.41,-13.58 158.31,-20.52"/>
</a>
</g>
</g>
</g>
</svg>
