<?xml version="1.0" encoding="UTF-8" standalone="no"?>
<!DOCTYPE svg PUBLIC "-//W3C//DTD SVG 1.1//EN"
 "http://www.w3.org/Graphics/SVG/1.1/DTD/svg11.dtd">
<!-- Generated by graphviz version 8.0.5 (20230430.1635)
 -->
<!-- Title: doorview.cpp Pages: 1 -->
<!--zoomable 308 -->

<svg id="main" version="1.1" xmlns="http://www.w3.org/2000/svg" xmlns:xlink="http://www.w3.org/1999/xlink" xml:space="preserve" onload="init(evt)">
<style type="text/css"><![CDATA[
.node, .edge {opacity: 0.7;}
.node.selected, .edge.selected {opacity: 1;}
.edge:hover path { stroke: red; }
.edge:hover polygon { stroke: red; fill: red; }
]]></style>

<defs>
  <circle id="rim" cx="0" cy="0" r="7"/>
  <circle id="rim2" cx="0" cy="0" r="3.5"/>
  <g id="zoomPlus">
    <use xlink:href="#rim" fill="#404040"><set attributeName="fill" to="#808080" begin="zoomplus.mouseover" end="zoomplus.mouseout"/></use>
    <path d="M-4,0h8M0,-4v8" fill="none" stroke="white" stroke-width="1.5" pointer-events="none"/>
  </g>
  <g id="zoomMin">
    <use xlink:href="#rim" fill="#404040"><set attributeName="fill" to="#808080" begin="zoomminus.mouseover" end="zoomminus.mouseout"/></use>
    <path d="M-4,0h8" fill="none" stroke="white" stroke-width="1.5" pointer-events="none"/>
  </g>
  <g id="arrowUp" transform="translate(30 24)">
    <use xlink:href="#rim"/>
    <path pointer-events="none" fill="none" stroke="white" stroke-width="1.5" d="M0,-3.0v7 M-2.5,-0.5L0,-3.0L2.5,-0.5"/>
  </g>
  <g id="arrowRight" transform="rotate(90) translate(36 -43)">
    <use xlink:href="#rim"/>
    <path pointer-events="none" fill="none" stroke="white" stroke-width="1.5" d="M0,-3.0v7 M-2.5,-0.5L0,-3.0L2.5,-0.5"/>
  </g>
  <g id="arrowDown" transform="rotate(180) translate(-30 -48)">
    <use xlink:href="#rim"/>
    <path pointer-events="none" fill="none" stroke="white" stroke-width="1.5" d="M0,-3.0v7 M-2.5,-0.5L0,-3.0L2.5,-0.5"/>
  </g>
  <g id="arrowLeft" transform="rotate(270) translate(-36 17)">
    <use xlink:href="#rim"/>
    <path pointer-events="none" fill="none" stroke="white" stroke-width="1.5" d="M0,-3.0v7 M-2.5,-0.5L0,-3.0L2.5,-0.5"/>
  </g>
  <g id="resetDef">
    <use xlink:href="#rim2" fill="#404040"><set attributeName="fill" to="#808080" begin="reset.mouseover" end="reset.mouseout"/></use>
  </g>
</defs>
<script type="application/ecmascript">
var viewWidth = 537;
var viewHeight = 308;
var sectionId = 'dynsection-0';
</script>
<script type="application/ecmascript" xlink:href="svg.min.js"/>
<svg id="graph" class="graph">
<g id="viewport">
<title>doorview.cpp</title>
<!-- Node1 -->
<g id="Node000001" class="node">
<title>Node1</title>
<g id="a_Node000001"><a xlink:title=" ">
<polygon fill="#999999" stroke="#666666" points="347.2,-300 275.7,-300 275.7,-280 347.2,-280 347.2,-300"/>
<text text-anchor="middle" x="311.45" y="-286.5" font-family="Helvetica,sans-Serif" font-size="10.00">doorview.cpp</text>
</a>
</g>
</g>
<!-- Node2 -->
<g id="Node000002" class="node">
<title>Node2</title>
<g id="a_Node000002"><a xlink:href="doorview_8h.html" target="_top" xlink:title=" ">
<polygon fill="white" stroke="#666666" points="305.95,-244 244.95,-244 244.95,-224 305.95,-224 305.95,-244"/>
<text text-anchor="middle" x="275.45" y="-230.5" font-family="Helvetica,sans-Serif" font-size="10.00">doorview.h</text>
</a>
</g>
</g>
<!-- Node1&#45;&gt;Node2 -->
<g id="edge1_Node000001_Node000002" class="edge">
<title>Node1&#45;&gt;Node2</title>
<g id="a_edge1_Node000001_Node000002"><a xlink:title=" ">
<path fill="none" stroke="#63b8ff" d="M305.18,-279.59C300.38,-272.39 293.61,-262.23 287.74,-253.43"/>
<polygon fill="#63b8ff" stroke="#63b8ff" points="290.11,-251.68 281.65,-245.3 284.29,-255.56 290.11,-251.68"/>
</a>
</g>
</g>
<!-- Node11 -->
<g id="Node000011" class="node">
<title>Node11</title>
<g id="a_Node000011"><a xlink:title=" ">
<polygon fill="#e0e0e0" stroke="#999999" points="372.95,-244 323.95,-244 323.95,-224 372.95,-224 372.95,-244"/>
<text text-anchor="middle" x="348.45" y="-230.5" font-family="Helvetica,sans-Serif" font-size="10.00">QBrush</text>
</a>
</g>
</g>
<!-- Node1&#45;&gt;Node11 -->
<g id="edge12_Node000001_Node000011" class="edge">
<title>Node1&#45;&gt;Node11</title>
<g id="a_edge12_Node000001_Node000011"><a xlink:title=" ">
<path fill="none" stroke="#63b8ff" d="M317.9,-279.59C322.89,-272.32 329.94,-262.02 336.02,-253.15"/>
<polygon fill="#63b8ff" stroke="#63b8ff" points="339.32,-255.53 342.08,-245.3 333.54,-251.57 339.32,-255.53"/>
</a>
</g>
</g>
<!-- Node3 -->
<g id="Node000003" class="node">
<title>Node3</title>
<g id="a_Node000003"><a xlink:title=" ">
<polygon fill="#e0e0e0" stroke="#999999" points="306.2,-20 198.7,-20 198.7,0 306.2,0 306.2,-20"/>
<text text-anchor="middle" x="252.45" y="-6.5" font-family="Helvetica,sans-Serif" font-size="10.00">QGraphicsItemGroup</text>
</a>
</g>
</g>
<!-- Node2&#45;&gt;Node3 -->
<g id="edge2_Node000002_Node000003" class="edge">
<title>Node2&#45;&gt;Node3</title>
<g id="a_edge2_Node000002_Node000003"><a xlink:title=" ">
<path fill="none" stroke="#63b8ff" d="M244.9,-232.45C182.46,-230.61 43.63,-222.64 14.45,-188 -50.05,-111.43 120.72,-49.07 206.59,-23.5"/>
<polygon fill="#63b8ff" stroke="#63b8ff" points="207.5,-26.59 216.11,-20.42 205.53,-19.87 207.5,-26.59"/>
</a>
</g>
</g>
<!-- Node4 -->
<g id="Node000004" class="node">
<title>Node4</title>
<g id="a_Node000004"><a xlink:title=" ">
<polygon fill="#e0e0e0" stroke="#999999" points="125.2,-188 23.7,-188 23.7,-168 125.2,-168 125.2,-188"/>
<text text-anchor="middle" x="74.45" y="-174.5" font-family="Helvetica,sans-Serif" font-size="10.00">QGraphicsRectItem</text>
</a>
</g>
</g>
<!-- Node2&#45;&gt;Node4 -->
<g id="edge3_Node000002_Node000004" class="edge">
<title>Node2&#45;&gt;Node4</title>
<g id="a_edge3_Node000002_Node000004"><a xlink:title=" ">
<path fill="none" stroke="#63b8ff" d="M244.49,-224.68C211.17,-215.73 157.85,-201.41 119.81,-191.19"/>
<polygon fill="#63b8ff" stroke="#63b8ff" points="121.08,-187.63 110.51,-188.42 119.26,-194.39 121.08,-187.63"/>
</a>
</g>
</g>
<!-- Node5 -->
<g id="Node000005" class="node">
<title>Node5</title>
<g id="a_Node000005"><a xlink:title=" ">
<polygon fill="#e0e0e0" stroke="#999999" points="259.7,-188 143.2,-188 143.2,-168 259.7,-168 259.7,-188"/>
<text text-anchor="middle" x="201.45" y="-174.5" font-family="Helvetica,sans-Serif" font-size="10.00">QGraphicsPolygonItem</text>
</a>
</g>
</g>
<!-- Node2&#45;&gt;Node5 -->
<g id="edge4_Node000002_Node000005" class="edge">
<title>Node2&#45;&gt;Node5</title>
<g id="a_edge4_Node000002_Node000005"><a xlink:title=" ">
<path fill="none" stroke="#63b8ff" d="M262.56,-223.59C251.63,-215.62 235.73,-204.02 222.89,-194.64"/>
<polygon fill="#63b8ff" stroke="#63b8ff" points="225.34,-191.37 215.2,-188.3 221.21,-197.02 225.34,-191.37"/>
</a>
</g>
</g>
<!-- Node6 -->
<g id="Node000006" class="node">
<title>Node6</title>
<g id="a_Node000006"><a xlink:title=" ">
<polygon fill="#e0e0e0" stroke="#999999" points="421.2,-188 277.7,-188 277.7,-168 421.2,-168 421.2,-188"/>
<text text-anchor="middle" x="349.45" y="-174.5" font-family="Helvetica,sans-Serif" font-size="10.00">QGraphicsSceneMouseEvent</text>
</a>
</g>
</g>
<!-- Node2&#45;&gt;Node6 -->
<g id="edge5_Node000002_Node000006" class="edge">
<title>Node2&#45;&gt;Node6</title>
<g id="a_edge5_Node000002_Node000006"><a xlink:title=" ">
<path fill="none" stroke="#63b8ff" d="M288.34,-223.59C299.27,-215.62 315.17,-204.02 328.02,-194.64"/>
<polygon fill="#63b8ff" stroke="#63b8ff" points="329.7,-197.02 335.71,-188.3 325.57,-191.37 329.7,-197.02"/>
</a>
</g>
</g>
<!-- Node7 -->
<g id="Node000007" class="node">
<title>Node7</title>
<g id="a_Node000007"><a xlink:href="door_8h.html" target="_top" xlink:title=" ">
<polygon fill="white" stroke="#666666" points="481.95,-188 438.95,-188 438.95,-168 481.95,-168 481.95,-188"/>
<text text-anchor="middle" x="460.45" y="-174.5" font-family="Helvetica,sans-Serif" font-size="10.00">door.h</text>
</a>
</g>
</g>
<!-- Node2&#45;&gt;Node7 -->
<g id="edge6_Node000002_Node000007" class="edge">
<title>Node2&#45;&gt;Node7</title>
<g id="a_edge6_Node000002_Node000007"><a xlink:title=" ">
<path fill="none" stroke="#63b8ff" d="M306.36,-224.12C335.52,-215.71 380.73,-202.64 428.06,-188.69"/>
<polygon fill="#63b8ff" stroke="#63b8ff" points="428.9,-191.8 437.5,-185.61 426.92,-185.08 428.9,-191.8"/>
</a>
</g>
</g>
<!-- Node10 -->
<g id="Node000010" class="node">
<title>Node10</title>
<g id="a_Node000010"><a xlink:href="magneticsensorview_8h.html" target="_top" xlink:title=" ">
<polygon fill="white" stroke="#666666" points="529.08,-76 417.83,-76 417.83,-56 529.08,-56 529.08,-76"/>
<text text-anchor="middle" x="473.45" y="-62.5" font-family="Helvetica,sans-Serif" font-size="10.00">magneticsensorview.h</text>
</a>
</g>
</g>
<!-- Node2&#45;&gt;Node10 -->
<g id="edge11_Node000002_Node000010" class="edge">
<title>Node2&#45;&gt;Node10</title>
<g id="a_edge11_Node000002_Node000010"><a xlink:title=" ">
<path fill="none" stroke="#63b8ff" d="M306.09,-225.85C308.92,-225.21 311.74,-224.59 314.45,-224 392.9,-206.97 440.66,-250.16 491.45,-188 515.31,-158.8 497.42,-111.91 484.21,-85.9"/>
<polygon fill="#63b8ff" stroke="#63b8ff" points="486.95,-84.6 479.14,-77.45 480.78,-87.91 486.95,-84.6"/>
</a>
</g>
</g>
<!-- Node8 -->
<g id="Node000008" class="node">
<title>Node8</title>
<g id="a_Node000008"><a xlink:href="magneticsensor_8h.html" target="_top" xlink:title=" ">
<polygon fill="white" stroke="#666666" points="482.08,-132 388.83,-132 388.83,-112 482.08,-112 482.08,-132"/>
<text text-anchor="middle" x="435.45" y="-118.5" font-family="Helvetica,sans-Serif" font-size="10.00">magneticsensor.h</text>
</a>
</g>
</g>
<!-- Node7&#45;&gt;Node8 -->
<g id="edge7_Node000007_Node000008" class="edge">
<title>Node7&#45;&gt;Node8</title>
<g id="a_edge7_Node000007_Node000008"><a xlink:title=" ">
<path fill="none" stroke="#63b8ff" d="M456.1,-167.59C452.84,-160.55 448.26,-150.67 444.25,-142"/>
<polygon fill="#63b8ff" stroke="#63b8ff" points="447.14,-140.9 439.76,-133.3 440.78,-143.84 447.14,-140.9"/>
</a>
</g>
</g>
<!-- Node9 -->
<g id="Node000009" class="node">
<title>Node9</title>
<g id="a_Node000009"><a xlink:href="sensor_8h.html" target="_top" xlink:title=" ">
<polygon fill="white" stroke="#666666" points="400.2,-76 346.7,-76 346.7,-56 400.2,-56 400.2,-76"/>
<text text-anchor="middle" x="373.45" y="-62.5" font-family="Helvetica,sans-Serif" font-size="10.00">sensor.h</text>
</a>
</g>
</g>
<!-- Node8&#45;&gt;Node9 -->
<g id="edge8_Node000008_Node000009" class="edge">
<title>Node8&#45;&gt;Node9</title>
<g id="a_edge8_Node000008_Node000009"><a xlink:title=" ">
<path fill="none" stroke="#63b8ff" d="M424.65,-111.59C415.76,-103.85 402.95,-92.69 392.36,-83.47"/>
<polygon fill="#63b8ff" stroke="#63b8ff" points="394.97,-80.23 385.13,-76.3 390.37,-85.51 394.97,-80.23"/>
</a>
</g>
</g>
<!-- Node8&#45;&gt;Node10 -->
<g id="edge9_Node000008_Node000010" class="edge">
<title>Node8&#45;&gt;Node10</title>
<g id="a_edge9_Node000008_Node000010"><a xlink:title=" ">
<path fill="none" stroke="#63b8ff" d="M442.07,-111.59C447.19,-104.32 454.44,-94.02 460.68,-85.15"/>
<polygon fill="#63b8ff" stroke="#63b8ff" points="464.02,-87.49 466.91,-77.3 458.29,-83.46 464.02,-87.49"/>
</a>
</g>
</g>
<!-- Node10&#45;&gt;Node3 -->
<g id="edge10_Node000010_Node000003" class="edge">
<title>Node10&#45;&gt;Node3</title>
<g id="a_edge10_Node000010_Node000003"><a xlink:title=" ">
<path fill="none" stroke="#63b8ff" d="M434.71,-55.53C397.74,-46.5 341.9,-32.85 301.77,-23.05"/>
<polygon fill="#63b8ff" stroke="#63b8ff" points="302.7,-19.43 292.16,-20.46 301.04,-26.23 302.7,-19.43"/>
</a>
</g>
</g>
</g>
</svg>

<g id="navigator" transform="translate(0 0)" fill="#404254">
  <rect fill="#f2f5e9" fill-opacity="0.5" stroke="#606060" stroke-width=".5" x="0" y="0" width="60" height="60"/>
  <use id="zoomplus" xlink:href="#zoomPlus" x="17" y="9" onmousedown="handleZoom(evt,'in')"/>
  <use id="zoomminus" xlink:href="#zoomMin" x="42" y="9" onmousedown="handleZoom(evt,'out')"/>
  <use id="reset" xlink:href="#resetDef" x="30" y="36" onmousedown="handleReset()"/>
   <use id="arrowup" xlink:href="#arrowUp" x="0" y="0" onmousedown="handlePan(0,-1)"/>
  <use id="arrowright" xlink:href="#arrowRight" x="0" y="0" onmousedown="handlePan(1,0)"/>
  <use id="arrowdown" xlink:href="#arrowDown" x="0" y="0" onmousedown="handlePan(0,1)"/>
  <use id="arrowleft" xlink:href="#arrowLeft" x="0" y="0" onmousedown="handlePan(-1,0)"/>
</g>
<svg viewBox="0 0 15 15" width="100%" height="30px" preserveAspectRatio="xMaxYMin meet">
 <g id="arrow_out" transform="scale(0.3 0.3)">
  <a xlink:href="doorview_8cpp__incl_org.svg" target="_base">
   <rect id="button" ry="5" rx="5" y="6" x="6" height="38" width="38"
        fill="#f2f5e9" fill-opacity="0.5" stroke="#606060" stroke-width="1.0"/>
   <path id="arrow"
     d="M 11.500037,31.436501 C 11.940474,20.09759 22.043105,11.32322 32.158766,21.979434 L 37.068811,17.246167 C 37.068811,17.246167 37.088388,32 37.088388,32 L 22.160133,31.978069 C 22.160133,31.978069 26.997745,27.140456 26.997745,27.140456 C 18.528582,18.264221 13.291696,25.230495 11.500037,31.436501 z"
     style="fill:#404040;"/>
  </a>
 </g>
</svg>

<style type='text/css'>
<![CDATA[
[data-mouse-over-selected='false'] { opacity: 0.7; }
[data-mouse-over-selected='true']  { opacity: 1.0; }
]]>
</style>
<script type="application/ecmascript"><![CDATA[
document.addEventListener('DOMContentLoaded', (event) => {
  highlightEdges();
  highlightAdjacentNodes();
});
]]></script>
</svg>
