<?xml version="1.0" encoding="UTF-8" standalone="no"?>
<!DOCTYPE svg PUBLIC "-//W3C//DTD SVG 1.1//EN"
 "http://www.w3.org/Graphics/SVG/1.1/DTD/svg11.dtd">
<!-- Generated by graphviz version 8.0.5 (20230430.1635)
 -->
<!-- Title: door.h Pages: 1 -->
<svg width="226pt" height="140pt"
 viewBox="0.00 0.00 225.62 140.00" xmlns="http://www.w3.org/2000/svg" xmlns:xlink="http://www.w3.org/1999/xlink">

<svg id="main" version="1.1" xmlns="http://www.w3.org/2000/svg" xmlns:xlink="http://www.w3.org/1999/xlink" xml:space="preserve" onload="init(evt)">
<style type="text/css"><![CDATA[
.node, .edge {opacity: 0.7;}
.node.selected, .edge.selected {opacity: 1;}
.edge:hover path { stroke: red; }
.edge:hover polygon { stroke: red; fill: red; }
]]></style>
<script type="application/ecmascript" xlink:href="svg.min.js"/>
<svg id="graph" class="graph">
<g id="graph0" class="graph" transform="scale(1 1) rotate(0) translate(4 136)">
<title>door.h</title>
<!-- Node1 -->
<g id="Node000001" class="node">
<title>Node1</title>
<g id="a_Node000001"><a xlink:title=" ">
<polygon fill="#999999" stroke="#666666" points="129.25,-132 86.25,-132 86.25,-112 129.25,-112 129.25,-132"/>
<text text-anchor="middle" x="107.75" y="-118.5" font-family="Helvetica,sans-Serif" font-size="10.00">door.h</text>
</a>
</g>
</g>
<!-- Node2 -->
<g id="Node000002" class="node">
<title>Node2</title>
<g id="a_Node000002"><a xlink:href="door_8cpp.html" target="_top" xlink:title=" ">
<polygon fill="white" stroke="#666666" points="53.5,-20 0,-20 0,0 53.5,0 53.5,-20"/>
<text text-anchor="middle" x="26.75" y="-6.5" font-family="Helvetica,sans-Serif" font-size="10.00">door.cpp</text>
</a>
</g>
</g>
<!-- Node1&#45;&gt;Node2 -->
<g id="edge1_Node000001_Node000002" class="edge">
<title>Node1&#45;&gt;Node2</title>
<g id="a_edge1_Node000001_Node000002"><a xlink:title=" ">
<path fill="none" stroke="#63b8ff" d="M91.2,-103.73C83.71,-95.59 74.95,-85.57 67.75,-76 53.48,-57.02 39.23,-33.01 31.87,-20.14"/>
<polygon fill="#63b8ff" stroke="#63b8ff" points="88.3,-105.83 97.69,-110.73 93.41,-101.04 88.3,-105.83"/>
</a>
</g>
</g>
<!-- Node3 -->
<g id="Node000003" class="node">
<title>Node3</title>
<g id="a_Node000003"><a xlink:href="doorview_8h.html" target="_top" xlink:title=" ">
<polygon fill="white" stroke="#666666" points="138.25,-76 77.25,-76 77.25,-56 138.25,-56 138.25,-76"/>
<text text-anchor="middle" x="107.75" y="-62.5" font-family="Helvetica,sans-Serif" font-size="10.00">doorview.h</text>
</a>
</g>
</g>
<!-- Node1&#45;&gt;Node3 -->
<g id="edge2_Node000001_Node000003" class="edge">
<title>Node1&#45;&gt;Node3</title>
<g id="a_edge2_Node000001_Node000003"><a xlink:title=" ">
<path fill="none" stroke="#63b8ff" d="M107.75,-100.71C107.75,-92.32 107.75,-83.01 107.75,-76.3"/>
<polygon fill="#63b8ff" stroke="#63b8ff" points="104.25,-100.59 107.75,-110.59 111.25,-100.59 104.25,-100.59"/>
</a>
</g>
</g>
<!-- Node5 -->
<g id="Node000005" class="node">
<title>Node5</title>
<g id="a_Node000005"><a xlink:href="main_8cpp.html" target="_top" xlink:title=" ">
<polygon fill="white" stroke="#666666" points="217.62,-20 161.88,-20 161.88,0 217.62,0 217.62,-20"/>
<text text-anchor="middle" x="189.75" y="-6.5" font-family="Helvetica,sans-Serif" font-size="10.00">main.cpp</text>
</a>
</g>
</g>
<!-- Node1&#45;&gt;Node5 -->
<g id="edge6_Node000001_Node000005" class="edge">
<title>Node1&#45;&gt;Node5</title>
<g id="a_edge6_Node000001_Node000005"><a xlink:title=" ">
<path fill="none" stroke="#63b8ff" d="M124.25,-103.7C131.73,-95.54 140.5,-85.53 147.75,-76 162.23,-56.96 176.88,-32.97 184.46,-20.12"/>
<polygon fill="#63b8ff" stroke="#63b8ff" points="122.04,-101.01 117.77,-110.71 127.16,-105.79 122.04,-101.01"/>
</a>
</g>
</g>
<!-- Node3&#45;&gt;Node2 -->
<g id="edge3_Node000003_Node000002" class="edge">
<title>Node3&#45;&gt;Node2</title>
<g id="a_edge3_Node000003_Node000002"><a xlink:title=" ">
<path fill="none" stroke="#63b8ff" d="M84.56,-49.54C70.5,-40.17 53.01,-28.51 40.97,-20.48"/>
<polygon fill="#63b8ff" stroke="#63b8ff" points="82.38,-52.96 92.64,-55.59 86.26,-47.13 82.38,-52.96"/>
</a>
</g>
</g>
<!-- Node4 -->
<g id="Node000004" class="node">
<title>Node4</title>
<g id="a_Node000004"><a xlink:href="doorview_8cpp.html" target="_top" xlink:title=" ">
<polygon fill="white" stroke="#666666" points="143.5,-20 72,-20 72,0 143.5,0 143.5,-20"/>
<text text-anchor="middle" x="107.75" y="-6.5" font-family="Helvetica,sans-Serif" font-size="10.00">doorview.cpp</text>
</a>
</g>
</g>
<!-- Node3&#45;&gt;Node4 -->
<g id="edge4_Node000003_Node000004" class="edge">
<title>Node3&#45;&gt;Node4</title>
<g id="a_edge4_Node000003_Node000004"><a xlink:title=" ">
<path fill="none" stroke="#63b8ff" d="M107.75,-44.71C107.75,-36.32 107.75,-27.01 107.75,-20.3"/>
<polygon fill="#63b8ff" stroke="#63b8ff" points="104.25,-44.59 107.75,-54.59 111.25,-44.59 104.25,-44.59"/>
</a>
</g>
</g>
<!-- Node3&#45;&gt;Node5 -->
<g id="edge5_Node000003_Node000005" class="edge">
<title>Node3&#45;&gt;Node5</title>
<g id="a_edge5_Node000003_Node000005"><a xlink:title=" ">
<path fill="none" stroke="#63b8ff" d="M130.81,-49.81C145.12,-40.39 163.05,-28.58 175.36,-20.48"/>
<polygon fill="#63b8ff" stroke="#63b8ff" points="129.46,-47.17 123.03,-55.59 133.31,-53.02 129.46,-47.17"/>
</a>
</g>
</g>
</g>
</svg>
</svg>

<style type='text/css'>
<![CDATA[
[data-mouse-over-selected='false'] { opacity: 0.7; }
[data-mouse-over-selected='true']  { opacity: 1.0; }
]]>
</style>
<script type="application/ecmascript"><![CDATA[
document.addEventListener('DOMContentLoaded', (event) => {
  highlightEdges();
  highlightAdjacentNodes();
});
]]></script>
</svg>
