<?xml version="1.0" encoding="UTF-8" standalone="no"?>
<!DOCTYPE svg PUBLIC "-//W3C//DTD SVG 1.1//EN"
 "http://www.w3.org/Graphics/SVG/1.1/DTD/svg11.dtd">
<!-- Generated by graphviz version 8.0.5 (20230430.1635)
 -->
<!-- Title: door.cpp Pages: 1 -->
<svg width="645pt" height="308pt"
 viewBox="0.00 0.00 644.50 308.00" xmlns="http://www.w3.org/2000/svg" xmlns:xlink="http://www.w3.org/1999/xlink">
<g id="graph0" class="graph" transform="scale(1 1) rotate(0) translate(4 304)">
<title>door.cpp</title>
<!-- Node1 -->
<g id="Node000001" class="node">
<title>Node1</title>
<g id="a_Node000001"><a xlink:title=" ">
<polygon fill="#999999" stroke="#666666" points="193.5,-300 140,-300 140,-280 193.5,-280 193.5,-300"/>
<text text-anchor="middle" x="166.75" y="-286.5" font-family="Helvetica,sans-Serif" font-size="10.00">door.cpp</text>
</a>
</g>
</g>
<!-- Node2 -->
<g id="Node000002" class="node">
<title>Node2</title>
<g id="a_Node000002"><a xlink:href="door_8h.html" target="_top" xlink:title=" ">
<polygon fill="white" stroke="#666666" points="144.25,-188 101.25,-188 101.25,-168 144.25,-168 144.25,-188"/>
<text text-anchor="middle" x="122.75" y="-174.5" font-family="Helvetica,sans-Serif" font-size="10.00">door.h</text>
</a>
</g>
</g>
<!-- Node1&#45;&gt;Node2 -->
<g id="edge1_Node000001_Node000002" class="edge">
<title>Node1&#45;&gt;Node2</title>
<g id="a_edge1_Node000001_Node000002"><a xlink:title=" ">
<path fill="none" stroke="#63b8ff" d="M163,-279.62C155.82,-261.68 140.02,-222.17 130.49,-198.35"/>
<polygon fill="#63b8ff" stroke="#63b8ff" points="133.46,-197.34 126.49,-189.35 126.96,-199.94 133.46,-197.34"/>
</a>
</g>
</g>
<!-- Node7 -->
<g id="Node000007" class="node">
<title>Node7</title>
<g id="a_Node000007"><a xlink:href="doorview_8h.html" target="_top" xlink:title=" ">
<polygon fill="white" stroke="#666666" points="241.25,-244 180.25,-244 180.25,-224 241.25,-224 241.25,-244"/>
<text text-anchor="middle" x="210.75" y="-230.5" font-family="Helvetica,sans-Serif" font-size="10.00">doorview.h</text>
</a>
</g>
</g>
<!-- Node1&#45;&gt;Node7 -->
<g id="edge6_Node000001_Node000007" class="edge">
<title>Node1&#45;&gt;Node7</title>
<g id="a_edge6_Node000001_Node000007"><a xlink:title=" ">
<path fill="none" stroke="#63b8ff" d="M174.41,-279.59C180.47,-272.16 189.1,-261.58 196.42,-252.58"/>
<polygon fill="#63b8ff" stroke="#63b8ff" points="199.57,-255.26 203.17,-245.3 194.14,-250.84 199.57,-255.26"/>
</a>
</g>
</g>
<!-- Node3 -->
<g id="Node000003" class="node">
<title>Node3</title>
<g id="a_Node000003"><a xlink:href="magneticsensor_8h.html" target="_top" xlink:title=" ">
<polygon fill="white" stroke="#666666" points="144.38,-132 51.12,-132 51.12,-112 144.38,-112 144.38,-132"/>
<text text-anchor="middle" x="97.75" y="-118.5" font-family="Helvetica,sans-Serif" font-size="10.00">magneticsensor.h</text>
</a>
</g>
</g>
<!-- Node2&#45;&gt;Node3 -->
<g id="edge2_Node000002_Node000003" class="edge">
<title>Node2&#45;&gt;Node3</title>
<g id="a_edge2_Node000002_Node000003"><a xlink:title=" ">
<path fill="none" stroke="#63b8ff" d="M118.4,-167.59C115.13,-160.55 110.56,-150.67 106.55,-142"/>
<polygon fill="#63b8ff" stroke="#63b8ff" points="109.43,-140.9 102.05,-133.3 103.08,-143.84 109.43,-140.9"/>
</a>
</g>
</g>
<!-- Node4 -->
<g id="Node000004" class="node">
<title>Node4</title>
<g id="a_Node000004"><a xlink:href="sensor_8h.html" target="_top" xlink:title=" ">
<polygon fill="white" stroke="#666666" points="53.5,-76 0,-76 0,-56 53.5,-56 53.5,-76"/>
<text text-anchor="middle" x="26.75" y="-62.5" font-family="Helvetica,sans-Serif" font-size="10.00">sensor.h</text>
</a>
</g>
</g>
<!-- Node3&#45;&gt;Node4 -->
<g id="edge3_Node000003_Node000004" class="edge">
<title>Node3&#45;&gt;Node4</title>
<g id="a_edge3_Node000003_Node000004"><a xlink:title=" ">
<path fill="none" stroke="#63b8ff" d="M85.38,-111.59C75,-103.7 59.94,-92.24 47.68,-82.92"/>
<polygon fill="#63b8ff" stroke="#63b8ff" points="50.05,-79.57 39.98,-76.3 45.82,-85.14 50.05,-79.57"/>
</a>
</g>
</g>
<!-- Node5 -->
<g id="Node000005" class="node">
<title>Node5</title>
<g id="a_Node000005"><a xlink:href="magneticsensorview_8h.html" target="_top" xlink:title=" ">
<polygon fill="white" stroke="#666666" points="182.38,-76 71.12,-76 71.12,-56 182.38,-56 182.38,-76"/>
<text text-anchor="middle" x="126.75" y="-62.5" font-family="Helvetica,sans-Serif" font-size="10.00">magneticsensorview.h</text>
</a>
</g>
</g>
<!-- Node3&#45;&gt;Node5 -->
<g id="edge4_Node000003_Node000005" class="edge">
<title>Node3&#45;&gt;Node5</title>
<g id="a_edge4_Node000003_Node000005"><a xlink:title=" ">
<path fill="none" stroke="#63b8ff" d="M102.8,-111.59C106.63,-104.47 112.01,-94.45 116.7,-85.72"/>
<polygon fill="#63b8ff" stroke="#63b8ff" points="120.11,-87.76 121.76,-77.3 113.94,-84.45 120.11,-87.76"/>
</a>
</g>
</g>
<!-- Node6 -->
<g id="Node000006" class="node">
<title>Node6</title>
<g id="a_Node000006"><a xlink:title=" ">
<polygon fill="#e0e0e0" stroke="#999999" points="222.5,-20 115,-20 115,0 222.5,0 222.5,-20"/>
<text text-anchor="middle" x="168.75" y="-6.5" font-family="Helvetica,sans-Serif" font-size="10.00">QGraphicsItemGroup</text>
</a>
</g>
</g>
<!-- Node5&#45;&gt;Node6 -->
<g id="edge5_Node000005_Node000006" class="edge">
<title>Node5&#45;&gt;Node6</title>
<g id="a_edge5_Node000005_Node000006"><a xlink:title=" ">
<path fill="none" stroke="#63b8ff" d="M134.07,-55.59C139.79,-48.24 147.91,-37.8 154.85,-28.87"/>
<polygon fill="#63b8ff" stroke="#63b8ff" points="158.14,-31.34 161.52,-21.3 152.62,-27.04 158.14,-31.34"/>
</a>
</g>
</g>
<!-- Node7&#45;&gt;Node2 -->
<g id="edge11_Node000007_Node000002" class="edge">
<title>Node7&#45;&gt;Node2</title>
<g id="a_edge11_Node000007_Node000002"><a xlink:title=" ">
<path fill="none" stroke="#63b8ff" d="M195.42,-223.59C182.13,-215.44 162.65,-203.48 147.2,-194"/>
<polygon fill="#63b8ff" stroke="#63b8ff" points="149.55,-190.73 139.2,-188.48 145.89,-196.69 149.55,-190.73"/>
</a>
</g>
</g>
<!-- Node7&#45;&gt;Node5 -->
<g id="edge12_Node000007_Node000005" class="edge">
<title>Node7&#45;&gt;Node5</title>
<g id="a_edge12_Node000007_Node000005"><a xlink:title=" ">
<path fill="none" stroke="#63b8ff" d="M206.77,-223.74C197.88,-203.27 175.51,-152.77 153.75,-112 149.04,-103.18 143.41,-93.66 138.52,-85.66"/>
<polygon fill="#63b8ff" stroke="#63b8ff" points="141.08,-84.14 132.83,-77.5 135.13,-87.84 141.08,-84.14"/>
</a>
</g>
</g>
<!-- Node7&#45;&gt;Node6 -->
<g id="edge7_Node000007_Node000006" class="edge">
<title>Node7&#45;&gt;Node6</title>
<g id="a_edge7_Node000007_Node000006"><a xlink:title=" ">
<path fill="none" stroke="#63b8ff" d="M210.93,-223.55C211.19,-196.7 210.2,-117.9 191.75,-56 189.03,-46.88 184.49,-37.41 180.15,-29.52"/>
<polygon fill="#63b8ff" stroke="#63b8ff" points="182.8,-28.11 174.75,-21.23 176.75,-31.63 182.8,-28.11"/>
</a>
</g>
</g>
<!-- Node8 -->
<g id="Node000008" class="node">
<title>Node8</title>
<g id="a_Node000008"><a xlink:title=" ">
<polygon fill="#e0e0e0" stroke="#999999" points="340.5,-188 239,-188 239,-168 340.5,-168 340.5,-188"/>
<text text-anchor="middle" x="289.75" y="-174.5" font-family="Helvetica,sans-Serif" font-size="10.00">QGraphicsRectItem</text>
</a>
</g>
</g>
<!-- Node7&#45;&gt;Node8 -->
<g id="edge8_Node000007_Node000008" class="edge">
<title>Node7&#45;&gt;Node8</title>
<g id="a_edge8_Node000007_Node000008"><a xlink:title=" ">
<path fill="none" stroke="#63b8ff" d="M224.51,-223.59C236.22,-215.59 253.27,-203.93 267.01,-194.54"/>
<polygon fill="#63b8ff" stroke="#63b8ff" points="268.6,-197.01 274.88,-188.48 264.65,-191.23 268.6,-197.01"/>
</a>
</g>
</g>
<!-- Node9 -->
<g id="Node000009" class="node">
<title>Node9</title>
<g id="a_Node000009"><a xlink:title=" ">
<polygon fill="#e0e0e0" stroke="#999999" points="475,-188 358.5,-188 358.5,-168 475,-168 475,-188"/>
<text text-anchor="middle" x="416.75" y="-174.5" font-family="Helvetica,sans-Serif" font-size="10.00">QGraphicsPolygonItem</text>
</a>
</g>
</g>
<!-- Node7&#45;&gt;Node9 -->
<g id="edge9_Node000007_Node000009" class="edge">
<title>Node7&#45;&gt;Node9</title>
<g id="a_edge9_Node000007_Node000009"><a xlink:title=" ">
<path fill="none" stroke="#63b8ff" d="M241.59,-224.92C275.72,-215.97 331.11,-201.45 370.45,-191.14"/>
<polygon fill="#63b8ff" stroke="#63b8ff" points="371.06,-194.33 379.84,-188.41 369.28,-187.56 371.06,-194.33"/>
</a>
</g>
</g>
<!-- Node10 -->
<g id="Node000010" class="node">
<title>Node10</title>
<g id="a_Node000010"><a xlink:title=" ">
<polygon fill="#e0e0e0" stroke="#999999" points="636.5,-188 493,-188 493,-168 636.5,-168 636.5,-188"/>
<text text-anchor="middle" x="564.75" y="-174.5" font-family="Helvetica,sans-Serif" font-size="10.00">QGraphicsSceneMouseEvent</text>
</a>
</g>
</g>
<!-- Node7&#45;&gt;Node10 -->
<g id="edge10_Node000007_Node000010" class="edge">
<title>Node7&#45;&gt;Node10</title>
<g id="a_edge10_Node000007_Node000010"><a xlink:title=" ">
<path fill="none" stroke="#63b8ff" d="M241.55,-228.3C296.97,-219.85 414.92,-201.86 491.96,-190.1"/>
<polygon fill="#63b8ff" stroke="#63b8ff" points="492.19,-193.46 501.55,-188.49 491.13,-186.54 492.19,-193.46"/>
</a>
</g>
</g>
</g>
</svg>
