<?xml version="1.0" encoding="UTF-8" standalone="no"?>
<!DOCTYPE svg PUBLIC "-//W3C//DTD SVG 1.1//EN"
 "http://www.w3.org/Graphics/SVG/1.1/DTD/svg11.dtd">
<!-- Generated by graphviz version 8.0.5 (20230430.1635)
 -->
<!-- Title: housewindow.h Pages: 1 -->
<svg width="682pt" height="140pt"
 viewBox="0.00 0.00 682.25 140.00" xmlns="http://www.w3.org/2000/svg" xmlns:xlink="http://www.w3.org/1999/xlink">
<g id="graph0" class="graph" transform="scale(1 1) rotate(0) translate(4 136)">
<title>housewindow.h</title>
<!-- Node1 -->
<g id="Node000001" class="node">
<title>Node1</title>
<g id="a_Node000001"><a xlink:title=" ">
<polygon fill="#999999" stroke="#666666" points="354.5,-132 272.5,-132 272.5,-112 354.5,-112 354.5,-132"/>
<text text-anchor="middle" x="313.5" y="-118.5" font-family="Helvetica,sans-Serif" font-size="10.00">housewindow.h</text>
</a>
</g>
</g>
<!-- Node2 -->
<g id="Node000002" class="node">
<title>Node2</title>
<g id="a_Node000002"><a xlink:title=" ">
<polygon fill="#e0e0e0" stroke="#999999" points="79,-76 0,-76 0,-56 79,-56 79,-76"/>
<text text-anchor="middle" x="39.5" y="-62.5" font-family="Helvetica,sans-Serif" font-size="10.00">QMainWindow</text>
</a>
</g>
</g>
<!-- Node1&#45;&gt;Node2 -->
<g id="edge1_Node000001_Node000002" class="edge">
<title>Node1&#45;&gt;Node2</title>
<g id="a_edge1_Node000001_Node000002"><a xlink:title=" ">
<path fill="none" stroke="#63b8ff" d="M272.18,-112.86C223.47,-103.26 142.53,-87.3 90.1,-76.97"/>
<polygon fill="#63b8ff" stroke="#63b8ff" points="90.86,-73.36 80.37,-74.86 89.5,-80.22 90.86,-73.36"/>
</a>
</g>
</g>
<!-- Node3 -->
<g id="Node000003" class="node">
<title>Node3</title>
<g id="a_Node000003"><a xlink:title=" ">
<polygon fill="#e0e0e0" stroke="#999999" points="187.62,-76 97.38,-76 97.38,-56 187.62,-56 187.62,-76"/>
<text text-anchor="middle" x="142.5" y="-62.5" font-family="Helvetica,sans-Serif" font-size="10.00">QGraphicsScene</text>
</a>
</g>
</g>
<!-- Node1&#45;&gt;Node3 -->
<g id="edge2_Node000001_Node000003" class="edge">
<title>Node1&#45;&gt;Node3</title>
<g id="a_edge2_Node000001_Node000003"><a xlink:title=" ">
<path fill="none" stroke="#63b8ff" d="M283.71,-111.59C255.81,-102.78 213.88,-89.54 182.96,-79.78"/>
<polygon fill="#63b8ff" stroke="#63b8ff" points="184.11,-76.15 173.52,-76.48 182,-82.83 184.11,-76.15"/>
</a>
</g>
</g>
<!-- Node4 -->
<g id="Node000004" class="node">
<title>Node4</title>
<g id="a_Node000004"><a xlink:title=" ">
<polygon fill="#e0e0e0" stroke="#999999" points="313.25,-76 205.75,-76 205.75,-56 313.25,-56 313.25,-76"/>
<text text-anchor="middle" x="259.5" y="-62.5" font-family="Helvetica,sans-Serif" font-size="10.00">QGraphicsItemGroup</text>
</a>
</g>
</g>
<!-- Node1&#45;&gt;Node4 -->
<g id="edge3_Node000001_Node000004" class="edge">
<title>Node1&#45;&gt;Node4</title>
<g id="a_edge3_Node000001_Node000004"><a xlink:title=" ">
<path fill="none" stroke="#63b8ff" d="M304.09,-111.59C296.51,-104.01 285.63,-93.13 276.52,-84.02"/>
<polygon fill="#63b8ff" stroke="#63b8ff" points="279.34,-81.89 269.8,-77.3 274.39,-86.84 279.34,-81.89"/>
</a>
</g>
</g>
<!-- Node5 -->
<g id="Node000005" class="node">
<title>Node5</title>
<g id="a_Node000005"><a xlink:title=" ">
<polygon fill="#e0e0e0" stroke="#999999" points="405.75,-76 331.25,-76 331.25,-56 405.75,-56 405.75,-76"/>
<text text-anchor="middle" x="368.5" y="-62.5" font-family="Helvetica,sans-Serif" font-size="10.00">QPushButton</text>
</a>
</g>
</g>
<!-- Node1&#45;&gt;Node5 -->
<g id="edge4_Node000001_Node000005" class="edge">
<title>Node1&#45;&gt;Node5</title>
<g id="a_edge4_Node000001_Node000005"><a xlink:title=" ">
<path fill="none" stroke="#63b8ff" d="M323.08,-111.59C330.89,-103.93 342.11,-92.91 351.44,-83.75"/>
<polygon fill="#63b8ff" stroke="#63b8ff" points="353.35,-86.8 358.03,-77.3 348.44,-81.81 353.35,-86.8"/>
</a>
</g>
</g>
<!-- Node6 -->
<g id="Node000006" class="node">
<title>Node6</title>
<g id="a_Node000006"><a xlink:title=" ">
<polygon fill="#e0e0e0" stroke="#999999" points="470.88,-76 424.12,-76 424.12,-56 470.88,-56 470.88,-76"/>
<text text-anchor="middle" x="447.5" y="-62.5" font-family="Helvetica,sans-Serif" font-size="10.00">QLabel</text>
</a>
</g>
</g>
<!-- Node1&#45;&gt;Node6 -->
<g id="edge5_Node000001_Node000006" class="edge">
<title>Node1&#45;&gt;Node6</title>
<g id="a_edge5_Node000001_Node000006"><a xlink:title=" ">
<path fill="none" stroke="#63b8ff" d="M336.84,-111.59C358.13,-103.01 389.85,-90.23 413.87,-80.55"/>
<polygon fill="#63b8ff" stroke="#63b8ff" points="415.01,-83.46 422.98,-76.48 412.39,-76.97 415.01,-83.46"/>
</a>
</g>
</g>
<!-- Node7 -->
<g id="Node000007" class="node">
<title>Node7</title>
<g id="a_Node000007"><a xlink:href="central_8h.html" target="_top" xlink:title=" ">
<polygon fill="white" stroke="#666666" points="542.25,-76 488.75,-76 488.75,-56 542.25,-56 542.25,-76"/>
<text text-anchor="middle" x="515.5" y="-62.5" font-family="Helvetica,sans-Serif" font-size="10.00">central.h</text>
</a>
</g>
</g>
<!-- Node1&#45;&gt;Node7 -->
<g id="edge6_Node000001_Node000007" class="edge">
<title>Node1&#45;&gt;Node7</title>
<g id="a_edge6_Node000001_Node000007"><a xlink:title=" ">
<path fill="none" stroke="#63b8ff" d="M348.69,-111.59C384.9,-101.91 441.11,-86.89 478.11,-77"/>
<polygon fill="#63b8ff" stroke="#63b8ff" points="478.71,-80.19 487.47,-74.23 476.9,-73.43 478.71,-80.19"/>
</a>
</g>
</g>
<!-- Node8 -->
<g id="Node000008" class="node">
<title>Node8</title>
<g id="a_Node000008"><a xlink:title=" ">
<polygon fill="#e0e0e0" stroke="#999999" points="409.5,-20 357.5,-20 357.5,0 409.5,0 409.5,-20"/>
<text text-anchor="middle" x="383.5" y="-6.5" font-family="Helvetica,sans-Serif" font-size="10.00">QObject</text>
</a>
</g>
</g>
<!-- Node7&#45;&gt;Node8 -->
<g id="edge7_Node000007_Node000008" class="edge">
<title>Node7&#45;&gt;Node8</title>
<g id="a_edge7_Node000007_Node000008"><a xlink:title=" ">
<path fill="none" stroke="#63b8ff" d="M492.51,-55.59C471.53,-47.01 440.29,-34.23 416.62,-24.55"/>
<polygon fill="#63b8ff" stroke="#63b8ff" points="418.25,-21.03 407.67,-20.48 415.6,-27.51 418.25,-21.03"/>
</a>
</g>
</g>
<!-- Node9 -->
<g id="Node000009" class="node">
<title>Node9</title>
<g id="a_Node000009"><a xlink:title=" ">
<polygon fill="#e0e0e0" stroke="#999999" points="477,-20 428,-20 428,0 477,0 477,-20"/>
<text text-anchor="middle" x="452.5" y="-6.5" font-family="Helvetica,sans-Serif" font-size="10.00">QString</text>
</a>
</g>
</g>
<!-- Node7&#45;&gt;Node9 -->
<g id="edge8_Node000007_Node000009" class="edge">
<title>Node7&#45;&gt;Node9</title>
<g id="a_edge8_Node000007_Node000009"><a xlink:title=" ">
<path fill="none" stroke="#63b8ff" d="M504.53,-55.59C495.4,-47.77 482.21,-36.46 471.39,-27.19"/>
<polygon fill="#63b8ff" stroke="#63b8ff" points="474.22,-24.15 464.35,-20.3 469.66,-29.46 474.22,-24.15"/>
</a>
</g>
</g>
<!-- Node10 -->
<g id="Node000010" class="node">
<title>Node10</title>
<g id="a_Node000010"><a xlink:title=" ">
<polygon fill="#e0e0e0" stroke="#999999" points="536.25,-20 494.75,-20 494.75,0 536.25,0 536.25,-20"/>
<text text-anchor="middle" x="515.5" y="-6.5" font-family="Helvetica,sans-Serif" font-size="10.00">vector</text>
</a>
</g>
</g>
<!-- Node7&#45;&gt;Node10 -->
<g id="edge9_Node000007_Node000010" class="edge">
<title>Node7&#45;&gt;Node10</title>
<g id="a_edge9_Node000007_Node000010"><a xlink:title=" ">
<path fill="none" stroke="#63b8ff" d="M515.5,-55.59C515.5,-48.86 515.5,-39.53 515.5,-31.15"/>
<polygon fill="#63b8ff" stroke="#63b8ff" points="519,-31.3 515.5,-21.3 512,-31.3 519,-31.3"/>
</a>
</g>
</g>
<!-- Node11 -->
<g id="Node000011" class="node">
<title>Node11</title>
<g id="a_Node000011"><a xlink:title=" ">
<polygon fill="#e0e0e0" stroke="#999999" points="602.25,-20 554.75,-20 554.75,0 602.25,0 602.25,-20"/>
<text text-anchor="middle" x="578.5" y="-6.5" font-family="Helvetica,sans-Serif" font-size="10.00">QTimer</text>
</a>
</g>
</g>
<!-- Node7&#45;&gt;Node11 -->
<g id="edge10_Node000007_Node000011" class="edge">
<title>Node7&#45;&gt;Node11</title>
<g id="a_edge10_Node000007_Node000011"><a xlink:title=" ">
<path fill="none" stroke="#63b8ff" d="M526.47,-55.59C535.6,-47.77 548.79,-36.46 559.61,-27.19"/>
<polygon fill="#63b8ff" stroke="#63b8ff" points="561.34,-29.46 566.65,-20.3 556.78,-24.15 561.34,-29.46"/>
</a>
</g>
</g>
<!-- Node12 -->
<g id="Node000012" class="node">
<title>Node12</title>
<g id="a_Node000012"><a xlink:href="sensor_8h.html" target="_top" xlink:title=" ">
<polygon fill="white" stroke="#666666" points="674.25,-20 620.75,-20 620.75,0 674.25,0 674.25,-20"/>
<text text-anchor="middle" x="647.5" y="-6.5" font-family="Helvetica,sans-Serif" font-size="10.00">sensor.h</text>
</a>
</g>
</g>
<!-- Node7&#45;&gt;Node12 -->
<g id="edge11_Node000007_Node000012" class="edge">
<title>Node7&#45;&gt;Node12</title>
<g id="a_edge11_Node000007_Node000012"><a xlink:title=" ">
<path fill="none" stroke="#63b8ff" d="M538.49,-55.59C559.47,-47.01 590.71,-34.23 614.38,-24.55"/>
<polygon fill="#63b8ff" stroke="#63b8ff" points="615.4,-27.51 623.33,-20.48 612.75,-21.03 615.4,-27.51"/>
</a>
</g>
</g>
</g>
</svg>
