<?xml version="1.0" encoding="UTF-8" standalone="no"?>
<!DOCTYPE svg PUBLIC "-//W3C//DTD SVG 1.1//EN"
 "http://www.w3.org/Graphics/SVG/1.1/DTD/svg11.dtd">
<!-- Generated by graphviz version 8.0.5 (20230430.1635)
 -->
<!-- Title: Gráfico de jerarquía de clases Pages: 1 -->
<svg width="259pt" height="104pt"
 viewBox="0.00 0.00 259.00 104.00" xmlns="http://www.w3.org/2000/svg" xmlns:xlink="http://www.w3.org/1999/xlink">
<g id="graph0" class="graph" transform="scale(1 1) rotate(0) translate(4 100)">
<title>Gráfico de jerarquía de clases</title>
<!-- Node0 -->
<g id="Node000000" class="node">
<title>Node0</title>
<g id="a_Node000000"><a xlink:title=" ">
<polygon fill="#e0e0e0" stroke="#999999" points="107.5,-58 0,-58 0,-38 107.5,-38 107.5,-58"/>
<text text-anchor="middle" x="53.75" y="-44.5" font-family="Helvetica,sans-Serif" font-size="10.00">QGraphicsItemGroup</text>
</a>
</g>
</g>
<!-- Node1 -->
<g id="Node000001" class="node">
<title>Node1</title>
<g id="a_Node000001"><a xlink:href="class_door_view.html" target="_top" xlink:title=" ">
<polygon fill="white" stroke="#666666" points="225.88,-96 168.62,-96 168.62,-76 225.88,-76 225.88,-96"/>
<text text-anchor="middle" x="197.25" y="-82.5" font-family="Helvetica,sans-Serif" font-size="10.00">DoorView</text>
</a>
</g>
</g>
<!-- Node0&#45;&gt;Node1 -->
<g id="edge1_Node000000_Node000001" class="edge">
<title>Node0&#45;&gt;Node1</title>
<g id="a_edge1_Node000000_Node000001"><a xlink:title=" ">
<path fill="none" stroke="#63b8ff" d="M104.41,-61.34C125.93,-67.12 150.31,-73.66 168.55,-78.56"/>
<polygon fill="#63b8ff" stroke="#63b8ff" points="105.36,-57.7 94.79,-58.48 103.54,-64.46 105.36,-57.7"/>
</a>
</g>
</g>
<!-- Node2 -->
<g id="Node000002" class="node">
<title>Node2</title>
<g id="a_Node000002"><a xlink:href="class_magnetic_sensor_view.html" target="_top" xlink:title=" ">
<polygon fill="white" stroke="#666666" points="251,-58 143.5,-58 143.5,-38 251,-38 251,-58"/>
<text text-anchor="middle" x="197.25" y="-44.5" font-family="Helvetica,sans-Serif" font-size="10.00">MagneticSensorView</text>
</a>
</g>
</g>
<!-- Node0&#45;&gt;Node2 -->
<g id="edge2_Node000000_Node000002" class="edge">
<title>Node0&#45;&gt;Node2</title>
<g id="a_edge2_Node000000_Node000002"><a xlink:title=" ">
<path fill="none" stroke="#63b8ff" d="M118.6,-48C126.87,-48 135.27,-48 143.33,-48"/>
<polygon fill="#63b8ff" stroke="#63b8ff" points="118.84,-44.5 108.84,-48 118.84,-51.5 118.84,-44.5"/>
</a>
</g>
</g>
<!-- Node3 -->
<g id="Node000003" class="node">
<title>Node3</title>
<g id="a_Node000003"><a xlink:href="class_window_view.html" target="_top" xlink:title=" ">
<polygon fill="white" stroke="#666666" points="233,-20 161.5,-20 161.5,0 233,0 233,-20"/>
<text text-anchor="middle" x="197.25" y="-6.5" font-family="Helvetica,sans-Serif" font-size="10.00">WindowView</text>
</a>
</g>
</g>
<!-- Node0&#45;&gt;Node3 -->
<g id="edge3_Node000000_Node000003" class="edge">
<title>Node0&#45;&gt;Node3</title>
<g id="a_edge3_Node000000_Node000003"><a xlink:title=" ">
<path fill="none" stroke="#63b8ff" d="M104.25,-34.71C123.04,-29.66 144.02,-24.03 161.2,-19.41"/>
<polygon fill="#63b8ff" stroke="#63b8ff" points="103.54,-31.54 94.79,-37.52 105.36,-38.3 103.54,-31.54"/>
</a>
</g>
</g>
</g>
</svg>
