<?xml version="1.0" encoding="UTF-8" standalone="no"?>
<!DOCTYPE svg PUBLIC "-//W3C//DTD SVG 1.1//EN"
 "http://www.w3.org/Graphics/SVG/1.1/DTD/svg11.dtd">
<!-- Generated by graphviz version 8.0.5 (20230430.1635)
 -->
<!-- Title: magneticsensorview.h Pages: 1 -->
<svg width="557pt" height="252pt"
 viewBox="0.00 0.00 557.00 252.00" xmlns="http://www.w3.org/2000/svg" xmlns:xlink="http://www.w3.org/1999/xlink">
<g id="graph0" class="graph" transform="scale(1 1) rotate(0) translate(4 248)">
<title>magneticsensorview.h</title>
<!-- Node1 -->
<g id="Node000001" class="node">
<title>Node1</title>
<g id="a_Node000001"><a xlink:title=" ">
<polygon fill="#999999" stroke="#666666" points="411.75,-244 300.5,-244 300.5,-224 411.75,-224 411.75,-244"/>
<text text-anchor="middle" x="356.12" y="-230.5" font-family="Helvetica,sans-Serif" font-size="10.00">magneticsensorview.h</text>
</a>
</g>
</g>
<!-- Node2 -->
<g id="Node000002" class="node">
<title>Node2</title>
<g id="a_Node000002"><a xlink:href="doorview_8h.html" target="_top" xlink:title=" ">
<polygon fill="white" stroke="#666666" points="358.62,-76 297.62,-76 297.62,-56 358.62,-56 358.62,-76"/>
<text text-anchor="middle" x="328.12" y="-62.5" font-family="Helvetica,sans-Serif" font-size="10.00">doorview.h</text>
</a>
</g>
</g>
<!-- Node1&#45;&gt;Node2 -->
<g id="edge1_Node000001_Node000002" class="edge">
<title>Node1&#45;&gt;Node2</title>
<g id="a_edge1_Node000001_Node000002"><a xlink:title=" ">
<path fill="none" stroke="#63b8ff" d="M366.66,-214.23C378.92,-189.72 395.64,-145.93 380.12,-112 373.03,-96.47 357.63,-84.25 345.43,-76.49"/>
<polygon fill="#63b8ff" stroke="#63b8ff" points="363.2,-212.28 361.62,-222.76 369.39,-215.55 363.2,-212.28"/>
</a>
</g>
</g>
<!-- Node6 -->
<g id="Node000006" class="node">
<title>Node6</title>
<g id="a_Node000006"><a xlink:href="magneticsensor_8h.html" target="_top" xlink:title=" ">
<polygon fill="white" stroke="#666666" points="317.75,-188 224.5,-188 224.5,-168 317.75,-168 317.75,-188"/>
<text text-anchor="middle" x="271.12" y="-174.5" font-family="Helvetica,sans-Serif" font-size="10.00">magneticsensor.h</text>
</a>
</g>
</g>
<!-- Node1&#45;&gt;Node6 -->
<g id="edge5_Node000001_Node000006" class="edge">
<title>Node1&#45;&gt;Node6</title>
<g id="a_edge5_Node000001_Node000006"><a xlink:title=" ">
<path fill="none" stroke="#63b8ff" d="M332.22,-217.81C317.39,-208.39 298.8,-196.58 286.05,-188.48"/>
<polygon fill="#63b8ff" stroke="#63b8ff" points="330,-221.19 340.32,-223.59 333.76,-215.28 330,-221.19"/>
</a>
</g>
</g>
<!-- Node11 -->
<g id="Node000011" class="node">
<title>Node11</title>
<g id="a_Node000011"><a xlink:href="windowview_8h.html" target="_top" xlink:title=" ">
<polygon fill="white" stroke="#666666" points="127,-76 53.25,-76 53.25,-56 127,-56 127,-76"/>
<text text-anchor="middle" x="90.12" y="-62.5" font-family="Helvetica,sans-Serif" font-size="10.00">windowview.h</text>
</a>
</g>
</g>
<!-- Node1&#45;&gt;Node11 -->
<g id="edge19_Node000001_Node000011" class="edge">
<title>Node1&#45;&gt;Node11</title>
<g id="a_edge19_Node000001_Node000011"><a xlink:title=" ">
<path fill="none" stroke="#63b8ff" d="M291.97,-221.06C238.89,-207.95 165.15,-181.78 120.12,-132 105.12,-115.41 96.38,-90.01 92.52,-76.4"/>
<polygon fill="#63b8ff" stroke="#63b8ff" points="291.09,-224.68 301.63,-223.58 292.71,-217.87 291.09,-224.68"/>
</a>
</g>
</g>
<!-- Node13 -->
<g id="Node000013" class="node">
<title>Node13</title>
<g id="a_Node000013"><a xlink:href="magneticsensorview_8cpp.html" target="_top" xlink:title=" ">
<polygon fill="white" stroke="#666666" points="549,-188 427.25,-188 427.25,-168 549,-168 549,-188"/>
<text text-anchor="middle" x="488.12" y="-174.5" font-family="Helvetica,sans-Serif" font-size="10.00">magneticsensorview.cpp</text>
</a>
</g>
</g>
<!-- Node1&#45;&gt;Node13 -->
<g id="edge18_Node000001_Node000013" class="edge">
<title>Node1&#45;&gt;Node13</title>
<g id="a_edge18_Node000001_Node000013"><a xlink:title=" ">
<path fill="none" stroke="#63b8ff" d="M389.05,-219.53C412.67,-209.87 443.92,-197.08 464.95,-188.48"/>
<polygon fill="#63b8ff" stroke="#63b8ff" points="388.05,-216.57 380.12,-223.59 390.7,-223.05 388.05,-216.57"/>
</a>
</g>
</g>
<!-- Node3 -->
<g id="Node000003" class="node">
<title>Node3</title>
<g id="a_Node000003"><a xlink:href="door_8cpp.html" target="_top" xlink:title=" ">
<polygon fill="white" stroke="#666666" points="313.88,-20 260.38,-20 260.38,0 313.88,0 313.88,-20"/>
<text text-anchor="middle" x="287.12" y="-6.5" font-family="Helvetica,sans-Serif" font-size="10.00">door.cpp</text>
</a>
</g>
</g>
<!-- Node2&#45;&gt;Node3 -->
<g id="edge2_Node000002_Node000003" class="edge">
<title>Node2&#45;&gt;Node3</title>
<g id="a_edge2_Node000002_Node000003"><a xlink:title=" ">
<path fill="none" stroke="#63b8ff" d="M314.46,-47C307.67,-38.06 299.75,-27.62 294.18,-20.3"/>
<polygon fill="#63b8ff" stroke="#63b8ff" points="312.15,-48.75 320.98,-54.59 317.72,-44.51 312.15,-48.75"/>
</a>
</g>
</g>
<!-- Node4 -->
<g id="Node000004" class="node">
<title>Node4</title>
<g id="a_Node000004"><a xlink:href="doorview_8cpp.html" target="_top" xlink:title=" ">
<polygon fill="white" stroke="#666666" points="403.88,-20 332.38,-20 332.38,0 403.88,0 403.88,-20"/>
<text text-anchor="middle" x="368.12" y="-6.5" font-family="Helvetica,sans-Serif" font-size="10.00">doorview.cpp</text>
</a>
</g>
</g>
<!-- Node2&#45;&gt;Node4 -->
<g id="edge3_Node000002_Node000004" class="edge">
<title>Node2&#45;&gt;Node4</title>
<g id="a_edge3_Node000002_Node000004"><a xlink:title=" ">
<path fill="none" stroke="#63b8ff" d="M341.46,-47C348.08,-38.06 355.81,-27.62 361.24,-20.3"/>
<polygon fill="#63b8ff" stroke="#63b8ff" points="338.23,-44.48 335.09,-54.59 343.86,-48.64 338.23,-44.48"/>
</a>
</g>
</g>
<!-- Node5 -->
<g id="Node000005" class="node">
<title>Node5</title>
<g id="a_Node000005"><a xlink:href="main_8cpp.html" target="_top" xlink:title=" ">
<polygon fill="white" stroke="#666666" points="242,-20 186.25,-20 186.25,0 242,0 242,-20"/>
<text text-anchor="middle" x="214.12" y="-6.5" font-family="Helvetica,sans-Serif" font-size="10.00">main.cpp</text>
</a>
</g>
</g>
<!-- Node2&#45;&gt;Node5 -->
<g id="edge4_Node000002_Node000005" class="edge">
<title>Node2&#45;&gt;Node5</title>
<g id="a_edge4_Node000002_Node000005"><a xlink:title=" ">
<path fill="none" stroke="#63b8ff" d="M298.59,-51.01C278.33,-41.41 251.98,-28.93 234.14,-20.48"/>
<polygon fill="#63b8ff" stroke="#63b8ff" points="296.73,-54.48 307.27,-55.59 299.73,-48.15 296.73,-54.48"/>
</a>
</g>
</g>
<!-- Node7 -->
<g id="Node000007" class="node">
<title>Node7</title>
<g id="a_Node000007"><a xlink:href="door_8h.html" target="_top" xlink:title=" ">
<polygon fill="white" stroke="#666666" points="249.62,-132 206.62,-132 206.62,-112 249.62,-112 249.62,-132"/>
<text text-anchor="middle" x="228.12" y="-118.5" font-family="Helvetica,sans-Serif" font-size="10.00">door.h</text>
</a>
</g>
</g>
<!-- Node6&#45;&gt;Node7 -->
<g id="edge6_Node000006_Node000007" class="edge">
<title>Node6&#45;&gt;Node7</title>
<g id="a_edge6_Node000006_Node000007"><a xlink:title=" ">
<path fill="none" stroke="#63b8ff" d="M256.79,-159C249.67,-150.06 241.36,-139.62 235.53,-132.3"/>
<polygon fill="#63b8ff" stroke="#63b8ff" points="254.67,-160.95 263.63,-166.59 260.14,-156.59 254.67,-160.95"/>
</a>
</g>
</g>
<!-- Node8 -->
<g id="Node000008" class="node">
<title>Node8</title>
<g id="a_Node000008"><a xlink:href="magneticsensor_8cpp.html" target="_top" xlink:title=" ">
<polygon fill="white" stroke="#666666" points="371,-132 267.25,-132 267.25,-112 371,-112 371,-132"/>
<text text-anchor="middle" x="319.12" y="-118.5" font-family="Helvetica,sans-Serif" font-size="10.00">magneticsensor.cpp</text>
</a>
</g>
</g>
<!-- Node6&#45;&gt;Node8 -->
<g id="edge10_Node000006_Node000008" class="edge">
<title>Node6&#45;&gt;Node8</title>
<g id="a_edge10_Node000006_Node000008"><a xlink:title=" ">
<path fill="none" stroke="#63b8ff" d="M286.62,-159.57C294.68,-150.5 304.21,-139.78 310.86,-132.3"/>
<polygon fill="#63b8ff" stroke="#63b8ff" points="284.51,-156.79 280.49,-166.59 289.75,-161.45 284.51,-156.79"/>
</a>
</g>
</g>
<!-- Node9 -->
<g id="Node000009" class="node">
<title>Node9</title>
<g id="a_Node000009"><a xlink:href="window_8h.html" target="_top" xlink:title=" ">
<polygon fill="white" stroke="#666666" points="185,-132 129.25,-132 129.25,-112 185,-112 185,-132"/>
<text text-anchor="middle" x="157.12" y="-118.5" font-family="Helvetica,sans-Serif" font-size="10.00">window.h</text>
</a>
</g>
</g>
<!-- Node6&#45;&gt;Node9 -->
<g id="edge11_Node000006_Node000009" class="edge">
<title>Node6&#45;&gt;Node9</title>
<g id="a_edge11_Node000006_Node000009"><a xlink:title=" ">
<path fill="none" stroke="#63b8ff" d="M241.59,-163.01C221.33,-153.41 194.98,-140.93 177.14,-132.48"/>
<polygon fill="#63b8ff" stroke="#63b8ff" points="239.73,-166.48 250.27,-167.59 242.73,-160.15 239.73,-166.48"/>
</a>
</g>
</g>
<!-- Node7&#45;&gt;Node2 -->
<g id="edge8_Node000007_Node000002" class="edge">
<title>Node7&#45;&gt;Node2</title>
<g id="a_edge8_Node000007_Node000002"><a xlink:title=" ">
<path fill="none" stroke="#63b8ff" d="M254.77,-106.61C272.44,-97.07 295.14,-84.81 310.57,-76.48"/>
<polygon fill="#63b8ff" stroke="#63b8ff" points="253.68,-103.76 246.54,-111.59 257.01,-109.92 253.68,-103.76"/>
</a>
</g>
</g>
<!-- Node7&#45;&gt;Node3 -->
<g id="edge7_Node000007_Node000003" class="edge">
<title>Node7&#45;&gt;Node3</title>
<g id="a_edge7_Node000007_Node000003"><a xlink:title=" ">
<path fill="none" stroke="#63b8ff" d="M238.35,-101.95C251.11,-78.14 272.45,-38.36 282.11,-20.35"/>
<polygon fill="#63b8ff" stroke="#63b8ff" points="234.8,-100.15 233.16,-110.62 240.97,-103.46 234.8,-100.15"/>
</a>
</g>
</g>
<!-- Node7&#45;&gt;Node5 -->
<g id="edge9_Node000007_Node000005" class="edge">
<title>Node7&#45;&gt;Node5</title>
<g id="a_edge9_Node000007_Node000005"><a xlink:title=" ">
<path fill="none" stroke="#63b8ff" d="M225.58,-100.97C222.53,-77.07 217.58,-38.11 215.32,-20.35"/>
<polygon fill="#63b8ff" stroke="#63b8ff" points="222.2,-101.14 226.93,-110.62 229.14,-100.26 222.2,-101.14"/>
</a>
</g>
</g>
<!-- Node9&#45;&gt;Node5 -->
<g id="edge12_Node000009_Node000005" class="edge">
<title>Node9&#45;&gt;Node5</title>
<g id="a_edge12_Node000009_Node000005"><a xlink:title=" ">
<path fill="none" stroke="#63b8ff" d="M167,-101.95C179.33,-78.14 199.95,-38.36 209.28,-20.35"/>
<polygon fill="#63b8ff" stroke="#63b8ff" points="163.48,-100.13 161.98,-110.62 169.69,-103.35 163.48,-100.13"/>
</a>
</g>
</g>
<!-- Node10 -->
<g id="Node000010" class="node">
<title>Node10</title>
<g id="a_Node000010"><a xlink:href="window_8cpp.html" target="_top" xlink:title=" ">
<polygon fill="white" stroke="#666666" points="168.25,-20 102,-20 102,0 168.25,0 168.25,-20"/>
<text text-anchor="middle" x="135.12" y="-6.5" font-family="Helvetica,sans-Serif" font-size="10.00">window.cpp</text>
</a>
</g>
</g>
<!-- Node9&#45;&gt;Node10 -->
<g id="edge13_Node000009_Node000010" class="edge">
<title>Node9&#45;&gt;Node10</title>
<g id="a_edge13_Node000009_Node000010"><a xlink:title=" ">
<path fill="none" stroke="#63b8ff" d="M153.12,-100.97C148.34,-77.07 140.55,-38.11 137,-20.35"/>
<polygon fill="#63b8ff" stroke="#63b8ff" points="149.86,-101.5 155.25,-110.62 156.72,-100.13 149.86,-101.5"/>
</a>
</g>
</g>
<!-- Node9&#45;&gt;Node11 -->
<g id="edge14_Node000009_Node000011" class="edge">
<title>Node9&#45;&gt;Node11</title>
<g id="a_edge14_Node000009_Node000011"><a xlink:title=" ">
<path fill="none" stroke="#63b8ff" d="M137.22,-104.95C125.63,-95.61 111.42,-84.16 101.66,-76.3"/>
<polygon fill="#63b8ff" stroke="#63b8ff" points="134.47,-108.04 144.45,-111.59 138.86,-102.59 134.47,-108.04"/>
</a>
</g>
</g>
<!-- Node11&#45;&gt;Node5 -->
<g id="edge15_Node000011_Node000005" class="edge">
<title>Node11&#45;&gt;Node5</title>
<g id="a_edge15_Node000011_Node000005"><a xlink:title=" ">
<path fill="none" stroke="#63b8ff" d="M121.65,-51.27C143.77,-41.64 172.78,-29.01 192.36,-20.48"/>
<polygon fill="#63b8ff" stroke="#63b8ff" points="120.5,-48.39 112.72,-55.59 123.29,-54.81 120.5,-48.39"/>
</a>
</g>
</g>
<!-- Node11&#45;&gt;Node10 -->
<g id="edge16_Node000011_Node000010" class="edge">
<title>Node11&#45;&gt;Node10</title>
<g id="a_edge16_Node000011_Node000010"><a xlink:title=" ">
<path fill="none" stroke="#63b8ff" d="M104.89,-47.29C112.39,-38.28 121.21,-27.7 127.38,-20.3"/>
<polygon fill="#63b8ff" stroke="#63b8ff" points="101.68,-44.67 97.96,-54.59 107.05,-49.15 101.68,-44.67"/>
</a>
</g>
</g>
<!-- Node12 -->
<g id="Node000012" class="node">
<title>Node12</title>
<g id="a_Node000012"><a xlink:href="windowview_8cpp.html" target="_top" xlink:title=" ">
<polygon fill="white" stroke="#666666" points="84.25,-20 0,-20 0,0 84.25,0 84.25,-20"/>
<text text-anchor="middle" x="42.12" y="-6.5" font-family="Helvetica,sans-Serif" font-size="10.00">windowview.cpp</text>
</a>
</g>
</g>
<!-- Node11&#45;&gt;Node12 -->
<g id="edge17_Node000011_Node000012" class="edge">
<title>Node11&#45;&gt;Node12</title>
<g id="a_edge17_Node000011_Node000012"><a xlink:title=" ">
<path fill="none" stroke="#63b8ff" d="M74.63,-47.57C66.57,-38.5 57.04,-27.78 50.39,-20.3"/>
<polygon fill="#63b8ff" stroke="#63b8ff" points="71.5,-49.45 80.76,-54.59 76.74,-44.79 71.5,-49.45"/>
</a>
</g>
</g>
</g>
</svg>
