<?xml version="1.0" encoding="UTF-8" standalone="no"?>
<!DOCTYPE svg PUBLIC "-//W3C//DTD SVG 1.1//EN"
 "http://www.w3.org/Graphics/SVG/1.1/DTD/svg11.dtd">
<!-- Generated by graphviz version 8.0.5 (20230430.1635)
 -->
<!-- Title: magneticsensorview.cpp Pages: 1 -->
<svg width="186pt" height="140pt"
 viewBox="0.00 0.00 186.12 140.00" xmlns="http://www.w3.org/2000/svg" xmlns:xlink="http://www.w3.org/1999/xlink">
<g id="graph0" class="graph" transform="scale(1 1) rotate(0) translate(4 136)">
<title>magneticsensorview.cpp</title>
<!-- Node1 -->
<g id="Node000001" class="node">
<title>Node1</title>
<g id="a_Node000001"><a xlink:title=" ">
<polygon fill="#999999" stroke="#666666" points="165.5,-132 43.75,-132 43.75,-112 165.5,-112 165.5,-132"/>
<text text-anchor="middle" x="104.62" y="-118.5" font-family="Helvetica,sans-Serif" font-size="10.00">magneticsensorview.cpp</text>
</a>
</g>
</g>
<!-- Node2 -->
<g id="Node000002" class="node">
<title>Node2</title>
<g id="a_Node000002"><a xlink:href="magneticsensorview_8h.html" target="_top" xlink:title=" ">
<polygon fill="white" stroke="#666666" points="111.25,-76 0,-76 0,-56 111.25,-56 111.25,-76"/>
<text text-anchor="middle" x="55.62" y="-62.5" font-family="Helvetica,sans-Serif" font-size="10.00">magneticsensorview.h</text>
</a>
</g>
</g>
<!-- Node1&#45;&gt;Node2 -->
<g id="edge1_Node000001_Node000002" class="edge">
<title>Node1&#45;&gt;Node2</title>
<g id="a_edge1_Node000001_Node000002"><a xlink:title=" ">
<path fill="none" stroke="#63b8ff" d="M96.09,-111.59C89.27,-104.08 79.54,-93.35 71.33,-84.3"/>
<polygon fill="#63b8ff" stroke="#63b8ff" points="74.37,-82.35 65.06,-77.3 69.19,-87.06 74.37,-82.35"/>
</a>
</g>
</g>
<!-- Node4 -->
<g id="Node000004" class="node">
<title>Node4</title>
<g id="a_Node000004"><a xlink:title=" ">
<polygon fill="#e0e0e0" stroke="#999999" points="178.12,-76 129.12,-76 129.12,-56 178.12,-56 178.12,-76"/>
<text text-anchor="middle" x="153.62" y="-62.5" font-family="Helvetica,sans-Serif" font-size="10.00">QBrush</text>
</a>
</g>
</g>
<!-- Node1&#45;&gt;Node4 -->
<g id="edge3_Node000001_Node000004" class="edge">
<title>Node1&#45;&gt;Node4</title>
<g id="a_edge3_Node000001_Node000004"><a xlink:title=" ">
<path fill="none" stroke="#63b8ff" d="M113.16,-111.59C119.98,-104.08 129.71,-93.35 137.92,-84.3"/>
<polygon fill="#63b8ff" stroke="#63b8ff" points="140.06,-87.06 144.19,-77.3 134.88,-82.35 140.06,-87.06"/>
</a>
</g>
</g>
<!-- Node3 -->
<g id="Node000003" class="node">
<title>Node3</title>
<g id="a_Node000003"><a xlink:title=" ">
<polygon fill="#e0e0e0" stroke="#999999" points="109.38,-20 1.88,-20 1.88,0 109.38,0 109.38,-20"/>
<text text-anchor="middle" x="55.62" y="-6.5" font-family="Helvetica,sans-Serif" font-size="10.00">QGraphicsItemGroup</text>
</a>
</g>
</g>
<!-- Node2&#45;&gt;Node3 -->
<g id="edge2_Node000002_Node000003" class="edge">
<title>Node2&#45;&gt;Node3</title>
<g id="a_edge2_Node000002_Node000003"><a xlink:title=" ">
<path fill="none" stroke="#63b8ff" d="M55.62,-55.59C55.62,-48.86 55.62,-39.53 55.62,-31.15"/>
<polygon fill="#63b8ff" stroke="#63b8ff" points="59.13,-31.3 55.62,-21.3 52.13,-31.3 59.13,-31.3"/>
</a>
</g>
</g>
</g>
</svg>
