<?xml version="1.0" encoding="UTF-8" standalone="no"?>
<!DOCTYPE svg PUBLIC "-//W3C//DTD SVG 1.1//EN"
 "http://www.w3.org/Graphics/SVG/1.1/DTD/svg11.dtd">
<!-- Generated by graphviz version 8.0.5 (20230430.1635)
 -->
<!-- Title: magneticsensor.h Pages: 1 -->
<svg width="412pt" height="196pt"
 viewBox="0.00 0.00 411.88 196.00" xmlns="http://www.w3.org/2000/svg" xmlns:xlink="http://www.w3.org/1999/xlink">

<svg id="main" version="1.1" xmlns="http://www.w3.org/2000/svg" xmlns:xlink="http://www.w3.org/1999/xlink" xml:space="preserve" onload="init(evt)">
<style type="text/css"><![CDATA[
.node, .edge {opacity: 0.7;}
.node.selected, .edge.selected {opacity: 1;}
.edge:hover path { stroke: red; }
.edge:hover polygon { stroke: red; fill: red; }
]]></style>
<script type="application/ecmascript" xlink:href="svg.min.js"/>
<svg id="graph" class="graph">
<g id="graph0" class="graph" transform="scale(1 1) rotate(0) translate(4 192)">
<title>magneticsensor.h</title>
<!-- Node1 -->
<g id="Node000001" class="node">
<title>Node1</title>
<g id="a_Node000001"><a xlink:title=" ">
<polygon fill="#999999" stroke="#666666" points="231.38,-188 138.12,-188 138.12,-168 231.38,-168 231.38,-188"/>
<text text-anchor="middle" x="184.75" y="-174.5" font-family="Helvetica,sans-Serif" font-size="10.00">magneticsensor.h</text>
</a>
</g>
</g>
<!-- Node2 -->
<g id="Node000002" class="node">
<title>Node2</title>
<g id="a_Node000002"><a xlink:href="door_8h.html" target="_top" xlink:title=" ">
<polygon fill="white" stroke="#666666" points="115.25,-132 72.25,-132 72.25,-112 115.25,-112 115.25,-132"/>
<text text-anchor="middle" x="93.75" y="-118.5" font-family="Helvetica,sans-Serif" font-size="10.00">door.h</text>
</a>
</g>
</g>
<!-- Node1&#45;&gt;Node2 -->
<g id="edge1_Node000001_Node000002" class="edge">
<title>Node1&#45;&gt;Node2</title>
<g id="a_edge1_Node000001_Node000002"><a xlink:title=" ">
<path fill="none" stroke="#63b8ff" d="M159.61,-162.08C143.66,-152.62 123.51,-140.66 109.72,-132.48"/>
<polygon fill="#63b8ff" stroke="#63b8ff" points="157.51,-165.5 167.9,-167.59 161.09,-159.48 157.51,-165.5"/>
</a>
</g>
</g>
<!-- Node7 -->
<g id="Node000007" class="node">
<title>Node7</title>
<g id="a_Node000007"><a xlink:href="magneticsensor_8cpp.html" target="_top" xlink:title=" ">
<polygon fill="white" stroke="#666666" points="236.62,-132 132.88,-132 132.88,-112 236.62,-112 236.62,-132"/>
<text text-anchor="middle" x="184.75" y="-118.5" font-family="Helvetica,sans-Serif" font-size="10.00">magneticsensor.cpp</text>
</a>
</g>
</g>
<!-- Node1&#45;&gt;Node7 -->
<g id="edge8_Node000001_Node000007" class="edge">
<title>Node1&#45;&gt;Node7</title>
<g id="a_edge8_Node000001_Node000007"><a xlink:title=" ">
<path fill="none" stroke="#63b8ff" d="M184.75,-156.71C184.75,-148.32 184.75,-139.01 184.75,-132.3"/>
<polygon fill="#63b8ff" stroke="#63b8ff" points="181.25,-156.59 184.75,-166.59 188.25,-156.59 181.25,-156.59"/>
</a>
</g>
</g>
<!-- Node8 -->
<g id="Node000008" class="node">
<title>Node8</title>
<g id="a_Node000008"><a xlink:href="window_8h.html" target="_top" xlink:title=" ">
<polygon fill="white" stroke="#666666" points="310.62,-132 254.88,-132 254.88,-112 310.62,-112 310.62,-132"/>
<text text-anchor="middle" x="282.75" y="-118.5" font-family="Helvetica,sans-Serif" font-size="10.00">window.h</text>
</a>
</g>
</g>
<!-- Node1&#45;&gt;Node8 -->
<g id="edge9_Node000001_Node000008" class="edge">
<title>Node1&#45;&gt;Node8</title>
<g id="a_edge9_Node000001_Node000008"><a xlink:title=" ">
<path fill="none" stroke="#63b8ff" d="M211.34,-162.35C228.59,-152.84 250.56,-140.74 265.55,-132.48"/>
<polygon fill="#63b8ff" stroke="#63b8ff" points="209.89,-159.7 202.82,-167.59 213.27,-165.83 209.89,-159.7"/>
</a>
</g>
</g>
<!-- Node3 -->
<g id="Node000003" class="node">
<title>Node3</title>
<g id="a_Node000003"><a xlink:href="door_8cpp.html" target="_top" xlink:title=" ">
<polygon fill="white" stroke="#666666" points="53.5,-20 0,-20 0,0 53.5,0 53.5,-20"/>
<text text-anchor="middle" x="26.75" y="-6.5" font-family="Helvetica,sans-Serif" font-size="10.00">door.cpp</text>
</a>
</g>
</g>
<!-- Node2&#45;&gt;Node3 -->
<g id="edge2_Node000002_Node000003" class="edge">
<title>Node2&#45;&gt;Node3</title>
<g id="a_edge2_Node000002_Node000003"><a xlink:title=" ">
<path fill="none" stroke="#63b8ff" d="M78.8,-103.51C72.24,-95.42 64.7,-85.51 58.75,-76 46.87,-57.02 36.04,-33.01 30.54,-20.14"/>
<polygon fill="#63b8ff" stroke="#63b8ff" points="76.57,-105.3 85.65,-110.76 81.95,-100.83 76.57,-105.3"/>
</a>
</g>
</g>
<!-- Node4 -->
<g id="Node000004" class="node">
<title>Node4</title>
<g id="a_Node000004"><a xlink:href="doorview_8h.html" target="_top" xlink:title=" ">
<polygon fill="white" stroke="#666666" points="129.25,-76 68.25,-76 68.25,-56 129.25,-56 129.25,-76"/>
<text text-anchor="middle" x="98.75" y="-62.5" font-family="Helvetica,sans-Serif" font-size="10.00">doorview.h</text>
</a>
</g>
</g>
<!-- Node2&#45;&gt;Node4 -->
<g id="edge3_Node000002_Node000004" class="edge">
<title>Node2&#45;&gt;Node4</title>
<g id="a_edge3_Node000002_Node000004"><a xlink:title=" ">
<path fill="none" stroke="#63b8ff" d="M95.63,-100.71C96.41,-92.32 97.27,-83.01 97.89,-76.3"/>
<polygon fill="#63b8ff" stroke="#63b8ff" points="92.06,-100.31 94.62,-110.59 99.03,-100.96 92.06,-100.31"/>
</a>
</g>
</g>
<!-- Node6 -->
<g id="Node000006" class="node">
<title>Node6</title>
<g id="a_Node000006"><a xlink:href="main_8cpp.html" target="_top" xlink:title=" ">
<polygon fill="white" stroke="#666666" points="217.62,-20 161.88,-20 161.88,0 217.62,0 217.62,-20"/>
<text text-anchor="middle" x="189.75" y="-6.5" font-family="Helvetica,sans-Serif" font-size="10.00">main.cpp</text>
</a>
</g>
</g>
<!-- Node2&#45;&gt;Node6 -->
<g id="edge7_Node000002_Node000006" class="edge">
<title>Node2&#45;&gt;Node6</title>
<g id="a_edge7_Node000002_Node000006"><a xlink:title=" ">
<path fill="none" stroke="#63b8ff" d="M111.09,-104.07C119.36,-95.8 129.28,-85.57 137.75,-76 154.61,-56.95 172.86,-33.37 182.63,-20.5"/>
<polygon fill="#63b8ff" stroke="#63b8ff" points="109.12,-101.09 104.48,-110.61 114.04,-106.06 109.12,-101.09"/>
</a>
</g>
</g>
<!-- Node4&#45;&gt;Node3 -->
<g id="edge4_Node000004_Node000003" class="edge">
<title>Node4&#45;&gt;Node3</title>
<g id="a_edge4_Node000004_Node000003"><a xlink:title=" ">
<path fill="none" stroke="#63b8ff" d="M77.72,-49.23C65.2,-39.84 49.74,-28.24 39.15,-20.3"/>
<polygon fill="#63b8ff" stroke="#63b8ff" points="75.11,-52.39 85.21,-55.59 79.31,-46.79 75.11,-52.39"/>
</a>
</g>
</g>
<!-- Node5 -->
<g id="Node000005" class="node">
<title>Node5</title>
<g id="a_Node000005"><a xlink:href="doorview_8cpp.html" target="_top" xlink:title=" ">
<polygon fill="white" stroke="#666666" points="143.5,-20 72,-20 72,0 143.5,0 143.5,-20"/>
<text text-anchor="middle" x="107.75" y="-6.5" font-family="Helvetica,sans-Serif" font-size="10.00">doorview.cpp</text>
</a>
</g>
</g>
<!-- Node4&#45;&gt;Node5 -->
<g id="edge5_Node000004_Node000005" class="edge">
<title>Node4&#45;&gt;Node5</title>
<g id="a_edge5_Node000004_Node000005"><a xlink:title=" ">
<path fill="none" stroke="#63b8ff" d="M102.08,-45C103.49,-36.54 105.07,-27.08 106.2,-20.3"/>
<polygon fill="#63b8ff" stroke="#63b8ff" points="98.51,-44.15 100.32,-54.59 105.41,-45.31 98.51,-44.15"/>
</a>
</g>
</g>
<!-- Node4&#45;&gt;Node6 -->
<g id="edge6_Node000004_Node000006" class="edge">
<title>Node4&#45;&gt;Node6</title>
<g id="a_edge6_Node000004_Node000006"><a xlink:title=" ">
<path fill="none" stroke="#63b8ff" d="M123.89,-50.08C139.84,-40.62 159.99,-28.66 173.78,-20.48"/>
<polygon fill="#63b8ff" stroke="#63b8ff" points="122.41,-47.48 115.6,-55.59 125.99,-53.5 122.41,-47.48"/>
</a>
</g>
</g>
<!-- Node8&#45;&gt;Node6 -->
<g id="edge10_Node000008_Node000006" class="edge">
<title>Node8&#45;&gt;Node6</title>
<g id="a_edge10_Node000008_Node000006"><a xlink:title=" ">
<path fill="none" stroke="#63b8ff" d="M262.17,-105.06C252.37,-96.93 240.83,-86.55 231.75,-76 216.15,-57.88 201.94,-33.53 194.73,-20.38"/>
<polygon fill="#63b8ff" stroke="#63b8ff" points="259.58,-108.27 269.56,-111.82 263.98,-102.82 259.58,-108.27"/>
</a>
</g>
</g>
<!-- Node9 -->
<g id="Node000009" class="node">
<title>Node9</title>
<g id="a_Node000009"><a xlink:href="window_8cpp.html" target="_top" xlink:title=" ">
<polygon fill="white" stroke="#666666" points="403.88,-20 337.62,-20 337.62,0 403.88,0 403.88,-20"/>
<text text-anchor="middle" x="370.75" y="-6.5" font-family="Helvetica,sans-Serif" font-size="10.00">window.cpp</text>
</a>
</g>
</g>
<!-- Node8&#45;&gt;Node9 -->
<g id="edge11_Node000008_Node000009" class="edge">
<title>Node8&#45;&gt;Node9</title>
<g id="a_edge11_Node000008_Node000009"><a xlink:title=" ">
<path fill="none" stroke="#63b8ff" d="M299.23,-103.83C306.91,-95.61 316.03,-85.5 323.75,-76 339.38,-56.76 356,-32.85 364.67,-20.07"/>
<polygon fill="#63b8ff" stroke="#63b8ff" points="297.2,-100.95 292.87,-110.62 302.28,-105.76 297.2,-100.95"/>
</a>
</g>
</g>
<!-- Node10 -->
<g id="Node000010" class="node">
<title>Node10</title>
<g id="a_Node000010"><a xlink:href="windowview_8h.html" target="_top" xlink:title=" ">
<polygon fill="white" stroke="#666666" points="314.62,-76 240.88,-76 240.88,-56 314.62,-56 314.62,-76"/>
<text text-anchor="middle" x="277.75" y="-62.5" font-family="Helvetica,sans-Serif" font-size="10.00">windowview.h</text>
</a>
</g>
</g>
<!-- Node8&#45;&gt;Node10 -->
<g id="edge12_Node000008_Node000010" class="edge">
<title>Node8&#45;&gt;Node10</title>
<g id="a_edge12_Node000008_Node000010"><a xlink:title=" ">
<path fill="none" stroke="#63b8ff" d="M280.87,-100.71C280.09,-92.32 279.23,-83.01 278.61,-76.3"/>
<polygon fill="#63b8ff" stroke="#63b8ff" points="277.47,-100.96 281.88,-110.59 284.44,-100.31 277.47,-100.96"/>
</a>
</g>
</g>
<!-- Node10&#45;&gt;Node6 -->
<g id="edge13_Node000010_Node000006" class="edge">
<title>Node10&#45;&gt;Node6</title>
<g id="a_edge13_Node000010_Node000006"><a xlink:title=" ">
<path fill="none" stroke="#63b8ff" d="M253.44,-50.08C238.01,-40.62 218.53,-28.66 205.2,-20.48"/>
<polygon fill="#63b8ff" stroke="#63b8ff" points="251.07,-53.35 261.42,-55.59 254.73,-47.38 251.07,-53.35"/>
</a>
</g>
</g>
<!-- Node10&#45;&gt;Node9 -->
<g id="edge14_Node000010_Node000009" class="edge">
<title>Node10&#45;&gt;Node9</title>
<g id="a_edge14_Node000010_Node000009"><a xlink:title=" ">
<path fill="none" stroke="#63b8ff" d="M303.45,-50.08C319.74,-40.62 340.34,-28.66 354.42,-20.48"/>
<polygon fill="#63b8ff" stroke="#63b8ff" points="301.84,-47.55 294.95,-55.59 305.35,-53.6 301.84,-47.55"/>
</a>
</g>
</g>
<!-- Node11 -->
<g id="Node000011" class="node">
<title>Node11</title>
<g id="a_Node000011"><a xlink:href="windowview_8cpp.html" target="_top" xlink:title=" ">
<polygon fill="white" stroke="#666666" points="319.88,-20 235.62,-20 235.62,0 319.88,0 319.88,-20"/>
<text text-anchor="middle" x="277.75" y="-6.5" font-family="Helvetica,sans-Serif" font-size="10.00">windowview.cpp</text>
</a>
</g>
</g>
<!-- Node10&#45;&gt;Node11 -->
<g id="edge15_Node000010_Node000011" class="edge">
<title>Node10&#45;&gt;Node11</title>
<g id="a_edge15_Node000010_Node000011"><a xlink:title=" ">
<path fill="none" stroke="#63b8ff" d="M277.75,-44.71C277.75,-36.32 277.75,-27.01 277.75,-20.3"/>
<polygon fill="#63b8ff" stroke="#63b8ff" points="274.25,-44.59 277.75,-54.59 281.25,-44.59 274.25,-44.59"/>
</a>
</g>
</g>
</g>
</svg>
</svg>

<style type='text/css'>
<![CDATA[
[data-mouse-over-selected='false'] { opacity: 0.7; }
[data-mouse-over-selected='true']  { opacity: 1.0; }
]]>
</style>
<script type="application/ecmascript"><![CDATA[
document.addEventListener('DOMContentLoaded', (event) => {
  highlightEdges();
  highlightAdjacentNodes();
});
]]></script>
</svg>
