<?xml version="1.0" encoding="UTF-8" standalone="no"?>
<!DOCTYPE svg PUBLIC "-//W3C//DTD SVG 1.1//EN"
 "http://www.w3.org/Graphics/SVG/1.1/DTD/svg11.dtd">
<!-- Generated by graphviz version 8.0.5 (20230430.1635)
 -->
<!-- Title: main Pages: 1 -->
<svg width="412pt" height="161pt"
 viewBox="0.00 0.00 412.25 161.00" xmlns="http://www.w3.org/2000/svg" xmlns:xlink="http://www.w3.org/1999/xlink">

<svg id="main" version="1.1" xmlns="http://www.w3.org/2000/svg" xmlns:xlink="http://www.w3.org/1999/xlink" xml:space="preserve" onload="init(evt)">
<style type="text/css"><![CDATA[
.node, .edge {opacity: 0.7;}
.node.selected, .edge.selected {opacity: 1;}
.edge:hover path { stroke: red; }
.edge:hover polygon { stroke: red; fill: red; }
]]></style>
<script type="application/ecmascript" xlink:href="svg.min.js"/>
<svg id="graph" class="graph">
<g id="graph0" class="graph" transform="scale(1 1) rotate(0) translate(4 157)">
<title>main</title>
<!-- Node1 -->
<g id="Node000001" class="node">
<title>Node1</title>
<g id="a_Node000001"><a xlink:title=" ">
<polygon fill="#999999" stroke="#666666" points="37,-96 0,-96 0,-76 37,-76 37,-96"/>
<text text-anchor="middle" x="18.5" y="-82.5" font-family="Helvetica,sans-Serif" font-size="10.00">main</text>
</a>
</g>
</g>
<!-- Node2 -->
<g id="Node000002" class="node">
<title>Node2</title>
<g id="a_Node000002"><a xlink:href="class_house_window.html#a1e3b78a84ec4197739898e442ee1e1a6" target="_top" xlink:title=" ">
<polygon fill="white" stroke="#666666" points="229.25,-153 73,-153 73,-133 229.25,-133 229.25,-153"/>
<text text-anchor="middle" x="151.12" y="-139.5" font-family="Helvetica,sans-Serif" font-size="10.00">HouseWindow::addHouseHollow</text>
</a>
</g>
</g>
<!-- Node1&#45;&gt;Node2 -->
<g id="edge1_Node000001_Node000002" class="edge">
<title>Node1&#45;&gt;Node2</title>
<g id="a_edge1_Node000001_Node000002"><a xlink:title=" ">
<path fill="none" stroke="#63b8ff" d="M31.43,-96.49C41.77,-105.06 57.46,-116.88 73,-124 77.28,-125.96 81.78,-127.73 86.38,-129.34"/>
<polygon fill="#63b8ff" stroke="#63b8ff" points="84.95,-132.87 95.54,-132.58 87.08,-126.21 84.95,-132.87"/>
</a>
</g>
</g>
<!-- Node3 -->
<g id="Node000003" class="node">
<title>Node3</title>
<g id="a_Node000003"><a xlink:href="class_central.html#ab51b1989184be843d2b5dc2a0bde3536" target="_top" xlink:title=" ">
<polygon fill="white" stroke="#666666" points="210.12,-115 92.12,-115 92.12,-95 210.12,-95 210.12,-115"/>
<text text-anchor="middle" x="151.12" y="-101.5" font-family="Helvetica,sans-Serif" font-size="10.00">Central::addNewSensor</text>
</a>
</g>
</g>
<!-- Node1&#45;&gt;Node3 -->
<g id="edge2_Node000001_Node000003" class="edge">
<title>Node1&#45;&gt;Node3</title>
<g id="a_edge2_Node000001_Node000003"><a xlink:title=" ">
<path fill="none" stroke="#63b8ff" d="M37.39,-88.6C48.97,-90.29 64.86,-92.6 81.06,-94.95"/>
<polygon fill="#63b8ff" stroke="#63b8ff" points="80.31,-98.53 90.71,-96.5 81.32,-91.6 80.31,-98.53"/>
</a>
</g>
</g>
<!-- Node4 -->
<g id="Node000004" class="node">
<title>Node4</title>
<g id="a_Node000004"><a xlink:href="class_magnetic_sensor.html#a02134a614efed87e4c3b5954a63085c9" target="_top" xlink:title=" ">
<polygon fill="white" stroke="#666666" points="214.62,-77 87.62,-77 87.62,-57 214.62,-57 214.62,-77"/>
<text text-anchor="middle" x="151.12" y="-63.5" font-family="Helvetica,sans-Serif" font-size="10.00">MagneticSensor::getView</text>
</a>
</g>
</g>
<!-- Node1&#45;&gt;Node4 -->
<g id="edge3_Node000001_Node000004" class="edge">
<title>Node1&#45;&gt;Node4</title>
<g id="a_edge3_Node000001_Node000004"><a xlink:title=" ">
<path fill="none" stroke="#63b8ff" d="M37.39,-83.4C47.9,-81.87 61.97,-79.82 76.6,-77.69"/>
<polygon fill="#63b8ff" stroke="#63b8ff" points="76.92,-81.04 86.31,-76.14 75.91,-74.11 76.92,-81.04"/>
</a>
</g>
</g>
<!-- Node5 -->
<g id="Node000005" class="node">
<title>Node5</title>
<g id="a_Node000005"><a xlink:href="class_house_window.html#afeb317a6f385d9561eb07713d456b9bd" target="_top" xlink:title=" ">
<polygon fill="white" stroke="#666666" points="215.38,-39 86.88,-39 86.88,-19 215.38,-19 215.38,-39"/>
<text text-anchor="middle" x="151.12" y="-25.5" font-family="Helvetica,sans-Serif" font-size="10.00">HouseWindow::setCentral</text>
</a>
</g>
</g>
<!-- Node1&#45;&gt;Node5 -->
<g id="edge4_Node000001_Node000005" class="edge">
<title>Node1&#45;&gt;Node5</title>
<g id="a_edge4_Node000001_Node000005"><a xlink:title=" ">
<path fill="none" stroke="#63b8ff" d="M31.43,-75.51C41.77,-66.94 57.46,-55.12 73,-48 77.28,-46.04 81.78,-44.27 86.38,-42.66"/>
<polygon fill="#63b8ff" stroke="#63b8ff" points="87.08,-45.79 95.54,-39.42 84.95,-39.13 87.08,-45.79"/>
</a>
</g>
</g>
<!-- Node6 -->
<g id="Node000006" class="node">
<title>Node6</title>
<g id="a_Node000006"><a xlink:href="class_central.html#a5db18ec0ac455c386758ff4071bdd510" target="_top" xlink:title=" ">
<polygon fill="white" stroke="#666666" points="390.38,-58 279.12,-58 279.12,-38 390.38,-38 390.38,-58"/>
<text text-anchor="middle" x="334.75" y="-44.5" font-family="Helvetica,sans-Serif" font-size="10.00">Central::labelChanged</text>
</a>
</g>
</g>
<!-- Node5&#45;&gt;Node6 -->
<g id="edge5_Node000005_Node000006" class="edge">
<title>Node5&#45;&gt;Node6</title>
<g id="a_edge5_Node000005_Node000006"><a xlink:title=" ">
<path fill="none" stroke="#63b8ff" d="M215.65,-35.65C232.68,-37.43 251.11,-39.36 268.25,-41.15"/>
<polygon fill="#63b8ff" stroke="#63b8ff" points="267.41,-44.68 277.72,-42.24 268.14,-37.72 267.41,-44.68"/>
</a>
</g>
</g>
<!-- Node7 -->
<g id="Node000007" class="node">
<title>Node7</title>
<g id="a_Node000007"><a xlink:href="class_house_window.html#ab1607fbbb564a55a77d5583a740a3306" target="_top" xlink:title=" ">
<polygon fill="white" stroke="#666666" points="404.25,-20 265.25,-20 265.25,0 404.25,0 404.25,-20"/>
<text text-anchor="middle" x="334.75" y="-6.5" font-family="Helvetica,sans-Serif" font-size="10.00">HouseWindow::updateAlarm</text>
</a>
</g>
</g>
<!-- Node5&#45;&gt;Node7 -->
<g id="edge6_Node000005_Node000007" class="edge">
<title>Node5&#45;&gt;Node7</title>
<g id="a_edge6_Node000005_Node000007"><a xlink:title=" ">
<path fill="none" stroke="#63b8ff" d="M215.65,-22.35C228.12,-21.05 241.34,-19.67 254.25,-18.32"/>
<polygon fill="#63b8ff" stroke="#63b8ff" points="254.42,-21.71 264,-17.19 253.69,-14.75 254.42,-21.71"/>
</a>
</g>
</g>
</g>
</svg>
</svg>

<style type='text/css'>
<![CDATA[
[data-mouse-over-selected='false'] { opacity: 0.7; }
[data-mouse-over-selected='true']  { opacity: 1.0; }
]]>
</style>
<script type="application/ecmascript"><![CDATA[
document.addEventListener('DOMContentLoaded', (event) => {
  highlightEdges();
  highlightAdjacentNodes();
});
]]></script>
</svg>
