<?xml version="1.0" encoding="UTF-8" standalone="no"?>
<!DOCTYPE svg PUBLIC "-//W3C//DTD SVG 1.1//EN"
 "http://www.w3.org/Graphics/SVG/1.1/DTD/svg11.dtd">
<!-- Generated by graphviz version 8.0.5 (20230430.1635)
 -->
<!-- Title: main.cpp Pages: 1 -->
<svg width="1134pt" height="308pt"
 viewBox="0.00 0.00 1134.27 308.00" xmlns="http://www.w3.org/2000/svg" xmlns:xlink="http://www.w3.org/1999/xlink">
<g id="graph0" class="graph" transform="scale(1 1) rotate(0) translate(4 304)">
<title>main.cpp</title>
<!-- Node1 -->
<g id="Node000001" class="node">
<title>Node1</title>
<g id="a_Node000001"><a xlink:title=" ">
<polygon fill="#999999" stroke="#666666" points="469.13,-300 413.38,-300 413.38,-280 469.13,-280 469.13,-300"/>
<text text-anchor="middle" x="441.25" y="-286.5" font-family="Helvetica,sans-Serif" font-size="10.00">main.cpp</text>
</a>
</g>
</g>
<!-- Node2 -->
<g id="Node000002" class="node">
<title>Node2</title>
<g id="a_Node000002"><a xlink:title=" ">
<polygon fill="#e0e0e0" stroke="#999999" points="120,-244 48.5,-244 48.5,-224 120,-224 120,-244"/>
<text text-anchor="middle" x="84.25" y="-230.5" font-family="Helvetica,sans-Serif" font-size="10.00">QApplication</text>
</a>
</g>
</g>
<!-- Node1&#45;&gt;Node2 -->
<g id="edge1_Node000001_Node000002" class="edge">
<title>Node1&#45;&gt;Node2</title>
<g id="a_edge1_Node000001_Node000002"><a xlink:title=" ">
<path fill="none" stroke="#63b8ff" d="M413.2,-285.47C360.17,-278.69 241.35,-262.97 130.75,-244.18"/>
<polygon fill="#63b8ff" stroke="#63b8ff" points="131.53,-240.59 121.08,-242.35 130.34,-247.49 131.53,-240.59"/>
</a>
</g>
</g>
<!-- Node3 -->
<g id="Node000003" class="node">
<title>Node3</title>
<g id="a_Node000003"><a xlink:title=" ">
<polygon fill="#e0e0e0" stroke="#999999" points="192,-244 138.5,-244 138.5,-224 192,-224 192,-244"/>
<text text-anchor="middle" x="165.25" y="-230.5" font-family="Helvetica,sans-Serif" font-size="10.00">iostream</text>
</a>
</g>
</g>
<!-- Node1&#45;&gt;Node3 -->
<g id="edge2_Node000001_Node000003" class="edge">
<title>Node1&#45;&gt;Node3</title>
<g id="a_edge2_Node000001_Node000003"><a xlink:title=" ">
<path fill="none" stroke="#63b8ff" d="M413.06,-284.28C369.94,-276.93 284.81,-261.95 202.83,-244.24"/>
<polygon fill="#63b8ff" stroke="#63b8ff" points="203.85,-240.66 193.34,-241.96 202.36,-247.5 203.85,-240.66"/>
</a>
</g>
</g>
<!-- Node4 -->
<g id="Node000004" class="node">
<title>Node4</title>
<g id="a_Node000004"><a xlink:title=" ">
<polygon fill="#e0e0e0" stroke="#999999" points="258.38,-244 210.13,-244 210.13,-224 258.38,-224 258.38,-244"/>
<text text-anchor="middle" x="234.25" y="-230.5" font-family="Helvetica,sans-Serif" font-size="10.00">fstream</text>
</a>
</g>
</g>
<!-- Node1&#45;&gt;Node4 -->
<g id="edge3_Node000001_Node000004" class="edge">
<title>Node1&#45;&gt;Node4</title>
<g id="a_edge3_Node000001_Node000004"><a xlink:title=" ">
<path fill="none" stroke="#63b8ff" d="M412.89,-281.79C380.44,-273.51 325.45,-259.4 269.25,-244.51"/>
<polygon fill="#63b8ff" stroke="#63b8ff" points="270.31,-240.9 259.75,-241.72 268.52,-247.67 270.31,-240.9"/>
</a>
</g>
</g>
<!-- Node5 -->
<g id="Node000005" class="node">
<title>Node5</title>
<g id="a_Node000005"><a xlink:title=" ">
<polygon fill="#e0e0e0" stroke="#999999" points="249,-132 207.5,-132 207.5,-112 249,-112 249,-132"/>
<text text-anchor="middle" x="228.25" y="-118.5" font-family="Helvetica,sans-Serif" font-size="10.00">vector</text>
</a>
</g>
</g>
<!-- Node1&#45;&gt;Node5 -->
<g id="edge4_Node000001_Node000005" class="edge">
<title>Node1&#45;&gt;Node5</title>
<g id="a_edge4_Node000001_Node000005"><a xlink:title=" ">
<path fill="none" stroke="#63b8ff" d="M438.1,-279.57C430.04,-256.9 406.51,-198.94 367.25,-168 335.81,-143.22 290.3,-131.89 260.02,-126.84"/>
<polygon fill="#63b8ff" stroke="#63b8ff" points="260.64,-123.25 250.22,-125.2 259.58,-130.17 260.64,-123.25"/>
</a>
</g>
</g>
<!-- Node6 -->
<g id="Node000006" class="node">
<title>Node6</title>
<g id="a_Node000006"><a xlink:title=" ">
<polygon fill="#e0e0e0" stroke="#999999" points="930.5,-244 868,-244 868,-224 930.5,-224 930.5,-244"/>
<text text-anchor="middle" x="899.25" y="-230.5" font-family="Helvetica,sans-Serif" font-size="10.00">QtWidgets</text>
</a>
</g>
</g>
<!-- Node1&#45;&gt;Node6 -->
<g id="edge5_Node000001_Node000006" class="edge">
<title>Node1&#45;&gt;Node6</title>
<g id="a_edge5_Node000001_Node000006"><a xlink:title=" ">
<path fill="none" stroke="#63b8ff" d="M469.28,-287.09C535.24,-282.37 705.56,-268.8 857.44,-244.13"/>
<polygon fill="#63b8ff" stroke="#63b8ff" points="857.57,-247.49 866.87,-242.42 856.44,-240.59 857.57,-247.49"/>
</a>
</g>
</g>
<!-- Node7 -->
<g id="Node000007" class="node">
<title>Node7</title>
<g id="a_Node000007"><a xlink:href="housewindow_8h.html" target="_top" xlink:title=" ">
<polygon fill="white" stroke="#666666" points="358.25,-244 276.25,-244 276.25,-224 358.25,-224 358.25,-244"/>
<text text-anchor="middle" x="317.25" y="-230.5" font-family="Helvetica,sans-Serif" font-size="10.00">housewindow.h</text>
</a>
</g>
</g>
<!-- Node1&#45;&gt;Node7 -->
<g id="edge6_Node000001_Node000007" class="edge">
<title>Node1&#45;&gt;Node7</title>
<g id="a_edge6_Node000001_Node000007"><a xlink:title=" ">
<path fill="none" stroke="#63b8ff" d="M419.65,-279.59C400.12,-271.09 371.12,-258.46 348.97,-248.81"/>
<polygon fill="#63b8ff" stroke="#63b8ff" points="350.58,-245.26 340.02,-244.48 347.79,-251.68 350.58,-245.26"/>
</a>
</g>
</g>
<!-- Node13 -->
<g id="Node000013" class="node">
<title>Node13</title>
<g id="a_Node000013"><a xlink:href="central_8h.html" target="_top" xlink:title=" ">
<polygon fill="white" stroke="#666666" points="468,-188 414.5,-188 414.5,-168 468,-168 468,-188"/>
<text text-anchor="middle" x="441.25" y="-174.5" font-family="Helvetica,sans-Serif" font-size="10.00">central.h</text>
</a>
</g>
</g>
<!-- Node1&#45;&gt;Node13 -->
<g id="edge39_Node000001_Node000013" class="edge">
<title>Node1&#45;&gt;Node13</title>
<g id="a_edge39_Node000001_Node000013"><a xlink:title=" ">
<path fill="none" stroke="#63b8ff" d="M441.25,-279.62C441.25,-261.92 441.25,-223.24 441.25,-199.32"/>
<polygon fill="#63b8ff" stroke="#63b8ff" points="444.75,-199.35 441.25,-189.35 437.75,-199.35 444.75,-199.35"/>
</a>
</g>
</g>
<!-- Node18 -->
<g id="Node000018" class="node">
<title>Node18</title>
<g id="a_Node000018"><a xlink:href="door_8h.html" target="_top" xlink:title=" ">
<polygon fill="white" stroke="#666666" points="528.75,-188 485.75,-188 485.75,-168 528.75,-168 528.75,-188"/>
<text text-anchor="middle" x="507.25" y="-174.5" font-family="Helvetica,sans-Serif" font-size="10.00">door.h</text>
</a>
</g>
</g>
<!-- Node1&#45;&gt;Node18 -->
<g id="edge18_Node000001_Node000018" class="edge">
<title>Node1&#45;&gt;Node18</title>
<g id="a_edge18_Node000001_Node000018"><a xlink:title=" ">
<path fill="none" stroke="#63b8ff" d="M446.88,-279.62C457.74,-261.52 481.78,-221.45 496.03,-197.7"/>
<polygon fill="#63b8ff" stroke="#63b8ff" points="499.49,-199.73 501.64,-189.35 493.49,-196.13 499.49,-199.73"/>
</a>
</g>
</g>
<!-- Node21 -->
<g id="Node000021" class="node">
<title>Node21</title>
<g id="a_Node000021"><a xlink:href="window_8h.html" target="_top" xlink:title=" ">
<polygon fill="white" stroke="#666666" points="602.13,-188 546.38,-188 546.38,-168 602.13,-168 602.13,-188"/>
<text text-anchor="middle" x="574.25" y="-174.5" font-family="Helvetica,sans-Serif" font-size="10.00">window.h</text>
</a>
</g>
</g>
<!-- Node1&#45;&gt;Node21 -->
<g id="edge23_Node000001_Node000021" class="edge">
<title>Node1&#45;&gt;Node21</title>
<g id="a_edge23_Node000001_Node000021"><a xlink:title=" ">
<path fill="none" stroke="#63b8ff" d="M452.59,-279.62C475.26,-260.87 526.43,-218.55 554.65,-195.21"/>
<polygon fill="#63b8ff" stroke="#63b8ff" points="556.46,-197.43 561.94,-188.35 552,-192.03 556.46,-197.43"/>
</a>
</g>
</g>
<!-- Node22 -->
<g id="Node000022" class="node">
<title>Node22</title>
<g id="a_Node000022"><a xlink:href="doorview_8h.html" target="_top" xlink:title=" ">
<polygon fill="white" stroke="#666666" points="698.75,-244 637.75,-244 637.75,-224 698.75,-224 698.75,-244"/>
<text text-anchor="middle" x="668.25" y="-230.5" font-family="Helvetica,sans-Serif" font-size="10.00">doorview.h</text>
</a>
</g>
</g>
<!-- Node1&#45;&gt;Node22 -->
<g id="edge25_Node000001_Node000022" class="edge">
<title>Node1&#45;&gt;Node22</title>
<g id="a_edge25_Node000001_Node000022"><a xlink:title=" ">
<path fill="none" stroke="#63b8ff" d="M469.54,-282.27C509.15,-272.85 581.39,-255.66 627,-244.81"/>
<polygon fill="#63b8ff" stroke="#63b8ff" points="627.5,-248.05 636.42,-242.33 625.88,-241.24 627.5,-248.05"/>
</a>
</g>
</g>
<!-- Node26 -->
<g id="Node000026" class="node">
<title>Node26</title>
<g id="a_Node000026"><a xlink:href="windowview_8h.html" target="_top" xlink:title=" ">
<polygon fill="white" stroke="#666666" points="850.13,-244 776.38,-244 776.38,-224 850.13,-224 850.13,-244"/>
<text text-anchor="middle" x="813.25" y="-230.5" font-family="Helvetica,sans-Serif" font-size="10.00">windowview.h</text>
</a>
</g>
</g>
<!-- Node1&#45;&gt;Node26 -->
<g id="edge32_Node000001_Node000026" class="edge">
<title>Node1&#45;&gt;Node26</title>
<g id="a_edge32_Node000001_Node000026"><a xlink:title=" ">
<path fill="none" stroke="#63b8ff" d="M469.52,-284.9C532.91,-275.69 687.04,-253.32 765.56,-241.92"/>
<polygon fill="#63b8ff" stroke="#63b8ff" points="765.73,-245.29 775.12,-240.39 764.72,-238.36 765.73,-245.29"/>
</a>
</g>
</g>
<!-- Node8 -->
<g id="Node000008" class="node">
<title>Node8</title>
<g id="a_Node000008"><a xlink:title=" ">
<polygon fill="#e0e0e0" stroke="#999999" points="92.75,-188 13.75,-188 13.75,-168 92.75,-168 92.75,-188"/>
<text text-anchor="middle" x="53.25" y="-174.5" font-family="Helvetica,sans-Serif" font-size="10.00">QMainWindow</text>
</a>
</g>
</g>
<!-- Node7&#45;&gt;Node8 -->
<g id="edge7_Node000007_Node000008" class="edge">
<title>Node7&#45;&gt;Node8</title>
<g id="a_edge7_Node000007_Node000008"><a xlink:title=" ">
<path fill="none" stroke="#63b8ff" d="M276,-224.56C229.39,-215.03 153.52,-199.51 103.49,-189.28"/>
<polygon fill="#63b8ff" stroke="#63b8ff" points="104.41,-185.69 93.92,-187.11 103.01,-192.55 104.41,-185.69"/>
</a>
</g>
</g>
<!-- Node9 -->
<g id="Node000009" class="node">
<title>Node9</title>
<g id="a_Node000009"><a xlink:title=" ">
<polygon fill="#e0e0e0" stroke="#999999" points="201.38,-188 111.13,-188 111.13,-168 201.38,-168 201.38,-188"/>
<text text-anchor="middle" x="156.25" y="-174.5" font-family="Helvetica,sans-Serif" font-size="10.00">QGraphicsScene</text>
</a>
</g>
</g>
<!-- Node7&#45;&gt;Node9 -->
<g id="edge8_Node000007_Node000009" class="edge">
<title>Node7&#45;&gt;Node9</title>
<g id="a_edge8_Node000007_Node000009"><a xlink:title=" ">
<path fill="none" stroke="#63b8ff" d="M289.21,-223.59C263.05,-214.82 223.8,-201.66 194.72,-191.9"/>
<polygon fill="#63b8ff" stroke="#63b8ff" points="196.11,-188.34 185.51,-188.48 193.88,-194.98 196.11,-188.34"/>
</a>
</g>
</g>
<!-- Node10 -->
<g id="Node000010" class="node">
<title>Node10</title>
<g id="a_Node000010"><a xlink:title=" ">
<polygon fill="#e0e0e0" stroke="#999999" points="726,-20 618.5,-20 618.5,0 726,0 726,-20"/>
<text text-anchor="middle" x="672.25" y="-6.5" font-family="Helvetica,sans-Serif" font-size="10.00">QGraphicsItemGroup</text>
</a>
</g>
</g>
<!-- Node7&#45;&gt;Node10 -->
<g id="edge9_Node000007_Node000010" class="edge">
<title>Node7&#45;&gt;Node10</title>
<g id="a_edge9_Node000007_Node000010"><a xlink:title=" ">
<path fill="none" stroke="#63b8ff" d="M275.8,-225.4C272.91,-224.91 270.04,-224.44 267.25,-224 208.99,-214.77 43.03,-232.45 4.25,-188 -1.59,-181.3 -1.06,-175.13 4.25,-168 76.53,-71.06 454.23,-29.14 607.51,-15.94"/>
<polygon fill="#63b8ff" stroke="#63b8ff" points="607.48,-19.37 617.15,-15.03 606.89,-12.39 607.48,-19.37"/>
</a>
</g>
</g>
<!-- Node11 -->
<g id="Node000011" class="node">
<title>Node11</title>
<g id="a_Node000011"><a xlink:title=" ">
<polygon fill="#e0e0e0" stroke="#999999" points="293.5,-188 219,-188 219,-168 293.5,-168 293.5,-188"/>
<text text-anchor="middle" x="256.25" y="-174.5" font-family="Helvetica,sans-Serif" font-size="10.00">QPushButton</text>
</a>
</g>
</g>
<!-- Node7&#45;&gt;Node11 -->
<g id="edge10_Node000007_Node000011" class="edge">
<title>Node7&#45;&gt;Node11</title>
<g id="a_edge10_Node000007_Node000011"><a xlink:title=" ">
<path fill="none" stroke="#63b8ff" d="M306.62,-223.59C297.88,-215.85 285.27,-204.69 274.85,-195.47"/>
<polygon fill="#63b8ff" stroke="#63b8ff" points="277.56,-193.31 267.75,-189.3 272.92,-198.55 277.56,-193.31"/>
</a>
</g>
</g>
<!-- Node12 -->
<g id="Node000012" class="node">
<title>Node12</title>
<g id="a_Node000012"><a xlink:title=" ">
<polygon fill="#e0e0e0" stroke="#999999" points="358.63,-188 311.88,-188 311.88,-168 358.63,-168 358.63,-188"/>
<text text-anchor="middle" x="335.25" y="-174.5" font-family="Helvetica,sans-Serif" font-size="10.00">QLabel</text>
</a>
</g>
</g>
<!-- Node7&#45;&gt;Node12 -->
<g id="edge11_Node000007_Node000012" class="edge">
<title>Node7&#45;&gt;Node12</title>
<g id="a_edge11_Node000007_Node000012"><a xlink:title=" ">
<path fill="none" stroke="#63b8ff" d="M320.39,-223.59C322.68,-216.7 325.88,-207.1 328.73,-198.57"/>
<polygon fill="#63b8ff" stroke="#63b8ff" points="332.31,-199.89 332.15,-189.3 325.67,-197.68 332.31,-199.89"/>
</a>
</g>
</g>
<!-- Node7&#45;&gt;Node13 -->
<g id="edge12_Node000007_Node000013" class="edge">
<title>Node7&#45;&gt;Node13</title>
<g id="a_edge12_Node000007_Node000013"><a xlink:title=" ">
<path fill="none" stroke="#63b8ff" d="M338.85,-223.59C358.38,-215.09 387.38,-202.46 409.53,-192.81"/>
<polygon fill="#63b8ff" stroke="#63b8ff" points="410.71,-195.68 418.48,-188.48 407.92,-189.26 410.71,-195.68"/>
</a>
</g>
</g>
<!-- Node13&#45;&gt;Node5 -->
<g id="edge15_Node000013_Node000005" class="edge">
<title>Node13&#45;&gt;Node5</title>
<g id="a_edge15_Node000013_Node000005"><a xlink:title=" ">
<path fill="none" stroke="#63b8ff" d="M414.1,-170.17C379.19,-161.39 316.68,-145.62 263.25,-132 262.13,-131.71 260.98,-131.42 259.82,-131.13"/>
<polygon fill="#63b8ff" stroke="#63b8ff" points="260.9,-127.53 250.35,-128.44 259.16,-134.31 260.9,-127.53"/>
</a>
</g>
</g>
<!-- Node14 -->
<g id="Node000014" class="node">
<title>Node14</title>
<g id="a_Node000014"><a xlink:title=" ">
<polygon fill="#e0e0e0" stroke="#999999" points="423.25,-132 371.25,-132 371.25,-112 423.25,-112 423.25,-132"/>
<text text-anchor="middle" x="397.25" y="-118.5" font-family="Helvetica,sans-Serif" font-size="10.00">QObject</text>
</a>
</g>
</g>
<!-- Node13&#45;&gt;Node14 -->
<g id="edge13_Node000013_Node000014" class="edge">
<title>Node13&#45;&gt;Node14</title>
<g id="a_edge13_Node000013_Node000014"><a xlink:title=" ">
<path fill="none" stroke="#63b8ff" d="M433.59,-167.59C427.53,-160.16 418.9,-149.58 411.58,-140.58"/>
<polygon fill="#63b8ff" stroke="#63b8ff" points="413.86,-138.84 404.83,-133.3 408.43,-143.26 413.86,-138.84"/>
</a>
</g>
</g>
<!-- Node15 -->
<g id="Node000015" class="node">
<title>Node15</title>
<g id="a_Node000015"><a xlink:title=" ">
<polygon fill="#e0e0e0" stroke="#999999" points="490.75,-132 441.75,-132 441.75,-112 490.75,-112 490.75,-132"/>
<text text-anchor="middle" x="466.25" y="-118.5" font-family="Helvetica,sans-Serif" font-size="10.00">QString</text>
</a>
</g>
</g>
<!-- Node13&#45;&gt;Node15 -->
<g id="edge14_Node000013_Node000015" class="edge">
<title>Node13&#45;&gt;Node15</title>
<g id="a_edge14_Node000013_Node000015"><a xlink:title=" ">
<path fill="none" stroke="#63b8ff" d="M445.6,-167.59C448.87,-160.55 453.44,-150.67 457.45,-142"/>
<polygon fill="#63b8ff" stroke="#63b8ff" points="460.92,-143.84 461.95,-133.3 454.57,-140.9 460.92,-143.84"/>
</a>
</g>
</g>
<!-- Node16 -->
<g id="Node000016" class="node">
<title>Node16</title>
<g id="a_Node000016"><a xlink:title=" ">
<polygon fill="#e0e0e0" stroke="#999999" points="353,-132 305.5,-132 305.5,-112 353,-112 353,-132"/>
<text text-anchor="middle" x="329.25" y="-118.5" font-family="Helvetica,sans-Serif" font-size="10.00">QTimer</text>
</a>
</g>
</g>
<!-- Node13&#45;&gt;Node16 -->
<g id="edge16_Node000013_Node000016" class="edge">
<title>Node13&#45;&gt;Node16</title>
<g id="a_edge16_Node000013_Node000016"><a xlink:title=" ">
<path fill="none" stroke="#63b8ff" d="M421.74,-167.59C404.34,-159.21 378.62,-146.8 358.72,-137.21"/>
<polygon fill="#63b8ff" stroke="#63b8ff" points="360.44,-133.67 349.91,-132.48 357.4,-139.98 360.44,-133.67"/>
</a>
</g>
</g>
<!-- Node17 -->
<g id="Node000017" class="node">
<title>Node17</title>
<g id="a_Node000017"><a xlink:href="sensor_8h.html" target="_top" xlink:title=" ">
<polygon fill="white" stroke="#666666" points="443,-76 389.5,-76 389.5,-56 443,-56 443,-76"/>
<text text-anchor="middle" x="416.25" y="-62.5" font-family="Helvetica,sans-Serif" font-size="10.00">sensor.h</text>
</a>
</g>
</g>
<!-- Node13&#45;&gt;Node17 -->
<g id="edge17_Node000013_Node000017" class="edge">
<title>Node13&#45;&gt;Node17</title>
<g id="a_edge17_Node000013_Node000017"><a xlink:title=" ">
<path fill="none" stroke="#63b8ff" d="M414.02,-170.4C374.04,-160.43 303.38,-141.68 296.25,-132 272.02,-99.12 334.84,-81.04 378.46,-72.75"/>
<polygon fill="#63b8ff" stroke="#63b8ff" points="378.84,-76.06 388.07,-70.85 377.61,-69.17 378.84,-76.06"/>
</a>
</g>
</g>
<!-- Node19 -->
<g id="Node000019" class="node">
<title>Node19</title>
<g id="a_Node000019"><a xlink:href="magneticsensor_8h.html" target="_top" xlink:title=" ">
<polygon fill="white" stroke="#666666" points="601.88,-132 508.63,-132 508.63,-112 601.88,-112 601.88,-132"/>
<text text-anchor="middle" x="555.25" y="-118.5" font-family="Helvetica,sans-Serif" font-size="10.00">magneticsensor.h</text>
</a>
</g>
</g>
<!-- Node18&#45;&gt;Node19 -->
<g id="edge19_Node000018_Node000019" class="edge">
<title>Node18&#45;&gt;Node19</title>
<g id="a_edge19_Node000018_Node000019"><a xlink:title=" ">
<path fill="none" stroke="#63b8ff" d="M515.61,-167.59C522.29,-160.08 531.82,-149.35 539.87,-140.3"/>
<polygon fill="#63b8ff" stroke="#63b8ff" points="541.96,-143.1 545.98,-133.3 536.73,-138.45 541.96,-143.1"/>
</a>
</g>
</g>
<!-- Node19&#45;&gt;Node17 -->
<g id="edge20_Node000019_Node000017" class="edge">
<title>Node19&#45;&gt;Node17</title>
<g id="a_edge20_Node000019_Node000017"><a xlink:title=" ">
<path fill="none" stroke="#63b8ff" d="M531.04,-111.59C508.85,-102.97 475.76,-90.12 450.8,-80.42"/>
<polygon fill="#63b8ff" stroke="#63b8ff" points="452.24,-76.84 441.65,-76.48 449.7,-83.36 452.24,-76.84"/>
</a>
</g>
</g>
<!-- Node20 -->
<g id="Node000020" class="node">
<title>Node20</title>
<g id="a_Node000020"><a xlink:href="magneticsensorview_8h.html" target="_top" xlink:title=" ">
<polygon fill="white" stroke="#666666" points="769.88,-76 658.63,-76 658.63,-56 769.88,-56 769.88,-76"/>
<text text-anchor="middle" x="714.25" y="-62.5" font-family="Helvetica,sans-Serif" font-size="10.00">magneticsensorview.h</text>
</a>
</g>
</g>
<!-- Node19&#45;&gt;Node20 -->
<g id="edge21_Node000019_Node000020" class="edge">
<title>Node19&#45;&gt;Node20</title>
<g id="a_edge21_Node000019_Node000020"><a xlink:title=" ">
<path fill="none" stroke="#63b8ff" d="M582.95,-111.59C608.78,-102.82 647.54,-89.66 676.26,-79.9"/>
<polygon fill="#63b8ff" stroke="#63b8ff" points="677,-83.01 685.34,-76.48 674.74,-76.38 677,-83.01"/>
</a>
</g>
</g>
<!-- Node20&#45;&gt;Node10 -->
<g id="edge22_Node000020_Node000010" class="edge">
<title>Node20&#45;&gt;Node10</title>
<g id="a_edge22_Node000020_Node000010"><a xlink:title=" ">
<path fill="none" stroke="#63b8ff" d="M706.93,-55.59C701.21,-48.24 693.09,-37.8 686.15,-28.87"/>
<polygon fill="#63b8ff" stroke="#63b8ff" points="688.38,-27.04 679.48,-21.3 682.86,-31.34 688.38,-27.04"/>
</a>
</g>
</g>
<!-- Node21&#45;&gt;Node19 -->
<g id="edge24_Node000021_Node000019" class="edge">
<title>Node21&#45;&gt;Node19</title>
<g id="a_edge24_Node000021_Node000019"><a xlink:title=" ">
<path fill="none" stroke="#63b8ff" d="M570.94,-167.59C568.52,-160.7 565.14,-151.1 562.14,-142.57"/>
<polygon fill="#63b8ff" stroke="#63b8ff" points="565.14,-141.57 558.52,-133.3 558.54,-143.89 565.14,-141.57"/>
</a>
</g>
</g>
<!-- Node22&#45;&gt;Node10 -->
<g id="edge26_Node000022_Node000010" class="edge">
<title>Node22&#45;&gt;Node10</title>
<g id="a_edge26_Node000022_Node000010"><a xlink:title=" ">
<path fill="none" stroke="#63b8ff" d="M665.04,-223.64C656.36,-197.03 634.13,-118.8 649.25,-56 651.45,-46.87 655.83,-37.5 660.19,-29.69"/>
<polygon fill="#63b8ff" stroke="#63b8ff" points="663.57,-31.86 665.71,-21.48 657.57,-28.26 663.57,-31.86"/>
</a>
</g>
</g>
<!-- Node22&#45;&gt;Node18 -->
<g id="edge30_Node000022_Node000018" class="edge">
<title>Node22&#45;&gt;Node18</title>
<g id="a_edge30_Node000022_Node000018"><a xlink:title=" ">
<path fill="none" stroke="#63b8ff" d="M640.21,-223.59C611.96,-214.12 568.46,-199.53 538.97,-189.64"/>
<polygon fill="#63b8ff" stroke="#63b8ff" points="540.39,-186.09 529.8,-186.23 538.16,-192.72 540.39,-186.09"/>
</a>
</g>
</g>
<!-- Node22&#45;&gt;Node20 -->
<g id="edge31_Node000022_Node000020" class="edge">
<title>Node22&#45;&gt;Node20</title>
<g id="a_edge31_Node000022_Node000020"><a xlink:title=" ">
<path fill="none" stroke="#63b8ff" d="M670.86,-223.6C678.13,-197.35 698.78,-122.84 708.74,-86.89"/>
<polygon fill="#63b8ff" stroke="#63b8ff" points="712.38,-87.87 711.67,-77.3 705.63,-86 712.38,-87.87"/>
</a>
</g>
</g>
<!-- Node23 -->
<g id="Node000023" class="node">
<title>Node23</title>
<g id="a_Node000023"><a xlink:title=" ">
<polygon fill="#e0e0e0" stroke="#999999" points="798,-188 696.5,-188 696.5,-168 798,-168 798,-188"/>
<text text-anchor="middle" x="747.25" y="-174.5" font-family="Helvetica,sans-Serif" font-size="10.00">QGraphicsRectItem</text>
</a>
</g>
</g>
<!-- Node22&#45;&gt;Node23 -->
<g id="edge27_Node000022_Node000023" class="edge">
<title>Node22&#45;&gt;Node23</title>
<g id="a_edge27_Node000022_Node000023"><a xlink:title=" ">
<path fill="none" stroke="#63b8ff" d="M682.01,-223.59C693.72,-215.59 710.77,-203.93 724.51,-194.54"/>
<polygon fill="#63b8ff" stroke="#63b8ff" points="726.1,-197.01 732.38,-188.48 722.15,-191.23 726.1,-197.01"/>
</a>
</g>
</g>
<!-- Node24 -->
<g id="Node000024" class="node">
<title>Node24</title>
<g id="a_Node000024"><a xlink:title=" ">
<polygon fill="#e0e0e0" stroke="#999999" points="932.5,-188 816,-188 816,-168 932.5,-168 932.5,-188"/>
<text text-anchor="middle" x="874.25" y="-174.5" font-family="Helvetica,sans-Serif" font-size="10.00">QGraphicsPolygonItem</text>
</a>
</g>
</g>
<!-- Node22&#45;&gt;Node24 -->
<g id="edge28_Node000022_Node000024" class="edge">
<title>Node22&#45;&gt;Node24</title>
<g id="a_edge28_Node000022_Node000024"><a xlink:title=" ">
<path fill="none" stroke="#63b8ff" d="M699.09,-224.92C733.22,-215.97 788.61,-201.45 827.95,-191.14"/>
<polygon fill="#63b8ff" stroke="#63b8ff" points="828.56,-194.33 837.34,-188.41 826.78,-187.56 828.56,-194.33"/>
</a>
</g>
</g>
<!-- Node25 -->
<g id="Node000025" class="node">
<title>Node25</title>
<g id="a_Node000025"><a xlink:title=" ">
<polygon fill="#e0e0e0" stroke="#999999" points="1094,-188 950.5,-188 950.5,-168 1094,-168 1094,-188"/>
<text text-anchor="middle" x="1022.25" y="-174.5" font-family="Helvetica,sans-Serif" font-size="10.00">QGraphicsSceneMouseEvent</text>
</a>
</g>
</g>
<!-- Node22&#45;&gt;Node25 -->
<g id="edge29_Node000022_Node000025" class="edge">
<title>Node22&#45;&gt;Node25</title>
<g id="a_edge29_Node000022_Node000025"><a xlink:title=" ">
<path fill="none" stroke="#63b8ff" d="M699.05,-228.3C754.47,-219.85 872.42,-201.86 949.46,-190.1"/>
<polygon fill="#63b8ff" stroke="#63b8ff" points="949.69,-193.46 959.05,-188.49 948.63,-186.54 949.69,-193.46"/>
</a>
</g>
</g>
<!-- Node26&#45;&gt;Node10 -->
<g id="edge33_Node000026_Node000010" class="edge">
<title>Node26&#45;&gt;Node10</title>
<g id="a_edge33_Node000026_Node000010"><a xlink:title=" ">
<path fill="none" stroke="#63b8ff" d="M850.37,-225.55C853.37,-225 856.36,-224.48 859.25,-224 917.44,-214.33 1083.47,-232.45 1122.25,-188 1128.09,-181.3 1126.64,-175.73 1122.25,-168 1082.99,-98.92 849.37,-45.13 735.11,-22.56"/>
<polygon fill="#63b8ff" stroke="#63b8ff" points="735.92,-18.96 725.43,-20.48 734.58,-25.83 735.92,-18.96"/>
</a>
</g>
</g>
<!-- Node26&#45;&gt;Node20 -->
<g id="edge38_Node000026_Node000020" class="edge">
<title>Node26&#45;&gt;Node20</title>
<g id="a_edge38_Node000026_Node000020"><a xlink:title=" ">
<path fill="none" stroke="#63b8ff" d="M850.38,-225.58C853.38,-225.03 856.36,-224.5 859.25,-224 968.91,-205.19 1171.33,-256.01 1103.25,-168 1064.07,-117.35 881.07,-87.41 780.65,-74.52"/>
<polygon fill="#63b8ff" stroke="#63b8ff" points="781.37,-70.95 771.01,-73.18 780.5,-77.9 781.37,-70.95"/>
</a>
</g>
</g>
<!-- Node26&#45;&gt;Node21 -->
<g id="edge37_Node000026_Node000021" class="edge">
<title>Node26&#45;&gt;Node21</title>
<g id="a_edge37_Node000026_Node000021"><a xlink:title=" ">
<path fill="none" stroke="#63b8ff" d="M775.91,-224.56C731.52,-214.53 657.81,-197.88 612.87,-187.73"/>
<polygon fill="#63b8ff" stroke="#63b8ff" points="613.89,-184.14 603.37,-185.35 612.35,-190.97 613.89,-184.14"/>
</a>
</g>
</g>
<!-- Node26&#45;&gt;Node23 -->
<g id="edge34_Node000026_Node000023" class="edge">
<title>Node26&#45;&gt;Node23</title>
<g id="a_edge34_Node000026_Node000023"><a xlink:title=" ">
<path fill="none" stroke="#63b8ff" d="M801.75,-223.59C792.2,-215.77 778.37,-204.46 767.04,-195.19"/>
<polygon fill="#63b8ff" stroke="#63b8ff" points="769.57,-191.92 759.61,-188.3 765.14,-197.34 769.57,-191.92"/>
</a>
</g>
</g>
<!-- Node26&#45;&gt;Node24 -->
<g id="edge35_Node000026_Node000024" class="edge">
<title>Node26&#45;&gt;Node24</title>
<g id="a_edge35_Node000026_Node000024"><a xlink:title=" ">
<path fill="none" stroke="#63b8ff" d="M823.88,-223.59C832.62,-215.85 845.23,-204.69 855.65,-195.47"/>
<polygon fill="#63b8ff" stroke="#63b8ff" points="857.58,-198.55 862.75,-189.3 852.94,-193.31 857.58,-198.55"/>
</a>
</g>
</g>
<!-- Node26&#45;&gt;Node25 -->
<g id="edge36_Node000026_Node000025" class="edge">
<title>Node26&#45;&gt;Node25</title>
<g id="a_edge36_Node000026_Node000025"><a xlink:title=" ">
<path fill="none" stroke="#63b8ff" d="M849.66,-223.59C884.51,-214.59 937.25,-200.96 975.26,-191.14"/>
<polygon fill="#63b8ff" stroke="#63b8ff" points="975.75,-194.37 984.56,-188.48 974,-187.59 975.75,-194.37"/>
</a>
</g>
</g>
</g>
</svg>
