<?xml version="1.0" encoding="UTF-8" standalone="no"?>
<!DOCTYPE svg PUBLIC "-//W3C//DTD SVG 1.1//EN"
 "http://www.w3.org/Graphics/SVG/1.1/DTD/svg11.dtd">
<!-- Generated by graphviz version 8.0.5 (20230430.1635)
 -->
<!-- Title: sensor.h Pages: 1 -->
<!--zoomable 252 -->

<svg id="main" version="1.1" xmlns="http://www.w3.org/2000/svg" xmlns:xlink="http://www.w3.org/1999/xlink" xml:space="preserve" onload="init(evt)">
<style type="text/css"><![CDATA[
.node, .edge {opacity: 0.7;}
.node.selected, .edge.selected {opacity: 1;}
.edge:hover path { stroke: red; }
.edge:hover polygon { stroke: red; fill: red; }
]]></style>

<defs>
  <circle id="rim" cx="0" cy="0" r="7"/>
  <circle id="rim2" cx="0" cy="0" r="3.5"/>
  <g id="zoomPlus">
    <use xlink:href="#rim" fill="#404040"><set attributeName="fill" to="#808080" begin="zoomplus.mouseover" end="zoomplus.mouseout"/></use>
    <path d="M-4,0h8M0,-4v8" fill="none" stroke="white" stroke-width="1.5" pointer-events="none"/>
  </g>
  <g id="zoomMin">
    <use xlink:href="#rim" fill="#404040"><set attributeName="fill" to="#808080" begin="zoomminus.mouseover" end="zoomminus.mouseout"/></use>
    <path d="M-4,0h8" fill="none" stroke="white" stroke-width="1.5" pointer-events="none"/>
  </g>
  <g id="arrowUp" transform="translate(30 24)">
    <use xlink:href="#rim"/>
    <path pointer-events="none" fill="none" stroke="white" stroke-width="1.5" d="M0,-3.0v7 M-2.5,-0.5L0,-3.0L2.5,-0.5"/>
  </g>
  <g id="arrowRight" transform="rotate(90) translate(36 -43)">
    <use xlink:href="#rim"/>
    <path pointer-events="none" fill="none" stroke="white" stroke-width="1.5" d="M0,-3.0v7 M-2.5,-0.5L0,-3.0L2.5,-0.5"/>
  </g>
  <g id="arrowDown" transform="rotate(180) translate(-30 -48)">
    <use xlink:href="#rim"/>
    <path pointer-events="none" fill="none" stroke="white" stroke-width="1.5" d="M0,-3.0v7 M-2.5,-0.5L0,-3.0L2.5,-0.5"/>
  </g>
  <g id="arrowLeft" transform="rotate(270) translate(-36 17)">
    <use xlink:href="#rim"/>
    <path pointer-events="none" fill="none" stroke="white" stroke-width="1.5" d="M0,-3.0v7 M-2.5,-0.5L0,-3.0L2.5,-0.5"/>
  </g>
  <g id="resetDef">
    <use xlink:href="#rim2" fill="#404040"><set attributeName="fill" to="#808080" begin="reset.mouseover" end="reset.mouseout"/></use>
  </g>
</defs>
<script type="application/ecmascript">
var viewWidth = 684;
var viewHeight = 252;
var sectionId = 'dynsection-0';
</script>
<script type="application/ecmascript" xlink:href="svg.min.js"/>
<svg id="graph" class="graph">
<g id="viewport">
<title>sensor.h</title>
<!-- Node1 -->
<g id="Node000001" class="node">
<title>Node1</title>
<g id="a_Node000001"><a xlink:title=" ">
<polygon fill="#999999" stroke="#666666" points="483,-244 429.5,-244 429.5,-224 483,-224 483,-244"/>
<text text-anchor="middle" x="456.25" y="-230.5" font-family="Helvetica,sans-Serif" font-size="10.00">sensor.h</text>
</a>
</g>
</g>
<!-- Node2 -->
<g id="Node000002" class="node">
<title>Node2</title>
<g id="a_Node000002"><a xlink:href="central_8h.html" target="_top" xlink:title=" ">
<polygon fill="white" stroke="#666666" points="194,-132 140.5,-132 140.5,-112 194,-112 194,-132"/>
<text text-anchor="middle" x="167.25" y="-118.5" font-family="Helvetica,sans-Serif" font-size="10.00">central.h</text>
</a>
</g>
</g>
<!-- Node1&#45;&gt;Node2 -->
<g id="edge1_Node000001_Node000002" class="edge">
<title>Node1&#45;&gt;Node2</title>
<g id="a_edge1_Node000001_Node000002"><a xlink:title=" ">
<path fill="none" stroke="#63b8ff" d="M421.38,-219.73C362.26,-197.22 243.75,-152.12 192.18,-132.49"/>
<polygon fill="#63b8ff" stroke="#63b8ff" points="419.77,-223.24 430.36,-223.53 422.26,-216.7 419.77,-223.24"/>
</a>
</g>
</g>
<!-- Node7 -->
<g id="Node000007" class="node">
<title>Node7</title>
<g id="a_Node000007"><a xlink:href="magnetic__sensor_8h.html" target="_top" xlink:title=" ">
<polygon fill="white" stroke="#666666" points="562.5,-188 464,-188 464,-168 562.5,-168 562.5,-188"/>
<text text-anchor="middle" x="513.25" y="-174.5" font-family="Helvetica,sans-Serif" font-size="10.00">magnetic_sensor.h</text>
</a>
</g>
</g>
<!-- Node1&#45;&gt;Node7 -->
<g id="edge7_Node000001_Node000007" class="edge">
<title>Node1&#45;&gt;Node7</title>
<g id="a_edge7_Node000001_Node000007"><a xlink:title=" ">
<path fill="none" stroke="#63b8ff" d="M474.06,-216.13C483.76,-206.94 495.38,-195.93 503.44,-188.3"/>
<polygon fill="#63b8ff" stroke="#63b8ff" points="472.03,-213.18 467.18,-222.59 476.85,-218.26 472.03,-213.18"/>
</a>
</g>
</g>
<!-- Node9 -->
<g id="Node000009" class="node">
<title>Node9</title>
<g id="a_Node000009"><a xlink:href="magneticsensor_8h.html" target="_top" xlink:title=" ">
<polygon fill="white" stroke="#666666" points="445.88,-188 352.62,-188 352.62,-168 445.88,-168 445.88,-188"/>
<text text-anchor="middle" x="399.25" y="-174.5" font-family="Helvetica,sans-Serif" font-size="10.00">magneticsensor.h</text>
</a>
</g>
</g>
<!-- Node1&#45;&gt;Node9 -->
<g id="edge9_Node000001_Node000009" class="edge">
<title>Node1&#45;&gt;Node9</title>
<g id="a_edge9_Node000001_Node000009"><a xlink:title=" ">
<path fill="none" stroke="#63b8ff" d="M438.44,-216.13C428.74,-206.94 417.12,-195.93 409.06,-188.3"/>
<polygon fill="#63b8ff" stroke="#63b8ff" points="435.65,-218.26 445.32,-222.59 440.47,-213.18 435.65,-218.26"/>
</a>
</g>
</g>
<!-- Node19 -->
<g id="Node000019" class="node">
<title>Node19</title>
<g id="a_Node000019"><a xlink:href="sensor_8cpp.html" target="_top" xlink:title=" ">
<polygon fill="white" stroke="#666666" points="644.25,-188 580.25,-188 580.25,-168 644.25,-168 644.25,-188"/>
<text text-anchor="middle" x="612.25" y="-174.5" font-family="Helvetica,sans-Serif" font-size="10.00">sensor.cpp</text>
</a>
</g>
</g>
<!-- Node1&#45;&gt;Node19 -->
<g id="edge25_Node000001_Node000019" class="edge">
<title>Node1&#45;&gt;Node19</title>
<g id="a_edge25_Node000001_Node000019"><a xlink:title=" ">
<path fill="none" stroke="#63b8ff" d="M493.66,-220.05C521.75,-210.33 559.56,-197.24 584.86,-188.48"/>
<polygon fill="#63b8ff" stroke="#63b8ff" points="492.73,-217.02 484.42,-223.59 495.02,-223.63 492.73,-217.02"/>
</a>
</g>
</g>
<!-- Node3 -->
<g id="Node000003" class="node">
<title>Node3</title>
<g id="a_Node000003"><a xlink:href="central_8cpp.html" target="_top" xlink:title=" ">
<polygon fill="white" stroke="#666666" points="169.25,-76 105.25,-76 105.25,-56 169.25,-56 169.25,-76"/>
<text text-anchor="middle" x="137.25" y="-62.5" font-family="Helvetica,sans-Serif" font-size="10.00">central.cpp</text>
</a>
</g>
</g>
<!-- Node2&#45;&gt;Node3 -->
<g id="edge2_Node000002_Node000003" class="edge">
<title>Node2&#45;&gt;Node3</title>
<g id="a_edge2_Node000002_Node000003"><a xlink:title=" ">
<path fill="none" stroke="#63b8ff" d="M156.78,-102.15C151.92,-93.4 146.36,-83.39 142.42,-76.3"/>
<polygon fill="#63b8ff" stroke="#63b8ff" points="154.11,-103.55 162.02,-110.59 160.23,-100.15 154.11,-103.55"/>
</a>
</g>
</g>
<!-- Node4 -->
<g id="Node000004" class="node">
<title>Node4</title>
<g id="a_Node000004"><a xlink:href="housewindow_8h.html" target="_top" xlink:title=" ">
<polygon fill="white" stroke="#666666" points="87.25,-76 5.25,-76 5.25,-56 87.25,-56 87.25,-76"/>
<text text-anchor="middle" x="46.25" y="-62.5" font-family="Helvetica,sans-Serif" font-size="10.00">housewindow.h</text>
</a>
</g>
</g>
<!-- Node2&#45;&gt;Node4 -->
<g id="edge3_Node000002_Node000004" class="edge">
<title>Node2&#45;&gt;Node4</title>
<g id="a_edge3_Node000002_Node000004"><a xlink:title=" ">
<path fill="none" stroke="#63b8ff" d="M136.19,-107.14C114.65,-97.52 86.51,-84.97 67.49,-76.48"/>
<polygon fill="#63b8ff" stroke="#63b8ff" points="134.62,-110.71 145.17,-111.59 137.47,-104.32 134.62,-110.71"/>
</a>
</g>
</g>
<!-- Node6 -->
<g id="Node000006" class="node">
<title>Node6</title>
<g id="a_Node000006"><a xlink:href="main_8cpp.html" target="_top" xlink:title=" ">
<polygon fill="white" stroke="#666666" points="250.12,-20 194.38,-20 194.38,0 250.12,0 250.12,-20"/>
<text text-anchor="middle" x="222.25" y="-6.5" font-family="Helvetica,sans-Serif" font-size="10.00">main.cpp</text>
</a>
</g>
</g>
<!-- Node2&#45;&gt;Node6 -->
<g id="edge6_Node000002_Node000006" class="edge">
<title>Node2&#45;&gt;Node6</title>
<g id="a_edge6_Node000002_Node000006"><a xlink:title=" ">
<path fill="none" stroke="#63b8ff" d="M176.78,-101.95C188.68,-78.14 208.57,-38.36 217.57,-20.35"/>
<polygon fill="#63b8ff" stroke="#63b8ff" points="173.28,-100.11 171.94,-110.62 179.54,-103.24 173.28,-100.11"/>
</a>
</g>
</g>
<!-- Node5 -->
<g id="Node000005" class="node">
<title>Node5</title>
<g id="a_Node000005"><a xlink:href="housewindow_8cpp.html" target="_top" xlink:title=" ">
<polygon fill="white" stroke="#666666" points="92.5,-20 0,-20 0,0 92.5,0 92.5,-20"/>
<text text-anchor="middle" x="46.25" y="-6.5" font-family="Helvetica,sans-Serif" font-size="10.00">housewindow.cpp</text>
</a>
</g>
</g>
<!-- Node4&#45;&gt;Node5 -->
<g id="edge4_Node000004_Node000005" class="edge">
<title>Node4&#45;&gt;Node5</title>
<g id="a_edge4_Node000004_Node000005"><a xlink:title=" ">
<path fill="none" stroke="#63b8ff" d="M46.25,-44.71C46.25,-36.32 46.25,-27.01 46.25,-20.3"/>
<polygon fill="#63b8ff" stroke="#63b8ff" points="42.75,-44.59 46.25,-54.59 49.75,-44.59 42.75,-44.59"/>
</a>
</g>
</g>
<!-- Node4&#45;&gt;Node6 -->
<g id="edge5_Node000004_Node000006" class="edge">
<title>Node4&#45;&gt;Node6</title>
<g id="a_edge5_Node000004_Node000006"><a xlink:title=" ">
<path fill="none" stroke="#63b8ff" d="M87.08,-52.47C119.87,-42.41 165.07,-28.54 193.98,-19.67"/>
<polygon fill="#63b8ff" stroke="#63b8ff" points="86.44,-49.31 77.91,-55.59 88.49,-56.01 86.44,-49.31"/>
</a>
</g>
</g>
<!-- Node8 -->
<g id="Node000008" class="node">
<title>Node8</title>
<g id="a_Node000008"><a xlink:href="magnetic__sensor_8cpp.html" target="_top" xlink:title=" ">
<polygon fill="white" stroke="#666666" points="675.75,-132 566.75,-132 566.75,-112 675.75,-112 675.75,-132"/>
<text text-anchor="middle" x="621.25" y="-118.5" font-family="Helvetica,sans-Serif" font-size="10.00">magnetic_sensor.cpp</text>
</a>
</g>
</g>
<!-- Node7&#45;&gt;Node8 -->
<g id="edge8_Node000007_Node000008" class="edge">
<title>Node7&#45;&gt;Node8</title>
<g id="a_edge8_Node000007_Node000008"><a xlink:title=" ">
<path fill="none" stroke="#63b8ff" d="M541.76,-162.75C560.88,-153.18 585.54,-140.85 602.29,-132.48"/>
<polygon fill="#63b8ff" stroke="#63b8ff" points="540.44,-159.99 533.06,-167.59 543.57,-166.25 540.44,-159.99"/>
</a>
</g>
</g>
<!-- Node10 -->
<g id="Node000010" class="node">
<title>Node10</title>
<g id="a_Node000010"><a xlink:href="door_8h.html" target="_top" xlink:title=" ">
<polygon fill="white" stroke="#666666" points="353.75,-132 310.75,-132 310.75,-112 353.75,-112 353.75,-132"/>
<text text-anchor="middle" x="332.25" y="-118.5" font-family="Helvetica,sans-Serif" font-size="10.00">door.h</text>
</a>
</g>
</g>
<!-- Node9&#45;&gt;Node10 -->
<g id="edge10_Node000009_Node000010" class="edge">
<title>Node9&#45;&gt;Node10</title>
<g id="a_edge10_Node000009_Node000010"><a xlink:title=" ">
<path fill="none" stroke="#63b8ff" d="M379.34,-160.95C367.75,-151.61 353.55,-140.16 343.79,-132.3"/>
<polygon fill="#63b8ff" stroke="#63b8ff" points="376.6,-164.04 386.58,-167.59 380.99,-158.59 376.6,-164.04"/>
</a>
</g>
</g>
<!-- Node14 -->
<g id="Node000014" class="node">
<title>Node14</title>
<g id="a_Node000014"><a xlink:href="magneticsensor_8cpp.html" target="_top" xlink:title=" ">
<polygon fill="white" stroke="#666666" points="549.12,-132 445.38,-132 445.38,-112 549.12,-112 549.12,-132"/>
<text text-anchor="middle" x="497.25" y="-118.5" font-family="Helvetica,sans-Serif" font-size="10.00">magneticsensor.cpp</text>
</a>
</g>
</g>
<!-- Node9&#45;&gt;Node14 -->
<g id="edge17_Node000009_Node000014" class="edge">
<title>Node9&#45;&gt;Node14</title>
<g id="a_edge17_Node000009_Node000014"><a xlink:title=" ">
<path fill="none" stroke="#63b8ff" d="M425.84,-162.35C443.09,-152.84 465.06,-140.74 480.05,-132.48"/>
<polygon fill="#63b8ff" stroke="#63b8ff" points="424.39,-159.7 417.32,-167.59 427.77,-165.83 424.39,-159.7"/>
</a>
</g>
</g>
<!-- Node15 -->
<g id="Node000015" class="node">
<title>Node15</title>
<g id="a_Node000015"><a xlink:href="window_8h.html" target="_top" xlink:title=" ">
<polygon fill="white" stroke="#666666" points="427.12,-132 371.38,-132 371.38,-112 427.12,-112 427.12,-132"/>
<text text-anchor="middle" x="399.25" y="-118.5" font-family="Helvetica,sans-Serif" font-size="10.00">window.h</text>
</a>
</g>
</g>
<!-- Node9&#45;&gt;Node15 -->
<g id="edge18_Node000009_Node000015" class="edge">
<title>Node9&#45;&gt;Node15</title>
<g id="a_edge18_Node000009_Node000015"><a xlink:title=" ">
<path fill="none" stroke="#63b8ff" d="M399.25,-156.71C399.25,-148.32 399.25,-139.01 399.25,-132.3"/>
<polygon fill="#63b8ff" stroke="#63b8ff" points="395.75,-156.59 399.25,-166.59 402.75,-156.59 395.75,-156.59"/>
</a>
</g>
</g>
<!-- Node10&#45;&gt;Node6 -->
<g id="edge16_Node000010_Node000006" class="edge">
<title>Node10&#45;&gt;Node6</title>
<g id="a_edge16_Node000010_Node000006"><a xlink:title=" ">
<path fill="none" stroke="#63b8ff" d="M301.76,-106.69C287.64,-99.01 271.35,-88.53 259.25,-76 243.01,-59.19 231.32,-33.88 225.8,-20.34"/>
<polygon fill="#63b8ff" stroke="#63b8ff" points="299.62,-110.04 310.11,-111.55 302.85,-103.83 299.62,-110.04"/>
</a>
</g>
</g>
<!-- Node11 -->
<g id="Node000011" class="node">
<title>Node11</title>
<g id="a_Node000011"><a xlink:href="door_8cpp.html" target="_top" xlink:title=" ">
<polygon fill="white" stroke="#666666" points="412,-20 358.5,-20 358.5,0 412,0 412,-20"/>
<text text-anchor="middle" x="385.25" y="-6.5" font-family="Helvetica,sans-Serif" font-size="10.00">door.cpp</text>
</a>
</g>
</g>
<!-- Node10&#45;&gt;Node11 -->
<g id="edge11_Node000010_Node000011" class="edge">
<title>Node10&#45;&gt;Node11</title>
<g id="a_edge11_Node000010_Node000011"><a xlink:title=" ">
<path fill="none" stroke="#63b8ff" d="M350.55,-104.06C358.02,-96.2 366.09,-86.32 371.25,-76 380.43,-57.62 383.61,-33.37 384.7,-20.31"/>
<polygon fill="#63b8ff" stroke="#63b8ff" points="348.48,-101.18 343.85,-110.71 353.41,-106.14 348.48,-101.18"/>
</a>
</g>
</g>
<!-- Node12 -->
<g id="Node000012" class="node">
<title>Node12</title>
<g id="a_Node000012"><a xlink:href="doorview_8h.html" target="_top" xlink:title=" ">
<polygon fill="white" stroke="#666666" points="362.75,-76 301.75,-76 301.75,-56 362.75,-56 362.75,-76"/>
<text text-anchor="middle" x="332.25" y="-62.5" font-family="Helvetica,sans-Serif" font-size="10.00">doorview.h</text>
</a>
</g>
</g>
<!-- Node10&#45;&gt;Node12 -->
<g id="edge12_Node000010_Node000012" class="edge">
<title>Node10&#45;&gt;Node12</title>
<g id="a_edge12_Node000010_Node000012"><a xlink:title=" ">
<path fill="none" stroke="#63b8ff" d="M332.25,-100.71C332.25,-92.32 332.25,-83.01 332.25,-76.3"/>
<polygon fill="#63b8ff" stroke="#63b8ff" points="328.75,-100.59 332.25,-110.59 335.75,-100.59 328.75,-100.59"/>
</a>
</g>
</g>
<!-- Node12&#45;&gt;Node6 -->
<g id="edge15_Node000012_Node000006" class="edge">
<title>Node12&#45;&gt;Node6</title>
<g id="a_edge15_Node000012_Node000006"><a xlink:title=" ">
<path fill="none" stroke="#63b8ff" d="M303.48,-50.88C283.97,-41.3 258.7,-28.89 241.56,-20.48"/>
<polygon fill="#63b8ff" stroke="#63b8ff" points="301.57,-54.33 312.09,-55.59 304.66,-48.05 301.57,-54.33"/>
</a>
</g>
</g>
<!-- Node12&#45;&gt;Node11 -->
<g id="edge13_Node000012_Node000011" class="edge">
<title>Node12&#45;&gt;Node11</title>
<g id="a_edge13_Node000012_Node000011"><a xlink:title=" ">
<path fill="none" stroke="#63b8ff" d="M349.09,-47.85C358.04,-38.72 368.71,-27.86 376.12,-20.3"/>
<polygon fill="#63b8ff" stroke="#63b8ff" points="346.99,-45.01 342.48,-54.59 351.98,-49.91 346.99,-45.01"/>
</a>
</g>
</g>
<!-- Node13 -->
<g id="Node000013" class="node">
<title>Node13</title>
<g id="a_Node000013"><a xlink:href="doorview_8cpp.html" target="_top" xlink:title=" ">
<polygon fill="white" stroke="#666666" points="340,-20 268.5,-20 268.5,0 340,0 340,-20"/>
<text text-anchor="middle" x="304.25" y="-6.5" font-family="Helvetica,sans-Serif" font-size="10.00">doorview.cpp</text>
</a>
</g>
</g>
<!-- Node12&#45;&gt;Node13 -->
<g id="edge14_Node000012_Node000013" class="edge">
<title>Node12&#45;&gt;Node13</title>
<g id="a_edge14_Node000012_Node000013"><a xlink:title=" ">
<path fill="none" stroke="#63b8ff" d="M322.33,-45.87C317.83,-37.19 312.71,-27.32 309.07,-20.3"/>
<polygon fill="#63b8ff" stroke="#63b8ff" points="319.66,-47.33 327.37,-54.59 325.88,-44.11 319.66,-47.33"/>
</a>
</g>
</g>
<!-- Node15&#45;&gt;Node6 -->
<g id="edge19_Node000015_Node000006" class="edge">
<title>Node15&#45;&gt;Node6</title>
<g id="a_edge19_Node000015_Node000006"><a xlink:title=" ">
<path fill="none" stroke="#63b8ff" d="M360.88,-108.58C339.73,-100.84 313.54,-89.74 292.25,-76 266.89,-59.63 242.21,-33.68 230.06,-20.05"/>
<polygon fill="#63b8ff" stroke="#63b8ff" points="359.52,-112.17 370.11,-112.21 361.86,-105.57 359.52,-112.17"/>
</a>
</g>
</g>
<!-- Node16 -->
<g id="Node000016" class="node">
<title>Node16</title>
<g id="a_Node000016"><a xlink:href="window_8cpp.html" target="_top" xlink:title=" ">
<polygon fill="white" stroke="#666666" points="598.38,-20 532.12,-20 532.12,0 598.38,0 598.38,-20"/>
<text text-anchor="middle" x="565.25" y="-6.5" font-family="Helvetica,sans-Serif" font-size="10.00">window.cpp</text>
</a>
</g>
</g>
<!-- Node15&#45;&gt;Node16 -->
<g id="edge20_Node000015_Node000016" class="edge">
<title>Node15&#45;&gt;Node16</title>
<g id="a_edge20_Node000015_Node000016"><a xlink:title=" ">
<path fill="none" stroke="#63b8ff" d="M437.77,-111.27C461.14,-104.09 490.69,-92.66 513.25,-76 534.41,-60.38 551.77,-34.11 560.03,-20.24"/>
<polygon fill="#63b8ff" stroke="#63b8ff" points="437.14,-108.1 428.52,-114.27 439.1,-114.82 437.14,-108.1"/>
</a>
</g>
</g>
<!-- Node17 -->
<g id="Node000017" class="node">
<title>Node17</title>
<g id="a_Node000017"><a xlink:href="windowview_8h.html" target="_top" xlink:title=" ">
<polygon fill="white" stroke="#666666" points="504.12,-76 430.38,-76 430.38,-56 504.12,-56 504.12,-76"/>
<text text-anchor="middle" x="467.25" y="-62.5" font-family="Helvetica,sans-Serif" font-size="10.00">windowview.h</text>
</a>
</g>
</g>
<!-- Node15&#45;&gt;Node17 -->
<g id="edge21_Node000015_Node000017" class="edge">
<title>Node15&#45;&gt;Node17</title>
<g id="a_edge21_Node000015_Node000017"><a xlink:title=" ">
<path fill="none" stroke="#63b8ff" d="M419.45,-104.95C431.22,-95.61 445.64,-84.16 455.54,-76.3"/>
<polygon fill="#63b8ff" stroke="#63b8ff" points="417.75,-102.63 412.09,-111.59 422.1,-108.12 417.75,-102.63"/>
</a>
</g>
</g>
<!-- Node17&#45;&gt;Node6 -->
<g id="edge22_Node000017_Node000006" class="edge">
<title>Node17&#45;&gt;Node6</title>
<g id="a_edge22_Node000017_Node000006"><a xlink:title=" ">
<path fill="none" stroke="#63b8ff" d="M419.46,-55.02C377.25,-46.13 314.07,-32.6 259.25,-20 256.42,-19.35 253.46,-18.66 250.51,-17.95"/>
<polygon fill="#63b8ff" stroke="#63b8ff" points="418.48,-58.6 428.99,-57.24 419.92,-51.75 418.48,-58.6"/>
</a>
</g>
</g>
<!-- Node17&#45;&gt;Node16 -->
<g id="edge23_Node000017_Node000016" class="edge">
<title>Node17&#45;&gt;Node16</title>
<g id="a_edge23_Node000017_Node000016"><a xlink:title=" ">
<path fill="none" stroke="#63b8ff" d="M493.84,-50.35C511.09,-40.84 533.06,-28.74 548.05,-20.48"/>
<polygon fill="#63b8ff" stroke="#63b8ff" points="492.39,-47.7 485.32,-55.59 495.77,-53.83 492.39,-47.7"/>
</a>
</g>
</g>
<!-- Node18 -->
<g id="Node000018" class="node">
<title>Node18</title>
<g id="a_Node000018"><a xlink:href="windowview_8cpp.html" target="_top" xlink:title=" ">
<polygon fill="white" stroke="#666666" points="514.38,-20 430.12,-20 430.12,0 514.38,0 514.38,-20"/>
<text text-anchor="middle" x="472.25" y="-6.5" font-family="Helvetica,sans-Serif" font-size="10.00">windowview.cpp</text>
</a>
</g>
</g>
<!-- Node17&#45;&gt;Node18 -->
<g id="edge24_Node000017_Node000018" class="edge">
<title>Node17&#45;&gt;Node18</title>
<g id="a_edge24_Node000017_Node000018"><a xlink:title=" ">
<path fill="none" stroke="#63b8ff" d="M469.13,-44.71C469.91,-36.32 470.77,-27.01 471.39,-20.3"/>
<polygon fill="#63b8ff" stroke="#63b8ff" points="465.56,-44.31 468.12,-54.59 472.53,-44.96 465.56,-44.31"/>
</a>
</g>
</g>
</g>
</svg>

<g id="navigator" transform="translate(0 0)" fill="#404254">
  <rect fill="#f2f5e9" fill-opacity="0.5" stroke="#606060" stroke-width=".5" x="0" y="0" width="60" height="60"/>
  <use id="zoomplus" xlink:href="#zoomPlus" x="17" y="9" onmousedown="handleZoom(evt,'in')"/>
  <use id="zoomminus" xlink:href="#zoomMin" x="42" y="9" onmousedown="handleZoom(evt,'out')"/>
  <use id="reset" xlink:href="#resetDef" x="30" y="36" onmousedown="handleReset()"/>
   <use id="arrowup" xlink:href="#arrowUp" x="0" y="0" onmousedown="handlePan(0,-1)"/>
  <use id="arrowright" xlink:href="#arrowRight" x="0" y="0" onmousedown="handlePan(1,0)"/>
  <use id="arrowdown" xlink:href="#arrowDown" x="0" y="0" onmousedown="handlePan(0,1)"/>
  <use id="arrowleft" xlink:href="#arrowLeft" x="0" y="0" onmousedown="handlePan(-1,0)"/>
</g>
<svg viewBox="0 0 15 15" width="100%" height="30px" preserveAspectRatio="xMaxYMin meet">
 <g id="arrow_out" transform="scale(0.3 0.3)">
  <a xlink:href="sensor_8h__dep__incl_org.svg" target="_base">
   <rect id="button" ry="5" rx="5" y="6" x="6" height="38" width="38"
        fill="#f2f5e9" fill-opacity="0.5" stroke="#606060" stroke-width="1.0"/>
   <path id="arrow"
     d="M 11.500037,31.436501 C 11.940474,20.09759 22.043105,11.32322 32.158766,21.979434 L 37.068811,17.246167 C 37.068811,17.246167 37.088388,32 37.088388,32 L 22.160133,31.978069 C 22.160133,31.978069 26.997745,27.140456 26.997745,27.140456 C 18.528582,18.264221 13.291696,25.230495 11.500037,31.436501 z"
     style="fill:#404040;"/>
  </a>
 </g>
</svg>

<style type='text/css'>
<![CDATA[
[data-mouse-over-selected='false'] { opacity: 0.7; }
[data-mouse-over-selected='true']  { opacity: 1.0; }
]]>
</style>
<script type="application/ecmascript"><![CDATA[
document.addEventListener('DOMContentLoaded', (event) => {
  highlightEdges();
  highlightAdjacentNodes();
});
]]></script>
</svg>
