<?xml version="1.0" encoding="UTF-8" standalone="no"?>
<!DOCTYPE svg PUBLIC "-//W3C//DTD SVG 1.1//EN"
 "http://www.w3.org/Graphics/SVG/1.1/DTD/svg11.dtd">
<!-- Generated by graphviz version 8.0.5 (20230430.1635)
 -->
<!-- Title: window.cpp Pages: 1 -->
<svg width="645pt" height="308pt"
 viewBox="0.00 0.00 644.50 308.00" xmlns="http://www.w3.org/2000/svg" xmlns:xlink="http://www.w3.org/1999/xlink">
<g id="graph0" class="graph" transform="scale(1 1) rotate(0) translate(4 304)">
<title>window.cpp</title>
<!-- Node1 -->
<g id="Node000001" class="node">
<title>Node1</title>
<g id="a_Node000001"><a xlink:title=" ">
<polygon fill="#999999" stroke="#666666" points="196.88,-300 130.62,-300 130.62,-280 196.88,-280 196.88,-300"/>
<text text-anchor="middle" x="163.75" y="-286.5" font-family="Helvetica,sans-Serif" font-size="10.00">window.cpp</text>
</a>
</g>
</g>
<!-- Node2 -->
<g id="Node000002" class="node">
<title>Node2</title>
<g id="a_Node000002"><a xlink:href="window_8h.html" target="_top" xlink:title=" ">
<polygon fill="white" stroke="#666666" points="144.62,-188 88.88,-188 88.88,-168 144.62,-168 144.62,-188"/>
<text text-anchor="middle" x="116.75" y="-174.5" font-family="Helvetica,sans-Serif" font-size="10.00">window.h</text>
</a>
</g>
</g>
<!-- Node1&#45;&gt;Node2 -->
<g id="edge1_Node000001_Node000002" class="edge">
<title>Node1&#45;&gt;Node2</title>
<g id="a_edge1_Node000001_Node000002"><a xlink:title=" ">
<path fill="none" stroke="#63b8ff" d="M159.74,-279.62C152.08,-261.68 135.2,-222.17 125.02,-198.35"/>
<polygon fill="#63b8ff" stroke="#63b8ff" points="127.89,-197.18 120.75,-189.35 121.46,-199.93 127.89,-197.18"/>
</a>
</g>
</g>
<!-- Node7 -->
<g id="Node000007" class="node">
<title>Node7</title>
<g id="a_Node000007"><a xlink:href="windowview_8h.html" target="_top" xlink:title=" ">
<polygon fill="white" stroke="#666666" points="247.62,-244 173.88,-244 173.88,-224 247.62,-224 247.62,-244"/>
<text text-anchor="middle" x="210.75" y="-230.5" font-family="Helvetica,sans-Serif" font-size="10.00">windowview.h</text>
</a>
</g>
</g>
<!-- Node1&#45;&gt;Node7 -->
<g id="edge6_Node000001_Node000007" class="edge">
<title>Node1&#45;&gt;Node7</title>
<g id="a_edge6_Node000001_Node000007"><a xlink:title=" ">
<path fill="none" stroke="#63b8ff" d="M171.94,-279.59C178.41,-272.16 187.62,-261.58 195.45,-252.58"/>
<polygon fill="#63b8ff" stroke="#63b8ff" points="198.73,-255.14 202.66,-245.3 193.45,-250.54 198.73,-255.14"/>
</a>
</g>
</g>
<!-- Node3 -->
<g id="Node000003" class="node">
<title>Node3</title>
<g id="a_Node000003"><a xlink:href="magneticsensor_8h.html" target="_top" xlink:title=" ">
<polygon fill="white" stroke="#666666" points="144.38,-132 51.12,-132 51.12,-112 144.38,-112 144.38,-132"/>
<text text-anchor="middle" x="97.75" y="-118.5" font-family="Helvetica,sans-Serif" font-size="10.00">magneticsensor.h</text>
</a>
</g>
</g>
<!-- Node2&#45;&gt;Node3 -->
<g id="edge2_Node000002_Node000003" class="edge">
<title>Node2&#45;&gt;Node3</title>
<g id="a_edge2_Node000002_Node000003"><a xlink:title=" ">
<path fill="none" stroke="#63b8ff" d="M113.44,-167.59C111.02,-160.7 107.64,-151.1 104.64,-142.57"/>
<polygon fill="#63b8ff" stroke="#63b8ff" points="107.64,-141.57 101.02,-133.3 101.04,-143.89 107.64,-141.57"/>
</a>
</g>
</g>
<!-- Node4 -->
<g id="Node000004" class="node">
<title>Node4</title>
<g id="a_Node000004"><a xlink:href="sensor_8h.html" target="_top" xlink:title=" ">
<polygon fill="white" stroke="#666666" points="53.5,-76 0,-76 0,-56 53.5,-56 53.5,-76"/>
<text text-anchor="middle" x="26.75" y="-62.5" font-family="Helvetica,sans-Serif" font-size="10.00">sensor.h</text>
</a>
</g>
</g>
<!-- Node3&#45;&gt;Node4 -->
<g id="edge3_Node000003_Node000004" class="edge">
<title>Node3&#45;&gt;Node4</title>
<g id="a_edge3_Node000003_Node000004"><a xlink:title=" ">
<path fill="none" stroke="#63b8ff" d="M85.38,-111.59C75,-103.7 59.94,-92.24 47.68,-82.92"/>
<polygon fill="#63b8ff" stroke="#63b8ff" points="50.05,-79.57 39.98,-76.3 45.82,-85.14 50.05,-79.57"/>
</a>
</g>
</g>
<!-- Node5 -->
<g id="Node000005" class="node">
<title>Node5</title>
<g id="a_Node000005"><a xlink:href="magneticsensorview_8h.html" target="_top" xlink:title=" ">
<polygon fill="white" stroke="#666666" points="182.38,-76 71.12,-76 71.12,-56 182.38,-56 182.38,-76"/>
<text text-anchor="middle" x="126.75" y="-62.5" font-family="Helvetica,sans-Serif" font-size="10.00">magneticsensorview.h</text>
</a>
</g>
</g>
<!-- Node3&#45;&gt;Node5 -->
<g id="edge4_Node000003_Node000005" class="edge">
<title>Node3&#45;&gt;Node5</title>
<g id="a_edge4_Node000003_Node000005"><a xlink:title=" ">
<path fill="none" stroke="#63b8ff" d="M102.8,-111.59C106.63,-104.47 112.01,-94.45 116.7,-85.72"/>
<polygon fill="#63b8ff" stroke="#63b8ff" points="120.11,-87.76 121.76,-77.3 113.94,-84.45 120.11,-87.76"/>
</a>
</g>
</g>
<!-- Node6 -->
<g id="Node000006" class="node">
<title>Node6</title>
<g id="a_Node000006"><a xlink:title=" ">
<polygon fill="#e0e0e0" stroke="#999999" points="222.5,-20 115,-20 115,0 222.5,0 222.5,-20"/>
<text text-anchor="middle" x="168.75" y="-6.5" font-family="Helvetica,sans-Serif" font-size="10.00">QGraphicsItemGroup</text>
</a>
</g>
</g>
<!-- Node5&#45;&gt;Node6 -->
<g id="edge5_Node000005_Node000006" class="edge">
<title>Node5&#45;&gt;Node6</title>
<g id="a_edge5_Node000005_Node000006"><a xlink:title=" ">
<path fill="none" stroke="#63b8ff" d="M134.07,-55.59C139.79,-48.24 147.91,-37.8 154.85,-28.87"/>
<polygon fill="#63b8ff" stroke="#63b8ff" points="158.14,-31.34 161.52,-21.3 152.62,-27.04 158.14,-31.34"/>
</a>
</g>
</g>
<!-- Node7&#45;&gt;Node2 -->
<g id="edge11_Node000007_Node000002" class="edge">
<title>Node7&#45;&gt;Node2</title>
<g id="a_edge11_Node000007_Node000002"><a xlink:title=" ">
<path fill="none" stroke="#63b8ff" d="M194.38,-223.59C180.04,-215.36 158.98,-203.26 142.4,-193.74"/>
<polygon fill="#63b8ff" stroke="#63b8ff" points="144.67,-190.43 134.25,-188.48 141.18,-196.5 144.67,-190.43"/>
</a>
</g>
</g>
<!-- Node7&#45;&gt;Node5 -->
<g id="edge12_Node000007_Node000005" class="edge">
<title>Node7&#45;&gt;Node5</title>
<g id="a_edge12_Node000007_Node000005"><a xlink:title=" ">
<path fill="none" stroke="#63b8ff" d="M206.77,-223.74C197.88,-203.27 175.51,-152.77 153.75,-112 149.04,-103.18 143.41,-93.66 138.52,-85.66"/>
<polygon fill="#63b8ff" stroke="#63b8ff" points="141.08,-84.14 132.83,-77.5 135.13,-87.84 141.08,-84.14"/>
</a>
</g>
</g>
<!-- Node7&#45;&gt;Node6 -->
<g id="edge7_Node000007_Node000006" class="edge">
<title>Node7&#45;&gt;Node6</title>
<g id="a_edge7_Node000007_Node000006"><a xlink:title=" ">
<path fill="none" stroke="#63b8ff" d="M210.93,-223.55C211.19,-196.7 210.2,-117.9 191.75,-56 189.03,-46.88 184.49,-37.41 180.15,-29.52"/>
<polygon fill="#63b8ff" stroke="#63b8ff" points="182.8,-28.11 174.75,-21.23 176.75,-31.63 182.8,-28.11"/>
</a>
</g>
</g>
<!-- Node8 -->
<g id="Node000008" class="node">
<title>Node8</title>
<g id="a_Node000008"><a xlink:title=" ">
<polygon fill="#e0e0e0" stroke="#999999" points="340.5,-188 239,-188 239,-168 340.5,-168 340.5,-188"/>
<text text-anchor="middle" x="289.75" y="-174.5" font-family="Helvetica,sans-Serif" font-size="10.00">QGraphicsRectItem</text>
</a>
</g>
</g>
<!-- Node7&#45;&gt;Node8 -->
<g id="edge8_Node000007_Node000008" class="edge">
<title>Node7&#45;&gt;Node8</title>
<g id="a_edge8_Node000007_Node000008"><a xlink:title=" ">
<path fill="none" stroke="#63b8ff" d="M224.51,-223.59C236.22,-215.59 253.27,-203.93 267.01,-194.54"/>
<polygon fill="#63b8ff" stroke="#63b8ff" points="268.6,-197.01 274.88,-188.48 264.65,-191.23 268.6,-197.01"/>
</a>
</g>
</g>
<!-- Node9 -->
<g id="Node000009" class="node">
<title>Node9</title>
<g id="a_Node000009"><a xlink:title=" ">
<polygon fill="#e0e0e0" stroke="#999999" points="475,-188 358.5,-188 358.5,-168 475,-168 475,-188"/>
<text text-anchor="middle" x="416.75" y="-174.5" font-family="Helvetica,sans-Serif" font-size="10.00">QGraphicsPolygonItem</text>
</a>
</g>
</g>
<!-- Node7&#45;&gt;Node9 -->
<g id="edge9_Node000007_Node000009" class="edge">
<title>Node7&#45;&gt;Node9</title>
<g id="a_edge9_Node000007_Node000009"><a xlink:title=" ">
<path fill="none" stroke="#63b8ff" d="M246.63,-223.59C280.84,-214.63 332.53,-201.08 369.95,-191.27"/>
<polygon fill="#63b8ff" stroke="#63b8ff" points="370.8,-194.4 379.59,-188.48 369.03,-187.63 370.8,-194.4"/>
</a>
</g>
</g>
<!-- Node10 -->
<g id="Node000010" class="node">
<title>Node10</title>
<g id="a_Node000010"><a xlink:title=" ">
<polygon fill="#e0e0e0" stroke="#999999" points="636.5,-188 493,-188 493,-168 636.5,-168 636.5,-188"/>
<text text-anchor="middle" x="564.75" y="-174.5" font-family="Helvetica,sans-Serif" font-size="10.00">QGraphicsSceneMouseEvent</text>
</a>
</g>
</g>
<!-- Node7&#45;&gt;Node10 -->
<g id="edge10_Node000007_Node000010" class="edge">
<title>Node7&#45;&gt;Node10</title>
<g id="a_edge10_Node000007_Node000010"><a xlink:title=" ">
<path fill="none" stroke="#63b8ff" d="M247.97,-227.32C305.66,-218.52 417.76,-201.42 491.94,-190.11"/>
<polygon fill="#63b8ff" stroke="#63b8ff" points="492.24,-193.45 501.6,-188.48 491.19,-186.53 492.24,-193.45"/>
</a>
</g>
</g>
</g>
</svg>
