<?xml version="1.0" encoding="UTF-8" standalone="no"?>
<!DOCTYPE svg PUBLIC "-//W3C//DTD SVG 1.1//EN"
 "http://www.w3.org/Graphics/SVG/1.1/DTD/svg11.dtd">
<!-- Generated by graphviz version 8.0.5 (20230430.1635)
 -->
<!-- Title: windowview.h Pages: 1 -->
<svg width="550pt" height="252pt"
 viewBox="0.00 0.00 550.27 252.00" xmlns="http://www.w3.org/2000/svg" xmlns:xlink="http://www.w3.org/1999/xlink">
<g id="graph0" class="graph" transform="scale(1 1) rotate(0) translate(4 248)">
<title>windowview.h</title>
<!-- Node1 -->
<g id="Node000001" class="node">
<title>Node1</title>
<g id="a_Node000001"><a xlink:title=" ">
<polygon fill="#999999" stroke="#666666" points="312.52,-244 238.77,-244 238.77,-224 312.52,-224 312.52,-244"/>
<text text-anchor="middle" x="275.64" y="-230.5" font-family="Helvetica,sans-Serif" font-size="10.00">windowview.h</text>
</a>
</g>
</g>
<!-- Node2 -->
<g id="Node000002" class="node">
<title>Node2</title>
<g id="a_Node000002"><a xlink:title=" ">
<polygon fill="#e0e0e0" stroke="#999999" points="313.39,-20 205.89,-20 205.89,0 313.39,0 313.39,-20"/>
<text text-anchor="middle" x="259.64" y="-6.5" font-family="Helvetica,sans-Serif" font-size="10.00">QGraphicsItemGroup</text>
</a>
</g>
</g>
<!-- Node1&#45;&gt;Node2 -->
<g id="edge1_Node000001_Node000002" class="edge">
<title>Node1&#45;&gt;Node2</title>
<g id="a_edge1_Node000001_Node000002"><a xlink:title=" ">
<path fill="none" stroke="#63b8ff" d="M238.41,-232.24C173.26,-230.04 42.82,-221.45 14.64,-188 -50.91,-110.18 123.42,-48.7 211.83,-23.45"/>
<polygon fill="#63b8ff" stroke="#63b8ff" points="212.74,-26.55 221.42,-20.48 210.85,-19.81 212.74,-26.55"/>
</a>
</g>
</g>
<!-- Node3 -->
<g id="Node000003" class="node">
<title>Node3</title>
<g id="a_Node000003"><a xlink:title=" ">
<polygon fill="#e0e0e0" stroke="#999999" points="125.39,-188 23.89,-188 23.89,-168 125.39,-168 125.39,-188"/>
<text text-anchor="middle" x="74.64" y="-174.5" font-family="Helvetica,sans-Serif" font-size="10.00">QGraphicsRectItem</text>
</a>
</g>
</g>
<!-- Node1&#45;&gt;Node3 -->
<g id="edge2_Node000001_Node000003" class="edge">
<title>Node1&#45;&gt;Node3</title>
<g id="a_edge2_Node000001_Node000003"><a xlink:title=" ">
<path fill="none" stroke="#63b8ff" d="M240.63,-223.59C207.26,-214.63 156.82,-201.08 120.3,-191.27"/>
<polygon fill="#63b8ff" stroke="#63b8ff" points="121.49,-187.69 110.93,-188.48 119.68,-194.45 121.49,-187.69"/>
</a>
</g>
</g>
<!-- Node4 -->
<g id="Node000004" class="node">
<title>Node4</title>
<g id="a_Node000004"><a xlink:title=" ">
<polygon fill="#e0e0e0" stroke="#999999" points="259.89,-188 143.39,-188 143.39,-168 259.89,-168 259.89,-188"/>
<text text-anchor="middle" x="201.64" y="-174.5" font-family="Helvetica,sans-Serif" font-size="10.00">QGraphicsPolygonItem</text>
</a>
</g>
</g>
<!-- Node1&#45;&gt;Node4 -->
<g id="edge3_Node000001_Node000004" class="edge">
<title>Node1&#45;&gt;Node4</title>
<g id="a_edge3_Node000001_Node000004"><a xlink:title=" ">
<path fill="none" stroke="#63b8ff" d="M262.75,-223.59C251.82,-215.62 235.92,-204.02 223.08,-194.64"/>
<polygon fill="#63b8ff" stroke="#63b8ff" points="225.52,-191.37 215.38,-188.3 221.4,-197.02 225.52,-191.37"/>
</a>
</g>
</g>
<!-- Node5 -->
<g id="Node000005" class="node">
<title>Node5</title>
<g id="a_Node000005"><a xlink:title=" ">
<polygon fill="#e0e0e0" stroke="#999999" points="421.39,-188 277.89,-188 277.89,-168 421.39,-168 421.39,-188"/>
<text text-anchor="middle" x="349.64" y="-174.5" font-family="Helvetica,sans-Serif" font-size="10.00">QGraphicsSceneMouseEvent</text>
</a>
</g>
</g>
<!-- Node1&#45;&gt;Node5 -->
<g id="edge4_Node000001_Node000005" class="edge">
<title>Node1&#45;&gt;Node5</title>
<g id="a_edge4_Node000001_Node000005"><a xlink:title=" ">
<path fill="none" stroke="#63b8ff" d="M288.53,-223.59C299.46,-215.62 315.36,-204.02 328.2,-194.64"/>
<polygon fill="#63b8ff" stroke="#63b8ff" points="329.88,-197.02 335.9,-188.3 325.76,-191.37 329.88,-197.02"/>
</a>
</g>
</g>
<!-- Node6 -->
<g id="Node000006" class="node">
<title>Node6</title>
<g id="a_Node000006"><a xlink:href="window_8h.html" target="_top" xlink:title=" ">
<polygon fill="white" stroke="#666666" points="495.52,-188 439.77,-188 439.77,-168 495.52,-168 495.52,-188"/>
<text text-anchor="middle" x="467.64" y="-174.5" font-family="Helvetica,sans-Serif" font-size="10.00">window.h</text>
</a>
</g>
</g>
<!-- Node1&#45;&gt;Node6 -->
<g id="edge5_Node000001_Node000006" class="edge">
<title>Node1&#45;&gt;Node6</title>
<g id="a_edge5_Node000001_Node000006"><a xlink:title=" ">
<path fill="none" stroke="#63b8ff" d="M309.09,-223.59C342.58,-214.17 394.07,-199.69 429.22,-189.81"/>
<polygon fill="#63b8ff" stroke="#63b8ff" points="429.89,-192.97 438.57,-186.9 427.99,-186.23 429.89,-192.97"/>
</a>
</g>
</g>
<!-- Node9 -->
<g id="Node000009" class="node">
<title>Node9</title>
<g id="a_Node000009"><a xlink:href="magneticsensorview_8h.html" target="_top" xlink:title=" ">
<polygon fill="white" stroke="#666666" points="542.27,-76 431.02,-76 431.02,-56 542.27,-56 542.27,-76"/>
<text text-anchor="middle" x="486.64" y="-62.5" font-family="Helvetica,sans-Serif" font-size="10.00">magneticsensorview.h</text>
</a>
</g>
</g>
<!-- Node1&#45;&gt;Node9 -->
<g id="edge10_Node000001_Node000009" class="edge">
<title>Node1&#45;&gt;Node9</title>
<g id="a_edge10_Node000001_Node000009"><a xlink:title=" ">
<path fill="none" stroke="#63b8ff" d="M312.75,-231.24C371.25,-227.61 480.77,-217.02 504.64,-188 528.6,-158.88 510.67,-111.95 497.43,-85.93"/>
<polygon fill="#63b8ff" stroke="#63b8ff" points="500.16,-84.61 492.34,-77.46 493.99,-87.92 500.16,-84.61"/>
</a>
</g>
</g>
<!-- Node7 -->
<g id="Node000007" class="node">
<title>Node7</title>
<g id="a_Node000007"><a xlink:href="magneticsensor_8h.html" target="_top" xlink:title=" ">
<polygon fill="white" stroke="#666666" points="495.27,-132 402.02,-132 402.02,-112 495.27,-112 495.27,-132"/>
<text text-anchor="middle" x="448.64" y="-118.5" font-family="Helvetica,sans-Serif" font-size="10.00">magneticsensor.h</text>
</a>
</g>
</g>
<!-- Node6&#45;&gt;Node7 -->
<g id="edge6_Node000006_Node000007" class="edge">
<title>Node6&#45;&gt;Node7</title>
<g id="a_edge6_Node000006_Node000007"><a xlink:title=" ">
<path fill="none" stroke="#63b8ff" d="M464.33,-167.59C461.91,-160.7 458.53,-151.1 455.53,-142.57"/>
<polygon fill="#63b8ff" stroke="#63b8ff" points="458.53,-141.57 451.91,-133.3 451.93,-143.89 458.53,-141.57"/>
</a>
</g>
</g>
<!-- Node8 -->
<g id="Node000008" class="node">
<title>Node8</title>
<g id="a_Node000008"><a xlink:href="sensor_8h.html" target="_top" xlink:title=" ">
<polygon fill="white" stroke="#666666" points="413.39,-76 359.89,-76 359.89,-56 413.39,-56 413.39,-76"/>
<text text-anchor="middle" x="386.64" y="-62.5" font-family="Helvetica,sans-Serif" font-size="10.00">sensor.h</text>
</a>
</g>
</g>
<!-- Node7&#45;&gt;Node8 -->
<g id="edge7_Node000007_Node000008" class="edge">
<title>Node7&#45;&gt;Node8</title>
<g id="a_edge7_Node000007_Node000008"><a xlink:title=" ">
<path fill="none" stroke="#63b8ff" d="M437.84,-111.59C428.95,-103.85 416.14,-92.69 405.55,-83.47"/>
<polygon fill="#63b8ff" stroke="#63b8ff" points="408.16,-80.23 398.32,-76.3 403.56,-85.51 408.16,-80.23"/>
</a>
</g>
</g>
<!-- Node7&#45;&gt;Node9 -->
<g id="edge8_Node000007_Node000009" class="edge">
<title>Node7&#45;&gt;Node9</title>
<g id="a_edge8_Node000007_Node000009"><a xlink:title=" ">
<path fill="none" stroke="#63b8ff" d="M455.26,-111.59C460.38,-104.32 467.63,-94.02 473.87,-85.15"/>
<polygon fill="#63b8ff" stroke="#63b8ff" points="477.21,-87.49 480.1,-77.3 471.48,-83.46 477.21,-87.49"/>
</a>
</g>
</g>
<!-- Node9&#45;&gt;Node2 -->
<g id="edge9_Node000009_Node000002" class="edge">
<title>Node9&#45;&gt;Node2</title>
<g id="a_edge9_Node000009_Node000002"><a xlink:title=" ">
<path fill="none" stroke="#63b8ff" d="M446.84,-55.53C408.79,-46.48 351.27,-32.8 310.03,-22.99"/>
<polygon fill="#63b8ff" stroke="#63b8ff" points="310.93,-19.37 300.4,-20.46 309.31,-26.18 310.93,-19.37"/>
</a>
</g>
</g>
</g>
</svg>
